<svg width="500" height="500" viewBox="0 0 500 500" xmlns="http://www.w3.org/2000/svg" xmlns:xlink="http://www.w3.org/1999/xlink"><title>atlanta-hawks</title><defs><path id="a" d="M0 383.6726h384.1577V.3834H0z"/></defs><g fill="none" fill-rule="evenodd"><g transform="translate(57.6923 57.77)"><mask id="b" fill="#fff"><use xlink:href="#a"/></mask><path d="M333.1658 60.7127C297.1978 22.3647 244.8311.3757 189.4713.3757c-4.7306 0-9.4866.1519-14.1919.4808C85.9554 6.9042 42.771 70.2143 38.294 77.1855c-6.5823 8.3502-63.2738 84.717-25.3019 190.2465l.7102 2.2774c.3678 1.1387 37.3378 113.9683 169.5164 113.9683h.0254c7.077 0 14.4456-.329 21.865-.9869 98.709-8.6412 172.1416-81.415 178.5844-176.9115 3.6653-54.8712-14.2807-106.3898-50.5277-145.0666" fill="#FEFEFE" fill-rule="nonzero" mask="url(#b)"/></g><path d="M351.9667 293.0903c13.4056-29.403 6.6584-61.3744-15.9294-86.6022-6.2779-6.9965-14.103-11.7663-21.6746-16.3843-4.9209-2.9985-10.0193-6.0982-14.585-9.7799-2.1435-1.7333-3.9063-4.0612-5.7707-6.541-2.321-3.0744-4.9462-6.5663-8.713-9.2865-20.939-15.1064-45.5688-20.6352-69.8941-27.8089-11.4905-3.378-22.6766-5.8831-33.2032-9.6154 12.987-9.0082 29.7028-14.828 47.9278-16.5993 5.7325-.5567 11.4524-.8477 17.0328-.8477 53.7364 0 100.6622 26.9992 125.5456 72.217 24.9087 45.3065 23.2727 100.279-4.3121 143.4852-28.333 44.3829-78.5944 67.9913-135.4762 63.3101-34.0275-2.7834-70.2873-20.7997-81.448-39.8661 6.912-4.2384 69.0444-37.0954 111.5567-23.8615 12.188.038-7.3052 29.479-7.3052 29.479s70.9467-5.8452 96.2486-61.2985m29.4492-166.1068c-37.0334-39.4739-91.8732-59.7422-147.8418-55.9593-88.842 6.035-128.247 71.9387-128.247 71.9387s70.3888 21.2805 80.091 24.279c6.5823 2.0496 50.5277 12.8796 70.338 23.7602 4.1346 2.2647 8.193 6.8067 12.188 11.0451 2.9678 3.1377 5.758 6.1109 8.6623 8.4895 5.1999 4.251 10.2983 7.9327 15.2192 11.4879 12.2134 8.8057 22.7527 16.3968 27.6482 27.9607 4.2487 10.0456 4.4135 20.4581.4692 30.1368-3.4243 8.4262-9.867 15.9287-17.8698 21.0654.8117-4.2637 1.9024-10.3619-3.8682-14.1575-2.4605-1.6068-15.7519-4.7318-24.6424-5.6174-4.2487-.4428-51.8087-2.6569-117.8473 32.9076 19.8103-26.3413 33.9895-30.7315 33.9895-30.7315-.5326-3.1756-106.826 39.7776-106.826 39.7776s36.6656 117.1692 178.5845 104.7197c92.3298-8.1098 161.1205-75.4685 167.1574-165.3856 3.4497-51.3667-13.3168-99.5704-47.2048-135.7169" fill="#E0393D" fill-rule="nonzero"/><path d="M246.8009 203.9804c-22.8161.8983-43.7932-26.455-61.3968-8.54 3.4117.8603 10.349-1.7839 11.4271 1.417-9.0427 35.362 49.5765 44.4714 49.9697 7.123" fill="#E0393D" fill-rule="nonzero"/><path d="M0 0h500v500H0z"/></g></svg>