<svg width="500" height="500" viewBox="0 0 500 500" xmlns="http://www.w3.org/2000/svg" xmlns:xlink="http://www.w3.org/1999/xlink"><title>chicago-bulls</title><defs><path id="a" d="M422.973.2438H.0027v425.6143H422.973z"/></defs><g fill="none" fill-rule="evenodd"><g transform="translate(38.4615 19.862)"><mask id="b" fill="#fff"><use xlink:href="#a"/></mask><path d="M389.5002 209.9471l-16.8616-5.6536c25.7636-10.4263 52.6541-31.2482 50.175-74.7766-1.7107-30.1216-14.8435-56.4435-22.7006-72.1956L371.5732.2428l5.6752 61.503c1.762 19.2754 1.1268 44.6755-6.126 58.4612-9.6805 20.1254-41.7852 17.9132-53.279 17.145C297.54 136 231.415 133.747 211.3572 133.747c-26.7982.1126-56.1985 2.2737-80.1182 4.0353-11.3811.8398-21.2051 1.567-27.8125 1.8128-.6863.0205-1.68.1127-3.0117.2356C58.486 143.702 51.3562 124.058 49 117.5953c-4.3435-11.9114-4.2308-38.6123-4.1796-50.114l.1844-50.114-22.004 40.6812C16.4651 70.1442 4.3055 92.6355.1668 130.623c-2.7965 53.4938 30.8857 69.0718 41.9492 74.1825 1.4957.6965 2.9913 1.3417 4.4869 1.946-.9117.2868-1.7722.5633-2.5917.8501-7.2118 2.458-14.7002 5.8789-16.964 6.9338l-12.5695 5.9813 8.2055 11.4096c1.0346 1.4031 3.7698 5.0083 6.7815 7.9682 7.601 7.4767 26.7778 19.3471 50.2263 16.4384 8.2054-1.014 14.6899-2.4888 19.6992-3.9944.8707 2.54 1.8337 5.203 2.817 7.6405 7.1914 17.862 23.5305 51.8654 29.677 63.6846 4.0463 7.7839 8.0825 14.8816 11.2069 20.2791l-.2766.2356c-.6864.6145-1.2805 1.147-2.1103 1.987l-2.7863 3.3183-.1742 3.9227c-.1741 3.6973-1.0141 36.7891 21.8812 61.4313l1.9054 1.8436 2.2024.8398c10.7562 4.1173 24.77 8.337 47.2043 8.337 23.1207 0 42.4921-5.5512 49.9293-9.31l2.1614-1.1573 1.4137-1.6695c15.5402-18.3843 22.3729-45.3207 22.6802-56.5664l.2459-.3175-.2356-.1843-.3074-4.5167-4.3024-4.3631c-.9425-.9013-1.6596-1.5875-2.2435-2.5298 1.6083-3.175 3.5752-7.2615 5.7162-11.7373l.4405-.9217c1.26-2.622 2.3254-4.8547 2.9502-6.0735 5.9416-11.5632 23.2744-48.7416 30.1481-66.3065 1.4547-3.6974 2.6737-6.7495 3.7083-9.2485 4.9479 1.4953 11.463 2.9292 19.8017 3.7895 23.428 2.4376 45.6165-12.0446 53.2892-22.5938.4098-.553.9835-1.2495 1.383-1.7309l10.5615-12.3928-14.3825-6.4934c-.1947-.082-1.0859-.4609-4.3947-1.5875" fill="#FEFEFE" fill-rule="nonzero" mask="url(#b)"/></g><path d="M451.0507 149.9586c-1.5981-28.0425-14.1572-53.1968-21.6558-68.232l-.8913-1.7924-3.2678-6.524.6659 7.2717c.922 10.0474 3.1449 44.3785-7.0889 63.828-12.682 26.3833-49.9907 23.833-62.2527 22.983l-.9322-.0615c-20.15-1.3417-85.691-3.6666-105.7693-3.5847-26.5524.1127-55.8502 2.2737-79.4012 4.0046-11.5245.8501-21.4919 1.5875-28.2017 1.8436-.5429.0205-1.342.0922-2.4278.1946-33.0164 3.0726-53.8732-6.6573-61.9966-28.9234-4.9786-13.6627-4.8455-40.6708-4.7942-53.6474l.0102-3.8817.0205-5.4487-2.5917 4.7932c-6.2079 11.471-17.7426 32.8255-21.6251 68.2423-2.1717 41.7462 19.5148 56.72 36.0281 64.3503 17.2407 7.9785 34.8603 9.1256 40.6482 9.5045l.42.0307-.164-.0205c1.1884.2151 2.5508.2766 3.985.338 1.7825.082 3.7083.1844 5.6854.5531-3.1244.6043-7.2322 1.311-10.8381 1.9255-3.8415.6555-7.4679 1.2802-9.3528 1.6797-3.9132.8296-20.529 4.7113-29.4822 7.7634-7.601 2.6014-15.786 6.4627-15.868 6.4934l-1.4956.7067.9732 1.3417c.1127.1536 2.858 3.9636 5.7162 6.77 5.8493 5.756 22.127 16.0184 41.7852 13.5705 15.7143-1.946 24.1348-5.592 27.3822-7.3127 1.0141 3.3798 3.4522 11.2047 5.9005 17.2987 7.0786 17.5957 23.1924 51.1176 29.2569 62.773 4.9069 9.4328 9.7727 17.8108 12.9996 23.3517l1.1576 1.9972c-1.0552 3.6154-3.5752 5.8686-5.46 7.5176-.502.4404-.9323.8193-1.301 1.1983l-.3688.3687-.0205.5223c-.1537 3.2467-.9117 32.3851 18.9104 53.7294l.2151.2356.297.1126c9.8753 3.7793 22.7725 7.661 43.537 7.661 21.1846 0 38.999-5.0288 45.2478-8.1833l.256-.123.1845-.215c13.8294-16.3564 20.1192-40.9576 20.2728-49.8989v-.5735l-.3995-.4097c-.338-.3482-.6966-.6965-1.0756-1.055-2.1512-2.0688-4.8147-4.6293-6.341-10.6823 1.6902-2.8882 4.9888-9.781 7.6727-15.3937 1.5059-3.1443 2.7966-5.8584 3.5137-7.2513 5.8596-11.3993 22.9465-48.045 29.728-65.3642 4.2923-10.9487 6.6996-16.4282 7.7445-18.6916 3.0015 1.6182 11.084 5.2029 26.3578 6.7801 19.8119 2.0484 38.7018-11.215 43.957-18.4355.881-1.2188 2.3868-2.9702 2.397-2.9804l1.1884-1.393-1.6595-.7476c-.1127-.0512-.7888-.338-3.739-1.352l-10.9612-3.6665-10.9303-3.6667c-2.981-1.014-16.3597-3.9124-26.112-6.0325l-7.3961-1.608 2.4176-.4404c22.6187-4.0046 82.71-14.646 79.3295-74.1416" fill="#2D2925" fill-rule="nonzero"/><path d="M53.9781 137.9069c3.2986-17.053 8.7484-32.9997 16.1855-48.3114l.082-.1844h.3585v.3278-.3278h.3278l-.0102.338c-.2049 4.5782-.338 9.2895-.338 14.0418 0 11.2969.7785 22.7884 3.2985 33.1123l.2459 1.0037-.7683-.6862c-3.2884-2.9395-6.5562-6.309-9.9572-9.228-2.9913 3.349-5.8596 6.985-8.8816 10.1907l-.758.8091.2151-1.0856zM445.2331 130.9116l-.3073.0717.297-.0922c-4.3639-14.4002-8.2669-28.9848-15.407-42.1969l-.6043.1639c.2868 4.5781.4302 9.1256.4302 13.6423 0 11.051-.8605 21.887-2.6532 32.4056l-.1024.6145.5634-.2765c3.5035-1.69 6.8225-3.9637 10.408-5.4897l8.6254 6.2373-1.2498-5.08zM304.2143 284.9303l-.6659.297c-4.9068 2.1611-9.9366 4.312-15.2533 5.3669-3.442.8808-6.9352 1.3417-10.3874 1.3417-10.787-.0103-21.0924-4.4655-27.4641-14.2261l-.205-.3175-.2765.256c-1.2805 1.1266-2.059 2.5298-3.3908 3.728-6.7917 7.8147-16.6465 10.8156-26.7163 10.8156-7.8162 0-15.7553-1.8128-22.3934-4.5782l-.6863-.2765.256.6965c5.1016 13.4886 8.226 28.4624 8.226 43.5079 0 6.7494-.6249 13.4989-1.9873 20.1459-.9322 4.6601-2.4893 9.4943-3.7288 14.0417l-.205.7067.6557-.338c14.3723-7.6097 31.9203-11.471 49.417-11.471 16.5646 0 33.0881 3.4516 46.8356 10.4264 2.2639.932 4.3844 2.5093 6.4537 3.175l.6146.1946-.2049-.6043c-4.0054-11.8704-6.3717-24.4783-6.3717-37.6802v-.5633a103.0991 103.0991 0 0 1-.0308-2.5093c0-14.431 3.022-28.6365 7.2733-41.4492l.2356-.6863zM163.683 298.885c-1.5365-1.905-2.7863-3.9841-3.2473-6.4114l-.1434-.7375.6352.3995c2.5814 1.6694 5.419 2.3556 8.3283 2.3556 6.003 0 12.3133-2.9497 17.0358-6.268l.2151-.1537.1844.1946.1639.1536-.2356.2254.2356-.2254.1024.1025-.0102.1536c-.6556 6.135-2.8376 13.1507-9.3425 15.5575-.9732.2458-1.9157.3585-2.8376.3585-4.364 0-8.1542-2.54-11.084-5.7048M316.3616 296.5509c-1.3932-2.0791-2.1615-4.3221-2.6122-6.8519l-.1537-.8398.6659.5223c3.2269 2.5503 7.2937 3.6564 11.4528 3.6564 4.8864 0 9.8854-1.526 13.727-4.0046l.7682-.4916-.2868.8705c-1.9054 5.5512-6.72 11.2252-12.5694 12.4952-.502.0717-1.0141.1127-1.516.1127-3.8313 0-7.2836-2.0689-9.4758-5.4692" fill="#C21F32" fill-rule="nonzero"/><path d="M323.8397 304.6984c.758.1638 1.5264.2253 2.2947.2253 2.2024 0 4.4151-.5838 6.5766-1.2598l.6454-.2048-.2561.6248c-8.062 20.1562-17.7938 39.6466-27.8432 58.9937l-.338.6452-.2459-.6862c-2.0283-5.5614-2.602-11.471-2.602-17.5137 0-4.4348.3074-8.9413.5942-13.4477 1.4444-12.9971 4.579-25.5128 8.4615-37.5471l.2356-.7374.3586.6862c2.3868 4.6498 6.9147 9.443 12.0981 10.2215M196.5305 363.1534c-12.1597-18.5482-21.3997-38.1616-30.3223-58.0617l-.3892-.8604.8297.4404c2.4176 1.3008 5.665 2.325 8.7484 2.325 2.0898 0 4.0873-.461 5.7571-1.5978 3.903-2.7346 6.1976-7.0362 7.7445-11.3788l.2458-.717.338.6863c6.7099 13.5603 9.9265 29.9885 9.9265 46.2322 0 7.6917-.7273 15.3527-2.141 22.6553l-.0205.0921-.0614.0717-.4405.4404-.2151-.3277zM207.218 425.2566l-.0615-.0307-.0512-.0512c-12.385-13.5911-17.0562-31.064-17.7323-49.5507v-.1741l.1434-.1024c16.288-11.8602 38.0667-18.1283 59.538-18.1283 14.0958 0 28.0686 2.7039 40.2692 8.3062 7.7957 3.4823 15.3045 7.2923 22.1885 12.823l-.1946.256.1946-.256.1434.1126-.0205.1742c-2.0897 17.401-8.3078 32.9074-19.2894 46.3551l-.0512.0717-.0717.0307c-13.0714 5.0903-28.4783 7.8454-43.8136 7.8454-14.4543 0-28.847-2.4376-41.191-7.6815M425.1067 242.4825s-7.6625-2.9394-9.6293-3.6769c-21.0002-7.9068-48.0034-12.7307-70.95-13.2838-2.1921-25.5537-5.1322-41.5312-10.1107-55.9724l-.0718-.1946-.2048-.0204c-11.8318-.6863-64.3016-2.7961-84.5847-2.7961-20.2933 0-71.8206 3.1955-83.6422 3.8817l-.2049.0102-.0717.2049c-4.7634 13.7652-10.1825 30.9205-12.7025 56.1874-23.1924 1.4237-54.4059 8.0605-75.4163 15.9673-1.5264.5735-2.6327 1.1163-3.3908 1.5158-.3688.2048-.6556.3687-.8605.4813-.0512.0205-.0922.0513-.1331.0717l-.6352-.7271.2254 1.1573a.2783.2783 0 0 0 .082.1639c3.2166 3.6461 15.0484 17.8312 37.0217 18.3229.3586.0102.7274.0102 1.1166.0102 7.181 0 19.3407-1.393 27.4744-4.9469 1.9771-.8808 5.8186-2.458 6.8635-2.878.3893.7375 1.5468 2.9804 2.1205 4.5884 2.3561 6.5447 5.163 15.9468 7.2323 20.0538 3.0527 6.094 8.0313 10.9896 16.1035 11.174h.3176c7.2937-.0205 12.3235-5.838 13.2045-7.0772l.338-.4711-.5839-.0308c-20.3138-1.0242-28.6217-11.809-30.0046-28.104l-.0205-.2457-.2356-.041c-2.3971-.4302-3.9235-.7681-4.866-1.2802-.9424-.5121-1.3624-1.1471-1.68-2.3967-.1331-.553-.1946-1.106-.1946-1.6694 0-1.9972.8093-4.1685 2.3152-6.6778 1.5673-2.0996 3.8825-4.1684 8.4923-4.1787 1.9053 0 4.2.3585 6.9966 1.2495 6.3205 1.9972 11.3913 6.0735 14.9153 9.1666 4.2205 3.6871 16.4723 16.4588 23.8992 20.9243 4.364 2.6117 10.9918 5.0493 17.7426 5.0493 5.3986 0 10.8791-1.567 15.2738-5.8789 9.445-9.2587 10.5923-17.227 11.8318-22.1533l.0922-.3892-.3995-.0103c-16.2982-.4609-31.736-2.0586-45.9546-4.025-1.6493-.2356-2.141-.932-2.141-1.5159.0103-.717.799-1.567 2.1103-1.567.2458 0 .5122.0307.799.1024.041.0103 26.8803 3.5642 45.678 3.6769h.297l.0205-.297c.1537-2.1918.1844-6.0326.3176-10.3547l.0103-.3277-.3279-.0103c-11.1352-.2458-29.851-1.4236-47.5833-4.998-1.5366-.3175-2.141-1.2393-2.141-2.0075.0205-.7476.5224-1.4031 1.6288-1.4134.2459 0 .5224.0308.8298.1127 2.643.6965 31.5207 4.783 47.2453 4.783h.1229l.3278.0102v-.3175c.0717-3.3593.1024-8.0911.123-12.6385v-.3175H248.2236c-10.162 0-24.8724-1.0242-45.7907-4.2095-1.7107-.2663-2.3151-1.0959-2.3151-1.7309 0-.6555.6146-1.3622 1.9259-1.3724.1127 0 .2253.0102.3585.0205-.0102 0 25.528 3.7997 45.4424 3.7997.461 0 .9117 0 1.3727-.0102h.3175v-.3175c0-3.0828-.0205-6.6778-.0512-10.3034v-.0615c.0102-1.9562.881-2.7448 1.5161-2.7448.5942 0 1.3625.6862 1.3727 2.4888 0 1.3724.082 5.2746.082 10.1498V212.7705l.3278-.0102c19.2484-.5838 36.1818-2.837 44.131-4.2607.461-.0819.8606-.1229 1.2089-.1229 1.5776.0308 1.9873.6658 2.0078 1.2803 0 .6247-.5327 1.352-1.3317 1.4953-2.602.4711-24.9134 4.783-46.139 5.244h-.3175l.0102.3174c0 3.7486.1434 8.6135.2049 12.5771l.0102.3278.3176-.0103c14.2699-.512 30.7935-1.0446 44.9814-4.1787.6658-.1434 1.2395-.215 1.7415-.215 1.6492.0204 2.2639.676 2.2639 1.229.0307.6452-.8298 1.6285-2.858 1.9664-13.9114 2.3147-33.9692 4.7011-46.0264 4.7933h-.3278l.0103.3277c.082 3.472.1127 7.6815.2868 10.4366l.0205.3072h.3073c22.7622-.5428 44.3155-3.7792 47.9829-4.4142.2663-.041.5122-.0615.7478-.0615 1.424.0102 2.0795.7784 2.0795 1.4953 0 .7067-.6249 1.567-2.3458 1.8129-4.0054.553-30.7115 3.9943-47.8088 4.4245l-.42.0102.1127.3995c1.6903 5.7867 2.018 14.2158 10.4182 21.4364 4.1078 3.5335 9.6293 5.121 15.325 5.121 5.6137 0 11.4015-1.5465 16.1957-4.3119 7.5089-4.3426 19.3714-17.3396 23.5817-21.0267 3.5034-3.0726 11.4938-10.457 22.168-10.457.1537 0 .297 0 .4507.0102 5.4806.1126 8.1543 1.5567 9.5577 3.1238 1.4137 1.5772 1.5673 3.3184 1.9054 4.2606.2458.6657.4507 1.567.4507 2.4786-.0102 1.3314-.42 2.6424-1.7517 3.4618-1.8644 1.1573-3.6264.85-5.6035 1.7513l-.1536.0717-.0308.1639c-1.3932 8.9105-4.1898 19.0398-11.1762 24.335-3.7698 2.8677-8.6357 4.4757-12.5591 5.3667-3.9132.891-6.8737 1.0447-6.8737 1.0447l-.6761.041.4507.5018s1.6595 1.8128 2.2127 2.3454c1.2395 1.1676 4.7532 2.8678 9.3528 2.878.4917 0 .9936-.0205 1.5058-.0512 5.0298-.4301 10.828-4.2504 13.2967-6.7904 3.7391-4.8547 7.1708-14.9328 9.7113-21.416.8913-2.3147 2.9298-6.3193 3.7596-8.3779 2.0693.973 3.278 1.6182 7.2323 3.216 8.2156 3.2877 18.6338 4.7318 25.6304 4.7318.3995 0 .7888 0 1.1678-.0103 11.4323-.297 24.3603-7.2103 32.156-14.431 1.3624-1.27 3.8927-4.4142 3.9029-4.4244l.2766-.3483-.4098-.1536z" fill="#C21F32" fill-rule="nonzero"/><path d="M261.6904 382.8743c-1.2087 2.028-1.7414 4.3528-1.7414 6.7187 0 3.8305 1.4136 7.7532 3.6263 10.6107.1332.1844.3176.2663.5327.2765.2459 0 .5225-.1331.7274-.3584v-.2049c.0204-2.2634-1.4445-4.2299-1.465-6.7187 0-.5735.082-1.188.2971-1.8128l.2152-.6657.3585.594c2.2332 3.6871 5.8186 6.012 9.5679 7.2615 1.4649.379 2.9298.5736 4.3537.5736 4.999-.0102 9.6396-2.2635 12.9177-6.2988 1.557-2.1816 2.7454-4.9469 2.7454-7.6508 0-1.27-.2561-2.5297-.8708-3.728-2.3561-4.5885-7.14-7.2411-11.9445-8.0298-.8195-.0921-1.639-.1331-2.4585-.1331-6.9557 0-13.4606 3.1136-16.8617 9.566M234.4506 402.0196c.3996.0205.881-.4404 1.2088-1.0037 1.8235-2.8677 3.063-6.5958 3.063-10.2317 0-2.3864-.5327-4.7318-1.762-6.7802l.2766-.1639-.2868.1434c-1.9156-3.6666-5.8289-6.6265-9.5577-7.876-2.1307-.6863-4.3844-1.0447-6.6176-1.0447-5.3474 0-10.5718 2.0483-13.8704 6.4524-1.2702 1.6694-1.9053 3.8202-1.9053 5.9608 0 1.1164.1741 2.2328.5326 3.2774 1.7518 4.8957 6.4025 8.7672 11.33 9.6992 1.1063.1946 2.1921.297 3.2473.297 5.7366 0 10.7869-2.8063 14.3723-7.7327l.3585-.4916.2049.5736c.1537.4301.2151.891.2151 1.3417-.0102 1.014-.2663 2.0381-.3688 2.8575-.1741 1.444-1.3112 2.5605-1.2702 3.554 0 .3277.0922.6452.379 1.0241.1742.1025.3176.1434.4507.1434M208.516 420.9242c12.518-5.254 27.4846-8.296 42.3486-8.296 11.2172 0 22.3626 1.731 32.371 5.5614 2.5098 1.0652 5.163 1.9358 7.6933 2.7244.635-.8296.9424-1.014 1.3726-1.7411-12.2108-5.9916-26.5524-8.7774-40.9657-8.7774-15.3762 0-30.8344 3.175-43.8648 8.972.2561.6555.584 1.0754 1.045 1.5567M219.434 328.3768c7.4883 9.3304 18.6748 13.458 30.107 13.4682 4.2001 0 8.4309-.5633 12.5182-1.6285 19.0641-5.2849 30.5681-26.0556 34.5018-44.2248-.5532-.5121-1.0449-.6248-1.762-.8399-2.3868 10.6926-6.9454 21.1907-13.6962 30.0295-8.0723 9.8323-19.986 14.7996-31.7154 14.7996-4.1693 0-8.3181-.6247-12.2723-1.8845-17.4455-5.4385-26.5114-24.5705-28.2017-41.8896-.717.0102-1.1986.0512-1.762.4404 1.1883 11.9319 4.7635 22.563 12.2826 31.7296" fill="#2D2925" fill-rule="nonzero"/><path d="M77.6479 148.879c9.9981 19.2857 30.1583 25.5026 50.6668 24.5194 11.4732-.1025 22.4958-1.2905 33.8256-2.0177l-.0102.7886c-5.7674 16.2438-9.4962 32.7846-11.883 49.817-29.6871 1.0856-60.122-1.2598-82.0544-21.078-14.8538-15.107-18.644-35.8264-15.4172-56.2899 3.5444-4.1992 7.181-7.7224 10.879-11.9216 4.866 5.0288 12.6514 9.1358 13.9934 16.1823M446.8332 140.2216c.7478 2.9804.8912 5.797 1.178 8.9207 1.4137 22.8396-8.4512 43.897-27.9455 55.5217-21.3383 12.864-45.9956 17.268-72.1587 17.9132-.4405-2.3454-.7274-5.3258-1.0244-7.9785-2.0693-15.025-4.8967-30.2138-9.107-44.6242 28.0071-.3175 62.0787 7.067 80.569-18.6404 2.4689-3.5847 4.9377-6.8621 7.0992-10.754 4.1385-1.8539 8.1234-4.4963 12.1186-6.6676 3.36 1.7411 5.9108 4.4143 9.2708 6.309M340.397 255.8432c.1128 8.7568-2.6838 17.8107-10.5205 21.9895-3.6776 2.0176-7.9596 2.7755-12.0981 2.5912-.1435-.7682-.4508-1.7207-.1332-2.6527 6.423.1946 12.5591-2.12 15.9499-7.4152 2.3151-3.9022 3.2473-8.2755 3.278-13.12 1.0757-.6247 2.2947-1.0856 3.524-1.3928M182.3374 279.622c-1.1576.1945-1.7107.4915-3.8825.0102-10.3054 0-21.0821-8.255-20.4572-22.2456 1.219-.4711 2.5917-.2868 3.8517.123 0 7.9374 3.2064 18.7837 20.068 18.7837 1.1473 1.8435.041 2.0279.42 3.3286" fill="#FEFEFE" fill-rule="nonzero"/><path d="M0 0h500v500H0z"/></g></svg>