<svg width="500" height="500" viewBox="0 0 500 500" xmlns="http://www.w3.org/2000/svg"><title>cleveland-cavaliers</title><g fill="none" fill-rule="evenodd"><path d="M0 0h500v500H0z"/><g fill-rule="nonzero"><path d="M335.837 152.8668c-5.49-.5662-17.233 2.499-35.4144 10.143-27.1359 11.4049-59.2146 35.488-79.63 57.4054-21.8858 23.505-65.357 77.8385-64.7724 103.104 0 .8859.659 4.1912 4.3023 5.6071l1.6001.4979c13.2266 3.0534 31.7828 1.0101 72.1953-11.57 0 0 61.7137-18.6983 138.4382-52.3462l22.0956-12.2908-11.3188 57.0845-1.3231 1.145c-56.882 49.4045-144.901 95.8476-219.4223 99.337-17.2271.8004-37.3472-.0802-55.0728-7.1637-23.351-9.3123-37.753-23.505-44.0551-41.2365-2.5234-5.1152-23.9424-54.3835 35.999-129.6191l-39.0334 9.651 31.383-48.5792c63.5353-52.5552 250.5526-161.636 337.8942-78.5652l6.7955 6.9119v27.8066s-139.276 81.2426-138.5494 79.9437c1.2555-2.2952 30.3492-59.694 30.3492-59.694 3.6006-7.0658 6.0556-12.8702 7.5393-17.5724" stroke="#FFF" stroke-width="3.8462" fill="#FCB61A" stroke-linecap="round"/><path d="M340.5856 143.5036c-8.9552-2.8798-25.1543 2.1604-44.0801 10.1495-28.7064 12.0626-61.9597 37.0578-83.157 59.8236-20.606 22.1634-68.2369 79.9437-67.4983 110.2922.0486 1.281.1348 2.5431.3196 3.761-4.591-3.8031-7.386-9.3366-7.607-17.3066-.7202-30.3432 46.8863-88.1051 67.474-110.2442 21.2157-22.7717 54.494-47.7603 83.1753-59.8479 29.7027-12.525 52.6724-17.861 51.3735 3.3724M427.1845 126.9l.221 17.9288-105.2888 63.7017c1.12-1.145 12.999-24.1021 13.7192-25.739L427.1845 126.9zM116.739 218.2954c-11.1399 2.6779-22.4093 5.4657-32.4417 7.9397 1.3915-1.8644 11.7186-16.0637 14.0822-19.1408 12.3033-2.8805 24.9268-5.7183 36.356-8.3712-5.5393 5.5091-11.6942 12.1191-17.9965 19.5723M375.3684 303.9685c-55.91 48.5548-141.8179 93.509-213.249 96.8873-16.7351.7635-35.119-.2085-50.8079-6.5114-21.4367-8.5422-33.3151-20.9382-38.3803-35.4696 6.5975 8.7277 16.6727 16.1927 31.0686 21.9786 15.7316 6.2345 34.1161 7.244 50.8507 6.4312 77.0816-3.5757 170.972-55.6384 225.8724-108.3968l-5.3545 25.0807z" fill="#000840"/><path d="M422.5945 122.7842l-85.2496 52.2725c36.602-71.7086-29.3147-54.8814-73.3455-28.9641-25.044 13.1589-53.7496 39.7969-62.7541 49.3913-73.2534 77.999-124.5599 182.2422 35.8392 132.3148 0 0 62.3476-18.8764 139.743-52.8998C157.7378 459.9774-49.055 382.582 154.426 188.0065c-18.5194 4.2339-37.217 8.2594-55.5094 13.3739 65.1538-53.9153 243.894-154.502 323.6779-78.5962" fill="#690031"/></g></g></svg>