<svg width="500" height="500" viewBox="0 0 500 500" xmlns="http://www.w3.org/2000/svg"><title>denver-nuggets</title><g fill="none" fill-rule="evenodd"><path d="M0 0h500v500H0z"/><g fill-rule="nonzero"><path d="M251.972 65.3846c49.7038 0 96.5 19.4154 131.8038 54.727 35.2423 35.2346 54.6846 82.1076 54.6846 131.7692 0 102.9077-83.6192 186.5807-186.4885 186.5807-49.823 0-96.6769-19.3769-131.9615-54.7038-35.1616-35.25-54.627-82.0885-54.627-131.877 0-49.6615 19.4654-96.5345 54.627-131.7692C155.295 84.8 202.1488 65.3846 251.9719 65.3846" stroke="#FFF" stroke-width="3.8462" fill="#FFC627"/><path d="M251.998 423.5388c94.5962 0 171.5424-76.95 171.5424-171.6653 0-94.5423-76.9462-171.5654-171.5423-171.5654-94.7077 0-171.6923 77.023-171.6923 171.5654 0 94.7153 76.9846 171.6653 171.6923 171.6653" fill="#8B2332"/><path d="M93.365 251.878c0-87.3845 71.1538-158.5115 158.6154-158.5115 87.4423 0 158.5 71.127 158.5 158.5116 0 87.4538-71.0577 158.6-158.5 158.6-87.4616 0-158.6154-71.1462-158.6154-158.6" fill="#0D2240"/><path d="M377.0435 185.3815l3.5423-1.9807-11.4154-17.7077-3.1962 2.3077c-19.4192-24.4962-53.8884-51.8116-86.6961-55.9462 24.7 11.277 52.4884 40.0808 69.4577 62.2846l-17.827 12.9577 2.1424 3.2923-80.5308 52.3193-80.5308-52.3193 2.1577-3.2923-17.9308-12.9577c17.0808-22.2038 44.8-51.0077 69.5308-62.2846-32.7692 4.1308-67.2692 31.3846-86.5308 55.8577l-3.3423-2.4077-11.4192 17.6692 3.5615 2.0616-.0923.1461c-14.1807 27.8539-24.6 70.9116-14.45 102.4116-.2654-27.2154 14.3577-64.65 27.4923-89.5693l19.2347 10.8385 1.9884-3.0385 74.7846 47.0077-98.6423 64.0962-.15-.1962-13.223 3.5654.1423.327c-.6462 2.4576.5653 7.0115 3.3769 11.3576 2.8038 4.4693 6.3461 7.4116 9 7.9l.2269.3654 8.7808-10.6115-.077-.1962 196.4808-123.6154 1.9192 3.0385 19.2885-10.8385c13.1154 24.9193 27.7577 62.3539 27.5885 89.5693 10.1423-31.5-.4039-74.5577-14.6423-102.4116" fill="#FFC627"/><path d="M366.902 316.932l-.15.196-90.7693-58.9615-15.8962 9.4116 98.5654 62.0615-.1077.1923 8.7577 10.6154.2654-.3654c2.65-.4884 6.1962-3.4307 9.0039-7.9 2.7269-4.35 4.0192-8.9038 3.373-11.3577l.1616-.3269-13.2039-3.5654zM268.0888 127.9315l-6.823 8.9154-9.4462-22.5461v104.1307l31.723-40.6038 31.9155 8.227z" fill="#FFC627"/><path fill="#FFF" d="M268.0888 152.342v-24.4116l-6.823 8.9192zM251.8196 114.2992l-57.5692 70.177 25.4077-6.4616 32.1615 40.4192z"/><path d="M218.0288 376.9154c8.1462-7.8308 18.5231-12.6116 29.7154-13.6654v-15.6077h-43.0038c1.023 11.3654 5.7961 21.55 13.2884 29.273M247.7465 391.38v-18.4615c-8.35 1.0192-16.0769 4.5269-22.4307 10.2884 6.6115 4.4077 14.2307 7.2923 22.4307 8.1731" fill="#FFC627"/><path d="M257.2942 295.752v18.4076c8.3308-1.0077 16.1154-4.4654 22.3385-10.2192-6.5192-4.4423-14.0923-7.35-22.3385-8.1885M286.9742 310.235c-8.1615 7.7346-18.5077 12.6115-29.6769 13.6v14.1962h42.927c-1.304-10.7577-6.1308-20.4654-13.25-27.7962M247.7465 314.1565v-18.4038c-8.2.8385-15.8192 3.7423-22.323 8.1923 6.2461 5.75 13.973 9.2038 22.323 10.2115" fill="#FFF"/><path d="M257.2942 347.645v15.6077c11.1693 1.05 21.5923 5.8308 29.677 13.6654 7.5115-7.7231 12.4576-17.9116 13.35-29.2731h-43.027z" fill="#FFC627"/><path d="M204.8396 338.0335h42.9077v-14.1962c-11.1961-.9885-21.4961-5.873-29.7192-13.6038-7.1 7.3307-11.927 17.0384-13.1885 27.8" fill="#FFF"/><path d="M257.2942 391.38c8.2462-.8808 15.8193-3.7654 22.3385-8.173-6.223-5.7616-14.0077-9.2693-22.3385-10.2885V391.38z" fill="#FFC627"/></g></g></svg>