<svg width="500" height="500" viewBox="0 0 500 500" xmlns="http://www.w3.org/2000/svg" xmlns:xlink="http://www.w3.org/1999/xlink"><title>golden-state-warriors</title><defs><path id="a" d="M383.8731.7401H0v384.685h383.8731z"/></defs><g fill="none" fill-rule="evenodd"><g transform="translate(57.6923 57.8439)"><mask id="b" fill="#fff"><use xlink:href="#a"/></mask><path d="M191.9408.738C86.1069.738-.0022 87.0268-.0022 193.092c0 106.0548 86.1091 192.333 191.943 192.333 105.8338 0 191.9323-86.2782 191.9323-192.333C383.8731 87.0269 297.7746.738 191.9408.738" fill="#FEFEFE" fill-rule="nonzero" mask="url(#b)"/></g><path d="M249.6341 63.8556c-103.1287 0-186.6801 83.7785-186.6801 187.0803 0 103.3019 83.5514 187.0593 186.6801 187.0593 103.0972 0 186.6696-83.7574 186.6696-187.0593 0-103.3018-83.5724-187.0803-186.6696-187.0803" fill="#0F4B90" fill-rule="nonzero"/><path d="M392.7145 318.5757c-28.3978-6.3706-54.701-16.1165-78.6991-27.6765-3.6945-1.793-7.3363-3.6283-10.9255-5.4952-17.567-9.1236-33.7657-19.1542-48.5014-29.4064-2.9682-2.0778-5.8943-4.1557-8.7257-6.2335-.1894-.1266-.3578-.2637-.5262-.3797-3.7892-2.774-7.4416-5.548-11.0097-8.322-5.81-4.5248-11.336-9.018-16.5566-13.448a491.6379 491.6379 0 0 1-16.904-15.0301c-4.589-4.2612-8.8624-8.3852-12.7884-12.3089-.842-.8227-1.6315-1.6349-2.4314-2.447-6.189-6.2758-11.536-12.0241-15.8935-16.897-.1263-3.7128-.221-6.9614-.3052-9.7986-.221-7.0985-.3263-11.2436-.3263-11.2436l-4.9996-2.2677-3.4734 3.0376-1.1789 1.0231s.0526 2.7424.1579 7.4676c-1.0736-1.3184-1.8946-2.352-2.5998-3.2275-.0421-3.987-.0632-7.0562-.0842-9.0919-.021-1.8142-.021-2.8162-.021-2.8162h-6.9258l-.1263 4.124-4.1681 1.0337s-.1684 8.7544-.421 22.7087c-9.9361 22.7509-20.3353 40.7976-29.724 54.7519-4.7576 7.0668-9.2625 13.0683-13.3043 18.0889-4.6838 5.7906-8.7782 10.2943-11.9464 13.5324-.5894-4.0819-1-8.2165-1.2736-12.3827-.2526-3.6073-.4105-7.2356-.4105-10.9061 0-3.6916.1579-7.3305.4105-10.9694 2.505-37.3169 17.6302-71.1637 41.2073-97.2476 5.1154-5.664 10.6518-10.9693 16.5145-15.8528 25.377-21.1477 57.3534-34.5957 92.3717-36.8317 3.4524-.2215 6.9047-.3797 10.4097-.3797 4.0734 0 8.0941.211 12.0938.5062 35.2288 2.6158 67.258 16.5912 92.5296 38.2873a161.8207 161.8207 0 0 1 15.7988 15.547c22.6193 25.567 37.2392 58.3802 39.9863 94.5158.3158 4.1135.5158 8.2481.5158 12.4249 0 3.0271-.1053 6.0226-.2632 8.997-1.284 23.1833-7.452 45.0587-17.4828 64.6137zM94.0537 286.5853c-.642-2.4154-1.221-4.8519-1.7473-7.2989 1.6841-2.3626 3.5682-5.0522 5.6943-8.132l-3.947 15.4309zm16.8302-32.5284l-9.494 53.9714c-1.8314-4.335-3.4734-8.786-4.9259-13.311l7.1258-31.8955c1.7893-2.7001 3.6944-5.6217 5.61-8.6383.7684-1.1919 1.5157-2.3521 2.2946-3.5967l-.6105 3.4701zm30.3345-43.5927l-4.9049 27.6766-2.5471 14.4606-15.2094 86.004c-2.3156-3.2381-4.5365-6.529-6.5995-9.9357l13.378-75.5726 2.7576-15.5048 2.3156-13.1527 1.6315-9.1868c4.547-8.5434 8.9572-17.4877 13.041-26.6323l-3.8628 21.8437zm75.0047 30.5139l2.7366 8.6594 25.2927 79.9603c-3.4734.232-6.8731.4536-10.2518.6962l-25.2612-80.4877-2.8103-8.9654-1.263-4.029-8.6625-27.5817c1.7577 1.7298 3.505 3.4068 5.2417 5.0839 3.1471 3.0165 6.2626 5.9804 9.3256 8.8387l5.6522 17.8253zm13.42.0843l2.6629 8.4064 13.1569 41.5359 11.9675 37.7388.0105.0633h-.0105c-3.263.1793-6.4943.3691-9.6835.5695l-2.9577-9.3978-22.1877-70.4043-2.705-8.5645-4.1366-13.121c4.568 4.1557 9.073 8.1531 13.4937 11.9819l.3895 1.1918zm55.7324 86.4154c-3.3681.1266-6.7047.2742-10.0202.4219l-20.63-65.5525-.642-2.0251c.2.1688.4.2953.5999.4535a582.5565 582.5565 0 0 0 12.4517 9.4506l18.2406 57.2516zm28.261-.8016c-3.6313.0738-7.252.1476-10.8413.2426l-12.9148-40.7449c4.8418 3.196 9.494 6.1703 14.0095 8.9337l9.7466 31.5686zm27.9978-11.0432c12.357 5.8116 21.693 9.2607 27.3978 11.117-8.0414-.1898-16.0303-.2953-23.977-.3375l-3.4208-10.7795zm-16.7145-8.4274a342.0796 342.0796 0 0 0 12.4832 6.4023l4.0524 12.8046c-1.221 0-2.4314.0105-3.6524.0105-2.2945 0-4.5891 0-6.8731.0106l-4.2102-13.4586-1.7999-5.7694zm-16.5987-9.4295a406.325 406.325 0 0 0 12.2727 7.0774l6.768 21.6223c-1.8526.021-3.684.0527-5.547.0738-1.5262.0211-3.063.0317-4.5891.0528l-6.1785-19.977-2.726-8.8493zm-22.8719-14.5766c.2.116.3684.2532.5684.3798l-.4947-.1477 13.7463 43.5821c-3.484.1055-6.9363.2215-10.3676.3375l-16.7777-53.4545c4.5576 3.2908 8.9783 6.3601 13.3043 9.2817l.0736.2426.021.0106-.0736-.232zm-51.4591-39.2576c2.2103 1.8774 4.3786 3.681 6.5363 5.4636 1.7893 1.4766 3.5576 2.911 5.326 4.335 1.0735.8649 2.1576 1.772 3.2312 2.6158l5.9575 18.785 16.7987 52.906c-3.6734.1688-7.3047.3692-10.894.559l-4.2733-13.448-11.0517-34.659-9.8835-31.0622-1.7472-5.4952zm109.602 111.4128c-18.8933-.9281-46.4596-1.7192-84.5198-1.6876-4.989.0106-10.157.0317-15.5145.0633-12.0517.0844-24.9244.232-38.9023.4958 13.1043-.6013 26.1664-1.0442 38.9338-1.3607 5.1996-.137 10.3255-.2426 15.3883-.3375 31.2923-.5906 60.0585-.4957 81.9515-.232 11.5254.137 21.1562.3375 28.282.4957-1.2 1.329-2.442 2.6263-3.684 3.9131-5.3785-.4113-12.6305-.8965-21.935-1.35zm-165.0082 4.5776c18.7143-.4219 41.1757-.7277 64.7212-.6856 5.368.0106 10.7676.0422 16.1883.095 31.5764.3058 63.9634 1.3395 91.2244 3.7549 2.5577.232 5.147.4535 7.61.7066-1.2 1.118-2.4525 2.1728-3.6945 3.2487-28.1978 24.4068-64.9107 39.2049-105.097 39.2049-24.2192 0-47.1753-5.4003-67.7842-15.009-1.1263-8.6384-2.1893-19.2914-3.1682-31.3155zm-11.6201 23.4681c-1.2526-.7383-2.4735-1.5293-3.6945-2.3099-.442-6.3812-.8526-13.353-1.242-20.7468 1.1789-.0422 2.4103-.0633 3.6208-.1055.442 9.0814.8736 16.9392 1.3157 23.1622zm8.473-69.8347c-.6-10.2416-1.1473-20.7047-1.663-31.1678l7.1573 22.6032 4.368 13.7434 4.8313 15.22c-4.6313.4535-9.0625.907-13.3569 1.3606-.0631-.8332-.1052-1.6876-.1684-2.5208-.4-6.2758-.7894-12.6992-1.1683-19.2386zm-3.5576-73.6318c-.0842-2.1834-.179-4.451-.2737-6.5922l2.0946 6.666 3.326 10.6424 12.1675 38.8252 4.0944 13.1 9.4624 30.2184c-3.0945.2742-6.1469.559-9.1256.8438l-5.9995-19.112-4.2944-13.6484L173.1 268.2538c-.2631-5.8855-.5263-11.7077-.7683-17.435a6449.3496 6449.3496 0 0 1-.4526-10.885zm-37.5866 100.4329l9.4309-53.3807c-.2 18.7534-.3158 36.8528-.3053 52.1994-3.284.4113-6.2942.8016-9.1256 1.1813zm9.3467 25.989c-1.9473-1.7088-3.8524-3.449-5.7049-5.2632 1.6841-.0528 3.526-.116 5.6207-.1899.021 1.9302.0526 3.7443.0842 5.453zm-3.884-127.9935l5.0312-28.4993c-.1473 8.9654-.3052 18.669-.4526 28.763-.0631 4.4088-.1263 8.8915-.1789 13.4163-.0842 5.643-.1579 11.3386-.2315 17.0553l-.4737-.0844-12.7253 71.8388c-3.5576.4852-6.6627.9281-9.3572 1.3079l15.8935-89.759 2.4946-14.0386zm36.4393-49.1617c2.1051 2.215 4.2313 4.3983 6.3258 6.5605 2.242 2.2993 4.4523 4.5565 6.6627 6.761.2736.2847.5789.5906.8525.8648l1.1052 3.4912 6.5048 20.4304 4.2838 13.4692 2.8945 9.113.1158.3691 25.5454 80.2873c-3.3471.2426-6.6416.4957-9.894.7383l-18.1775-58.1798-4.0839-13.0366-3.105-9.9568-2.9682-9.5455-14.3357-45.8604-1.7262-5.5057zm-6.41-6.761c.2842.2954.5473.5696.821.8544l3.2945 10.4947 14.641 46.6936 3.0628 9.7248 5.326 17.013 3.989 12.6992 16.2093 51.6509c-3.705.2953-7.3257.6012-10.8938.907l-10.8518-35.007-4.0313-12.9628-10.5465-33.9839-3.2314-10.3787-6.5047-21c-.3579-9.6193-.6736-18.4053-.9262-26.2104-.1264-3.7338-.2527-7.2989-.358-10.4948zm-12.7148-13.8804c.8736.9809 1.7472 1.909 2.6103 2.8794.1474 5.7484.3474 13.8278.579 23.4998.3262 12.6253.7262 27.9824 1.1893 44.563.1053 3.8498.2105 7.763.3263 11.7288.7262 25.008 1.5788 51.8513 2.4735 75.7097.1158 3.2908.242 6.5394.3684 9.7036-1.2526.1477-2.442.2848-3.6629.422-.0842-2.1517-.1579-4.3773-.2526-6.5606-.9789-25.4721-1.7262-53.2541-2.2946-79.1376-.0842-4.0608-.1579-8.0688-.242-12.0136-.3158-15.6418-.5474-30.2184-.7368-42.791-.1685-11.1803-.2737-20.8207-.358-28.0035zM119.799 236.97c2.3577-3.987 4.747-8.0582 7.1258-12.33l-.9684 5.5902-1.2525 7.1195-2.7893 15.9583-12.4095 71.09c-2.084-3.6706-4.0313-7.4255-5.8206-11.2753l10.4623-59.2873 1.863-10.5475c.4526-.7277.9158-1.5293 1.3578-2.2571a459.3649 459.3649 0 0 0 2.4314-4.0608zM249.5362 72.9148c-94.8557 0-171.755 77.0281-171.755 172.0924 0 95.0748 76.8993 172.103 171.755 172.103 48.2278 0 91.7718-19.9348 122.9694-52.0096 1.0525-.559 2.305-2.0779 3.4102-3.5861 28.1452-30.651 45.3438-71.5435 45.3438-116.5073 0-95.0643-76.8676-172.0924-171.7234-172.0924z" fill="#FEC42F" fill-rule="nonzero"/><path d="M88.6215 244.9703c0 3.6705.1578 7.2988.4105 10.8955 2.2945-.2215 6.7573-.6329 13.22-1.1497 4.0418-5.01 8.5467-11.0115 13.3042-18.0889-14.3462-1.1813-23.3982-2.2466-26.5242-2.6263-.2527 3.6283-.4105 7.2778-.4105 10.9694m321.838 0c0-4.1874-.2-8.322-.5158-12.425-38.3444 3.6178-74.0574 5.8539-106.7075 7.1196 1.6525-25.2084 13.7884-47.9277 30.9555-69.9613 13.8726-17.8463 28.482-27.55 35.7656-31.674-4.9048-5.548-10.1781-10.7374-15.7987-15.5576-12.5464 12.4144-53.5432 57.4204-56.4588 117.425-15.1461.5379-29.5871.8648-43.3124 1.0336-.8315-93.5244 6.5048-151.219 7.2416-156.7458-3.9997-.2954-8.01-.4958-12.0938-.4958-3.505 0-6.9574.1582-10.4097.3692.7894 7.5203 6.431 64.8985 6.7047 156.9568-3.8839.021-7.7257.0422-11.5044.0422 3.5682 2.774 7.2205 5.548 11.0097 8.322h.5263v.3796c2.8313 2.0884 5.7574 4.1663 8.7256 6.2336-.0316-2.2361-.0631-4.4405-.1052-6.6344 13.6726 0 28.0399.095 43.1019.348.242 11.4546 1.9261 23.3944 5.5048 35.7032 3.5892 1.867 7.231 3.7022 10.9254 5.4953-6.852-14.545-10.2834-28.1618-10.8833-41.093 32.7448.6118 68.5946 1.8986 107.0653 4.1452.1579-2.9744.2631-5.9593.2631-8.9864M146.7538 120.8899c-5.8627 4.894-11.3992 10.1889-16.5145 15.8634 4.1575 2.1622 13.3463 7.5204 23.7876 17.2662h2.8945s0 .9915.021 2.8056c1.221 1.2235 2.463 2.4892 3.705 3.8288l3.4734-3.0272 4.9996 2.2572s.1053 4.1557.3263 11.2541c7.2205 9.4084 13.5042 18.9538 18.4407 28.763l12.7463 11.8342c-12.0411-48.3601-45.3859-82.7132-53.88-90.8453" fill="#FEFEFE" fill-rule="nonzero"/><path d="M0 0h500v500H0z"/></g></svg>