<svg width="500" height="500" viewBox="0 0 500 500" xmlns="http://www.w3.org/2000/svg" xmlns:xlink="http://www.w3.org/1999/xlink"><title>indiana-pacers</title><defs><path id="a" d="M384.607.1479H.0037v357.2775H384.607z"/></defs><g fill="none" fill-rule="evenodd"><g transform="translate(57.6923 69.4604)"><mask id="b" fill="#fff"><use xlink:href="#a"/></mask><path d="M354.1468 49.987C327.5852 17.917 289.4851.2183 246.8412.1443L78.5188.1565.0037 357.3391l151.9814.0863 20.0106-83.4412 63.0362.0123h1.453c47.9268 0 87.3814-16.565 113.98-47.7969 49.2197-53.6513 40.526-131.7188 3.682-176.2125" fill="#FEFEFE" fill-rule="nonzero" mask="url(#b)"/></g><path d="M407.1031 123.3842c-25.3056-30.554-61.7432-47.5504-102.577-47.612l-163.372.0123-75.7938 344.8451 139.458.0986 20.0105-83.4535c18.7299 0 67.9865.0123 67.925.0123 46.7322.3328 85.054-15.4927 110.8644-45.8002 46.8677-51.0754 38.6295-125.6549 3.485-168.1026" fill="#B3B1B1" fill-rule="nonzero"/><path d="M217.694 328.1849l-20.0105 83.4412-121.0483.0493 71.8285-326.8135 156.0328.111c38.8512.0616 72.1364 15.8378 95.6195 44.2102 34.6152 41.7946 37.9893 111.2714-3.411 156.4184-25.3918 29.8022-62.6175 42.8915-103.87 42.5957l-75.141-.0123z" fill="#081E3F" fill-rule="nonzero"/><path d="M132.379 157.4607l68.3928.0616c7.8565 0 16.2178 6.594 12.5851 16.5897-2.2288 6.1749-3.9528 13.3358-4.741 20.053-.628 5.2505 5.2336 8.566 8.583 8.566l139.3964.0986c2.623 0 4.0021-.7396 4.0021-1.9967 0-1.2449-.1231-5.8668-.6157-9.1083-.4925-3.0936-.9974-3.6236-3.4972-3.6236-17.3753-.0246-24.456-7.7648-42.6686-19.523-18.2126-11.7582-44.922-18.5124-67.8757-18.537l-111.8988-.0616-1.6624 7.4813zM216.8197 247.8126c-2.4136-5.1642-4.6425-11.3145-6.0093-16.9717-1.724-7.2472-7.8442-13.1386-18.3112-13.1386l-73.3678-.0493 1.8225-8.2332 237.7496.1602c2.3766 0 1.8718.9984 1.7486 3.6236-.1354 2.6253-.7388 7.4937-1.1206 10.3655-.3817 2.8594-2.746 2.1815-5.0118 2.2308-5.3444.1233-15.2942 1.3928-21.0942 5.7435-9.8513 7.4074-30.8593 20.4228-42.6686 24.2066-12.6713 4.0427-60.0192 18.537-73.885-8.1716" fill="#FCB424" fill-rule="nonzero"/><path d="M105.986 277.5976l124.1514.0862c5.4798 0 10.1962 1.3065 13.8535 4.3508 10.4917 8.6646 24.0988 14.9504 38.531 19.1286 6.4773 1.8735 17.6216-.5423 27.5837-6.1872 24.85-14.063 40.8338-40.8209 46.092-58.0514 1.3668-4.4987-1.256-4.129-4.7287-3.8824-10.4793.7518-21.4882 10.2298-35.9573 19.4737-14.4938 9.2192-43.9493 17.9577-71.9025 17.9208l-136.0346-.0863-1.5885 7.2472zM288.11 111.1823c1.7487-.3082 8.029-.6902 11.5261.6779 23.5817 9.2931 45.895 33.8818 55.229 59.9987 1.798 5.0164 2.2413 8.2332 0 8.492-10.8118 1.1956-15.8606-4.1412-28.5688-12.7688-12.7205-8.6153-24.4436-14.5067-40.5505-19.634-15.873-5.0532-44.7867-5.7804-48.5302-5.9037-3.7312-.1232-3.2632-1.6885-1.6254-3.3154 13.8534-13.8412 32.4724-23.8862 52.5199-27.5467M401.2613 200.7318c.0739.9984-.9975 2.1323-2.2535 2.1323-.1108 0-27.1897-.0247-27.1897-.0247-3.485 0-3.5465-1.6269-3.6696-3.6236-.1355-1.9966-.6896-5.99-.8128-8.3687-.1231-2.3048-.9605-4.9424 2.118-6.2366 7.5733-3.2045 14.7278-10.612 17.991-16.9717 1.096-2.1446 2.7338-5.6942 4.5933-2.6869 6.4403 10.3039 8.4598 23.011 9.2233 35.78M391.527 249.6392c-.468.9244-2.2043 1.6023-2.7708.111-3.9651-10.6243-13.3978-17.9331-19.8873-21.5567-1.958-1.097-2.1304-2.3788-1.8841-4.3138.2709-1.935 1.0836-8.1223 1.2068-10.7352.0985-2.0707.9359-3.562 2.4874-3.562l28.335.0123c1.0097.0124 2.2657.912 2.2657 1.664 0 13.5206-4.1129 26.881-9.7528 38.3804" fill="#FCB424" fill-rule="nonzero"/><path d="M317.834 302.8653c-1.9949.2835-6.354-.4067.5172-4.3877 20.5893-11.98 38.9374-40.0937 43.8384-56.2396 1.8595-6.1626 2.0565-6.483 4.4208-5.8052 3.1525.8998 8.115 5.189 11.9078 10.4394 3.8174 5.2382 5.4552 15.4557 3.2633 18.3891-14.8016 19.8805-38.3217 33.8449-63.9475 37.604M370.2185 175.6169c-4.7902 2.576-5.7261 2.0953-6.7482-1.5037-8.94-31.4168-35.3293-54.6743-46.1165-61.5517-2.0565-1.2942-1.527-2.1693-.037-1.972 25.8228 3.4386 51.1284 17.5386 63.8736 36.8398 7.2654 11.068-6.3541 25.6856-10.972 28.1876" fill="#FCB424" fill-rule="nonzero"/><path d="M0 0h500v500H0z"/></g></svg>