<svg width="500" height="500" viewBox="0 0 500 500" xmlns="http://www.w3.org/2000/svg" xmlns:xlink="http://www.w3.org/1999/xlink"><title>los-angeles-clippers</title><defs><path id="a" d="M0 384.6154h384.6154V0H0z"/></defs><g fill="none" fill-rule="evenodd"><path d="M0 0h500v500H0z"/><path d="M57.6923 250c0-106.2088 86.099-192.3077 192.3077-192.3077 106.2088 0 192.3077 86.099 192.3077 192.3077 0 106.2088-86.099 192.3077-192.3077 192.3077-106.2088 0-192.3077-86.099-192.3077-192.3077" fill="#FFF" fill-rule="nonzero"/><path d="M382.1656 351.5848c-20.9497-27.1704-32.8493-59.4702-34.474-93.5715h68.8971c-1.6287 34.1288-13.5086 66.4365-34.423 93.5715m-124.1524 65V368.81h-16.0282v47.7748c-43.3988-2.0644-83.646-20.675-113.5322-52.5079 24.423-30.4984 38.2025-67.135 39.8901-106.0636v-16.0282c-1.6876-38.9286-15.467-75.5652-39.8901-106.0636 29.8862-31.8328 70.1334-50.4474 113.5322-52.5078v47.3469h16.0282v-47.347c43.3988 2.0605 83.65 20.6751 113.5362 52.508-24.427 30.4983-38.2026 67.135-39.8902 106.0635v16.0282c1.6876 38.9286 15.4631 75.5652 39.8902 106.0636-29.8862 31.8328-70.1374 50.4435-113.5362 52.5079m-140.1766-65c-20.9183-27.135-32.7982-59.4427-34.423-93.5715h68.8971c-1.6248 34.1013-13.5282 66.405-34.474 93.5715m0-203.1711c20.9497 27.1703 32.8492 59.474 34.474 93.5714H83.4137c1.6248-34.1287 13.5047-66.4325 34.423-93.5714m264.329 0c20.9144 27.135 32.7943 59.4387 34.423 93.5714h-68.8972c1.6248-34.0973 13.5244-66.4011 34.4741-93.5714m-132.1664-81.252c-100.8163 0-182.8375 82.0212-182.8375 182.8375 0 100.8203 82.0212 182.8375 182.8375 182.8375 100.8203 0 182.8375-82.0172 182.8375-182.8375 0-100.8163-82.0172-182.8375-182.8375-182.8375" fill="#061922" fill-rule="nonzero"/><path fill="#C8102E" fill-rule="nonzero" d="M210.88 173.73v152.5392h81.4991V305.296h-59.686V173.73z"/><path d="M320.084 224.8348v-62.8532c0-9.4192-3.7912-13.2614-13.0887-13.2614h-110.934c-9.1759 0-12.924 3.8422-12.924 13.2614v176.6562c0 9.4152 3.7481 13.2574 12.924 13.2574h110.934c9.2975 0 13.0887-3.8422 13.0887-13.2574v-62.924h-21.982v56.8918h-93.1475V168.0098h93.1475v56.825h21.982z" fill="#1D428A" fill-rule="nonzero"/><g transform="translate(57.6923 57.6923)"><mask id="b" fill="#fff"><use xlink:href="#a"/></mask><path d="M202.7708 181.6327h10.624v-44.6233h-10.624v44.6233zm31.88 60.0706l.0352-125.6672h-52.9552l-.5142 125.6672h21.205l.3414-39.1758h10.781l-.1531 39.1758h21.2598z" fill="#C8102E" fill-rule="nonzero" mask="url(#b)"/></g></g></svg>