<svg width="500" height="500" viewBox="0 0 500 500" xmlns="http://www.w3.org/2000/svg" xmlns:xlink="http://www.w3.org/1999/xlink"><title>los-angeles-lakers</title><defs><path d="M15.0073 134.4448C5.7527 115.9146.5382 94.961.5382 72.7734.5382 46.03 8.114 21.0792 21.2092.0041H128.616v134.4407H15.0073z" id="a"/><path d="M52.516 112.7026C66.1942 91.3139 74.1364 65.8094 74.1364 38.425c0-13.2766-1.8669-26.1114-5.3492-38.2495H.1818v112.5271H52.516z" id="c"/><path d="M16.5702 20.1731A137.0069 137.0069 0 0 0 6.3036.101H.174V20.173h16.3962z" id="e"/><path d="M217.201 54.6643C192.5667 21.5413 153.415.1271 109.3209.1271 64.4244.1271 24.6435 22.3424.1038 56.5178v1.3303h217.0973v-3.1838z" id="g"/><path d="M.0234 24.71C23.3575 65.613 66.9921 93.135 116.9642 93.135c51.2411 0 95.8076-28.9187 118.6739-71.5248V.505H.0234v24.205z" id="i"/></defs><g fill="none" fill-rule="evenodd"><g fill-rule="nonzero"><path d="M108.7578 162.9186s42.556-69.4483 129.6905-69.4483c87.1345 0 127.668 67.4296 127.668 67.4296H484.329l-4.7358 28.9757s-3.3791 11.4722-8.7808 12.818h8.1066s2.705 10.1181-13.5084 45.1746H499.86s1.3484 61.3406-72.9519 90.3328c0 0-38.5026 12.1369-58.0951-8.7559 0 0-39.1769 72.8128-130.3647 72.8128-91.1879 0-132.3955-74.8315-132.3955-74.8315H0l16.8958-30.338H5.4099l13.5084-24.9465h22.9635l4.0533-9.4535H35.1317l26.3426-48.5391h14.8568l6.0841-14.8284H69.581l19.5843-36.4023h19.5925z" fill="#FEFEFE"/><path d="M239.7202 386.0147c74.5552 0 134.9853-61.2257 134.9853-136.7712 0-75.529-60.4301-136.763-134.9853-136.763-74.547 0-134.9853 61.234-134.9853 136.763 0 75.5455 60.4383 136.7712 134.9853 136.7712" fill="#FEC42F"/><path d="M254.6148 248.5698l-5.8868-.0492c-.4193 0-.7564.3364-.7564.7467 0 .4103.337.7468.7564.7468l5.969-.0575c2.0143 0 3.8725.2544 3.3627 1.1489l-15.4734 29.4928c-1.9239 3.5204-5.9937 2.626-6.6432-.1806l-7.6627-39.5288 26.951-20.8763c2.6803-2.2977 7.8272-6.0397 10.4664-5.9905l5.8785-.0328c3.5765-.0246 4.8427 1.6494 4.004 3.7994l-1.0359 2.0023c-.6742 1.116-2.7954 1.2555-4.5878 1.2555h-3.3956c-.411 0-.7481.3365-.7481.7632 0 .4103.337.7468.7481.7468h3.3463c1.447 0 3.264.0328 2.5981 1.116l-12.5053 23.7977c-.5756.9273-3.1736 1.0996-5.3853 1.0996m46.634 14.6807c-12.6123 15.2634-19.757 20.4907-32.5665 20.4907-4.3576 0-6.6268-.9765-5.41-3.0855l15.1939-30.4857h5.7964c6.4705 0 5.5743 5.4325 3.8149 12.7933-.3207 1.034.4686 1.0996 1.2415.197l14.4456-25.3323c.6989-1.592-1.1181-1.912-2.0143-.6893-7.2352 9.7899-14.8485 9.0678-18.055 9.0678h-2.6146l16.2134-30.9124h6.5445c8.2383.517 12.0778 7.5003 9.6935 24.3229h3.4285l11.9216-23.4695c.962-1.9777-1.077-3.7912-3.3216-3.7912l-80.9517.0328c-4.6782 0-4.8838 3.5779-.4029 3.5779 3.6423 0 3.4532 5.219.1809 7.7383l-34.3589 27.2279 6.931 32.1597c.518 2.429 2.0719 3.586 4.7686 3.586h66.9336c2.7625 0 3.8971-1.1242 4.7933-2.273l12.1272-20.901c1.669-3.0034-2.2117-2.8147-4.333-.2544" fill="#542582"/><path d="M153.1546 254.4766H131.852l26.9428-35.4586-5.6402 35.4586zm-4.933 22.0252c-.6413 3.6435-4.3082 6.0643-8.9207 7.2706l-4.7604 1.1899 3.9054-7.0245c1.0277-1.9202-1.225-3.0526-3.6834-.1887-16.5587 19.2269-21.8288 28.4424-47.3575 28.4998l-6.857.0164c-2.0719 0-4.3493-.8042-2.9434-2.79l9.0358-16.7815h34.293c4.6783 0 3.4779-3.5123.7236-3.6107-1.8088-.0575-3.7985-1.0997-5.2044-3.3153-.3864-.6155-1.2415-3.0527.0986-4.9319l13.1302-17.4133h21.8371l-3.297 19.0792zm50.8188 6.5813c-1.8088-.0575-2.9762-1.3048-3.3791-2.4947-.5755-1.7315-.5344-4.776.1726-6.1217l31.2264-55.2846c.5097-1.0175 1.7759-3.1675 3.3298-3.1511 2.7543.0082 3.9465-3.6107-.7235-3.6107h-25.0107c-4.6782 0-4.7275 3.545-.2466 3.545 1.8334 0 2.5487 1.789 2.039 2.8804l-6.9146 12.4979c-.8632 1.3786-2.779 1.477-4.7933 1.477l-5.9608-.0164c-.411 0-.7481.3365-.7481.755 0 .4103.337.7468.7481.7468h5.9115c1.6033 0 2.8776.476 1.9486 2.3387l-23.054 41.9086c-1.6607 2.306-4.9659 2.8147-4.7768-1.592l8.1971-61.3899c.3207-1.9202-.189-3.2168-2.2363-3.2168l-12.3655.0164c-1.4717 0-2.3844.7222-3.0914 1.674l-4.4234 5.5474c-.5755.5744-1.8252.5744-3.1982.5744l-10.376-.0164c-.411 0-.7481.3365-.7481.7468s.337.7467.7482.7467h8.4684c1.5046 0 3.264.3529 2.631 1.0586l-11.8887 14.927c-.3618.4184-1.521.5333-2.2281.5333l-3.3545-.0164c-.4111 0-.7564.3365-.7564.7386 0 .4267.3453.7631.7564.7631h2.8036c.8633 0 .8715.4268.518.8124l-11.1734 14.016c-.5756.5417-1.6937.6566-2.7872.6566l-9.858-.0082c-.4192 0-.7481.3282-.7481.7467a.745.745 0 0 0 .7482.7468h8.4684c1.2826 0 2.2774.238 1.6033 1.0996l-15.8928 19.8916c-2.9845 3.7912-17.3726 5.7196-20.168 5.7196l53.7294-100.3524c.518-1.1571 2.5076-2.9132 4.5795-2.9132H158.17c5.3853 0 5.229-3.5779.5509-3.5779h-57.3552c-4.6782 0-4.8673 3.5779.518 3.5779h10.6143c3.0092 0 3.9876 1.8218 3.2065 3.2988l-1.5128 2.7655c-.518.9027-1.225 1.2637-4.1356 1.2637l-18.7703-.0164c-.4111 0-.7482.3365-.7482.7468s.3371.7467.7482.7467h18.721c1.0195 0 2.5405.2708 1.5786 2.0926l-2.6228 4.8744c-.4522.7304-1.6032 1.0832-2.9105 1.0832l-8.5178-.0164c-.4193 0-.7564.3283-.7564.7468 0 .4103.3371.7467.7564.7467h8.4685c1.2168 0 1.2415.8042.5426 1.9203l-6.043 11.2095c-.518.9601-1.4964 1.075-3.4203 1.075l-3.3956-.0164c-.411 0-.7481.3364-.7481.755 0 .4185.337.755.7481.755h3.3463c1.2826 0 1.6197.7139 1.0442 1.9202l-4.966 9.199c-.74 1.3212-1.7923 1.8464-5.0975 1.8464l-18.7621-.0164a.745.745 0 0 0-.7482.7467c0 .4185.3289.755.7482.755h18.7128c2.1212.0328 2.9023.9683 2.0637 2.47l-9.6853 18.1765c-.5755.796-2.1623.9191-4.8509.9191l-18.762-.0164c-.4194 0-.7565.3365-.7565.7468s.3371.7385.7564.7385l18.7128.0164c2.2446 0 3.6094.0903 2.9434 1.272l-5.5826 10.4792c-1.0277 1.6002-3.9053 1.6002-5.0317 1.6002l-5.9526-.0164c-.411 0-.7482.32-.7482.7385 0 .4185.3371.755.7482.755h5.9032c2.0802 0 3.1901.361 2.6392 1.4853l-7.4489 13.9832c-.6742 1.2473-3.593 1.3047-5.8375 1.3047l-29.0147-.0164c-.411 0-.7481.3365-.7481.7468s.337.7467.7481.7467l28.9654.0083c1.9239 0 4.3493.238 3.4614 1.7643l-4.7604 8.9364c-.4522.7386-2.0802.796-4.4151.796l-5.9526-.0082c-.4193 0-.7564.3365-.7564.7468s.337.7467.7564.7467h5.9032c1.447 0 3.1983.1641 2.5817 1.2555l-2.9681 5.7033c-.962 1.4114-1.9239 2.667-4.226 2.667H32.0888c-5.377 0-5.1962 3.5943-.518 3.5943l85.4984.041c2.4994 0 2.5817-.3365 3.7574-2.1664l12.678-22.0662h64.8123c4.6782 0 3.4778-3.5123.7235-3.6107zM364.5368 242.6155c-2.3514 1.9284-6.0512 4.144-6.7665 3.4383-1.003-.993-4.111-3.1347-5.78-3.8979l13.9524-25.4717c.5756-.9027 1.2415-1.3869 2.779-1.3869 5.4346 0 7.2187 5.8838 4.6617 13.2119-1.784 5.137-4.6864 10.6925-8.8466 14.1063m112.7207 22.8376c-.3535-1.748-.9948-.6894-2.1459 1.518-.3535.6648-1.4799.6812-2.598.6812l-3.4285.0164c-.4111 0-.7482.3365-.7482.7468s.337.7467.7482.7467h3.3709c1.2826 0 1.299.8535.6988 2.1336-2.3514 5.0221-4.785 8.3867-8.008 12.3994-.5097.6483-1.8088 1.1817-2.8365 1.1817l-3.4367.0246c-.4193 0-.7564.32-.7564.7468 0 .4103.337.7467.7564.7467h3.3627c1.702 0-.0164 1.0422-.3042 1.428-5.9772 7.9598-10.0964 11.513-14.495 15.0745-.5098.4103-2.9927.2708-4.7275.2626l-3.3874.0164c-.4193 0-.7564.3283-.7564.7468 0 .4103.337.7467.7564.7467h3.3462c2.557 0 .6413 1.469.255 1.789-9.3154 7.7465-23.202 10.2494-29.541 9.4534-20.6284-2.5767-24.8709-18.193-26.3919-24.4378-.3206-1.3047-1.3073-3.9717-1.6361-5.6294-.6331-3.266 8.6657-4.1933 11.231-2.4782 3.9053 2.6013 12.9821 5.2601 20.1269 5.293 6.6103.0246 20.1351-4.7678 24.0487-16.1087 4.004-11.5788-6.0595-24.446-10.5157-28.8855-5.673-5.6704-11.0254-14.6889-8.7726-21.3112 1.7019-4.9811 4.5549-7.246 10.6554-7.246 7.8847 0 13.6235 5.055 13.6235 12.2353 0 .64-.3946 1.4032-.9126 1.4032l-2.7872.0165c-.411 0-.7482.3364-.7482.7467 0 .4103.3371.7468.7482.7468h2.6228c.7317 0 1.1921.558 1.003 1.4525-.518 2.4043-.6824 4.0948-1.2086 6.5074-.3042 1.395 1.7513 2.3634 2.4583 1.3376l12.3903-22.0826c.8961-1.6659-1.0935-2.109-2.5652-1.6002-3.3874 1.1816-8.9124 1.9858-10.861.5826-4.6371-3.307-8.8549-5.4489-15.3336-5.4489-11.009 0-18.7293 2.708-23.6788 11.7594-.3782.7057-1.4635.6975-2.3925.6975l-2.113-.0082a.7537.7537 0 0 0-.7564.755c0 .4103.337.7467.7564.7467l1.8005-.0164c.7647 0 1.2826.2134.8962 1.0996-.3453.8206-.6413 1.6823-.929 2.5685-1.258 3.9144-.8469 9.4042 1.1099 14.3115.1315.32-.2795.476-1.036.4677l-3.3791.0165c-.411 0-.7482.3364-.7482.7467 0 .4185.3371.755.7482.755h3.3627c1.5375 0 1.891.1559 2.5323 1.0504 1.7348 2.4372 3.519 4.2507 5.7635 7.09.6988.9027-2.3103 1.1489-3.9136 1.1325h-13.3522a.745.745 0 0 0-.7481.7467c0 .4185.3288.7468.7481.7468l13.5249-.0164c2.1787 0 5.9032-.0329 6.3225.4431 3.2723 3.7666 7.227 9.5765 7.893 14.4592.1973 1.4114-.3371 1.994-2.072 1.994h-1.8087c-.4111 0-.7482.3365-.7482.755s.337.7468.7482.7468h1.595c1.373 0 2.1294.2133 1.8088 1.239-1.7513 5.6049-4.3822 9.6505-15.087 9.5848-11.2227-.0492-13.5084-11.029-10.2197-22.4847.6495-2.2813-.0329-3.2578-1.0524-1.4771l-7.8107 12.26c-.1973.2871-.9537.9846-2.1376.9846l-1.11-.0082c-.411 0-.7482.3365-.7482.755 0 .4103.3454.7385.7565.7385.9948 0 1.3812.5334 1.003 1.075l-2.8776 4.4642c-4.7111-10.7746-12.6205-24.044-16.8382-28.8773l.074-.2298c10.4005-.6319 25.7588-10.3561 28.2665-19.0546 4.3657-15.091-10.3184-20.6712-18.3182-20.6712l-35.181.0165c-4.67 0-5.0153 3.5286-.5262 3.5286 2.4172 0 4.5384 2.1172 3.4614 4.259l-7.7943 14.016c-.6413 1.157-3.0503 1.0832-6.191 1.0832h-3.412c-.4111 0-.7482.3364-.7482.7467 0 .4104.337.7468.7482.7468h3.3545c2.2445 0 4.711.1395 3.8806 1.7397l-9.2084 16.5927c-.4522.7714-1.6443.8453-4.785.8453l-3.3956.0082c-.4111 0-.7482.3364-.7482.7467 0 .4185.337.755.7482.755l3.3216-.0082c2.4747 0 3.3956.3282 2.6885 1.6084l-12.308 22.214c-1.4717 1.6001-3.223 1.8955-6.2321 1.8955-4.481 0-4.4316 3.545.2466 3.545h30.1246c4.6782 0 3.486-3.6106.7318-3.6106-1.6197.0082-3.338-2.9706-2.261-4.7514l15.383-29.0824h1.562c6.8406 0 8.4932 11.2013 9.784 23.4366.0905.8699-1.5868.911-4.9906.911l-8.5507.0081c-.411 0-.7482.3365-.7482.7632 0 .4103.3371.7385.7482.7385h8.4603c2.2445 0 5.3852.0247 5.4592.7468.592 5.3668 1.036 10.0853 2.0555 14.3853.3288 1.3458-2.072 1.1324-4.6371 1.1324l-10.8857.0247c-.4193 0-.7482.3364-.7482.7385 0 .4185.329.755.7482.755l10.8775.0164c3.4202 0 5.1797-.0082 5.377.6975 4.6864 17.1508 24.7805 30.6498 44.3237 29.903 16.7642-.64 30.9221-9.7406 38.1737-15.5423 9.6524-7.7302 23.8185-23.9044 29.582-35.6637 1.0606-2.1582 2.7625-4.9237 2.3761-6.844" fill="#542582"/><path d="M194.886 189.7173c-2.8201 3.6517-6.5692 4.579-10.7706 4.579h-1.1921l7.416-14.648c.3536-.6728 1.1346-1.1898 2.0966-1.1898.929 0 .8222-1.8546-.3947-1.8546h-11.6831c-.9949 0-1.3484 1.8546-.4193 1.8546.9948 0 1.1839 1.0996.6988 2.0187l-6.635 13.0723c-.444.7057-1.184.8863-1.9979 1.0914-.9784.2544-1.6608 2.0187-.5426 2.0187h18.6552c1.4388 0 1.776-.5334 2.1541-1.0422l3.7492-5.7935c.5426-.7057-.592-.8124-1.1346-.1066M251.0654 177.1192c-.5673.3037-1.8992.4842-2.4747 0-1.4882-1.239-4.4151-2.191-5.9444-2.191-4.3986 0-7.5887.8699-9.4961 5.014-1.6362 3.5204.041 6.4828 3.9218 8.2717 1.6772.7714 3.9053 1.789 3.0502 3.8076-.6248 1.4771-2.3432 1.633-3.897 1.6166-2.0802-.0164-5.2127-1.5837-5.6978-4.5133-.1644-.9601-1.2826-.7468-1.6032-.2216l-2.6474 5.2683c-.4194.7058.6741 1.4935 1.1099 1.0258.8962-.952 2.8447-1.1817 3.8067-.5416 1.3237.8698 4.7193 2.4208 6.75 2.4044 4.4563-.0328 7.3915-1.1817 9.8251-4.9975 2.2363-3.4712.8633-6.926-3.1983-8.8462-2.154-1.0094-3.9875-2.7983-3.0256-4.7596.6166-1.2801 2.5323-1.0093 3.486-.837 1.817.3036 4.1438 2.0105 4.4152 3.504.115.6401.929.7632 1.2826.197l1.3977-3.266c.3206-.632-.7071-1.1243-1.0607-.9356M380.4789 182.3679l1.6196-2.987c.7071-1.313-.4522-2.7983-2.3103-2.7983h-21.7795c-1.5704 0-1.11 1.633-.4686 1.633 1.3977 0 1.817 1.6986.9701 3.1347l-6.5527 12.0302c-.9784 1.1406-1.6033 1.6412-3.001 1.6412-1.1182 0-1.521 1.633.0493 1.633h22.0755c.888 0 1.2826-.32 1.6033-.7632l3.001-3.98c.7317-.96-.8469-.96-1.332-.484-3.8067 3.8075-7.8847 3.6927-10.8445 3.6927h-2.5734l3.0256-6.729h.6413c1.9403 0 4.1766-.0247 4.7686 1.4524.1562.3447 1.1182.6319 1.4964 0l2.5734-5.1452c.4193-.7632-.74-.9027-1.0524-.3529-1.0195 1.8136-5.4921 1.3294-6.6679 1.3294h-.6413l3.7656-7.41h4.1931c2.6063 0 4.8509 1.838 5.5826 3.8486.1809.476 1.5704.8616 1.8582.2544M272.8088 186.1829l7.2598-5.9248.033 5.9248h-7.2928zm51.9535-9.6012h-7.7532c-1.5703 0-1.1017 1.633-.4604 1.633 1.6526 0 3.1572 1.9367 2.2528 3.7256l-3.2065 5.8592-7.079-10.3315c-.4769-.64-1.595-.952-2.5487-.952h-7.6299c-1.5703 0-1.2003 1.6249-.559 1.6249 1.6114 0 1.2003 1.2063.7975 2.068l-6.076 11.6772c-.3864.9437-2.039 1.0668-2.557-.1149l-4.7028-15.2961c-.1973-.6073-2.9434-.5745-3.6422 0l-11.79 9.6996-6.1006.0082c-1.2169 0-1.6937.5006-1.6937 1.1406 0 .6401.4604 1.2227 1.743 1.2227l3.19-.0082-3.19 2.626c-1.776 1.3212-3.593 3.1347-4.8015 3.1347h-.74c-1.1593 0-1.8006.1806-1.8006 1.1079 0 .9272.4851 1.2473 1.5704 1.2473h9.5126c1.7841 0 1.4388-2.3306.5426-2.3306-.9783 0-2.6063-1.2473-1.1017-3.0116l2.9023-2.7655h5.7224c3.3874 0 5.7635 3.9308 3.7409 5.137l-1.5704.87c-.7317.3774-1.0606 2.1007 0 2.1007h18.5813c1.373 0 1.0935-1.8136.4522-1.8136-1.8993 0-1.003-2.7326-.6413-3.463l4.8837-9.2236 6.857 13.2529c.444.8452.8468 1.2473 1.6526 1.2473h2.6227c.8386 0 1.11-.476 1.5046-1.116l7.8025-14.0735c1.258-2.511 2.2199-3.2414 3.7984-3.2414.6413 0 1.0853-1.6413-.485-1.6413zM216.589 188.2426c-2.0719 4.1277-5.5415 6.5731-7.7449 5.4735-2.2117-1.1078-2.3185-5.3504-.2549-9.4699 2.072-4.1276 5.5415-6.573 7.7532-5.4734 2.2034 1.0996 2.3185 5.3421.2466 9.4698m-1.8499-12.5471c-6.528 0-13.2617 3.2168-14.6019 10.0607-1.1675 5.9494 2.9516 12.1286 10.2526 12.1286 6.9392 0 13.3522-4.538 14.643-11.111 1.2908-6.5978-3.634-11.0783-10.2937-11.0783M346.8485 185.6782h-8.3945c-1.5704 0-1.11 1.633-.4686 1.633.666 0 1.2826.3529 1.2826 1.4033 0 3.389-1.447 4.6939-4.3576 4.6939-3.1983 0-4.3493-3.8651-2.1952-8.6082 1.373-3.0363 5.007-5.8674 9.3235-5.8674 2.6392 0 4.859.5662 5.1962 3.0445.0822.599.9948.599 1.3155.0328l1.9896-3.5697c.222-.3775-.1233-.8288-.7317-.8616-.5098-.0328-1.6608.6154-2.4172.0656-1.6773-1.2555-5.336-2.4536-8.0903-2.4536-4.5055 0-10.7952 1.0176-15.0458 8.3702-3.8396 6.6634 1.7512 13.7042 6.9392 13.7124 2.8858.0082 6.232-2.1253 8.1478-2.9213l2.1376 1.436c.3207.3857.9949.8617 1.6362.8617h.7975c.74 0 1.0277-.993 1.3155-1.633l3.2887-7.96c.4193-.796.189-1.3786-1.669-1.3786M461.817 177.1192c-.5673.3037-1.8992.4842-2.4748 0-1.4881-1.239-4.415-2.191-5.9443-2.191-4.3904 0-7.5887.8699-9.4962 5.014-1.6361 3.5204.0411 6.4828 3.9218 8.2717 1.6773.7714 3.9136 1.789 3.0503 3.8076-.6249 1.4771-2.3432 1.633-3.8971 1.6166-2.0801-.0164-5.2044-1.5837-5.6977-4.5133-.1562-.9601-1.2744-.7468-1.595-.2216l-2.664 5.2683c-.411.7058.6825 1.4935 1.1182 1.0258.8962-.952 2.853-1.1817 3.8067-.5416 1.3237.8698 4.7193 2.4208 6.7501 2.4044 4.4562-.0328 7.3914-1.1817 9.8333-4.9975 2.228-3.4712.855-6.926-3.2065-8.8462-2.1541-1.0094-3.9876-2.7983-3.0256-4.7596.6248-1.2801 2.5405-1.0093 3.4942-.837 1.8088.3036 4.1356 2.0105 4.4069 3.504.1151.6401.929.7632 1.2826.197l1.406-3.266c.3124-.632-.7154-1.1243-1.0689-.9356M403.462 189.7173c-2.82 3.6517-6.5692 4.579-10.7705 4.579h-1.1922l7.416-14.648c.3536-.6728 1.1347-1.1898 2.0966-1.1898.9291 0 .814-1.8546-.4028-1.8546h-11.675c-.9948 0-1.3483 1.8546-.4193 1.8546.9949 0 1.1757 1.0996.6989 2.0187l-6.635 13.0723c-.4522.7057-1.184.8863-1.9979 1.0914-.9866.2544-1.6608 2.0187-.5426 2.0187h18.647c1.447 0 1.7759-.5334 2.1623-1.0422l3.7491-5.7935c.5427-.7057-.592-.8124-1.1346-.1066M431.588 178.2648c2.6063 0 4.8508 1.8382 5.5825 3.8487.181.476 1.5704.8534 1.8582.2544l1.6279-2.987c.6988-1.3048-.4604-2.7983-2.3186-2.7983h-21.7795c-1.5703 0-1.1017 1.6248-.4686 1.6248 1.3977 0 1.817 1.7068.9701 3.143l-6.5445 12.03c-.9784 1.1407-1.6115 1.6413-3.0092 1.6413-1.1181 0-1.521 1.633.0576 1.633h22.059c.9044 0 1.2909-.32 1.6197-.7714l2.9928-3.98c.74-.9436-.8469-.9436-1.3237-.4759-3.815 3.8076-7.893 3.701-10.8528 3.701h-2.5734l3.0256-6.7455h.6413c1.9403 0 4.1767-.0164 4.7604 1.4525.1644.3529 1.1182.6401 1.5046 0l2.5816-5.1452c.4111-.7632-.7564-.8863-1.0606-.3447-1.0195 1.8218-5.4921 1.3294-6.6678 1.3294h-.6413l3.7573-7.41h4.2013z" fill="#542582"/></g><path d="M254.6148 248.5698l-5.8868-.0492c-.4193 0-.7564.3364-.7564.7467 0 .4103.337.7468.7564.7468l5.969-.0574c2.0143 0 3.8725.2543 3.3627 1.1488l-15.4734 29.4928c-1.9239 3.5204-5.9937 2.626-6.6432-.1806l-7.6627-39.5288 26.951-20.8763c2.6803-2.2977 7.8272-6.0397 10.4664-5.9905l5.8785-.0328c3.5765-.0246 4.8427 1.6494 4.004 3.7994l-1.0359 2.0023c-.6742 1.116-2.7954 1.2555-4.5878 1.2555h-3.3956c-.411 0-.7481.3365-.7481.7632 0 .4103.337.7468.7481.7468h3.3463c1.447 0 3.264.0328 2.5981 1.116l-12.5053 23.7977c-.5756.9273-3.1736 1.0996-5.3853 1.0996m46.634 14.6807c-12.6123 15.2634-19.757 20.4907-32.5665 20.4907-4.3576 0-6.6268-.9765-5.41-3.0855l15.1939-30.4857h5.7964c6.4705 0 5.5743 5.4325 3.8149 12.7933-.3207 1.034.4686 1.0996 1.2415.197l14.4456-25.3323c.6989-1.592-1.1181-1.912-2.0143-.6893-7.2352 9.7899-14.8485 9.0678-18.055 9.0678h-2.6146l16.2134-30.9124h6.5445c8.2383.517 12.0778 7.5003 9.6935 24.3229h3.4285l11.9216-23.4695c.962-1.9777-1.077-3.7912-3.3216-3.7912l-80.9517.0328c-4.6782 0-4.8838 3.5779-.4029 3.5779 3.6423 0 3.4532 5.219.1809 7.7383l-34.3589 27.2279 6.931 32.1597c.518 2.429 2.0719 3.586 4.7686 3.586h66.9336c2.7625 0 3.8971-1.1242 4.7933-2.273l12.1272-20.901c1.669-3.0034-2.2117-2.8147-4.333-.2544" fill="#542582" fill-rule="nonzero"/><g transform="translate(104.1992 176.4816)"><mask id="b" fill="#fff"><use xlink:href="#a"/></mask><path d="M48.9555 77.995H27.6528l26.9428-35.4586-5.6401 35.4586zm-4.9331 22.0252c-.6413 3.6435-4.3082 6.0643-8.9207 7.2706l-4.7604 1.1899 3.9054-7.0245c1.0277-1.9202-1.225-3.0526-3.6834-.1887-16.5587 19.2269-21.8288 28.4424-47.3575 28.4998l-6.857.0164c-2.0718 0-4.3493-.8042-2.9433-2.79l9.0357-16.7816h34.293c4.6783 0 3.4779-3.5122.7236-3.6106-1.8088-.0575-3.7985-1.0997-5.2044-3.3153-.3864-.6155-1.2415-3.0527.0987-4.9319L25.4823 80.941h21.837l-3.297 19.0792zm50.8189 6.5813c-1.8088-.0575-2.9763-1.3048-3.3792-2.4947-.5755-1.7315-.5344-4.776.1727-6.1217l31.2263-55.2846c.5098-1.0176 1.776-3.1676 3.3298-3.1511 2.7543.0082 3.9465-3.6107-.7235-3.6107h-25.0107c-4.6782 0-4.7275 3.545-.2466 3.545 1.8334 0 2.5487 1.789 2.039 2.8804L95.3346 54.862c-.8633 1.3786-2.779 1.477-4.7933 1.477l-5.9608-.0164c-.4111 0-.7482.3365-.7482.755 0 .4103.337.7468.7482.7468h5.9114c1.6033 0 2.8777.476 1.9486 2.3387l-23.0539 41.9086c-1.6608 2.306-4.966 2.8147-4.7769-1.592l8.1972-61.3899c.3206-1.9202-.1891-3.2168-2.2364-3.2168l-12.3655.0164c-1.4717 0-2.3843.7222-3.0914 1.674l-4.4233 5.5474c-.5756.5744-1.8253.5744-3.1983.5744l-10.376-.0164c-.411 0-.7481.3365-.7481.7468s.3371.7467.7482.7467h8.4684c1.5046 0 3.264.3529 2.631 1.0586L36.3268 61.148c-.3618.4184-1.521.5333-2.2281.5333l-3.3545-.0164c-.411 0-.7564.3365-.7564.7386 0 .4267.3453.7631.7564.7631h2.8036c.8633 0 .8715.4268.518.8124L22.8924 77.995c-.5755.5417-1.6937.6566-2.7872.6566l-9.858-.0082c-.4192 0-.7481.3282-.7481.7467a.745.745 0 0 0 .7482.7468h8.4684c1.2826 0 2.2775.238 1.6033 1.0996L4.4263 101.128c-2.9846 3.7912-17.3727 5.7196-20.168 5.7196L37.9875 6.4952c.518-1.1571 2.5076-2.9132 4.5795-2.9132h11.4037c5.3852 0 5.229-3.5779.5508-3.5779H-2.8336c-4.6782 0-4.8673 3.5779.518 3.5779H8.2987c3.0092 0 3.9876 1.8217 3.2065 3.2988L9.9924 9.6463c-.518.9027-1.225 1.2637-4.1356 1.2637l-18.7703-.0164c-.411 0-.7482.3365-.7482.7468s.3371.7467.7482.7467h18.721c1.0195 0 2.5406.2708 1.5786 2.0926l-2.6227 4.8744c-.4522.7304-1.6033 1.0832-2.9106 1.0832l-8.5177-.0164c-.4193 0-.7564.3283-.7564.7468 0 .4103.337.7467.7564.7467h8.4684c1.2168 0 1.2415.8042.5426 1.9203l-6.043 11.2095c-.518.9601-1.4963 1.075-3.4202 1.075l-3.3956-.0164c-.4111 0-.7482.3364-.7482.755 0 .4185.337.755.7482.755h3.3462c1.2826 0 1.6197.7139 1.0442 1.9201l-4.966 9.1991c-.74 1.3212-1.7923 1.8464-5.0975 1.8464l-18.762-.0164a.745.745 0 0 0-.7483.7467c0 .4185.329.755.7482.755h18.7128c2.1212.0328 2.9023.9683 2.0637 2.47l-9.6853 18.1765c-.5755.796-2.1623.9191-4.8508.9191l-18.7622-.0164c-.4193 0-.7564.3365-.7564.7468s.3371.7385.7564.7385l18.7128.0164c2.2446 0 3.6094.0903 2.9434 1.272l-5.5826 10.4792c-1.0277 1.6002-3.9053 1.6002-5.0317 1.6002l-5.9526-.0164c-.411 0-.7482.32-.7482.7385 0 .4185.3371.755.7482.755h5.9033c2.08 0 3.19.361 2.6392 1.4853l-7.449 13.9832c-.6742 1.2473-3.5929 1.3047-5.8375 1.3047L-76.139 106.7c-.4111 0-.7482.3365-.7482.7468s.337.7467.7482.7467l28.9653.0083c1.924 0 4.3493.238 3.4614 1.7643l-4.7604 8.9364c-.4522.7386-2.0801.796-4.4151.796l-5.9526-.0082c-.4193 0-.7564.3365-.7564.7468s.337.7467.7564.7467h5.9032c1.447 0 3.1983.1641 2.5817 1.2555l-2.968 5.7033c-.962 1.4114-1.924 2.667-4.226 2.667h-14.5609c-5.377 0-5.1961 3.5943-.518 3.5943l85.4984.041c2.4995 0 2.5817-.3365 3.7574-2.1664l12.678-22.0663h64.8123c4.6782 0 3.4779-3.5122.7236-3.6106z" fill="#542582" fill-rule="nonzero" mask="url(#b)"/></g><g transform="translate(300.5715 210.83)"><mask id="d" fill="#fff"><use xlink:href="#c"/></mask><path d="M63.9653 31.7854c-2.3514 1.9285-6.0512 4.1441-6.7665 3.4384-1.0031-.993-4.111-3.1347-5.78-3.8979L65.3712 5.8541c.5755-.9026 1.2415-1.3868 2.779-1.3868 5.4346 0 7.2187 5.8838 4.6617 13.2118-1.7841 5.137-4.6864 10.6926-8.8466 14.1063M176.686 54.623c-.3535-1.7479-.9948-.6893-2.1459 1.5182-.3535.6647-1.48.681-2.598.681l-3.4286.0165c-.411 0-.7481.3364-.7481.7467 0 .4104.337.7468.7481.7468h3.371c1.2826 0 1.299.8534.6988 2.1336-2.3514 5.0221-4.785 8.3866-8.008 12.3994-.5097.6483-1.8088 1.1817-2.8365 1.1817l-3.4367.0246c-.4193 0-.7564.32-.7564.7468 0 .4103.337.7467.7564.7467h3.3627c1.7019 0-.0165 1.0422-.3042 1.4279-5.9773 7.96-10.0964 11.5132-14.495 15.0746-.5098.4103-2.9928.2708-4.7276.2626l-3.3873.0164c-.4193 0-.7564.3283-.7564.7468 0 .4103.337.7467.7564.7467h3.3462c2.557 0 .6413 1.469.255 1.789-9.3154 7.7465-23.202 10.2494-29.541 9.4534-20.6284-2.5767-24.8709-18.193-26.392-24.4378-.3206-1.3048-1.3072-3.9717-1.636-5.6294-.6331-3.266 8.6657-4.1933 11.231-2.4782 3.9053 2.6013 12.9821 5.26 20.1269 5.293 6.6103.0245 20.1351-4.7678 24.0487-16.1087 4.004-11.5788-6.0595-24.446-10.5157-28.8855-5.673-5.6704-11.0254-14.6889-8.7726-21.3112 1.7019-4.9811 4.5548-7.246 10.6554-7.246 7.8847 0 13.6235 5.055 13.6235 12.2353 0 .64-.3946 1.4032-.9126 1.4032l-2.7872.0164c-.411 0-.7482.3365-.7482.7468s.3371.7467.7482.7467h2.6228c.7317 0 1.1921.558 1.003 1.4525-.518 2.4044-.6824 4.0949-1.2086 6.5075-.3042 1.395 1.7512 2.3633 2.4583 1.3376l12.3903-22.0827c.8961-1.6658-1.0935-2.109-2.5652-1.6002-3.3874 1.1817-8.9125 1.986-10.861.5827-4.6371-3.307-8.8549-5.4489-15.3337-5.4489-11.009 0-18.7292 2.708-23.6787 11.7594-.3782.7057-1.4635.6975-2.3925.6975l-2.113-.0082a.7537.7537 0 0 0-.7564.755c0 .4103.337.7467.7564.7467l1.8005-.0164c.7647 0 1.2826.2134.8962 1.0996-.3453.8206-.6413 1.6823-.929 2.5685-1.258 3.9143-.8469 9.4042 1.1099 14.3115.1315.32-.2796.476-1.036.4677l-3.3791.0164c-.4111 0-.7482.3365-.7482.7468 0 .4185.337.755.7482.755h3.3627c1.5375 0 1.891.1559 2.5323 1.0503 1.7348 2.4372 3.519 4.2508 5.7635 7.0901.6988.9027-2.3103 1.1489-3.9136 1.1325H94.6572a.745.745 0 0 0-.7482.7467c0 .4185.329.7468.7482.7468l13.5249-.0164c2.1787 0 5.9032-.0329 6.3225.443 3.2723 3.7667 7.227 9.5766 7.893 14.4592.1973 1.4115-.3372 1.9941-2.072 1.9941h-1.8087c-.4111 0-.7482.3365-.7482.755s.337.7467.7482.7467h1.595c1.373 0 2.1294.2134 1.8088 1.2392-1.7513 5.6047-4.3822 9.6503-15.087 9.5847-11.2228-.0492-13.5084-11.029-10.2197-22.4847.6495-2.2813-.0329-3.2579-1.0524-1.4771L87.751 62.345c-.1973.2872-.9537.9847-2.1376.9847l-1.11-.0082c-.411 0-.7482.3365-.7482.755 0 .4103.3453.7385.7564.7385.9949 0 1.3813.5334 1.003 1.075l-2.8775 4.4641C77.9259 59.5795 70.0165 46.3103 65.7987 41.477l.074-.2298c10.4006-.6319 25.7589-10.3561 28.2665-19.0546C98.505 7.1015 83.821 1.5213 75.8212 1.5213L40.64 1.5377c-4.67 0-5.0153 3.5287-.5262 3.5287 2.4172 0 4.5384 2.1171 3.4614 4.259l-7.7943 14.016c-.6413 1.157-3.0503 1.0832-6.191 1.0832h-3.412c-.4111 0-.7482.3364-.7482.7467 0 .4103.337.7468.7482.7468h3.3544c2.2446 0 4.7111.1395 3.8807 1.7397l-9.2084 16.5927c-.4522.7714-1.6443.8453-4.785.8453l-3.3957.0082c-.411 0-.7481.3364-.7481.7467 0 .4185.337.755.7481.755l3.3216-.0082c2.4748 0 3.3956.3282 2.6886 1.6084L9.7262 70.4198c-1.4717 1.6002-3.223 1.8956-6.2322 1.8956-4.4808 0-4.4315 3.545.2467 3.545h30.1246c4.6782 0 3.486-3.6106.7318-3.6106-1.6197.0082-3.338-2.9707-2.261-4.7514L47.719 38.416h1.562c6.8406 0 8.4932 11.2013 9.784 23.4366.0904.8699-1.5868.9109-4.9906.9109l-8.5507.0082c-.411 0-.7482.3365-.7482.7632 0 .4103.3371.7385.7482.7385h8.4602c2.2446 0 5.3853.0246 5.4593.7468.592 5.3668 1.036 10.0853 2.0555 14.3853.3288 1.3458-2.072 1.1324-4.6371 1.1324l-10.8857.0246c-.4193 0-.7482.3365-.7482.7386 0 .4185.329.755.7482.755l10.8774.0164c3.4203 0 5.1798-.0082 5.377.6975 4.6865 17.1508 24.7806 30.6498 44.3237 29.903 16.7643-.64 30.9222-9.7406 38.1738-15.5423 9.6524-7.7302 23.8185-23.9044 29.582-35.6638 1.0606-2.1582 2.7625-4.9236 2.3761-6.8439" fill="#542582" fill-rule="nonzero" mask="url(#d)"/></g><path d="M194.886 189.7173c-2.8201 3.6517-6.5692 4.579-10.7706 4.579h-1.1921l7.416-14.648c.3536-.6728 1.1346-1.1898 2.0966-1.1898.929 0 .8222-1.8546-.3947-1.8546h-11.6831c-.9949 0-1.3484 1.8546-.4193 1.8546.9948 0 1.1839 1.0996.6988 2.0187l-6.635 13.0723c-.444.7057-1.184.8863-1.9979 1.0914-.9784.2544-1.6608 2.0187-.5426 2.0187h18.6552c1.4388 0 1.776-.5334 2.1541-1.0421l3.7492-5.7936c.5426-.7057-.592-.8124-1.1346-.1066M251.0654 177.1192c-.5673.3037-1.8992.4842-2.4747 0-1.4882-1.239-4.4151-2.191-5.9444-2.191-4.3986 0-7.5887.8699-9.4961 5.014-1.6362 3.5204.041 6.4828 3.9218 8.2717 1.6772.7714 3.9053 1.789 3.0502 3.8076-.6248 1.4771-2.3432 1.633-3.897 1.6166-2.0802-.0164-5.2127-1.5837-5.6978-4.5133-.1644-.9601-1.2826-.7468-1.6032-.2216l-2.6474 5.2683c-.4194.7058.6741 1.4935 1.1099 1.0258.8962-.952 2.8447-1.1817 3.8067-.5416 1.3237.8698 4.7193 2.4208 6.75 2.4044 4.4563-.0328 7.3915-1.1817 9.8251-4.9975 2.2363-3.4712.8633-6.926-3.1983-8.8462-2.154-1.0094-3.9875-2.7983-3.0256-4.7596.6166-1.2801 2.5323-1.0093 3.486-.837 1.817.3036 4.1438 2.0105 4.4152 3.504.115.6401.929.7632 1.2826.197l1.3977-3.266c.3206-.632-.7071-1.1243-1.0607-.9356" fill="#542582" fill-rule="nonzero"/><g transform="translate(347.7947 176.4816)"><mask id="f" fill="#fff"><use xlink:href="#e"/></mask><path d="M32.6841 5.8863l1.6197-2.987C35.011 1.5862 33.8516.101 31.9935.101H10.214c-1.5704 0-1.11 1.633-.4686 1.633 1.3977 0 1.817 1.6986.9701 3.1347L4.1628 16.899c-.9784 1.1406-1.6033 1.6412-3.001 1.6412-1.1182 0-1.521 1.633.0493 1.633h22.0755c.888 0 1.2826-.32 1.6033-.7632l3.001-3.98c.7317-.96-.8469-.96-1.332-.484-3.8067 3.8075-7.8847 3.6927-10.8445 3.6927H13.141l3.0256-6.729h.6413c1.9403 0 4.1766-.0247 4.7686 1.4524.1562.3447 1.1182.6319 1.4964 0l2.5734-5.1452c.4193-.7632-.74-.9027-1.0524-.3529-1.0195 1.8136-5.4922 1.3294-6.6679 1.3294h-.6413l3.7656-7.41h4.1931c2.6063 0 4.8509 1.838 5.5826 3.8486.1809.476 1.5704.8616 1.8581.2544" fill="#542582" fill-rule="nonzero" mask="url(#f)"/></g><path d="M272.8088 186.1829l7.2598-5.9248.033 5.9248h-7.2928zm51.9535-9.6012h-7.7532c-1.5703 0-1.1017 1.633-.4604 1.633 1.6526 0 3.1572 1.9367 2.2528 3.7256l-3.2065 5.8592-7.079-10.3315c-.4769-.64-1.595-.9519-2.5487-.9519h-7.6299c-1.5703 0-1.2003 1.6248-.559 1.6248 1.6114 0 1.2003 1.2063.7975 2.068l-6.076 11.6772c-.3864.9437-2.039 1.0668-2.557-.1149l-4.7028-15.2961c-.1973-.6073-2.9434-.5745-3.6422 0l-11.79 9.6996-6.1006.0082c-1.2169 0-1.6937.5006-1.6937 1.1406 0 .6401.4604 1.2227 1.743 1.2227l3.19-.0082-3.19 2.626c-1.776 1.3212-3.593 3.1347-4.8015 3.1347h-.74c-1.1593 0-1.8006.1806-1.8006 1.1079 0 .9272.4851 1.2473 1.5704 1.2473h9.5126c1.7841 0 1.4388-2.3306.5426-2.3306-.9783 0-2.6063-1.2473-1.1017-3.0116l2.9023-2.7655h5.7224c3.3874 0 5.7635 3.9308 3.7409 5.137l-1.5704.87c-.7317.3774-1.0606 2.1007 0 2.1007h18.5813c1.373 0 1.0935-1.8136.4522-1.8136-1.8993 0-1.003-2.7326-.6413-3.463l4.8837-9.2236 6.857 13.2529c.444.8452.8468 1.2473 1.6526 1.2473h2.6227c.8386 0 1.11-.476 1.5046-1.116l7.8025-14.0735c1.258-2.511 2.2199-3.2414 3.7984-3.2414.6413 0 1.0853-1.6413-.485-1.6413zM216.589 188.2426c-2.0719 4.1277-5.5415 6.5731-7.7449 5.4735-2.2117-1.1078-2.3185-5.3504-.2549-9.4699 2.072-4.1276 5.5415-6.573 7.7532-5.4734 2.2034 1.0996 2.3185 5.3422.2466 9.4698m-1.8499-12.5471c-6.528 0-13.2617 3.2168-14.6019 10.0607-1.1675 5.9494 2.9516 12.1286 10.2526 12.1286 6.9392 0 13.3522-4.538 14.643-11.111 1.2908-6.5978-3.634-11.0783-10.2937-11.0783M346.8484 185.6782h-8.3944c-1.5704 0-1.11 1.633-.4686 1.633.666 0 1.2826.3529 1.2826 1.4033 0 3.3891-1.447 4.6939-4.3576 4.6939-3.1983 0-4.3493-3.8651-2.1952-8.6082 1.373-3.0363 5.007-5.8674 9.3235-5.8674 2.6392 0 4.859.5662 5.1962 3.0445.0822.599.9948.599 1.3155.0328l1.9896-3.5697c.222-.3775-.1233-.8288-.7317-.8616-.5098-.0328-1.6608.6154-2.4172.0656-1.6773-1.2555-5.336-2.4536-8.0903-2.4536-4.5055 0-10.7952 1.0176-15.0458 8.3702-3.8396 6.6634 1.7512 13.7042 6.9392 13.7124 2.8858.0083 6.232-2.1253 8.1478-2.9213l2.1376 1.436c.3207.3857.9949.8617 1.6362.8617h.7975c.74 0 1.0277-.993 1.3155-1.633l3.2887-7.96c.4193-.796.189-1.3786-1.669-1.3786M461.817 177.1192c-.5673.3037-1.8992.4842-2.4748 0-1.4881-1.239-4.415-2.191-5.9443-2.191-4.3905 0-7.5887.8699-9.4962 5.014-1.6361 3.5204.0411 6.4828 3.9218 8.2717 1.6773.7714 3.9136 1.789 3.0503 3.8076-.6249 1.4771-2.3432 1.633-3.8971 1.6166-2.0801-.0164-5.2044-1.5837-5.6977-4.5133-.1562-.9601-1.2744-.7468-1.595-.2216l-2.664 5.2683c-.411.7058.6825 1.4935 1.1182 1.0258.8962-.952 2.853-1.1817 3.8067-.5416 1.3237.8698 4.7193 2.4208 6.7501 2.4044 4.4562-.0328 7.3914-1.1817 9.8333-4.9975 2.228-3.4712.855-6.926-3.2065-8.8462-2.1541-1.0094-3.9876-2.7983-3.0256-4.7596.6248-1.2801 2.5405-1.0093 3.4942-.837 1.8088.3036 4.1356 2.0105 4.4069 3.504.1151.6401.929.7632 1.2826.197l1.406-3.266c.3124-.632-.7154-1.1243-1.069-.9356M403.462 189.7173c-2.82 3.6517-6.5692 4.579-10.7705 4.579h-1.1922l7.416-14.648c.3536-.6728 1.1347-1.1898 2.0966-1.1898.9291 0 .814-1.8546-.4028-1.8546h-11.675c-.9948 0-1.3483 1.8546-.4193 1.8546.9949 0 1.1757 1.0996.6989 2.0187l-6.635 13.0723c-.4522.7057-1.184.8863-1.9979 1.0914-.9866.2544-1.6608 2.0187-.5426 2.0187h18.647c1.447 0 1.7759-.5334 2.1623-1.0421l3.7491-5.7936c.5427-.7057-.592-.8124-1.1346-.1066M431.588 178.2648c2.6063 0 4.8508 1.8382 5.5825 3.8487.181.476 1.5704.8534 1.8582.2544l1.6279-2.987c.6988-1.3048-.4604-2.7983-2.3186-2.7983h-21.7795c-1.5703 0-1.1017 1.6248-.4686 1.6248 1.3977 0 1.817 1.7068.9701 3.143l-6.5445 12.03c-.9784 1.1407-1.6115 1.6413-3.0092 1.6413-1.1181 0-1.521 1.633.0576 1.633h22.059c.9044 0 1.2909-.32 1.6197-.7714l2.9928-3.98c.74-.9436-.8469-.9436-1.3237-.4759-3.815 3.8076-7.893 3.701-10.8528 3.701h-2.5734l3.0256-6.7455h.6413c1.9403 0 4.1767-.0164 4.7604 1.4525.1644.3529 1.1182.6401 1.5046 0l2.5816-5.1452c.4111-.7632-.7564-.8863-1.0606-.3447-1.0195 1.8218-5.4921 1.3294-6.6678 1.3294h-.6413l3.7573-7.41h4.2013z" fill="#542582" fill-rule="nonzero"/><g fill="#2D2925" fill-rule="nonzero"><path d="M263.1696 126.408c-10.2773-.7304-18.6717-1.0258-26.0138-.2544 2.1295-5.3504 6.3801-10.348 9.6606-12.539 6.9968.2873 14.232 1.3048 19.9543 2.4373 18.3346 3.6106 46.823 14.7545 59.0982 31.1996-16.3613-10.906-43.5508-19.4813-62.6993-20.8435m-30.7742.3856c-6.1828.3775-17.3809 2.8065-21.3766 3.9636-1.0278-2.6916-3.856-11.0044-4.7605-13.6878 11.3708-3.2168 24.5914-4.341 34.7618-3.4548-2.8283 2.1747-7.597 10.7418-8.6247 13.179m-51.7644 15.2142c-1.2661-2.1336-7.2927-7.6153-10.5567-8.6985 7.5969-5.6212 25.2408-13.6796 31.9334-15.0828 1.1593 1.912 4.2506 10.1017 5.2784 13.5483-5.9197 1.2801-21.6316 6.9095-26.655 10.233m165.2003 18.6689c-1.6772-1.9203-3.9958-6.0069-20.6038-20.4579-24.4187-21.2456-56.7797-30.9452-87.1674-30.9452-22.4044 0-42.0133 5.014-63.7353 16.962-27.6827 15.1977-39.144 32.6768-41.9722 36.23-2.0883 2.6177-2.3843 4.144-1.036 4.9237.9702.558 2.8283-1.4771 4.5714-3.7748 8.23-10.8485 19.058-21.6067 30.4535-27.9336 3.5436.5087 8.5013 5.4324 10.4252 8.0502-7.2927 3.9717-19.3705 13.1461-23.9419 16.6912-3.9546 3.0526-5.3195 4.7677-4.2506 6.0068.8797 1.034 3.9053-1.0011 6.4376-3.069 4.374-3.5779 17.3809-12.7852 23.8186-16.24 4.3822 5.1207 2.9598 14.5741 1.4141 16.6257-.8304 1.0996-.9455 2.273 0 2.8146.9044.5088 1.8828-.7877 3.1572-2.626 2.9845-4.3 1.7923-14.7217-.7729-18.4719 7.8518-4.8662 19.1239-8.124 25.948-9.6585.5755 1.0914 8.8466 25.2173 10.4252 29.5994.8633 2.4044 1.7184 5.2765 3.4778 4.735 1.1675-.3612.3947-2.9871-.5837-5.6295-1.2004-3.266-7.4654-23.5269-9.3975-29.5338 2.261-1.2145 15.8516-3.9717 19.2554-3.8404-1.6772 8.8298 4.5795 12.4486 11.6503 17.0769 3.7573 2.4618 27.6499 16.1578 32.6405 19.2433 2.8447 1.7561 5.0564 2.8886 5.6648 2.0433.6988-.9437-1.2415-2.9378-3.8643-4.4723-2.0965-1.2227-24.32-14.098-33.6106-19.949-6.6432-4.1934-10.2197-8.6821-8.6247-14.5823 2.1952-.6319 8.8878-.6893 15.8434-.6319 47.3822.3775 85.3668 27.4905 89.6175 31.8315 2.1459 2.2075 5.1468 4.0949 6.3061 3.2004.7317-.5662-.5344-3.0609-1.5457-4.218M356.0823 322.5774c1.7513-3.2168 3.1736-5.0467 1.6773-5.8756-1.373-.7631-2.7132 2.2239-4.3822 5.1124-5.5333 9.5848-11.5763 17.5037-25.2327 29.9277-15.128 13.7452-32.5172 21.7298-38.5602 23.7813-5.155-14.451-24.7887-75.9967-25.3066-77.7528-.7729-2.6178-1.4306-3.381-2.3186-3.061-.9948.353-.3864 1.7808.1316 4.0867.5097 2.2977 23.8843 75.127 24.6571 77.679-4.637 2.3141-23.4732 7.5579-36.6363 7.9928-11.7078.3857-25.4875 0-32.4432-1.592-8.1478-6.5731-26.6879-32.7013-33.7257-46.6107-8.2958-16.3958-13.788-31.4786-15.2021-37.863-.6824-3.0609-1.554-5.2683-3.0914-4.981-1.6608.32-.707 2.7408.263 6.0232 2.4913 8.4195 6.561 20.3594 15.194 37.3952 9.1508 18.037 25.4875 39.1924 30.248 44.9449-14.9226-3.1265-33.0681-10.1017-50.3092-22.9279-14.8486-11.0536-27.6088-25.127-34.0218-35.3765-1.1017-1.7643-2.3925-4.259-3.9875-3.2004-.7236.476.1644 2.47 1.2826 4.4805 9.3152 16.6995 32.0403 40.3495 61.1618 53.3233 33.9396 15.1157 70.9458 14.3115 104.0385 1.5264 28.9407-11.185 54.124-34.1949 66.5636-57.0325"/></g><g><g transform="translate(130.3936 112.3567)"><mask id="h" fill="#fff"><use xlink:href="#g"/></mask><path d="M132.776 14.0512c-10.2773-.7303-18.6717-1.0257-26.0138-.2544 2.1295-5.3503 6.3801-10.3479 9.6606-12.5389 6.9968.2872 14.232 1.3048 19.9543 2.4372 18.3346 3.6107 46.823 14.7546 59.0982 31.1996-16.3613-10.9059-43.5508-19.4813-62.6993-20.8435m-30.7742.3857c-6.1828.3775-17.3808 2.8065-21.3766 3.9636-1.0278-2.6916-3.856-11.0044-4.7604-13.6878 11.3707-3.2168 24.5913-4.341 34.7617-3.4548-2.8283 2.1746-7.597 10.7418-8.6247 13.179M50.2374 29.651c-1.2661-2.1335-7.2927-7.6152-10.5567-8.6984C47.2776 15.3314 64.9216 7.273 71.614 5.8697c1.1593 1.912 4.2507 10.1018 5.2784 13.5483-5.9197 1.2802-21.6315 6.9096-26.655 10.233M215.4377 48.32c-1.6772-1.9203-3.9958-6.007-20.6038-20.4579C170.4153 6.6165 138.0544-3.083 107.6666-3.083c-22.4043 0-42.0133 5.014-63.7353 16.962-27.6827 15.1977-39.1439 32.6767-41.9722 36.23-2.0883 2.6177-2.3843 4.144-1.036 4.9236.9702.558 2.8283-1.477 4.5714-3.7748 8.23-10.8485 19.058-21.6067 30.4535-27.9336 3.5436.5088 8.5013 5.4325 10.4252 8.0502-7.2927 3.9718-19.3705 13.1462-23.9418 16.6912-3.9547 3.0527-5.3195 4.7678-4.2507 6.007.8797 1.0339 3.9053-1.0012 6.4376-3.0692 4.374-3.5778 17.381-12.785 23.8186-16.2399 4.3822 5.1207 2.9598 14.574 1.4141 16.6256-.8304 1.0996-.9455 2.2731 0 2.8147.9044.5088 1.8828-.7878 3.1572-2.626 2.9845-4.3 1.7923-14.7217-.7729-18.4719 7.8518-4.8662 19.124-8.124 25.948-9.6586.5755 1.0914 8.8466 25.2174 10.4252 29.5994.8633 2.4044 1.7184 5.2766 3.4778 4.735 1.1675-.3611.3947-2.987-.5837-5.6294-1.2004-3.266-7.4654-23.527-9.3975-29.5338 2.261-1.2145 15.8516-3.9718 19.2554-3.8405-1.6772 8.8298 4.5795 12.4487 11.6503 17.077 3.7573 2.4618 27.6499 16.1578 32.6405 19.2433 2.8447 1.756 5.0564 2.8885 5.6648 2.0433.6988-.9437-1.2415-2.9378-3.8642-4.4723-2.0966-1.2227-24.32-14.0981-33.6107-19.949-6.6432-4.1934-10.2197-8.6821-8.6247-14.5823 2.1953-.6319 8.8878-.6893 15.8434-.6319 47.3822.3775 85.3668 27.4905 89.6175 31.8315 2.1459 2.2074 5.1468 4.0948 6.3061 3.2004.7318-.5663-.5344-3.061-1.5457-4.218" fill="#2D2925" fill-rule="nonzero" mask="url(#h)"/></g><g transform="translate(122.7503 292.891)"><mask id="j" fill="#fff"><use xlink:href="#i"/></mask><path d="M233.332 29.6863c1.7513-3.2168 3.1737-5.0467 1.6773-5.8755-1.373-.7632-2.7132 2.2238-4.3822 5.1124-5.5333 9.5847-11.5763 17.5036-25.2327 29.9276-15.128 13.7453-32.5172 21.7298-38.5602 23.7813-5.155-14.451-24.7887-75.9967-25.3066-77.7528-.7729-2.6178-1.4306-3.381-2.3186-3.061-.9948.353-.3864 1.7808.1316 4.0867.5097 2.2977 23.8843 75.127 24.6571 77.679-4.637 2.3142-23.4732 7.5579-36.6363 7.9928-11.7078.3857-25.4875 0-32.4431-1.592-8.1478-6.573-26.688-32.7013-33.7258-46.6107-8.2958-16.3958-13.788-31.4786-15.2021-37.863-.6824-3.0608-1.554-5.2683-3.0914-4.981-1.6608.32-.707 2.7408.2631 6.0232 2.4912 8.4195 6.561 20.3594 15.1939 37.3952 9.1508 18.037 25.4875 39.1924 30.248 44.9449-14.9226-3.1265-33.0681-10.1017-50.3092-22.9279C23.4463 54.912 10.686 40.8385 4.273 30.589 3.1713 28.8247 1.8805 26.33.2855 27.3886c-.7235.476.1644 2.47 1.2826 4.4805C10.8834 48.5686 33.6084 72.2186 62.73 85.1924c33.9395 15.1157 70.9458 14.3115 104.0385 1.5264 28.9406-11.185 54.124-34.1949 66.5636-57.0325" fill="#2D2925" fill-rule="nonzero" mask="url(#j)"/></g></g><path d="M0 0h500v500H0z"/></g></svg>