<svg width="500" height="500" viewBox="0 0 500 500" xmlns="http://www.w3.org/2000/svg"><title>memphis-grizzlies</title><g fill="none" fill-rule="evenodd"><path d="M0 0h500v500H0z"/><g fill-rule="nonzero"><path d="M423.6965 145.7927c4.9462-9.3346 7.3039-18.6923 7.3039-27.6423 0-20.3962-11.377-38.6462-27.3654-49.527-22.2346-15.1346-55.6462-17.223-79.2615 11.0193-34.477-4.7115-63.3847 4.773-74.3731 9.2885-10.9885-4.5154-39.9-14-74.373-9.2885-23.6155-28.2423-57.027-26.1539-79.2616-11.0192-15.9923 10.8807-27.3654 29.1307-27.3654 49.5269 0 8.95 2.3577 18.3077 7.3038 27.6423-17.8192 25.7192-30.15 56.2192-30.15 87.2808 0 37.4115 15.9731 56.6692 21.9962 64.9538 0 0 2.5884-2.5885 4.823-4.8192 16.9154 43.0577 45.8847 66.2269 80.85 87.3461 0 0 .7731-4.2577 1.4654-8.0692 37.6462 32.627 55.5847 24.6038 94.7116 68.8615 38.9846-44.0923 57.3961-36.5153 94.7115-68.8615a5015.8751 5015.8751 0 0 1 1.4654 8.0692c15.5654-9.4 59.4808-32.9538 80.8539-87.3461 2.2269 2.2307 4.8153 4.8192 4.8153 4.8192 3.6923-5.073 22-25.5 22-64.9538 0-31.0539-12.3269-61.5577-30.15-87.2808" fill="#707271"/><path d="M412.9246 146.3242c35.9116-55.1192-45.527-112.5115-84.9846-56.9884-39.8577-7.0616-73.4346 7.4654-77.9385 9.5615-4.5-2.0961-38.0846-16.623-77.9423-9.5615-39.4577-55.5231-120.8923 1.8692-84.9846 56.9884-40.9154 56.1846-36.7923 111.5846-17.8192 137.6462l7.8461-7.85s11.15 54.1538 70.0808 89.723l2.123-11.6807c36.277 38.75 69.4193 37.877 100.6962 73.2654 31.2731-35.3885 64.4193-34.5154 100.6923-73.2654l2.1231 11.6808c58.9308-35.5693 70.0846-89.7231 70.0846-89.7231l7.8462 7.85c19.027-26.1385 23.127-81.4154-17.823-137.6462" fill="#12173F"/><path d="M250.3642 352.4238s-28.2961.427-32.4769 3.0424c0 0-4.8615 8.4153 32.477 8.2576 35.5153-.1615 30.2769-6.6346 30.5345-7.5923 0 0-12.0192-3.7077-30.5346-3.7077M225.832 319.5438s4.4115-12.7807 9.123-8.7384c6.5423 5.6 15.0462 16.9923 15.0462 18.2115v15.2193l-10.3154.5384c-5.9231.1692-25.0346 4.7346-25.0346 4.7346-26.3116-65.1538-11.7231-114.4577-4.6962-132.05-26.0846 5.6539-30.2923-25.6538-30.2923-25.6538 2.7077-.5539 6.7.6308 11.2 2.7846 6.973 3.3346 15.173 8.9962 21.7115 14.073h.0039a183.5913 183.5913 0 0 1 5.3 4.2808c17.7346 14.9231 32.123 11.8962 32.123 11.8962v63.7692s-51.7461-4.0077-24.1692 30.9346M274.3277 319.555c32.9308-33.4115-20.8039-31.4615-24.2039-30.9385 5.5154.3116 47.1731.5423 24.2039 30.9385" fill="#5D76A9"/><path d="M296.21 218.4715c29.6385 79.8116-7.9346 131.1654-8.1462 131.45 23.327-61.0769 8.3347-111.873-1.873-130.7384-5.2423.523-11.5346.2192-11.5346.2192s7.8769-4.8654 12.9807-9.5038c.3539-.3231.7539-.6847 1.1962-1.077 4.2384-3.7615 12.3307-10.3807 22.1538-14.2077 3.5885-1.4 7.4154-2.4307 11.3654-2.8076 0 0-2.827 26.3038-26.1423 26.6653" fill="#5D76A9"/><path d="M112.8062 140.7258c-1.0693-10.0885 11.6769-20.0885 11.6769-20.0885-5.2577-5.427-14.4308-.723-14.4308-.723 8.327-16.2847 26.977-8.3231 26.977-8.3231-7.0693-8.6616-22.0424-8.1154-22.0424-8.1154 18.527-18.3616 40.8923 9.7038 40.8923 9.7038-19.9154 4.5116-43.073 27.5462-43.073 27.5462M343.133 115.195s12.0923-30.2308 49.1423-22.9308c0 0-34.0154-22.3846-57.6846 18.0808 0 0-33.9577-15.9308-84.5923 5.9615 0 0-47.5847-16.723-83.75-7.2538 0 0-21.0923-36.5962-50.8-21.523-29.7 15.0653-14.2039 49.9345-9.0308 58.973 0 0-49.2192 50.1423-30.7154 112.1461l9.9039-12.3538s14.1384 67.5192 50.6192 88.8l2.1884-16.6s38.0847 45.9538 82.8693 65.4692c4.2615 1.9962 27.9846 13.7885 28.7154 19.6077v-32.1538s-31.0654 2.5846-39.2616-11.7539c-5.5692-9.7538-41.2884-73.473-23.6384-140.2077 0 0-17.1847-2.5692-20.4231-31.5577 0 0-12.8116-6.2384-28.7385-4.9461 0 0 28.4846-8.9423 55.1808 1.3961 26.6885 10.3308 33.8385 36.6385 51.923 25.0116l4.9578-74.1116 5.4577 74.1116c18.0846 11.627 25.2384-14.6808 51.9269-25.0116 26.6961-10.3384 55.1884-1.3961 55.1884-1.3961s-11.3961-8.0346-29.7077-11.6962c-15.2846-3.0577-37.75 6.7654-37.75 6.7654s3.1077-21.0269 13.3039-32.2346c8.7577-9.6385 28.5885-11.7654 34.7154-30.5923" fill="#5D76A9"/><path d="M212.573 208.6627c-2.8615-.8923-7.5845 2.0615-10.2192 7.1885-8.8423-2.5539-11.8692-12.1039-11.4961-21.2577l.0038-.0039c6.9731 3.3346 15.1731 8.9962 21.7116 14.073M299.4892 215.8535c-2.773-5.3962-7.8654-8.4039-10.6577-7.0308 4.2385-3.7615 12.3347-10.3808 22.1539-14.2077.4 9.1538-2.7039 18.7-11.4962 21.2385" fill="#FB2"/></g></g></svg>