<svg width="500" height="500" viewBox="0 0 500 500" xmlns="http://www.w3.org/2000/svg"><title>milwaukee-bucks</title><g fill="none" fill-rule="evenodd"><path d="M168.8688 414.6961c-2.0378-1.6756-2.89-4.3862-2.1736-6.9243l24.071-85.3964a6.3104 6.3104 0 0 1 .5805-1.4292l-11.0536-17.656c-1.0128-1.614-1.2722-3.573-.741-5.3965l1.5437-5.1871-15.1417-.9734c-14.2401-1.0473-19.3162-2.92-22.7002-4.7805-14.2772-7.873-18.007-30.4697-18.8222-37.2092l-.9015-7.5897c-.4447-3.0802.3581-6.0866 2.2107-8.255 1.445-1.6757 3.4334-2.7476 5.5824-2.994-32.9264-29.7181-62.6911-66.644-52.292-118.6876 11.4736-57.4771 58.035-74.8004 60.011-75.515.7411-.271 1.5068-.3943 2.2479-.3943 2.396 0 4.6808 1.2937 5.8665 3.5115.8274 1.5524.988 3.2897.5557 4.879 15.3764-13.0108 30.0735-18.6908 36.2364-20.6621.667-.2218 1.3586-.3204 2.0255-.3204 2.5565 0 4.9525 1.4662 6.064 3.8935 1.3957 3.0556.2718 6.6902-2.6182 8.4275-14.0425 8.4645-26.2695 19.9845-35.4954 33.2419 11.2143-2.612 18.7357-2.8955 21.3664-2.8955.9016 0 1.3586.037 1.3586.037 3.2852.1971 5.9529 2.7722 6.237 6.0373.2964 3.265-1.828 6.259-5.0267 7.0352-.173.0493-18.4763 4.6696-38.6818 19.1344-3.8163 11.6063-5.743 23.7301-5.743 36.0388 0 23.3358 7.4845 47.3 20.539 65.7321 3.1123 4.3986 6.1875 8.2304 9.411 11.7296-1.2474-23.9642 5.6318-61.4076 49.0438-78.78.8152-.3327 1.655-.4806 2.4825-.4806 2.4454 0 4.792 1.3553 5.9406 3.6716 1.5562 3.0803.4693 6.8382-2.4825 8.637l-.321.1848c-6.694 4.3493-12.3259 9.9677-16.6238 16.4731 4.7178-1.4539 8.7812-1.9344 11.523-2.2547l.5187-.0616c.2594-.037.531-.0493.7904-.0493 2.7789 0 5.3107 1.7372 6.2617 4.4109 1.0498 2.92-.0864 6.1728-2.7047 7.8361l-.2223.1355a2.1759 2.1759 0 0 1-.2841.1725c-13.8943 7.9963-21.6257 17.2986-22.972 27.6728-1.482 11.3353 4.8044 22.0052 9.3123 28.0302 11.6836-13.4791 19.2915-36.507 21.4158-45.1809.741-3.0063 3.4334-5.0639 6.4593-5.0639.2594 0 .5187.0123.7781.0493 3.3346.382 5.8665 3.1911 5.8788 6.5424.173 28.3012-7.4473 47.6327-15.2528 59.9783 11.6959 5.914 23.1572 6.259 25.6396 6.259.284 0 .6793-.0123.7657-.0123.0741 0 .494.0123.7905.0123 2.4824 0 13.9437-.345 25.6396-6.259-7.8055-12.3456-15.4258-31.6771-15.2529-59.9783.0124-3.3513 2.5319-6.1605 5.8665-6.5424.2717-.037.5311-.0493.7905-.0493 3.0258 0 5.7182 2.0576 6.447 5.064 2.1366 8.6738 9.7445 31.7017 21.428 45.1808 4.4956-6.0126 10.782-16.6949 9.3123-28.0302-1.3462-10.3742-9.0776-19.6765-22.972-27.6728-.0864-.0493-.4198-.2587-.4198-.2587-2.6307-1.6633-3.7916-4.9407-2.7542-7.8608.951-2.6736 3.4458-4.4355 6.237-4.4355.2594 0 .5187.0123.778.0493l.5188.0616c2.7295.3203 6.8051.8008 11.523 2.2547-4.298-6.5054-9.9298-12.1238-16.6237-16.4608l-.3088-.197c-2.9641-1.799-4.051-5.5568-2.5072-8.637 1.161-2.3164 3.5076-3.6717 5.953-3.6717.8275 0 1.6673.1479 2.4824.4805 43.412 17.3725 50.2913 54.8159 49.0315 78.78 3.2358-3.499 6.3111-7.3309 9.4234-11.7295 13.0545-18.432 20.539-42.3963 20.539-65.7321 0-12.321-1.9268-24.4325-5.7554-36.0388-20.3166-14.5756-38.4842-19.0851-38.6694-19.1344-3.1988-.7762-5.323-3.7702-5.039-7.0352.2964-3.265 2.9641-5.8402 6.237-6.0373 0 0 .4693-.037 1.3709-.037 2.6183 0 10.1521.2834 21.354 2.8955-9.2135-13.2574-21.4405-24.7774-35.483-33.242-2.89-1.7372-4.0139-5.3595-2.6183-8.4274a6.656 6.656 0 0 1 6.0518-3.8935c.6792 0 1.3585.0986 2.0378.3204 6.1629 1.9713 20.86 7.6513 36.2364 20.6622-.4323-1.5894-.2841-3.3267.5434-4.8791 1.1856-2.2178 3.4828-3.5115 5.8788-3.5115.741 0 1.5068.1232 2.2478.3943 1.976.7146 48.5251 18.0379 60.011 75.515 10.3992 52.0436-19.3655 88.9695-52.292 118.6876 2.149.2464 4.1375 1.306 5.5701 2.994 1.865 2.1684 2.6677 5.1748 2.2231 8.255l-.914 7.5897c-.8027 6.7395-4.5325 29.3361-18.8097 37.2092-3.384 1.8605-8.4725 3.7332-22.6385 4.7805l-15.2034.9734 1.5438 5.187c.531 1.8236.2593 3.7826-.741 5.3967l-11.0538 17.6559c.247.4435.4447.924.5805 1.4292l24.0711 85.3964c.7164 2.5381-.1358 5.2487-2.1737 6.9244l-80.4758 65.2516-80.4759-65.2516z" fill="#EDE0C5" fill-rule="nonzero"/><path d="M117.0375 181.6346s-9.7445-44.072-2.5072-70.1554c-1.9266 2.0822-3.8904 4.226-5.6935 6.567-17.6612 22.7938 8.2007 63.5884 8.2007 63.5884m264.6094 0s25.8743-40.7946 8.2131-63.5884c-1.8155-2.341-3.7792-4.4848-5.7059-6.567 7.2497 26.0834-2.5072 70.1554-2.5072 70.1554M85.5561 113.512c10.8808-54.4585 55.7378-70.562 55.7378-70.562-16.4262 12.0992-33.1858 34.8683-40.1144 66.8288 6.7433-8.3536 12.9927-14.6126 20.3412-19.615 18.1923-39.082 49.2291-54.939 64.4573-59.8057-19.7485 11.9143-36.2734 29.6441-46.3144 50.06 22.836-8.1319 36.6316-7.3803 36.6316-7.3803s-20.4277 4.953-42.745 21.463c-4.3722 12.5797-6.7682 26.0958-6.7682 40.154 0 24.7527 7.9908 50.1215 21.7616 69.5763 7.7438 10.941 15.2405 18.506 24.5528 25.3934-3.0876-7.7375-14.8082-67.457 41.8065-90.1153l-.3953.2341c-13.3756 8.6493-23.2312 22.1038-27.2328 37.9485 10.3374-9.8814 21.2428-10.904 26.9858-11.594-.0988.0616-.1852.1232-.2717.1725-52.5637 30.2479-10.7696 71.2027-10.7696 71.2027 16.5744-13.8488 26.2324-44.8729 28.3073-53.362.21 32.786-10.7202 52.4133-18.1552 61.999 16.9449 11.6063 35.9523 10.83 35.9523 10.83h.037c.0124 0 19.0075.7763 35.9524-10.83-7.435-9.5857-18.3529-29.213-18.1553-61.999 2.0749 8.4891 11.7453 39.5132 28.3074 53.362 0 0 41.8064-40.9548-10.7573-71.2027-.0988-.0493-.1853-.1109-.2717-.1725 5.7306.69 16.636 1.7126 26.9735 11.594-4.0016-15.8447-13.8573-29.2992-27.2329-37.9485l-.3952-.234c56.6147 22.6581 44.894 82.3777 41.8064 90.1152 9.3247-6.8874 16.809-14.4524 24.5528-25.3934 13.7832-19.4548 21.774-44.8236 21.774-69.5763 0-14.0582-2.396-27.5743-6.7805-40.154-22.3173-16.51-42.7327-21.463-42.7327-21.463s13.7832-.7516 36.6192 7.3802c-10.041-20.4158-26.5535-38.1456-46.3143-50.06 15.2281 4.8668 46.265 20.7239 64.4572 59.8059 7.3486 5.0023 13.6103 11.2613 20.3536 19.6149-6.9286-31.9605-23.7006-54.7296-40.1267-66.8287 0 0 44.8693 16.1034 55.7378 70.562 12.6716 63.3912-38.0766 102.9783-79.0062 136.8855l31.2468-12.7029c2.112-.8994 3.5816 1.1336 3.1864 3.5731l-.914 7.6883c-.5063 4.2384-3.6186 25.6891-15.4257 32.1823-2.5565 1.4169-6.9533 3.0186-19.909 3.9796l-23.4536 1.5032 3.9028 13.1587-23.0214 36.778 11.7824-12.3948 24.0711 85.4087-66.038 54.1998 20.6005-93.2449-30.8021 37.3817-30.8145-37.3817 20.6006 93.2449-66.038-54.1998 24.071-85.4087 11.7948 12.3948-23.0214-36.778 3.8904-13.1587-23.4536-1.5032c-12.9556-.961-17.3524-2.5627-19.909-3.9796-11.807-6.4932-14.9194-27.944-15.4257-32.1823l-.914-7.6883c-.3952-2.4395 1.0745-4.4725 3.1865-3.573l31.2467 12.7028c-40.9172-33.9072-91.6654-73.4943-79.0061-136.8856" fill="#00471A" fill-rule="nonzero"/><path d="M141.2976 248.8157s2.2725 19.1221 10.325 23.5576c5.4219 2.9817 18.6863 2.6983 30.271 3.5854-12.832-4.9653-31.7284-18.506-40.596-27.143zm71.0524 40.425c7.015 5.3966 12.9557 2.3903 16.1421-.727 1.0498-1.0103.7287-2.7598-.5928-3.3635-3.347-1.5278-9.6705-4.4233-15.9569-7.3064-1.2597-.5667-2.7047.2095-2.927 1.5771-.4446 2.7106-.3829 6.949 3.3346 9.8198zm12.7457 37.1107l-3.7792 16.6086 9.2875 12.5057h9.8557l-9.127-13.4052 1.445-8.2673c4.1375 4.4109 10.0286 7.1708 16.562 7.1954 6.5458-.0246 12.4247-2.7845 16.5744-7.1954l1.445 8.2673-9.1393 13.4052h9.868l9.2876-12.5057-3.7793-16.6086c-8.8676-5.6554-10.9178-13.6763-10.9178-13.6763l-6.1876-20.2063-7.151 3.4622-7.1509-3.4622-6.1752 20.2063s-2.0502 8.021-10.9179 13.6763zm45.0917-37.8376c3.1864 3.1172 9.1394 6.1235 16.1421.7269 3.7175-2.8708 3.7916-7.1092 3.347-9.8198-.2347-1.3676-1.6797-2.1438-2.9394-1.577-6.2864 2.883-12.5975 5.7785-15.9445 7.3062-1.3215.6038-1.6426 2.3533-.6052 3.3637zm-7.4597 74.6525h-26.7759l6.4346 8.711h13.919l6.4223-8.711zm54.0705-87.2076c11.5847-.887 24.8492-.6037 30.271-3.5854 8.0402-4.4355 10.325-23.5576 10.325-23.5576-8.88 8.637-27.7762 22.1777-40.596 27.143z" fill="#FEFEFE" fill-rule="nonzero"/><path d="M0 0h500v500H0z"/></g></svg>