<svg width="500" height="500" viewBox="0 0 500 500" xmlns="http://www.w3.org/2000/svg" xmlns:xlink="http://www.w3.org/1999/xlink"><title>new-orleans-pelicans</title><defs><path id="a" d="M.003 198.3727h499.2428V.2609H.003z"/></defs><g fill="none" fill-rule="evenodd"><g transform="translate(0 150.3687)"><mask id="b" fill="#fff"><use xlink:href="#a"/></mask><path d="M492.2419 58.117C426.7604 19.9076 331.5944 1.0087 287.2618.261c-10.7536 0-15.7226 5.0737-18.009 9.3463-.9145 1.7244-1.5318 3.525-1.8519 5.3866-2.4464-1.5336-4.4584-2.5483-4.5804-2.617l-6.6-3.3342.5793 3.8225c-2.6522-1.442-5.152-2.9374-5.1748-2.9527l-1.9434-1.175-1.951 1.1598s-2.5836 1.526-5.2663 2.9756l.5944-3.853-6.6152 3.357c-.1295.0687-2.1415 1.0834-4.588 2.617-.32-1.8616-.945-3.6699-1.8595-5.3942C227.7249 5.3347 222.7558.261 211.362.261c-43.7076.7477-138.866 19.6466-204.4237 57.902L.003 62.4508l1.1585 2.968c.259.656 5.8607 14.5727 19.434 21.1495l.8384 1.3734c.3506.557 7.4993 11.9862 19.2588 17.2202l.8155 1.32c.3887.6256 8.589 13.6266 24.5174 19.12l1.7834 1.9304c.503.5417 10.883 11.5895 27.543 15.6867l-.1524.1144 4.4432 2.968c.5106.3433 11.1346 7.3321 27.4973 10.7426l-2.0196 1.8006 5.9903 2.1898c1.4632.5417 34.8975 12.5508 65.0394 3.3265 9.656 20.4782 30.7135 34.0133 53.4857 34.0133 22.7645 0 43.8143-13.5351 53.4704-34.0133 30.119 9.2243 63.5761-2.7848 65.0394-3.3265l5.9827-2.1898-2.012-1.793c16.355-3.418 26.979-10.4069 27.4897-10.7502l4.4431-2.968-.1448-.1144c16.6524-4.0972 27.0325-15.145 27.5355-15.6867l1.768-1.9227c15.9437-5.4934 24.144-18.502 24.5251-19.1277l.8155-1.3123c11.7672-5.234 18.9235-16.671 19.2664-17.228l.846-1.3733c13.5734-6.5768 19.1673-20.4934 19.4265-21.1496l1.1584-2.968-7.0039-4.3336z" fill="#FEFEFE" fill-rule="nonzero" mask="url(#b)"/></g><path d="M494.5412 214.3942l-4.2221-2.617c-64.9328-37.8891-159.2072-56.5972-202.488-57.3297h-.5716c-7.1182 0-12.0491 2.4644-14.6404 7.317-2.1872 4.1276-1.9357 8.263-.8688 11.765-.7469-.8546-1.829-1.7625-3.0104-2.6323-3.5133-2.6551-7.644-4.7457-7.644-4.7457s.541 3.4181-.7164 2.9985c-.5869-.1831-1.3109-.496-2.1111-.8621-3.5134-1.6862-8.6043-4.7381-8.6043-4.7381s-5.1672 3.0519-8.673 4.738c-.8002.3663-1.5319.6791-2.1187.8622-1.2575.4196-.7088-2.9985-.7088-2.9985s-4.1307 2.0906-7.6517 4.7457c-1.1812.8698-2.2635 1.7777-3.0103 2.6323 1.067-3.502 1.326-7.6374-.8689-11.765-2.5912-4.8526-7.522-7.317-14.6403-7.317h-.5716C168.14 155.18 73.8655 173.8881 8.9404 211.7772l-4.2297 2.617s6.3713 16.2513 22.1091 20.875l-2.1416 1.0376s8.894 14.443 22.7189 17.4415l-2.6446 1.0987s9.7476 15.7706 28.6405 19.1048l-2.7893 1.3505s13.4819 14.588 34.1582 15.8927l-3.0027 2.2965s13.703 9.1404 33.9068 11.437l-3.2467 2.8916s35.8273 13.1155 65.832 2.1821c8.2767 20.8368 28.6177 34.9213 51.367 34.9213H249.6336c22.7493 0 43.0903-14.0845 51.367-34.9213 30.0046 10.9334 65.832-2.182 65.832-2.182l-3.2467-2.8917c20.2039-2.2966 33.9068-11.437 33.9068-11.437l-3.0028-2.2965c20.6764-1.3047 34.1507-15.8927 34.1507-15.8927l-2.7817-1.3505c18.893-3.3342 28.6328-19.1048 28.6328-19.1048l-2.6369-1.0987c13.8249-2.9985 22.7188-17.4415 22.7188-17.4415l-2.1415-1.0376c15.7378-4.6237 22.1091-20.875 22.1091-20.875" fill="#B49759" fill-rule="nonzero"/><path d="M487.7088 216.2643c-63.5152-37.0423-156.8293-55.8877-199.9501-56.6202-5.1977-.0839-8.734 1.1827-10.5478 4.5702-3.0027 5.646 1.2347 11.9482 3.0409 14.6644 3.9097 5.829 9.0845 14.9542 9.0845 25.9257 0 21.2793-17.1859 37.0194-38.35 37.0194-.4572 0-.9069.0077-1.3565.0077-.4573 0-.907-.0077-1.3642-.0077-21.1565 0-38.35-15.74-38.3424-37.0194 0-10.9715 5.1748-20.0966 9.0769-25.9257 1.8062-2.7162 6.0512-9.0184 3.0409-14.6644-1.8063-3.3875-5.3425-4.654-10.5478-4.5702-43.1208.7325-136.4273 19.578-199.9501 56.6202.0533.1602 10.182 17.5102 30.401 16.03-3.117 1.5183-6.2265 3.0748-9.3207 4.677.0533.1908 9.275 15.3816 31.5442 13.1842-3.7116 1.7548-7.4002 3.5402-11.0813 5.3942.0457.206 10.685 15.1374 34.143 14.7482-5.4034 2.7391-8.6729 4.4787-8.65 4.471.0152.1145 15.5015 15.1145 40.5372 10.9869-2.7055 1.976-5.434 4.0742-8.6653 6.3326.0076.0382 18.39 10.0941 40.019 6.966a902.8805 902.8805 0 0 0-8.3605 6.409c-.0534-.2824 33.1218 9.0945 56.717-1.3048 20.303-8.9573 31.5824-30.9003 34.1583-36.4242 4.0088.885 7.507 1.3962 10.1743 1.709-.0076.29 4.2984.6638 6.4705.5722 2.1644.0916 6.478-.2823 6.4704-.5722 2.6598-.3128 6.1655-.824 10.1667-1.709 2.5683 5.5239 13.8553 27.467 34.1582 36.4242 23.5953 10.3993 56.7628 1.0224 56.717 1.3047a736.2191 736.2191 0 0 0-8.3604-6.409c21.629 3.1282 40.0114-6.9277 40.0114-6.9659-3.2162-2.2584-5.9522-4.3565-8.6577-6.3326 25.0357 4.1276 40.522-10.8724 40.5372-10.9868.0229.0076-3.2466-1.732-8.65-4.471 23.458.389 34.0972-14.5423 34.143-14.7483-3.6735-1.854-7.3697-3.6394-11.0736-5.3942 22.2615 2.1974 31.4832-12.9934 31.529-13.1842a424.6286 424.6286 0 0 0-9.3132-4.677c20.219 1.4802 30.3476-15.8698 30.401-16.03" fill="#002A5B" fill-rule="nonzero"/><path d="M231.3488 256.5294s-56.7628-19.021-32.1006-79.5399c0 0-60.0094 2.495-142.2728 35.7224 0 0-5.7692 2.4034-9.1302 3.6088-3.3686 1.2055-8.7796 3.3571-16.538-.3662 0 0 75.2366-39.377 171.904-48.5097 12.7427-1.2055 14.427.7248 11.0584 5.5391-2.7589 3.9446-37.2753 47.9147 17.0792 83.5455" fill="#FEFEFE" fill-rule="nonzero"/><path d="M180.9215 194.1282c-48.6386 6.3327-96.2026 23.2935-96.2026 23.2935 8.1014 14.4202 30.0657 8.3698 30.0657 8.3698 41.2079-11.681 59.5979-15.641 65.4967-16.7854-.2286-4.593-.0381-9.5524.6402-14.878M181.2827 217.8368c-8.1242 1.5717-42.1758 8.5681-76.5246 21.4547 0 0 10.8298 12.345 32.314 6.2411 18.0699-5.1271 41.2384-12.528 48.1508-14.7482-1.73-3.8988-3.079-8.2096-3.9402-12.9476M188.8292 237.6115c-7.3392 2.3728-44.0353 14.2752-59.5292 20.2264 0 0 8.8863 11.9328 34.547 1.8235 17.8717-7.0423 27.7183-11.1547 32.0624-13.0163-2.5836-2.678-4.9767-5.6842-7.0802-9.0336M201.575 251.8348c-6.4095 2.7848-30.2258 13.1994-43.9973 19.8449 0 0 17.3306 8.53 39.135-4.9593l13.558-8.904c-2.9493-1.7242-5.8835-3.708-8.6957-5.9816M216.8654 261.2827c-4.3593 2.7238-22.4216 14.0997-31.2393 20.6231 0 0 14.968 6.1953 30.3248-8.2859 4.9995-4.7075 7.7279-7.378 9.2292-8.9039-2.6445-.9537-5.4415-2.0829-8.3147-3.4333" fill="#B49759" fill-rule="nonzero"/><path d="M267.907 256.5294s56.7627-19.021 32.1005-79.5399c0 0 60.0094 2.495 142.2652 35.7224 0 0 5.7692 2.4034 9.1378 3.6088 3.3686 1.2055 8.7796 3.3571 16.5304-.3662 0 0-75.2366-39.377-171.8964-48.5097-12.7503-1.2055-14.427.7248-11.066 5.5391 2.7665 3.9446 37.283 47.9147-17.0716 83.5455" fill="#FEFEFE" fill-rule="nonzero"/><path d="M318.3304 194.1282c48.6386 6.3327 96.2026 23.2935 96.2026 23.2935-8.0938 14.4202-30.0657 8.3698-30.0657 8.3698-41.208-11.681-59.5903-15.641-65.489-16.7854.2285-4.593.0304-9.5524-.6479-14.878M317.973 217.8368c8.1166 1.5717 42.1681 8.5681 76.5246 21.4547 0 0-10.8374 12.345-32.314 6.2411-18.0699-5.1271-41.2384-12.528-48.1508-14.7482 1.7224-3.8988 3.0714-8.2096 3.9402-12.9476M310.4264 237.6115c7.3317 2.3728 44.0354 14.2752 59.5217 20.2264 0 0-8.8787 11.9328-34.5393 1.8235-17.8718-7.0423-27.7184-11.1547-32.0625-13.0163 2.5836-2.678 4.9767-5.6842 7.0802-9.0336M297.6807 251.8348c6.4095 2.7848 30.2258 13.1994 43.9973 19.8449 0 0-17.3306 8.53-39.1426-4.9593l-13.5505-8.904c2.9494-1.7242 5.876-3.708 8.6958-5.9816M282.3903 261.2827c4.3593 2.7238 22.4216 14.0997 31.2393 20.6231 0 0-14.9756 6.1953-30.34-8.2859-4.9843-4.7075-7.7127-7.378-9.214-8.9039 2.6445-.9537 5.4415-2.0829 8.3147-3.4333" fill="#B49759" fill-rule="nonzero"/><path d="M296.107 289.566c0 25.7122-20.806 46.549-46.4818 46.549-25.6759 0-46.4818-20.8368-46.4818-46.549 0-25.6969 20.806-46.5412 46.4818-46.5412s46.4818 20.8443 46.4818 46.5412" fill="#FEFEFE" fill-rule="nonzero"/><path d="M286.4913 299.1932c0 20.4019-16.5076 36.9202-36.8638 36.9202-20.364 0-36.8638-16.5183-36.8638-36.9202 0-20.379 16.4999-36.905 36.8638-36.905 20.3562 0 36.8638 16.526 36.8638 36.905" fill="#B49759" fill-rule="nonzero"/><path d="M274.0916 324.7871c-1.8672-1.4649-4.5194-4.059-4.992-7.2635-.0457-.2823-.0685-.5646-.1066-.8545 9.4503-3.9675 17.4297-10.8037 22.8255-19.5626-2.0349 11.4217-8.5815 21.2869-17.727 27.6806zm-66.6628-27.7188c5.3958 8.7818 13.3752 15.6257 22.8408 19.6008-.0381.29-.061.5722-.1067.8621-.4801 3.2122-3.1247 5.7986-4.9919 7.256-9.1607-6.3938-15.715-16.2743-17.7422-27.7189zm9.8771-35.646c-1.913 10.5977 2.4769 20.585 6.5009 29.7177 2.797 6.3632 5.4797 12.467 6.3408 18.647-11.066-5.5315-19.4721-15.6561-22.6045-28.3443 1.4557-7.5687 4.9005-14.4354 9.7628-20.0204zm45.3538 50.8826c-3.1856 1.0224-6.5161 1.6938-9.938 1.9456v-67.4773c6.8743.496 13.299 2.6094 18.9006 5.9741 8.5053 12.2991 3.7115 23.2783-1.8443 35.8902-3.3305 7.5687-6.7448 15.351-7.1183 23.6674zm-9.938 8.1485c3.5515-.2136 6.9963-.7858 10.3115-1.6938.6935 3.9904 3.1552 7.1643 5.4415 9.3388-4.8166 2.3805-10.1362 3.8683-15.753 4.2726v-11.9176zm-16.4923-1.6938c3.3152.908 6.76 1.4802 10.2962 1.6938v11.9176c-5.6092-.4043-10.9288-1.8921-15.7454-4.2726 2.294-2.1745 4.7556-5.3484 5.4492-9.3388zm-8.5891-66.0123c5.594-3.3647 12.0262-5.4781 18.8853-5.974v67.4772c-3.4219-.2366-6.7447-.885-9.9228-1.8693-.3506-8.347-3.7801-16.1445-7.1258-23.7437-5.5635-12.612-10.3496-23.591-1.8367-35.8902zm64.0791 28.7335c-3.0942 12.4212-11.5918 22.5611-22.5892 28.1613.884-6.1343 3.5438-12.1923 6.318-18.502 4.024-9.1405 8.4138-19.1278 6.4932-29.7178 4.8776 5.6002 8.3224 12.4746 9.778 20.0585zm-42.092-42.0779c-27.6192 0-50.0942 22.5077-50.0942 50.1654 0 27.6578 22.475 50.1578 50.0943 50.1578 27.6269 0 50.1018-22.5 50.1018-50.1578 0-27.6577-22.475-50.1654-50.1018-50.1654z" fill="#002A5B" fill-rule="nonzero"/><path d="M264.5094 174.2932s-.3734 1.5794-1.3337 1.5794c-.9603 0-6.9734-2.8917-9.8619-4.4634-1.2346-.6638-2.9646-1.671-3.5667-2.0219 0 0-2.576 1.358-3.8106 2.0219-2.8884 1.5717-8.894 4.4634-9.8618 4.4634-.9603 0-1.3337-1.5794-1.3337-1.5794s-15.7836 9.5372-15.7836 35.8902c0 19.616 10.1972 28.5199 10.1972 28.5199l1.387 5.5468h38.1595l1.387-5.5468s10.2048-8.9039 10.2048-28.5199c0-26.353-15.7835-35.8902-15.7835-35.8902" fill="#002A5B" fill-rule="nonzero"/><path d="M272.03 203.5234c0-8.1409-3.3076-14.7787-6.8743-18.731 0 0-.122 2.3348-4.0088-.267-3.3533-2.3118-7.301-3.6622-11.5385-3.6622-4.2602 0-8.2157 1.358-11.5766 3.6775-3.7496 2.556-3.9326.2518-3.9326.2518-3.559 3.9522-6.8743 10.59-6.8743 18.731 0 6.7675 1.6538 10.094 2.233 11.0478 3.3457 8.6139 11.1041 14.6566 20.1505 14.6566 8.932 0 16.6143-5.913 20.0286-14.3896.1981-.2747 2.393-3.5173 2.393-11.3149" fill="#FEFEFE" fill-rule="nonzero"/><path d="M258.0565 221.9194c-.0228-.0457-.061-.0915-.0838-.1373 0 0-2.2178-4.1658 1.4328-7.0499 0 0 8.2614 1.7244 8.4595-9.2396 0 0-.1981-1.1673.9603-3.4638 0 0-2.1187-1.9304-6.7295 1.5412-4.6185 3.4486-7.1106 13.268-9.6104 10.9639-2.4692-2.289-1.5623-15.0687-2.8503-15.557h-.0457c-1.2728.4959-.3659 13.268-2.8428 15.557-2.492 2.3041-4.9995-7.5153-9.6103-10.964-4.6185-3.4715-6.722-1.5411-6.722-1.5411 1.1509 2.2965.9527 3.4638.9527 3.4638.1982 10.964 8.4596 9.2396 8.4596 9.2396 3.6582 2.884 1.448 7.0652 1.448 7.0652-.0228.0457-.0533.0915-.0762.1297-9.8618-10.6053-15.593-9.1633-12.7655 2.7161 2.7817 11.6735 13.4514 61.7702 15.1433 73.3903-.2286 10.4527-1.4404 14.1836-1.7529 14.9848l-1.0822 2.1592 1.189 2.3728c1.8824 2.739 3.178 5.7986 3.6429 6.966l4.0697 10.3458 4.0316-10.323c.4802-1.1902 1.7834-4.2497 3.6506-6.9888l1.2423-2.2584-1.1204-2.266c-.32-.7859-1.4937-4.3795-1.7605-14.4583 1.4023-10.4146 12.3083-62.0525 15.1358-73.9244 2.8198-11.8794-2.9037-13.3214-12.7656-2.7238" fill="#002A5B" fill-rule="nonzero"/><path d="M242.9406 274.1502c-3.5438-18.6394-6.3332-32.434-8.589-42.4365-1.7149-7.6373 2.8731-4.5855 5.3424.1907l3.2466 42.2458zM256.315 274.1502c3.544-18.6394 6.3333-32.434 8.5892-42.4365 1.7148-7.6373-2.8732-4.5855-5.3425.1907l-3.2466 42.2458zM237.3406 211.0112c-.6936-.1907-1.1127-.9155-.907-1.6251.0762-.267.2439-.4807.4497-.6562-.465-.5188-1.006-1.0452-1.6614-1.5106 0 0-1.1508 5.3942 3.6581 4.8143 0 0-.1676-.4807-.5258-1.1673-.2973.1754-.6555.2365-1.0136.145M264.0255 207.2193c-.6555.4654-1.1966.9918-1.6615 1.5106.2134.1755.3811.3892.465.6638.1905.702-.2287 1.4268-.9222 1.6175-.3582.0916-.7164.0382-1.006-.1373-.3582.6714-.5259 1.1597-.5259 1.1597 4.809.5799 3.6506-4.8143 3.6506-4.8143M251.8795 281.065c1.5243-28.7945 3.8183-49.1964 3.8183-51.7447 0-.9003-.0991-2.0753-.4802-3.3571l-1.669 5.4781-.5183-9.682c-.8383-1.0835-1.9815-2.167-3.4295-3.2046h-.0915c-1.4404 1.0377-2.454 2.121-3.3 3.2045l-.4953 9.6821-1.6843-5.4857c-.3735 1.2894-.4801 2.4644-.4801 3.3647 0 2.5483 2.2863 22.9502 3.8106 51.7447 1.5318 28.8022-2.035 34.1583-2.035 34.1583 2.0654 2.9908 4.2985 8.3163 4.2985 8.3163s2.233-5.3255 4.2983-8.3163c0 0-3.5667-5.3561-2.0425-34.1583" fill="#E21836" fill-rule="nonzero"/><path d="M487.7088 216.2643c-63.5152-37.0423-156.8293-55.8877-199.9501-56.6202-5.1977-.0839-8.734 1.1827-10.5478 4.5702-3.0027 5.646 1.2347 11.9482 3.0409 14.6644 3.9097 5.829 9.0845 14.9542 9.0845 25.9257 0 21.2793-17.1859 37.0194-38.35 37.0194-.4572 0-.9069.0077-1.3565.0077-.4573 0-.907-.0077-1.3642-.0077-21.1565 0-38.35-15.74-38.3424-37.0194 0-10.9715 5.1748-20.0966 9.0769-25.9257 1.8062-2.7162 6.0512-9.0184 3.0409-14.6644-1.8063-3.3875-5.3425-4.654-10.5478-4.5702-43.1208.7325-136.4273 19.578-199.9501 56.6202.0533.1602 10.182 17.5102 30.401 16.03-3.117 1.5183-6.2265 3.0748-9.3207 4.677.0533.1908 9.275 15.3816 31.5442 13.1842-3.7116 1.7548-7.4002 3.5402-11.0813 5.3942.0457.206 10.685 15.1374 34.143 14.7482-5.4034 2.7391-8.6729 4.4787-8.65 4.471.0152.1145 15.5015 15.1145 40.5372 10.9869-2.7055 1.976-5.434 4.0742-8.6653 6.3326.0076.0382 18.39 10.0941 40.019 6.966a902.8805 902.8805 0 0 0-8.3605 6.409c-.0534-.2824 33.1218 9.0945 56.717-1.3048 20.303-8.9573 31.5824-30.9003 34.1583-36.4242 4.0088.885 7.507 1.3962 10.1743 1.709-.0076.29 4.2984.6638 6.4705.5722 2.1644.0916 6.478-.2823 6.4704-.5722 2.6598-.3128 6.1655-.824 10.1667-1.709 2.5683 5.5239 13.8553 27.467 34.1582 36.4242 23.5953 10.3993 56.7628 1.0224 56.717 1.3047a736.2191 736.2191 0 0 0-8.3604-6.409c21.629 3.1282 40.0114-6.9277 40.0114-6.9659-3.2162-2.2584-5.9522-4.3565-8.6577-6.3326 25.0357 4.1276 40.522-10.8724 40.5372-10.9868.0229.0076-3.2466-1.732-8.65-4.471 23.458.389 34.0972-14.5423 34.143-14.7483-3.6735-1.854-7.3697-3.6394-11.0736-5.3942 22.2615 2.1974 31.4832-12.9934 31.529-13.1842a424.6286 424.6286 0 0 0-9.3132-4.677c20.219 1.4802 30.3476-15.8698 30.401-16.03" fill="#002A5B" fill-rule="nonzero"/><path d="M231.3488 256.5294s-56.7628-19.021-32.1006-79.5399c0 0-60.0094 2.495-142.2728 35.7224 0 0-5.7692 2.4034-9.1302 3.6088-3.3686 1.2055-8.7796 3.3571-16.538-.3662 0 0 75.2366-39.377 171.904-48.5097 12.7427-1.2055 14.427.7248 11.0584 5.5391-2.7589 3.9446-37.2753 47.9147 17.0792 83.5455" fill="#FEFEFE" fill-rule="nonzero"/><path d="M180.9215 194.1282c-48.6386 6.3327-96.2026 23.2935-96.2026 23.2935 8.1014 14.4202 30.0657 8.3698 30.0657 8.3698 41.2079-11.681 59.5979-15.641 65.4967-16.7854-.2286-4.593-.0381-9.5524.6402-14.878M181.2827 217.8368c-8.1242 1.5717-42.1758 8.5681-76.5246 21.4547 0 0 10.8298 12.345 32.314 6.2411 18.0699-5.1271 41.2384-12.528 48.1508-14.7482-1.73-3.8988-3.079-8.2096-3.9402-12.9476M188.8292 237.6115c-7.3392 2.3728-44.0353 14.2752-59.5292 20.2264 0 0 8.8863 11.9328 34.547 1.8235 17.8717-7.0423 27.7183-11.1547 32.0624-13.0163-2.5836-2.678-4.9767-5.6842-7.0802-9.0336M201.575 251.8348c-6.4095 2.7848-30.2258 13.1994-43.9973 19.8449 0 0 17.3306 8.53 39.135-4.9593l13.558-8.904c-2.9493-1.7242-5.8835-3.708-8.6957-5.9816M216.8654 261.2827c-4.3593 2.7238-22.4216 14.0997-31.2393 20.6231 0 0 14.968 6.1953 30.3248-8.2859 4.9995-4.7075 7.7279-7.378 9.2292-8.9039-2.6445-.9537-5.4415-2.0829-8.3147-3.4333" fill="#B49759" fill-rule="nonzero"/><path d="M267.907 256.5294s56.7627-19.021 32.1005-79.5399c0 0 60.0094 2.495 142.2652 35.7224 0 0 5.7692 2.4034 9.1378 3.6088 3.3686 1.2055 8.7796 3.3571 16.5304-.3662 0 0-75.2366-39.377-171.8964-48.5097-12.7503-1.2055-14.427.7248-11.066 5.5391 2.7665 3.9446 37.283 47.9147-17.0716 83.5455" fill="#FEFEFE" fill-rule="nonzero"/><path d="M318.3304 194.1282c48.6386 6.3327 96.2026 23.2935 96.2026 23.2935-8.0938 14.4202-30.0657 8.3698-30.0657 8.3698-41.208-11.681-59.5903-15.641-65.489-16.7854.2285-4.593.0304-9.5524-.6479-14.878M317.973 217.8368c8.1166 1.5717 42.1681 8.5681 76.5246 21.4547 0 0-10.8374 12.345-32.314 6.2411-18.0699-5.1271-41.2384-12.528-48.1508-14.7482 1.7224-3.8988 3.0714-8.2096 3.9402-12.9476M310.4264 237.6115c7.3317 2.3728 44.0354 14.2752 59.5217 20.2264 0 0-8.8787 11.9328-34.5393 1.8235-17.8718-7.0423-27.7184-11.1547-32.0625-13.0163 2.5836-2.678 4.9767-5.6842 7.0802-9.0336M297.6807 251.8348c6.4095 2.7848 30.2258 13.1994 43.9973 19.8449 0 0-17.3306 8.53-39.1426-4.9593l-13.5505-8.904c2.9494-1.7242 5.876-3.708 8.6958-5.9816M282.3903 261.2827c4.3593 2.7238 22.4216 14.0997 31.2393 20.6231 0 0-14.9756 6.1953-30.34-8.2859-4.9843-4.7075-7.7127-7.378-9.214-8.9039 2.6445-.9537 5.4415-2.0829 8.3147-3.4333" fill="#B49759" fill-rule="nonzero"/><path d="M296.107 289.566c0 25.7122-20.806 46.549-46.4818 46.549-25.6759 0-46.4818-20.8368-46.4818-46.549 0-25.6969 20.806-46.5412 46.4818-46.5412s46.4818 20.8443 46.4818 46.5412" fill="#FEFEFE" fill-rule="nonzero"/><path d="M286.4913 299.1932c0 20.4019-16.5076 36.9202-36.8638 36.9202-20.364 0-36.8638-16.5183-36.8638-36.9202 0-20.379 16.4999-36.905 36.8638-36.905 20.3562 0 36.8638 16.526 36.8638 36.905" fill="#B49759" fill-rule="nonzero"/><path d="M274.0916 324.7871c-1.8672-1.4649-4.5194-4.059-4.992-7.2635-.0457-.2823-.0685-.5646-.1066-.8545 9.4503-3.9675 17.4297-10.8037 22.8255-19.5626-2.0349 11.4217-8.5815 21.2869-17.727 27.6806zm-66.6628-27.7188c5.3958 8.7818 13.3752 15.6257 22.8408 19.6008-.0381.29-.061.5722-.1067.8621-.4801 3.2122-3.1247 5.7986-4.9919 7.256-9.1607-6.3938-15.715-16.2743-17.7422-27.7189zm9.8771-35.646c-1.913 10.5977 2.4769 20.585 6.5009 29.7177 2.797 6.3632 5.4797 12.467 6.3408 18.647-11.066-5.5315-19.4721-15.6561-22.6045-28.3443 1.4557-7.5687 4.9005-14.4354 9.7628-20.0204zm45.3538 50.8826c-3.1856 1.0224-6.5161 1.6938-9.938 1.9456v-67.4773c6.8743.496 13.299 2.6094 18.9006 5.9741 8.5053 12.2991 3.7115 23.2783-1.8443 35.8902-3.3305 7.5687-6.7448 15.351-7.1183 23.6674zm-9.938 8.1485c3.5515-.2136 6.9963-.7858 10.3115-1.6938.6935 3.9904 3.1552 7.1643 5.4415 9.3388-4.8166 2.3805-10.1362 3.8683-15.753 4.2726v-11.9176zm-16.4923-1.6938c3.3152.908 6.76 1.4802 10.2962 1.6938v11.9176c-5.6092-.4043-10.9288-1.8921-15.7454-4.2726 2.294-2.1745 4.7556-5.3484 5.4492-9.3388zm-8.5891-66.0123c5.594-3.3647 12.0262-5.4781 18.8853-5.974v67.4772c-3.4219-.2366-6.7447-.885-9.9228-1.8693-.3506-8.347-3.7801-16.1445-7.1258-23.7437-5.5635-12.612-10.3496-23.591-1.8367-35.8902zm64.0791 28.7335c-3.0942 12.4212-11.5918 22.5611-22.5892 28.1613.884-6.1343 3.5438-12.1923 6.318-18.502 4.024-9.1405 8.4138-19.1278 6.4932-29.7178 4.8776 5.6002 8.3224 12.4746 9.778 20.0585zm-42.092-42.0779c-27.6192 0-50.0942 22.5077-50.0942 50.1654 0 27.6578 22.475 50.1578 50.0943 50.1578 27.6269 0 50.1018-22.5 50.1018-50.1578 0-27.6577-22.475-50.1654-50.1018-50.1654z" fill="#002A5B" fill-rule="nonzero"/><path d="M264.5094 174.2932s-.3734 1.5794-1.3337 1.5794c-.9603 0-6.9734-2.8917-9.8619-4.4634-1.2346-.6638-2.9646-1.671-3.5667-2.0219 0 0-2.576 1.358-3.8106 2.0219-2.8884 1.5717-8.894 4.4634-9.8618 4.4634-.9603 0-1.3337-1.5794-1.3337-1.5794s-15.7836 9.5372-15.7836 35.8902c0 19.616 10.1972 28.5199 10.1972 28.5199l1.387 5.5468h38.1595l1.387-5.5468s10.2048-8.9039 10.2048-28.5199c0-26.353-15.7835-35.8902-15.7835-35.8902" fill="#002A5B" fill-rule="nonzero"/><path d="M272.03 203.5234c0-8.1409-3.3076-14.7787-6.8743-18.731 0 0-.122 2.3348-4.0088-.267-3.3533-2.3118-7.301-3.6622-11.5385-3.6622-4.2602 0-8.2157 1.358-11.5766 3.6775-3.7496 2.556-3.9326.2518-3.9326.2518-3.559 3.9522-6.8743 10.59-6.8743 18.731 0 6.7675 1.6538 10.094 2.233 11.0478 3.3457 8.6139 11.1041 14.6566 20.1505 14.6566 8.932 0 16.6143-5.913 20.0286-14.3896.1981-.2747 2.393-3.5173 2.393-11.3149" fill="#FEFEFE" fill-rule="nonzero"/><path d="M258.0565 221.9194c-.0228-.0457-.061-.0915-.0838-.1373 0 0-2.2178-4.1658 1.4328-7.0499 0 0 8.2614 1.7244 8.4595-9.2396 0 0-.1981-1.1673.9603-3.4638 0 0-2.1187-1.9304-6.7295 1.5412-4.6185 3.4486-7.1106 13.268-9.6104 10.9639-2.4692-2.289-1.5623-15.0687-2.8503-15.557h-.0457c-1.2728.4959-.3659 13.268-2.8428 15.557-2.492 2.3041-4.9995-7.5153-9.6103-10.964-4.6185-3.4715-6.722-1.5411-6.722-1.5411 1.1509 2.2965.9527 3.4638.9527 3.4638.1982 10.964 8.4596 9.2396 8.4596 9.2396 3.6582 2.884 1.448 7.0652 1.448 7.0652-.0228.0457-.0533.0915-.0762.1297-9.8618-10.6053-15.593-9.1633-12.7655 2.7161 2.7817 11.6735 13.4514 61.7702 15.1433 73.3903-.2286 10.4527-1.4404 14.1836-1.7529 14.9848l-1.0822 2.1592 1.189 2.3728c1.8824 2.739 3.178 5.7986 3.6429 6.966l4.0697 10.3458 4.0316-10.323c.4802-1.1902 1.7834-4.2497 3.6506-6.9888l1.2423-2.2584-1.1204-2.266c-.32-.7859-1.4937-4.3795-1.7605-14.4583 1.4023-10.4146 12.3083-62.0525 15.1358-73.9244 2.8198-11.8794-2.9037-13.3214-12.7656-2.7238" fill="#002A5B" fill-rule="nonzero"/><path d="M242.9406 274.1502c-3.5438-18.6394-6.3332-32.434-8.589-42.4365-1.7149-7.6373 2.8731-4.5855 5.3424.1907l3.2466 42.2458zM256.315 274.1502c3.544-18.6394 6.3333-32.434 8.5892-42.4365 1.7148-7.6373-2.8732-4.5855-5.3425.1907l-3.2466 42.2458zM237.3406 211.0112c-.6936-.1907-1.1127-.9155-.907-1.6251.0762-.267.2439-.4807.4497-.6562-.465-.5188-1.006-1.0452-1.6614-1.5106 0 0-1.1508 5.3942 3.6581 4.8143 0 0-.1676-.4807-.5258-1.1673-.2973.1754-.6555.2365-1.0136.145M264.0255 207.2193c-.6555.4654-1.1966.9918-1.6615 1.5106.2134.1755.3811.3892.465.6638.1905.702-.2287 1.4268-.9222 1.6175-.3582.0916-.7164.0382-1.006-.1373-.3582.6714-.5259 1.1597-.5259 1.1597 4.809.5799 3.6506-4.8143 3.6506-4.8143M251.8795 281.065c1.5243-28.7945 3.8183-49.1964 3.8183-51.7447 0-.9003-.0991-2.0753-.4802-3.3571l-1.669 5.4781-.5183-9.682c-.8383-1.0835-1.9815-2.167-3.4295-3.2046h-.0915c-1.4404 1.0377-2.454 2.121-3.3 3.2045l-.4953 9.6821-1.6843-5.4857c-.3735 1.2894-.4801 2.4644-.4801 3.3647 0 2.5483 2.2863 22.9502 3.8106 51.7447 1.5318 28.8022-2.035 34.1583-2.035 34.1583 2.0654 2.9908 4.2985 8.3163 4.2985 8.3163s2.233-5.3255 4.2983-8.3163c0 0-3.5667-5.3561-2.0425-34.1583" fill="#E21836" fill-rule="nonzero"/><path d="M0 0h500v500H0z"/></g></svg>