<svg width="500" height="500" viewBox="0 0 500 500" xmlns="http://www.w3.org/2000/svg"><title>philadelphia-76ers</title><g fill="none" fill-rule="evenodd"><path d="M448.887 249.9243c0 109.884-89.0786 198.9627-198.9627 198.9627-109.8841 0-198.9628-89.0786-198.9628-198.9627 0-109.8841 89.0787-198.9628 198.9628-198.9628 52.7712-.0098 103.3839 20.9491 140.6988 58.264 37.3149 37.3149 58.2738 87.9276 58.264 140.6988" fill="#FFF" fill-rule="nonzero"/><path d="M441.5641 249.9243c0 77.511-46.6915 147.39-118.3024 177.0521-71.6109 29.6622-154.0386 13.2664-208.8472-41.5423C59.6059 330.6255 43.21 248.1978 72.8722 176.587c29.6622-71.6109 99.541-118.3024 177.052-118.3024 105.839.0018 191.638 85.8008 191.64 191.6398" fill="#006BB6" fill-rule="nonzero"/><path fill="#FFF" fill-rule="nonzero" d="M87.8524 282.6007l3.9374 12.505h13.265l-10.7083 7.806 3.8686 12.297-10.3627-7.5292-10.5002 7.5291 3.9374-12.297-10.777-7.8059h13.2631zM412.0644 282.6007l3.9391 12.505h13.332l-10.777 7.806 3.939 12.297-10.4331-7.5292-10.4315 7.5291 3.9392-12.297-10.7789-7.8059h13.1963zM134.4147 349.6133l3.9392 12.4345h13.2632l-10.777 7.8765 3.9373 12.297-10.3627-7.531-10.5001 7.531 3.9373-12.297-10.777-7.8765h13.265zM369.8555 349.6133l3.9374 12.4345h13.2632l-10.7083 7.8765 3.9392 12.297-10.4315-7.531-10.502 7.531 4.008-12.297-10.777-7.8765h13.1944zM207.0222 393.2046l3.8704 12.505h13.332l-10.7771 7.806 3.9373 12.2969-10.3626-7.5291-10.5002 7.529 3.9373-12.2969-10.777-7.8059h13.265zM295.2433 393.2046l3.9373 12.505h13.265l-10.777 7.806 3.9373 12.2969-10.3626-7.5291-10.5002 7.529 3.9373-12.2969-10.777-7.8059h13.265z"/><path d="M393.6196 250.8224c0 79.3607-64.3346 143.6953-143.6953 143.6953-79.3607 0-143.6953-64.3346-143.6953-143.6953 0-79.3607 64.3346-143.6953 143.6953-143.6953 38.1121-.0059 74.665 15.1316 101.6144 42.081 26.9493 26.9493 42.0867 63.5021 42.081 101.6143" fill="#FFF" fill-rule="nonzero"/><path d="M114.7954 279.0779c15.6215 74.6184 88.7584 122.4589 163.3844 106.8734 35.9485-7.216 67.433-28.7041 87.2534-59.5507 19.8038-30.739 26.8422-67.988 19.62-103.8337-15.6354-74.5829-88.7011-122.4279-163.3153-106.9425-35.8613 7.4855-67.2783 28.9147-87.3354 59.5705-20.0572 30.6558-27.1104 68.0254-19.607 103.883" fill="#006BB6" fill-rule="nonzero"/><path d="M296.9016 143.2582c.4836 5.3885-2.0725 10.639-7.461 15.613-25.9067-18.9982-50.5698-28.3245-74.7493-28.4627a98.667 98.667 0 0 0-15.1295 1.1744 131.6845 131.6845 0 0 1 23.9032-7.461 128.9796 128.9796 0 0 1 64.1103 2.8324c4.4905 4.3523 8.8427 10.0172 9.3264 16.3039M269.8897 366.2622c27.219-25.0085 39.8616-78.5488 47.3918-110.5348l1.1744-4.9742c3.8687-16.3039 10.708-28.4627 18.1001-35.7165 27.2883 42.4177 23.6268 86.2172 16.7184 113.7127-24.499 32.428-62.7771 51.5033-103.4192 51.537a88.5655 88.5655 0 0 0 20.0345-14.0242M319.354 184.5706c11.0535-9.2573 19.8963-16.3039 26.183-20.9325a128.88 128.88 0 0 1 29.0845 52.504c-5.1123-6.8393-11.6062-13.3332-18.6528-14.784-6.0794-1.2435-12.297.4836-18.1691 4.6287a177.2476 177.2476 0 0 0-18.4456-21.4162M123.0164 245.0193c12.5734-33.7131 58.6526-47.53 75.9928-52.7113l.76-.2073a210.9832 210.9832 0 0 1 23.3504-4.6977c22.3142-3.7996 49.8789-8.4974 66.5282-20.9325a253.1097 253.1097 0 0 1 20.7944 17.7546c-37.651 31.986-95.8891 85.7336-157.9958 151.7091a128.2546 128.2546 0 0 1-29.1536-58.6525 126.855 126.855 0 0 1-2.7634-26.3902c1.4508-3.4542 2.487-5.8722 2.487-5.8722" fill="#FFF" fill-rule="nonzero"/><path d="M315.0017 180.3564a260.1155 260.1155 0 0 0-20.7253-17.8237c6.2867-6.1485 9.1882-12.7806 8.5664-19.8272a25.4615 25.4615 0 0 0-4.2832-11.7443 132.0682 132.0682 0 0 1 42.7632 28.3245c-6.494 4.836-15.4058 11.9516-26.3211 21.0707M284.6046 162.74c-15.613 10.777-41.4506 15.1985-62.5213 18.7218a234.9882 234.9882 0 0 0-24.0413 4.8359l-.76.2072c-16.6493 4.9742-58.5144 17.4783-75.7854 47.6682A129.4094 129.4094 0 0 1 141.6 179.9419a135.6273 135.6273 0 0 1 34.6803-36.2692c30.6735-12.9188 65.0774-12.0207 108.3242 19.0672M354.7252 207.2303c9.05 1.8652 18.7218 17.0638 23.3505 25.7684a128.0417 128.0417 0 0 1-15.6822 81.7957c.6909-4.3523 1.2435-8.981 1.658-13.8168a143.3026 143.3026 0 0 0-22.8669-89.9478c4.6978-3.316 9.3955-4.6286 13.5406-3.7996M314.7944 188.4392a159.7999 159.7999 0 0 1 18.3074 21.4161c-8.8428 8.4283-16.373 22.3833-20.449 39.5163l-1.1744 5.0431c-7.392 31.3643-19.7581 83.7992-45.5957 107.4953a75.7664 75.7664 0 0 1-30.4661 17.6164 129.1288 129.1288 0 0 1-56.3728-20.3798 131.7818 131.7818 0 0 1-22.5906-18.7219c62.7286-66.7354 121.1739-120.4139 158.3412-151.9855" fill="#FFF" fill-rule="nonzero"/><path d="M285.6409 289.2332l3.5233-.9671c2.1416-.5527 3.5233-1.2435 3.5233-4.3523 0-2.5562-.6909-7.1848-3.7997-7.1848-3.247 0-3.247 5.5268-3.247 8.4974v4.0068zM243.5685 287.2989c0-11.0535-.4145-20.5871-7.8756-20.5871-6.0794 0-7.1847 9.5336-7.1847 20.5871s-.3455 20.6562 7.1847 20.6562c6.2867-.069 7.8756-9.6027 7.8756-20.6562" fill="#FFF" fill-rule="nonzero"/><path d="M285.6409 289.2332l3.5233-.9671c2.1416-.5527 3.5233-1.2435 3.5233-4.3523 0-2.5562-.6909-7.1848-3.7997-7.1848-3.247 0-3.247 5.5268-3.247 8.4974v4.0068zM227.61 261.945h.1382c3.5924-5.5959 10.4318-8.2902 17.133-8.2902 15.1985 0 24.5249 13.126 24.5249 30.7426 0 20.8634-14.1623 33.2986-31.6406 33.2986-26.8739 0-36.6838-21.6925-36.6838-46.8392 0-28.9463 12.5734-52.8495 43.8685-52.8495 12.228 0 22.2452 7.8756 22.2452 19.8963a11.271 11.271 0 0 1-11.8135 11.6061c-8.4282 0-11.1226-7.0466-12.366-13.2641-.4836-2.6252.4836-8.4284-3.8688-8.4284-9.119 0-10.5698 17.8237-10.9844 24.3867l-.5526 9.741z" fill="#FFF" fill-rule="nonzero"/><path d="M243.5685 287.2989c0-11.0535-.4145-20.5871-7.8756-20.5871-6.0794 0-7.1847 9.5336-7.1847 20.5871s-.3455 20.6562 7.1847 20.6562c6.2867-.069 7.8756-9.6027 7.8756-20.6562M80.5987 219.1127c5.1122.6217 7.1848 4.2142 6.4248 10.8462l-.5526 4.836 2.7633.3454c3.5233.4145 4.836.3454 5.2504-2.487l3.247.4144-1.5198 13.126-3.247-.4145c.2763-2.9015-1.0363-3.247-4.5596-3.6614l-10.2244-1.1745c-3.5234-.4145-4.836-.3454-5.2505 2.487l-3.247-.4144 1.7272-14.3696c.829-7.0466 3.9378-10.1554 9.1882-9.5336zm2.7634 13.955c.4836-4.3523-.76-6.7011-3.8687-7.0466-2.6943-.3454-4.6287 1.3817-5.0432 4.6287-.2763 2.2798.5527 2.7633 3.0397 3.0397l5.665.6908c.069-.4145.138-.829.2072-1.3126zM99.8041 204.605c1.0363-2.6943-.069-3.3851-3.316-4.7668l-9.4646-3.9378c-3.247-1.3817-4.5595-1.658-5.734.9672l-3.0397-1.2436 5.1123-12.1588 2.9706 1.2435c-1.0363 2.6943.069 3.3851 3.316 4.7668l2.418 1.0363 3.7996-9.1191-2.418-1.0363c-3.2469-1.3817-4.5595-1.658-5.734.9672l-2.9705-1.2435 5.1122-12.1589 3.0397 1.2435c-1.0362 2.6943.0691 3.3852 3.316 4.7669l9.4646 3.9378c3.247 1.3816 4.5596 1.658 5.734-.9672l3.0397 1.2435-5.1123 12.1588-2.9706-1.2435c1.0362-2.6942-.0691-3.3851-3.316-4.7668l-4.1451-1.727-3.7995 9.119 4.145 1.7271c3.247 1.3817 4.5596 1.658 5.734-.9671l2.9706 1.2435-5.1122 12.1588-3.0398-1.2435zM112.5156 140.0112c-1.658 2.3489-.76 3.316 2.0726 5.4576l8.221 6.1485c2.8325 2.1416 4.0069 2.6943 5.803.4836l2.6253 1.9343-7.8756 10.5008-2.6252-1.9343c1.658-2.3488.76-3.316-2.1416-5.4576l-8.221-6.1485c-2.8325-2.1416-4.007-2.7634-5.8032-.4836l-2.6252-1.9343 7.8757-10.5008 2.6942 1.9343zM142.2219 141.531l-2.0725-2.487c2.1416-1.9343 1.4507-3.0397-.829-5.734l-6.6321-7.8755c-2.2798-2.6943-3.247-3.5924-5.5268-1.7962l-2.0725-2.487 10.0863-8.4283 2.0725 2.487c-2.1416 1.9343-1.52 3.0397.76 5.803l7.392 8.7737c1.7272 2.0035 2.4871 2.3489 4.5596.6218 2.7634-2.349 3.9378-6.494 2.9707-11.7444l2.9015-.6217 2.9706 9.6718-16.5803 13.8168zM173.517 117.4206l-1.3816-2.9706c2.487-1.52 2.3488-3.1779 2.2798-6.0794l-.6909-20.3799 5.5268-2.487 15.1985 14.8532c1.7271 1.658 2.6943 2.487 4.905 1.727l1.3817 2.9707-12.0207 5.4577-1.3126-2.9016a.5237.5237 0 0 0 .2764-.1381c1.658-.76 2.2797-1.4508 1.7962-2.487a3.114 3.114 0 0 0-.6909-.9672l-2.7634-2.7634-7.7374 3.5233.4836 3.7996c.028.285.0978.5644.2072.829.5527 1.1745 1.658 1.2435 3.5233.4145l1.3127 2.9015-10.2936 4.6977zm9.81-18.5837l-5.6648-6.0794.4836 8.4974 5.1812-2.418zM214.1387 97.7316c2.8325-.4836 2.9015-1.7962 2.418-5.3195l-1.4508-10.1554c-.4836-3.5233-.8981-4.7668-3.7997-4.4214l-.4836-3.247 13.2642-1.8652c10.2245-1.4508 16.304 2.5561 17.5474 10.9844 1.1745 8.4974-3.5233 13.955-13.7477 15.4749l-13.2642 1.8652-.4836-3.316zm9.5336-4.6977c.3454 2.6252.829 3.316 3.5924 2.9015 5.2504-.76 8.152-4.905 7.1848-11.2607-.8981-6.3558-4.7668-9.5337-10.0863-8.7737-2.7634.4145-2.9707 1.1744-2.6252 3.7996l1.9343 13.3333zM260.4942 93.8629c2.8324.3454 3.316-.8981 3.7996-4.4214l1.4508-10.1554c.4836-3.5233.4836-4.836-2.3489-5.3195l.4836-3.247 21.8997 3.178 2.418 8.4973-2.6253.8981c-2.1416-4.4214-5.1813-6.9775-9.2572-7.5302-2.6252-.4145-3.1088.3454-3.4543 2.9015l-.5525 3.7996 1.2435.2073c2.7633.4145 3.5923-.3455 4.2141-3.5924l2.7634.4145-1.727 11.8826-2.7635-.4145c.0691-3.1088-.829-4.6978-2.9706-4.974l-1.2435-.2074-.898 6.1485c-.3455 2.5561-.1383 3.3851 2.556 3.7306 3.8688.5526 8.4284-1.3126 12.0207-5.5959l2.2798 1.7272-5.3195 8.4973-22.4524-3.316.4835-3.1088zM301.8066 105.5381l1.3126-2.9706c2.6943 1.1054 3.3851 0 4.8359-3.316l4.145-9.3955c1.4508-3.247 1.7963-4.4905-.829-5.734l1.3126-2.9706 12.0207 5.2504-1.3126 2.9706c-2.6943-1.1054-3.3851 0-4.836 3.247l-4.6286 10.5008c-1.0362 2.418-.9671 3.247 1.52 4.3523 3.316 1.4508 7.5992.6908 11.8134-2.5561l1.8653 2.2797-7.323 6.9776-19.8963-8.6356zM369.4401 125.089c-3.247 4.0069-7.392 3.8687-12.6424-.3454l-3.7996-3.0397-1.7271 2.1416c-2.2108 2.7634-2.9016 3.9378-.6909 5.803l-2.0725 2.5562-10.2245-8.2901 2.0725-2.5561c2.2798 1.727 3.316.898 5.5268-1.8653l6.4248-8.0138c2.2107-2.7634 2.8325-3.9378.6909-5.803l2.0725-2.5562 11.2607 9.1191c5.4577 4.3523 6.4249 8.7046 3.1088 12.8497zm-13.3332-5.1813c3.385 2.7633 6.0794 2.9015 8.0137.4836 1.7271-2.1417 1.3126-4.6287-1.2435-6.7012-1.7962-1.4508-2.6252-1.0363-4.2141.898l-3.5924 4.4215c.4145.3454.76.6217 1.0363.898zM371.4436 149.0612c1.727 2.3489 2.9015 1.7962 5.803-.2763l8.4284-5.8722c2.9015-2.0034 3.8687-2.9706 2.2798-5.3885l2.6942-1.8653 7.5302 10.7772-2.6252 1.8653c-1.727-2.3489-2.9015-1.7962-5.803.2763l-2.1417 1.52 5.665 8.0828 2.1416-1.52c2.9015-2.0034 3.8687-2.9706 2.2797-5.3885l2.6252-1.8652 7.5302 10.7771-2.6942 1.8653c-1.7271-2.3489-2.9016-1.7962-5.8031.2763l-8.4284 5.8722c-2.9015 2.0034-3.8687 2.9706-2.2798 5.3885l-2.6942 1.8653-7.5302-10.7772 2.6252-1.8652c1.7271 2.3488 2.9016 1.7962 5.8031-.2764l3.6615-2.556-5.665-8.083-3.6615 2.5561c-2.9015 2.0035-3.8687 2.9706-2.2797 5.3885l-2.6252 1.8653-7.5302-10.7772 2.6943-1.8652zM419.319 194.3114c-1.1054-2.6942-2.418-2.418-5.734-1.1744l-9.6027 3.6615c-3.316 1.2435-4.4214 1.9343-3.5233 4.6977l-3.0397 1.1744-4.6977-12.297 3.0397-1.1744c1.1053 2.6942 2.418 2.3488 5.734 1.1053l9.6027-3.6614c3.316-1.2436 4.4905-1.9343 3.5233-4.6286l3.0397-1.1744 4.6977 12.297-3.0397 1.1743zM402.117 217.1093l3.247-.4145c.6908 2.8324 2.3488 3.1778 5.1122 3.9378l19.689 5.3195.76 6.0103-18.6528 10.1554c-2.1416 1.1744-3.1778 1.7962-3.1088 4.2142l-3.247.4145-1.727-13.057 3.1778-.4144v.2763c.2073 1.7962.76 2.6252 1.8653 2.487a3.99 3.99 0 0 0 1.1744-.4144l3.4543-1.8653-1.1054-8.4283-3.7996-.6909a3.9393 3.9393 0 0 0-.898-.069c-1.2436.1381-1.6581 1.2434-1.4509 3.247l-3.1778.4144-1.3127-11.1226zm14.9222 14.784l7.4611-3.6615-8.221-2.0034.76 5.6649zM330.6838 267.6099a9.1107 9.1107 0 0 0-6.9084 3.1779c-.2073-.4145-.3454-.829-.5527-1.1745l-1.4508-2.8324-20.6562 6.0794V284.19h3.7997c.3454 0 .5526.069.6217 0a11.9893 11.9893 0 0 1 .4836 4.8359v13.126l-3.7996.5527v12.4352h28.6009v-12.4352l-3.7306-.5527v-3.8687a51.9504 51.9504 0 0 1 1.0363-8.9119 12.1178 12.1178 0 0 0 3.7306.5527c5.1122 0 8.7046-4.6287 8.7046-11.1917.069-6.632-3.9377-11.1225-9.879-11.1225z" fill="#FFF" fill-rule="nonzero"/><path d="M366.5386 280.805a5.9418 5.9418 0 0 1-.3454-1.7962c0-3.3851-1.3817-11.2607-13.886-11.2607-6.9084 0-20.518 5.3195-20.518 17.6855a16.277 16.277 0 0 0 3.316 10.3627 9.6211 9.6211 0 0 0-4.4214 8.5664c0 4.4214 2.2107 11.8826 17.202 11.8826 12.8497 0 20.1726-6.632 20.1726-18.2382.0691-11.0536-.898-14.715-1.5198-17.2021zM215.3821 214.3459a4.1517 4.1517 0 0 0-3.1087-1.4508c-1.8653 0-3.3852 1.1745-5.1814 3.1088a32.0292 32.0292 0 0 1-23.834 9.879c-12.4352 0-25.5612-5.734-35.993-15.682a4.2863 4.2863 0 0 0-3.0397-1.2436c-5.1122 0-6.4248 8.152-6.4248 8.2901v40.967l3.247.4836a79.9076 79.9076 0 0 0 32.7459-1.1745c-10.5008 9.3955-34.1276 34.9566-33.7823 59.2744.0691 4.4905 2.8325 4.9741 4.007 4.9741a4.5065 4.5065 0 0 0 3.1087-1.3126c.2073-.1382.4146-.3454.6218-.4836a26.1131 26.1131 0 0 1 14.9912-3.9378 33.173 33.173 0 0 1 13.886 2.8325 5.5711 5.5711 0 0 0 2.556.6908 4.1219 4.1219 0 0 0 3.0398-1.3126 5.302 5.302 0 0 0 1.0362-4.4214c-1.727-17.6856 2.1417-36.96 9.6718-48.0826l1.1054-1.658c6.4248-9.4646 19.758-29.2227 22.2451-45.5266a4.9477 4.9477 0 0 0-.898-4.2142zM310.5113 292.6184l-.2072-3.1088a30.0117 30.0117 0 0 0-.8981-5.803l-.1382-3.5925-.6908 1.0363c-2.6575-8.1462-10.2918-13.6272-18.86-13.5405-13.2642 0-22.5215 10.5008-22.5215 25.492 0 11.537 6.7702 23.1433 21.7615 23.1433 8.398.1155 16.2401-4.1858 20.6562-11.3298l.5527-.9672-.4145-11.1226.76-.2072zm-16.0966 7.1848a3.4612 3.4612 0 0 1-3.0397-2.0035l7.323-2.0034a14.1683 14.1683 0 0 1-4.2835 4.0069h.0002z" fill="#FFF" fill-rule="nonzero"/><path d="M261.116 256.3491c-.76-1.0362-1.589-2.2797-2.2798-3.316 7.2651-1.262 12.485-7.691 12.228-15.0604 0-13.5405-11.1917-23.6959-26.0449-23.6959-29.8444 0-47.7372 21.2089-47.7372 56.6491 0 32.1933 14.784 50.6388 40.4834 50.6388 20.8635 0 35.4402-15.2676 35.4402-37.0983.0691-10.9153-7.2538-21.278-12.0897-28.1173z" fill="#FFF" fill-rule="nonzero"/><path d="M294.4837 303.6719c-4.6287 0-7.392-4.2142-7.8066-8.4974l19.8963-5.3885c-.5526-9.7409-6.2176-18.3073-16.7875-18.3073-11.2607 0-18.7218 8.7737-18.7218 21.6924 0 10.0863 5.803 19.2745 17.962 19.2745 7.0509.1496 13.6518-3.4533 17.34-9.4645l-3.9377-4.6978c-1.8654 3.0397-4.1451 5.3886-7.9447 5.3886zm-8.7738-18.3764c0-2.9707 0-8.4974 3.247-8.4974 3.0397 0 3.7997 4.6287 3.7997 7.1848a3.8706 3.8706 0 0 1-3.5234 4.3523l-3.5233.9671v-4.0068z" fill="#006BB6" fill-rule="nonzero"/><path d="M327.1605 311.3402H306.159v-5.3195l3.7996-.5526v-16.442c0-5.8723-.76-8.7047-4.9741-8.7047v-4.6287l14.9222-4.3523a27.6756 27.6756 0 0 1 2.487 10.8463h.1382c1.52-4.4905 3.3851-10.7772 8.221-10.7772 4.2833 0 6.1485 3.316 6.1485 7.323 0 4.076-1.7962 7.392-4.905 7.392a14.341 14.341 0 0 1-4.9741-1.2435c-2.6943-.8981-3.5924 10.9153-3.5924 13.4023v7.1848l3.7305.5527v5.3194h.0002z" fill="#006BB6" fill-rule="nonzero"/><path d="M362.4626 279.0779c0 3.247-2.8324 4.905-5.803 4.905-3.5374-.197-6.422-2.9067-6.8394-6.4249-1.52 0-2.6252.76-2.6252 3.3852 0 6.0794 17.202 1.727 17.202 17.1329 0 11.537-8.3592 14.4386-16.373 14.4386-4.905 0-13.4024-.6218-13.4024-8.083 0-3.385 1.8653-5.9412 5.2505-5.9412 5.1813 0 6.0794 4.7669 6.9775 8.152a1.558 1.558 0 0 0 1.727 1.0362c2.7635 0 4.7669-1.1053 4.7669-2.9706 0-6.9084-17.6165-4.2142-17.6165-19.2745 0-9.5336 11.2607-13.8169 16.7184-13.8169 6.1485 0 10.0172 2.0726 10.0172 7.4612M245.0193 253.724c-6.7012 0-13.5405 2.6942-17.1329 8.29h-.1382l.6909-9.6718c.4145-6.563 1.8653-24.3867 10.9844-24.3867 4.3523 0 3.3851 5.803 3.8687 8.4284 1.1744 6.1484 3.8687 13.2642 12.366 13.2642a11.3078 11.3078 0 0 0 11.8135-11.6062c0-12.0207-10.0172-19.8963-22.2451-19.8963-31.2952 0-43.8686 23.9032-43.8686 52.8495 0 25.1467 9.741 46.8392 36.6838 46.8392 17.4783 0 31.6406-12.4352 31.6406-33.2986-.1382-17.6858-9.4645-30.8118-24.663-30.8118zm-9.3264 54.2311c-7.461 0-7.1847-9.6027-7.1847-20.6562 0-11.0535 1.0362-20.5871 7.1847-20.5871 7.5302 0 7.8756 9.5336 7.8756 20.5871.0691 11.0535-1.5198 20.6562-7.8756 20.6562z" fill="#006BB6" fill-rule="nonzero"/><path d="M141.6001 217.593v37.3054c20.8635 3.1088 45.803 1.0363 63.4885-24.7321.76-1.1054 1.1744-.3454.6908.6217-4.905 10.0173-16.5802 19.2746-26.6665 27.2192-9.6718 7.5993-35.6475 34.8185-35.302 58.7908 0 1.8653.069 1.3126 1.727.1381 7.8756-5.8721 23.2814-6.0103 32.746-1.5199 1.3126.6218 1.4507.4145 1.2435-1.2435-1.7962-18.5837 2.3489-38.8254 10.2936-50.6388 5.4576-8.152 20.2416-29.1536 22.7978-45.5956.2763-1.7271-.6218-1.4508-2.7634.829-16.7184 17.6856-46.9082 17.202-66.459-1.4508-1.1745-1.3126-1.7272-.76-1.7963.2763" fill="#ED174C" fill-rule="nonzero"/><circle fill="#FFF" fill-rule="nonzero" cx="177.8164" cy="195.2268" r="35.7841"/><path fill="#006BB6" fill-rule="nonzero" d="M177.7997 160.7367l1.1743 3.7998h4.0767l-3.3167 2.3487 1.1743 3.731-3.1086-2.2799-3.2461 2.28 1.243-3.7311-3.3167-2.3487h4.0767zM201.5649 174.6223l1.243 3.731h4.0768l-3.3168 2.4175 1.1744 3.731-3.1774-2.2798-3.1774 2.2799 1.2431-3.7311-3.3149-2.4174h4.0749zM191.3416 163.914l1.243 3.7311h4.0749l-3.3149 2.4174 1.1743 3.7311-3.1086-2.2799-3.1792 2.2799 1.1762-3.731-3.3167-2.4175h4.0766zM205.5022 187.6792l1.1762 3.7999h4.0748l-3.3149 2.4174 1.2431 3.731-3.1792-2.2798-3.1773 2.2799 1.1743-3.7311-3.2461-2.4174h4.006zM203.776 201.5649l1.2431 3.7998h4.008l-3.248 2.4174 1.1743 3.7311-3.1774-2.3487-3.1773 2.3487 1.1743-3.7998-3.248-2.3487h4.0767zM196.1076 212.6188l1.1743 3.7998h4.0767l-3.248 2.4174 1.1744 3.731-3.1086-2.2798-3.2462 2.2799 1.2431-3.7311-3.3167-2.4174h4.0767zM184.0875 218.836l1.243 3.7998h4.0062l-3.3149 2.4174 1.243 3.7311-3.1773-2.2799-3.1792 2.28 1.1743-3.7312-3.246-2.4174h4.006zM153.5514 173.3792l-1.2431 3.7999h-4.0061l3.2461 2.3486-1.1743 3.731 3.1086-2.2798 3.2462 2.2799-1.2431-3.731 3.3167-2.3487h-4.0767zM163.4997 163.914l-1.243 3.7311h-4.008l3.248 2.4174-1.1744 3.7311 3.1774-2.2799 3.1774 2.2799-1.1744-3.731 3.248-2.4175h-4.008zM148.854 186.0218l-1.1742 3.7998h-4.0767l3.3167 2.3487-1.1743 3.7998 3.1086-2.3486 3.1774 2.3486-1.1744-3.7998 3.3167-2.3487h-4.0079zM150.166 199.8387l-1.2432 3.7998h-4.0748l3.3149 2.4174-1.1744 3.731 3.1087-2.2798 3.1773 2.2799-1.1743-3.731 3.248-2.4175h-4.008zM157.7656 211.1676l-1.1744 3.7998h-4.0766l3.3167 2.4174-1.2431 3.7311 3.1774-2.3487 3.248 2.3487-1.245-3.731 3.248-2.4175h-4.008zM169.7857 218.3529l-1.1743 3.7998h-4.0749l3.3149 2.4174-1.1743 3.731 3.1086-2.2798 3.248 2.2799-1.2431-3.7998 3.3148-2.3487h-4.0748z"/><path d="M0 0h500v500H0z"/></g></svg>