<svg width="500" height="500" viewBox="0 0 500 500" xmlns="http://www.w3.org/2000/svg" xmlns:xlink="http://www.w3.org/1999/xlink"><title>sacramento-kings</title><defs><path id="a" d="M.0121 383.3308h335.3413V.7108H.012z"/><path id="c" d="M.0121 383.3308h335.3413V.7108H.012z"/><path id="e" d="M.0121 383.3308h335.3413V.7108H.012z"/><path id="g" d="M.0121 383.3308h335.3413V.7108H.012z"/><path id="i" d="M.0121 383.3308h335.3413V.7108H.012z"/><path id="k" d="M.0121 383.3308h335.3413V.7108H.012z"/><path id="m" d="M.0121 383.3308h335.3413V.7108H.012z"/><path id="o" d="M.0121 383.3308h335.3413V.7108H.012z"/><path id="q" d="M.0121 383.3308h335.3413V.7108H.012z"/><path id="s" d="M.0121 383.3308h335.3413V.7108H.012z"/><path id="u" d="M.0121 383.3308h335.3413V.7108H.012z"/><path id="w" d="M.0121 383.3308h335.3413V.7108H.012z"/><path id="y" d="M.0121 383.3308h335.3413V.7108H.012z"/><path id="A" d="M.0121 383.3308h335.3413V.7108H.012z"/></defs><g fill="none" fill-rule="evenodd"><path d="M0 0h500v500H0z"/><path d="M416.1213 58.3966l-48.0658 48.1908-39.9234-40.0209-.1908.1785-.2163-.1912-39.9361 40.0336-39.987-40.0591-39.9489 40.0591-39.9743-40.0591-.0127.0255L127.8917 106.6 80.7801 59.3526s.4071 196.8288.4071 213.3725c0 92.8 74.3125 168.3044 166.8818 168.3044 92.5948 0 167.8997-75.5044 167.8997-168.3044 0-16.5437.1526-214.3285.1526-214.3285" fill="#FEFEFE" fill-rule="nonzero"/><path d="M203.2487 320.5003c47.557 0 82.9257 19.883 108.7525 34.3874 17.5825 9.8905 31.4883 17.7035 43.651 17.7035 5.3563 0 10.2672-1.4912 15.0381-4.5756 15.1399-19.2967 25.6106-42.1112 30.2925-66.06H178.6942c1.4758 6.7934 3.1806 13.3955 5.089 19.6153 6.5267-.7137 13.066-1.0706 19.4655-1.0706M96.126 301.9429c3.9567 20.0996 11.7811 38.9885 23.3078 56.1694 6.9592-12.223 20.8904-27.4028 48.244-33.8776-2.0993-7.0355-3.9695-14.517-5.5598-22.2918H96.126zM130.3484 372.5784c29.5673 34.706 72.137 54.7165 117.0094 55.0097-4.2366-2.1668-8.3714-4.5502-12.3536-7.112-19.0202-12.3122-45.1778-36.2865-62.0606-80.7428-26.5902 5.812-37.837 20.9026-42.5952 32.8451" fill="#5C666F" fill-rule="nonzero"/><path d="M189.315 337.4034c11.9846 30.1814 30.1015 53.3782 53.8673 68.9532 15.7124 10.3238 30.7759 15.0014 40.6995 17.1172 24.8598-5.812 48.0658-17.8055 67.2769-34.757-15.1526-1.6697-30.6996-10.4003-47.1117-19.628-25.6105-14.3897-57.506-32.3227-100.5718-32.3227-4.6565 0-9.402.2422-14.1602.6373" fill="#5C666F" fill-rule="nonzero"/><path d="M254.0703 223.5402c-.2672 0-.5217.0254-.7888.0637l-.0255-.0637H198.689v65.9452h23.0023v-52.983h17.29v52.983h21.921v-56.8067c0-5.0345-3.0662-9.1385-6.832-9.1385M271.9798 223.5402h-1.374v56.5518c0 5.0472 3.0407 9.1257 6.7938 9.1257.0127 0 .051-.0127.089-.0127v.0127H332.73v-39.8424l-22.099-.0255v27.0587h-17.2773v-40.2248H332.73v-12.6435h-60.7502zM137.4616 223.5529l-12.519 26.5616h-7.2264V223.553H94.8156v65.907h22.9006V262.911h7.2264l12.519 26.549h22.8752l-16.1322-32.9472 16.1322-32.9599z" fill="#5A2C81" fill-rule="nonzero"/><g transform="translate(80.7692 57.6923)"><mask id="b" fill="#fff"><use xlink:href="#a"/></mask><path fill="#5A2C81" fill-rule="nonzero" mask="url(#b)" d="M85.6604 231.7612h23.7021v-65.9197H85.6604z"/></g><g transform="translate(80.7692 57.6923)"><mask id="d" fill="#fff"><use xlink:href="#c"/></mask><path d="M321.6168 183.5972l.0255-17.7544h-.0255v-.102l-60.7884.102v30.0793c0 5.0218 3.0534 9.1258 6.7939 9.1258h30.9794v14.377h-37.7733v12.1082h60.8139v-30.0667c0-4.6903-2.6463-8.565-6.0687-9.0493v-.051H283.64v-13.816h15.9795v5.0471h21.9973z" fill="#5A2C81" fill-rule="nonzero" mask="url(#d)"/></g><g transform="translate(80.7692 57.6923)"><mask id="f" fill="#fff"><use xlink:href="#e"/></mask><path fill="#5A2C81" fill-rule="nonzero" mask="url(#f)" d="M256.948 98.7479h-19.4146l40.038-40.1229-30.267-30.3343-40.3051 40.0464-39.9616-40.0464L96.7583 98.748H77.3437l39.9615-40.1866L87.102 28.2907 47.1403 68.3371 14.0489 35.4537v118.1636h307.568V33.9242z"/></g><g transform="translate(80.7692 57.6923)"><mask id="h" fill="#fff"><use xlink:href="#g"/></mask><path d="M81.2431 140.9176c0 1.708 1.3995 3.0972 3.0916 3.0972H101.6247v-4.6394h-14.084v-15.0906h14.084v-4.6394H81.243v21.2722z" fill="#FEFEFE" fill-rule="nonzero" mask="url(#h)"/></g><g transform="translate(80.7692 57.6923)"><mask id="j" fill="#fff"><use xlink:href="#i"/></mask><path d="M59.3501 133.0218h7.799v-8.7307H59.35v8.7307zm10.6361-13.3445l-16.921-.0383v24.395h6.285v-6.3856h7.7989v6.3855h6.2976v-21.2722c0-1.8226-1.603-3.3394-3.4605-3.0844z" fill="#FEFEFE" fill-rule="nonzero" mask="url(#j)"/></g><g transform="translate(80.7692 57.6923)"><mask id="l" fill="#fff"><use xlink:href="#k"/></mask><path d="M296.1043 139.3308h7.7735v-15.0524h-7.7735v15.0524zm11.005-19.6918h-14.262c-1.6921 0-3.0916 1.3893-3.0916 3.0972v18.175c0 1.708 1.3995 3.0972 3.0916 3.0972h14.262c1.692 0 3.0788-1.3892 3.0788-3.1099v-18.1623c0-1.708-1.3867-3.0972-3.0788-3.0972z" fill="#FEFEFE" fill-rule="nonzero" mask="url(#l)"/></g><g transform="translate(80.7692 57.6923)"><mask id="n" fill="#fff"><use xlink:href="#m"/></mask><path d="M24.8606 131.059c0 1.7079 1.3994 3.0971 3.1043 3.0971h10.9795v5.2257H24.8606v4.6394H45.242v-11.4073c0-1.5804-1.1832-2.906-2.7735-3.0844l-.1654-.0127H31.1455v-5.2257h14.0966v-4.652H24.8606v11.4199z" fill="#FEFEFE" fill-rule="nonzero" mask="url(#n)"/></g><g transform="translate(80.7692 57.6923)"><mask id="p" fill="#fff"><use xlink:href="#o"/></mask><path d="M143.3827 133.0218h7.7989v-8.7307h-7.799v8.7307zm10.9795-13.3828H137.085v24.395h6.2977v-6.3856h7.7989v6.3855h6.2977v-21.2722c0-1.708-1.3995-3.1227-3.117-3.1227z" fill="#FEFEFE" fill-rule="nonzero" mask="url(#p)"/></g><g transform="translate(80.7692 57.6923)"><mask id="r" fill="#fff"><use xlink:href="#q"/></mask><path fill="#FEFEFE" fill-rule="nonzero" mask="url(#r)" d="M262.3462 124.2886h7.061v19.7428h6.2723v-19.7428h7.0483v-4.6394h-20.3816z"/></g><g transform="translate(80.7692 57.6923)"><mask id="t" fill="#fff"><use xlink:href="#s"/></mask><path d="M197.1126 119.6454h-31.2848v24.3694h6.285v-19.73h7.7225v19.73h6.374v-19.73h7.71v19.73h6.2849v-21.2723c0-1.6951-1.3868-3.0971-3.0916-3.0971" fill="#FEFEFE" fill-rule="nonzero" mask="url(#t)"/></g><g transform="translate(80.7692 57.6923)"><mask id="v" fill="#fff"><use xlink:href="#u"/></mask><path d="M252.8666 119.6454h-17.2772v24.3694h6.285v-19.73h7.7989v19.73h6.2977v-21.2723c0-1.6951-1.3995-3.0971-3.1044-3.0971" fill="#FEFEFE" fill-rule="nonzero" mask="url(#v)"/></g><g transform="translate(80.7692 57.6923)"><mask id="x" fill="#fff"><use xlink:href="#w"/></mask><path d="M208.7728 140.9176c0 1.708 1.3868 3.0972 3.0916 3.0972h17.2772v-4.6394h-14.0711v-5.2256h14.0711v-4.6266h-14.0711v-5.2384h14.0711v-4.6394h-20.3688v21.2722z" fill="#FEFEFE" fill-rule="nonzero" mask="url(#x)"/></g><g transform="translate(80.7692 57.6923)"><mask id="z" fill="#fff"><use xlink:href="#y"/></mask><path d="M115.1513 130.5237h7.799v-6.2326h-7.799v6.2326zm10.7251 4.6393h3.3588v-12.414c0-1.81-1.565-3.314-3.4478-3.0717l-16.921-.0383v24.395h6.2849v-8.871h4.5547l3.7658 8.8454h6.1323l-3.7277-8.8454z" fill="#FEFEFE" fill-rule="nonzero" mask="url(#z)"/></g><g transform="translate(80.7692 57.6923)"><mask id="B" fill="#fff"><use xlink:href="#A"/></mask><path mask="url(#B)" d="M-119.2308-96.1538h576.9231v576.9231h-576.9231z"/></g></g></svg>