<svg width="500" height="500" viewBox="0 0 500 500" xmlns="http://www.w3.org/2000/svg"><title>san-antonio-spurs</title><g fill="none" fill-rule="evenodd"><path fill="#FEFEFE" fill-rule="nonzero" d="M370.0743 38.4639L343.68 85.2679l-4.8706 36.0808-41.8992 74.6683h-44.4156l38.9652-68.9469V38.4639h-54.0294L212.103 84.9662l-4.546 36.4057-63.6778 113.5692 13.0348 32.6572h34.5584l-11.3069 28.6418-38.397-41.5352 4.72 63.5968-68.8733 2.8897 55.305 38.9357-38.9651 58.1308 63.7707-20.8546 26.0347 62.6104 19.645-67.4963 71.494 18.4408-46.329-53.6163 56.0588-46.305-52.1855 3.2378 41.296-46.6764h69.6271l77.9303-138.2071.7422-1.3347V38.464z"/><path fill="#FEFEFE" fill-rule="nonzero" d="M373.4663 44.2607l-24.7475 43.868-4.3024 35.0594-44.1141 78.6257h-57.7635l43.1168-76.2814V44.2607h-44.7868l-23.6806 43.485-4.0009 35.4424-62.9009 112.165 10.5647 26.4368h39.1507l-17.8242 45.156-33.3872-36.1155 3.9313 53.0129-57.8099 2.4255 45.9812 32.3787-32.7493 48.8581 52.8697-17.2918 21.7904 52.363 16.6066-57.0747 58.9696 15.1913-38.0839-44.042 46.8626-38.7036-48.347 2.9941 52.3247-59.152h68.85l76.2604-135.2478V44.2607zM373.4663 48.4073v-4.1431 4.143z"/><path fill="#2D2925" fill-rule="nonzero" d="M373.4663 44.2607l-24.7475 43.868-4.3024 35.0594-44.1141 78.6257h-57.7635l43.1168-76.2814V44.2607h-44.7868l-23.6806 43.485-4.0009 35.4424-62.9009 112.165 10.5647 26.4368h39.1507l-17.8242 45.156-33.3872-36.1155 3.9313 53.0129-57.8099 2.4255 45.9812 32.3787-32.7493 48.8581 52.8697-17.2918 21.7904 52.363 16.6066-57.0747 58.9696 15.1913-38.0839-44.042 46.8626-38.7036-48.347 2.9941 52.3247-59.152h68.85l76.2604-135.2478V44.2607z"/><path fill="#C4CDD3" fill-rule="nonzero" d="M364.2005 83.3867h20.8858l14.5424-27.3188h-20.132zM232.859 83.432l22.4977-.058 14.3336-27.3189-21.686.0116zM227.5082 117.8393l20.2711.058 1.8903-23.4775h-19.6101zM358.4126 117.8393l20.2827.058 1.9135-23.4775h-19.6565zM174.5237 362.468c-5.1374 0-9.3006-4.1548-9.3006-9.2843 0-5.1411 4.1632-9.2958 9.3006-9.2958 5.1374 0 9.289 4.1547 9.289 9.2958 0 5.1295-4.1516 9.2842-9.289 9.2842zm179.5412-230.5852l-45.726 80.5638h-109.752l45.7494-80.5638h-21.5237l-55.1774 97.5075h61.2078l-46.422 103.8904-19.2158-21.3537 1.067 25.1718-30.9403 1.706 24.9215 17.5587-17.7547 26.46 28.644-9.3654 11.794 28.3981 9.0107-30.9397 31.9491 8.2282-20.6307-23.872 25.397-20.9824-39.1855 1.7292 72.1667-106.6292h61.3353l54.2497-97.5075h-21.164z"/><path d="M0 0h500v500H0z"/></g></svg>