<svg width="500" height="500" viewBox="0 0 500 500" xmlns="http://www.w3.org/2000/svg" xmlns:xlink="http://www.w3.org/1999/xlink"><title>utah-jazz</title><defs><path id="a" d="M462.8674 307.8909V.3307H.0011V307.891z"/></defs><g fill="none" fill-rule="evenodd"><g transform="translate(19.2308 93.0593)"><mask id="b" fill="#fff"><use xlink:href="#a"/></mask><path d="M167.7066 167.8747L240.7946.326h222.074L422.6312 92.606H235.0594c-8.1438 18.6305-48.473 111.14-53.1413 121.868v4.3074c0 38.8232-32.7703 89.1096-90.9814 89.1096-50.1361 0-90.9356-40.8793-90.9356-91.0737 0-50.229 40.7995-91.0623 90.9356-91.0623 31.6577 0 61.308 17.0914 76.7699 42.1198" fill="#FEFEFE" fill-rule="nonzero" mask="url(#b)"/></g><path d="M24.6745 313.9345c1.0553 22.5818 10.8279 42.8089 25.957 57.5456 16.1041-14.2428 26.6452-34.6652 27.7693-57.5456H24.6745z" fill="#0B223E" fill-rule="nonzero"/><path d="M85.9459 313.9345c-1.124 24.8101-12.3534 47.0128-29.639 62.5766 13.7757 11.2105 31.1301 18.263 50.1362 19.09v-81.6666H85.9459z" fill="#F9A11A" fill-rule="nonzero"/><path d="M24.6413 306.4295h53.7836c-.9635-23.1446-11.516-43.8312-27.7922-58.1544-15.2668 14.863-25.0738 35.3543-25.9914 58.1544" fill="#0B223E" fill-rule="nonzero"/><path d="M56.3081 243.2453c17.4461 15.6786 28.687 38.111 29.639 63.1853h20.4971v-82.3098c-19.006.827-36.3375 7.8795-50.136 19.1245" fill="#F9A11A" fill-rule="nonzero"/><path d="M195.7028 313.9345H141.988c1.124 22.8804 11.6537 43.3028 27.7578 57.5456 15.1521-14.7367 24.9018-34.9638 25.957-57.5456" fill="#0B223E" fill-rule="nonzero"/><path d="M134.459 313.9345h-20.5087v81.6666c18.9946-.827 36.3375-7.8795 50.1476-19.09-17.2855-15.5638-28.5263-37.7665-29.639-62.5766M164.098 243.2453c-13.8102-11.245-31.153-18.2975-50.1477-19.1245v82.3098h20.4858c.952-25.0743 12.2272-47.5067 29.6618-63.1853" fill="#2B5134" fill-rule="nonzero"/><path d="M263.5661 98.8046L187.519 273.2218c-4.439-9.3727-10.4494-17.815-17.7673-24.9364-16.2647 14.3232-26.8288 35.0098-27.7808 58.1544h53.7607l54.988-126.1869h160.6513l35.5002-81.4483H263.566z" fill="#0B223E" fill-rule="nonzero"/><path fill="#2B5134" fill-rule="nonzero" d="M438.3234 180.2449l35.5117-81.4483h-15.1407l-35.5001 81.4483z"/><path d="M0 0h500v500H0z"/></g></svg>