<svg width="500" height="500" viewBox="0 0 500 500" xmlns="http://www.w3.org/2000/svg"><title>washington-wizards</title><g fill="none" fill-rule="evenodd"><path d="M249.3836 62.6233h-.3265c-103.2068.0121-186.921 83.6485-187.1023 186.9355v.3267c.012 103.3113 83.6295 187.105 186.8967 187.226h.2539c103.231-.0364 186.933-83.697 187.066-187.0203v-.2419c-.0242-103.263-83.5811-187.0324-186.7878-187.226" fill="#FEFEFE" fill-rule="nonzero"/><path d="M436.1678 249.9872v.1089c-.121 103.3233-83.823 186.9839-187.0539 187.008h-.2539c-103.2672-.1088-186.8967-83.9146-186.9088-187.2137v-.3267c.1814-103.287 83.9076-186.9355 187.1022-186.9355h.3265c103.2189.1936 186.7637 83.951 186.788 187.2259v.133zm4.2444-.5445c-.2419-105.5861-85.8424-191.0738-191.3467-191.0859h-.4111C143.126 58.5988 57.731 144.268 57.7068 249.7694l-.012.2057v.121c.133 105.6586 85.7335 191.219 191.3103 191.2673h.266c105.5768-.133 191.0685-85.7539 191.141-191.3762 0-.0726.0122-.1452.0122-.2541-.0121 0 0-.0726-.0121-.2904z" fill="#C4CDD3" fill-rule="nonzero"/><path d="M186.509 207.3401c19.4443-19.445 27.6186-42.1812 27.6186-42.1812l4.3411-15.7907 1.0278-3.6784-19.9158-11.1564s-11.6085-8.0708-37.5825 7.006c-30.4239 17.9446-55.1645 41.1527-67.958 65.7765-7.0981 13.637-12.721 29.343-15.6352 47.1907.907 33.7958 11.5722 65.1473 29.3356 91.2958-5.0666-48.6911 41.9599-102.0287 78.7685-138.4623M336.3977 141.5346c-25.974-15.0768-37.5946-7.006-37.5946-7.006l-19.9037 11.1563 1.0157 3.6906 4.341 15.7907s8.1744 22.7241 27.6307 42.169c36.6998 36.3248 83.557 89.4445 78.829 138.0267 17.8359-26.463 28.4286-58.1897 29.0453-92.3727-2.9867-17.2306-8.5129-32.4284-15.4054-45.6781-12.8056-24.6118-37.5583-47.832-67.958-65.7765" fill="#002A5B" fill-rule="nonzero"/><path d="M273.9222 112.3478c68.2483 7.7199 113.0982 46.4767 136.2668 80.8533-17.4249-49.6107-57.0872-88.7306-107.0158-105.4167-11.016 3.255-23.229 10.1037-29.251 24.5634M224.47 112.3478c-6.0581-14.5323-18.368-21.381-29.4202-24.6118-50.243 16.7587-90.0868 56.2416-107.3786 106.2758 22.9994-34.5702 68.0185-73.8957 136.7988-81.664M235.642 110.4214l13.5432-19.9532 13.5675 19.9532c5.4415-14.8711 14.0148-23.075 22.6123-27.54-11.6447-2.5168-23.7248-3.8841-36.1193-3.8962-12.455-.0121-24.5955 1.3552-36.3007 3.872 8.6217 4.465 17.2313 12.6326 22.697 27.5642" fill="#E21836" fill-rule="nonzero"/><path d="M341.9443 260.1126c-27.7515-44.94-90.776-90.3157-92.747-91.7314-1.971 1.4157-64.9954 46.7914-92.747 91.7314-37.4615 60.646-32.6005 95.6276-22.9025 115.5929 24.136 22.216 54.6929 37.5468 88.563 42.9193l14.6074-207.1428 12.1768-12.2212.1572-.1694v.0121l.0121-.012.1572.1693 12.1648 12.2212 14.7161 206.9855-.2055.1089c34.1362-5.3967 64.9229-20.8607 89.1798-43.3428 9.5407-20.0379 14.0632-54.9348-23.1324-115.121" fill="#002A5B" fill-rule="nonzero"/><path fill="#C4CDD3" fill-rule="nonzero" d="M261.3887 211.4772l-12.1648-12.2212.133 234.4529 26.5424-15.1373.1935-.109zM249.1212 152.6522l-5.3085 3.9205-22.2617 16.432 5.8284-21.1874 1.0037-3.6664 1.959-7.1028-6.4694-3.4969-20.9437-11.2895c10.5686-2.3353 21.367-3.8478 32.274-4.5496l5.3327-.3267.2177-.4477 2.1282-4.3682.3386-.6776 5.9735-12.1486 6.167 12.56.133.2662 2.1524 4.3682.2056.4477 5.3448.3267c10.895.7018 21.7054 2.2143 32.2619 4.5496l-20.9316 11.2895-6.4814 3.497 1.959 7.1027 1.0157 3.6664 5.8284 21.1874-22.2617-16.432-5.3084-3.9205v-.1089l-.0847.0605-.0725-.0605v.109z"/><path d="M249.276 152.5445v.109l5.3084 3.9204 22.2617 16.432-5.8284-21.1874-1.0037-3.6784-1.959-7.0907 6.4694-3.4849 20.9437-11.3015c-10.5807-2.3233-21.367-3.8479-32.274-4.5497l-5.3327-.3388-.2177-.4356-2.1524-4.356-.133-.2784-6.167-12.5479-5.9614 12.1365h-.0121l-.3386.6897-2.1282 4.356-.2177.4357-5.3327.3388c-10.9071.7018-21.7054 2.2264-32.274 4.5497l20.9437 11.3015 6.4814 3.4849-1.971 7.0907-1.0037 3.6784-5.8284 21.1874 22.2617-16.432 5.3084-3.9205v-.1089l.0726.0605.0846-.0605z" fill="#C4CDD3" fill-rule="nonzero"/><path d="M0 0h500v500H0z"/></g></svg>