<svg width="500" height="500" viewBox="0 0 500 500" xmlns="http://www.w3.org/2000/svg" xmlns:xlink="http://www.w3.org/1999/xlink"><title>boston-celtics</title><defs><path id="a" d="M.0012.0004H359.823V400H.001z"/><path id="c" d="M.0012.0004H359.823V400H.001z"/></defs><g fill="none" fill-rule="evenodd"><path d="M0 0h500v500H0z"/><path d="M441.8112 238.668c0-51.2665-19.9794-99.4705-56.2572-135.743-30.586-30.5729-69.1512-49.4482-111.7164-54.7333a30.7421 30.7421 0 0 0-1.915-1.34c-18.7878-12.0908-35.2564-3.977-44.0865.3935l-1.9256.9358c-13.16 1.6377-26.1285 4.647-38.682 8.9751-.6171-.67-1.2554-1.3399-1.9044-1.9885-10.777-10.783-25.0965-16.706-40.3417-16.706-31.4585 0-57.055 25.5854-57.055 57.0301 0 10.2831 2.649 20.0664 7.7342 28.7225-24.5327 32.9654-37.9693 73.3003-37.9693 114.4539 0 51.2772 19.9794 99.4918 56.2572 135.7538 15.7983 15.7915 33.8734 28.531 53.789 37.9315.0106 3.5092.351 6.7632 1.0106 9.677-.7979 1.2654-1.4894 2.7116-1.9894 4.3812-4.7236 8.656-.2979 18.216 13.7026 28.8607 8.5215 6.5186 15.1494 7.6352 20.6283 7.6352 1.4788 0 2.883-.085 4.2129-.1595l1.9894-.1064c9.6173-.3934 17.4687-6.944 23.405-13.856l9.277-1.3931c3.7873-.5636 8.479-1.4888 14.6068-4.0729 9.3194-3.924 13.1174-9.241 14.5643-13.6434 22.3624-2.2012 43.7674-8.2095 63.8744-17.9077.5638 3.0945 1.149 7.412 1.6277 12.9841.649 7.6034 1.9682 12.814 5.3513 23.6926 2.8724 9.2516 7.6917 13.5052 14.426 12.6864 3.0852-.3828 10.33-2.6479 11.0216-16.036.1808-3.6263.6596-13.2713.2447-20.6088-.5852-9.9853-.1383-16.823.3617-18.482 1-3.1795 1.883-8.7623-1.2766-13.569 7.3513-5.5083 14.309-11.5484 20.7772-18.014 36.2778-36.2725 56.2572-84.4765 56.2572-135.7537" fill="#FEFEFE" fill-rule="nonzero"/><g transform="translate(69.2308 50)"><mask id="b" fill="#fff"><use xlink:href="#a"/></mask><path d="M359.8242 188.0812c0-48.0539-18.7192-93.2308-52.7-127.2116-29.3461-29.3538-67.0461-47.3-107.7384-51.6461-.9423-.9385-2-1.8039-3.2-2.5731-14.4039-9.2654-26.427-2.3846-34.7616 1.6654-.6.2923-1.3.6384-2.0884 1.0423-15.6885 1.7923-30.7654 5.6192-44.9731 11.1961a46.588 46.588 0 0 0-5.8039-7.073C99.8665 4.7888 88.3088.0004 76.0127.0004c-25.3808 0-46.027 20.65-46.027 46.0308 0 10.6346 3.5885 20.7192 10.1847 28.873C15.0665 105.8388.0012 145.2273.0012 188.0812c0 48.0576 18.7153 93.2384 52.6923 127.2192 16.5961 16.5923 35.8769 29.5384 56.8423 38.45-1.1693 9.5077.373 15.9577 2.1115 18.6038-2.6461 2.227-3.7577 3.6154-4.177 6.1154-4.1691 5.7039 5.9809 12.9346 10.15 16.1308 8.5693 6.5692 13.0732 5.427 19.7462 5.15 8.2385-.3462 15.9885-10.0192 20.4462-16.273 8.8961-1.25 10.5654.1384 10.8423 1.25 2.7808-.4155 6.673-1.1116 11.9577-3.3386 12.0154-5.0576 8.6192-11.2576 7.373-12.373-.3269-.2846-.5884-.6885-.8422-1.1731 28.523-1.123 55.8615-8.8577 80.2577-22.473.8576.9615 1.75 2.0615 2.623 3.346 2.6423 3.8962 4.0308 16.5462 4.5885 23.0808.5577 6.5347 1.6692 10.9923 4.8654 21.2731 3.1961 10.2923 4.45 2.7846 4.5923 0 .1384-2.777.6923-12.7884.277-20.023-.4193-7.2308-.5578-17.6578.8345-22.1078 1.3923-4.4461-1.1115-5.5615-1.8077-6.3923-.7-.8384 0-1.1153-1.8115-6.8153-.1-.3154-.1808-.65-.2462-.9885 9.15-6.277 17.7962-13.427 25.8077-21.4423 33.9808-33.9808 52.7-79.1616 52.7-127.2192" fill="#FFF" fill-rule="nonzero" mask="url(#b)"/></g><g transform="translate(69.2308 50)"><mask id="d" fill="#fff"><use xlink:href="#c"/></mask><path d="M359.8242 188.0812c0-48.0539-18.7192-93.2308-52.7-127.2116-29.3461-29.3538-67.0461-47.3-107.7384-51.6461-.9423-.9385-2-1.8039-3.2-2.5731-14.4039-9.2654-26.427-2.3846-34.7616 1.6654-.6.2923-1.3.6384-2.0884 1.0423-15.6885 1.7923-30.7654 5.6192-44.9731 11.1961a46.588 46.588 0 0 0-5.8039-7.073C99.8665 4.7888 88.3088.0004 76.0127.0004c-25.3808 0-46.027 20.65-46.027 46.0308 0 10.6346 3.5885 20.7192 10.1847 28.873C15.0665 105.8388.0012 145.2273.0012 188.0812c0 48.0576 18.7153 93.2384 52.6923 127.2192 16.5961 16.5923 35.8769 29.5384 56.8423 38.45-1.1693 9.5077.373 15.9577 2.1115 18.6038-2.6461 2.227-3.7577 3.6154-4.177 6.1154-4.1691 5.7039 5.9809 12.9346 10.15 16.1308 8.5693 6.5692 13.0732 5.427 19.7462 5.15 8.2385-.3462 15.9885-10.0192 20.4462-16.273 8.8961-1.25 10.5654.1384 10.8423 1.25 2.7808-.4155 6.673-1.1116 11.9577-3.3386 12.0154-5.0576 8.6192-11.2576 7.373-12.373-.3269-.2846-.5884-.6885-.8422-1.1731 28.523-1.123 55.8615-8.8577 80.2577-22.473.8576.9615 1.75 2.0615 2.623 3.346 2.6423 3.8962 4.0308 16.5462 4.5885 23.0808.5577 6.5347 1.6692 10.9923 4.8654 21.2731 3.1961 10.2923 4.45 2.7846 4.5923 0 .1384-2.777.6923-12.7884.277-20.023-.4193-7.2308-.5578-17.6578.8345-22.1078 1.3923-4.4461-1.1115-5.5615-1.8077-6.3923-.7-.8384 0-1.1153-1.8115-6.8153-.1-.3154-.1808-.65-.2462-.9885 9.15-6.277 17.7962-13.427 25.8077-21.4423 33.9808-33.9808 52.7-79.1616 52.7-127.2192" fill="#061922" fill-rule="nonzero" mask="url(#d)"/></g><path d="M206.5962 405.9465c6.6807-.2807 15.9923-2.3615 20.2346-4.173.5577.1423 1.4615.6961 2.8538 1.25.55-4.4462-2.2961-13.6923-3.8961-17.9385-1.0616-2.8115-2.0885-4.723-3.3385-7.6423-3.7538-.7-8.4115-2.7115-11.75-4.1039 0 2.6424.4885 9.527 1.0462 14.1116-1.3885.1423-3.3385.2808-5.7077.2808.2807 5.0038.8423 14.0423.5577 18.2153M332.443 391.208c-1.2538-1.2538 1.527-5.15 2.7808-12.3768 1.2462-7.2308 1.3847-19.3308-3.8961-26.1462-2.573-3.3154-3.8192-5.4038-4.2539-6.8962-16.4692 11.9808-35.3384 19.9347-55.4 23.3462-.2384.423-.4769.7923-.6923 1.073-2.923 3.7578-8.623 9.1808-12.8 11.404-4.1692 2.223-9.0346 3.896-11.6769 4.7307-.5538 4.4461-1.277 14.377-.1346 17.7923.4192 1.2538 5.5577 4.3154 7.3654 7.6538.1884.3424.3577.6808.523 1.0193 28.3731-.8193 55.077-8.427 78.5308-21.2693-.1192-.1115-.2461-.2346-.3461-.3307M372.7488 114.4746c-27.4115-27.4115-62.3307-44.5884-100.1153-49.6308 3.0269 5.9885 3.4961 12.8693 3.7692 17.2539 5.423-2.3654 9.5923-3.6192 11.8192-7.2308 2.227-3.6192 5.2846-2.923 7.2308-.2807 1.95 2.6384 1.95 5.9807-3.1962 9.1769-5.1461 3.2-8.8961 4.7307-10.0115 5.2884-1.1154.55-.1385 1.527 1.1154 3.6116 1.2461 2.0846 4.4308 7.2384 5.0038 18.0769.0039.1038.0116.2115.0116.3154 20.4423 6.2923 39.1769 17.5154 54.7269 33.0654 25.1077 25.1038 38.9346 58.4884 38.9346 93.9923 0 20.3884-4.573 40.0769-13.2077 57.9038 1.15.5923 2.7116 4.6308 3.2423 9.95.277 2.7808.1346 5.8423-.6923 7.7846-.8346 1.95-7.4 11.7962-10.7115 14.7423-1.25 1.1154-4.177.977-5.4231-.8307-1.25-1.8116-1.3885-.8385-2.3654.1307-.973.977-4.3115 5.8424-5.1384 7.0962-.8385 1.2538-3.6193 2.5-1.8154 7.5077 1.8154 5.0115 3.8923 8.7615 3.2038 11.5423-.7 2.7846-.977 3.6192 2.777 6.8192 3.7615 3.1923 3.6192 7.0846 1.95 9.5885-1.0462 1.5692-2.6885 5.75-3.327 10.0615 44.4116-31.7307 73.423-83.7077 73.423-142.3269 0-46.6923-18.1884-90.5923-51.2038-123.6077M171.973 367.147c-.4884-4.7116-1.2038-13.2232 2.0885-19.2962-6.7077-4.6154-13.0538-9.8654-18.9384-15.75-25.1039-25.1116-38.9308-58.4846-38.9308-93.9885 0-38.0192 16.0462-72.3577 41.7154-96.6038.2423-.5154.55-1.0077.927-1.4847-4.3462 1.3385-8.9116 2.0347-13.5924 2.0347-12.2461 0-23.7615-4.7577-32.4423-13.3847-24.9192 30.927-38.4654 69.127-38.4654 109.4077 0 46.6923 18.1808 90.5923 51.2 123.6077 15.827 15.827 34.1616 28.2385 54.1 36.877.7692-3.7231 1.923-7.7962 3.6039-12.2231 1.5307-4.0385-.8347-13.35-4.7308-18.2193-2.0846-.5615-4.723-.8346-6.5346-.9769M218.3262 65.973a173.0518 173.0518 0 0 0-32.1616 8.95c3.3308 6.45 5.1077 13.6385 5.1077 21.1078 0 9.9-3.1077 19.323-8.8577 27.1538 9.6192-5.6038 20-10.0423 30.9462-13.1038.7115-.6962 1.423-1.3654 2.1384-1.9808-4.0346-6.6808-9.4577-17.3846-4.7269-31.85 1.3308-4.073 4.2615-7.5 7.5539-10.277" fill="#008348" fill-rule="nonzero"/><path d="M288.2235 118.6642c3.8923 1.9462 8.2461 6.1808 6.5307 14.0423-.6923 3.2-3.3654 6.277-3.6077 7.5154-.4192 2.0808-4.8 5.627-6.1923 8.4077-1.3807 2.7577-1.5961 5.1077-1.1923 6.2962.0039.0154.0116.023.0154.0307 2.2192 2.0885 7.227 4.8693 10.0039 5.8385 2.1769.7615 2.023 1.35 1.1115 2.7846 1.5346.1385 2.3192 1.0808 3.7615 2.7808 1.5231 1.8115 5.5577.6961 8.0616-.5577 2.5038-1.25 5.7-1.6692 8.2077 1.3923 2.5 3.0577 6.2577 8.7615 8.0615 14.0462 1.8115 5.2807 3.7577 9.5923 4.3154 10.423.5538.8385-1.95 16.1346-2.65 22.2539-.6923 6.1154-1.25 8.7577-1.3885 9.7307-.1384.9731 3.8962-3.473 4.0385 1.8077.1038 4.2154 2.073 17.7308 4.35 27.7423.577 2.5462 1.173 4.8616 1.7654 6.7424 1.673.2807 3.0538 3.6192 4.0307 8.7615.9731 5.1461 3.0577 8.3461 3.2 10.8461.1385 2.5.8347 2.9193 1.6654 3.3347.8346.423.5577 1.673-1.9423 4.5884.5539.4193 1.3885 1.2577 1.9423 1.8039.7-.6923 2.6423-2.9077 2.6423-2.9077s7.65 3.0538 9.3193 3.6077c1.6692.5577 3.6538-3.5616 8.6192-1.3923 1.3615.5961 2.8654 2.4769 3.9346 4.3346 7.7846-16.6616 12.15-35.2308 12.15-54.8077 0-34.6846-13.5115-67.2962-38.0385-91.823-14.9692-14.9655-32.9423-25.8193-52.5615-32.0193-.0577 1.9115-.1538 3.723-.1538 4.3961M328.4054 337.392c-1.9423-.9732-3.2116.4384-4.1692-7.227-.277-2.223-2.0808-5.15-3.4731-6.5346-1.3923-1.3923-1.5616-3.9962-.8385-6.2616 1.1116-3.4769 1.3962-6.6692 1.2577-9.45-.1461-2.7846.4115-6.2576 4.3039-7.9346-1.3885-1.523-2.0847-3.473-2.5-5-5.7-1.8807-6.8385-2.0423-7.9962-4.8-1.9423-4.6307-3.1423-11.3923-3.7192-15.0769-.2846-1.8192-.477-3.5-.5193-5.0154-1.8269-3.4538-5.8807-11.1269-9.0192-16.8923a241.0378 241.0378 0 0 0-2.9385-5.3577c-2.7846-4.8654 0-11.2615 1.3847-15.0154 1.3923-3.7538 2.5077-7.0923 1.2538-10.8461-1.2538-3.7539-1.2538-4.5923-1.527-6.1192-.2768-1.5308-1.5345-3.477-3.196 1.8115-1.6731 5.2808-4.8693 13.0692-6.6808 21.1346-1.0231 4.5808-1.7385 9.5654-1.5 14.3923.1807 3.677.9153 7.2539 2.473 10.4962 3.6154 7.5077 7.927 14.4615 7.3693 18.6346-.5539 4.1692-1.4654 4.3154-1.527 5.0038-.6961 8.0654-4.173 23.5039-5.9807 27.95-1.8077 4.4462-8.8962 20.577-10.427 27.3923-1.1692 5.2193-4.3846 16.3962-7.1346 23.0231 20.8077-3.9346 39.8847-12.8423 55.927-25.45.4692-1.1692.3846-2.2538-.8231-2.8577M173.868 154.925c1.5347 2 3.5462 3.8346 6.1693 5.1808 6.8154 3.473 8.2077 5.9769 8.2077 11.9538 0 5.977 1.1115 18.2192 3.0615 20.3039 1.2462-1.25 2.6423-3.0616 2.9154-3.6154 1.9462 3.6154 5.8693 10.3077 12.0962 14.4615.4192.2808.2307 1.8116 1.2538 2.0846 2.0846.5577 15.5731 2.6423 15.9923 5.427 2.7846-2.7847 7.2308-9.7347 8.0654-12.1039.8308-2.3577 5.7-9.8692 9.3154-14.0385 0-1.673 0-2.6461.1423-3.0615-.977.8346-2.5038 2.9192-4.7308 3.8923-2.2269.973-10.0077 4.3116-15.573 7.0923-1.9462.9731-5.4231 2.0885-6.8154-8.0654-1.3923-10.15 0-15.4346.973-17.7961.9731-2.3654 2.7808-4.4539 6.2616-3.477 3.473.9731 9.0308 3.0578 10.5654 3.0578.2769-1.1116 1.2538-3.2-2.5-3.6154-2.6731-.3-9.6423-2.2846-13.5885-7.6808-1.5961-2.1615-2.7038-4.9-2.823-8.3115-7.9231 1.2538-26.1424 3.6192-30.1731 4.5884-4.0308.977-7.45 1.8-8.7577-7.3692-.5577-3.8923-1.5308-9.3154 1.25-7.3692 2.223-1.6693 5.3038-3.6308 10.7038-2.777.9885.1539 2.223.9808 2.6116 1.7539.2961 1.35-.2808 3.5538-.9424 5.6115-1.1961 3.727-3.5423 6.3962 4.0347 4.6577 7.9307-1.8192 18.0038-3.3346 20.6461-3.8923.3462-2.7077 2.573-6.8846 5.2154-9.9423 2.65-3.073 3.0615-5.5615 3.2-6.5346.1385-.973-.777-1.1885-2.0846 0-1.5308 1.3884-6.123 4.173-10.4346 3.0577-1.6654-.427-3.75-3.6154-4.8616-5.4193.9116-1.9115 3.2154-5.2115 6.0539-8.5384-14.8077 4.7461-28.6654 12.1577-40.9846 21.9846-.0808 1.5423.123 5.127 1.1384 9.077.6808 2.65 1.9462 6.2384 4.3962 9.423M183.5192 344.9c5.6962-2.223 10.1923-2.1192 14.6 3.7577 1.25 1.6654 2.2231 6.5385 12.9308 2.223-5.7-6.8115-9.1192-14.8845-12.2346-25.7269-4.927-17.1115-16.0616-36.573-11.9616-45.4653-2.3615-2.2308-5.1423-10.8462-8.0653-9.8731-1.9616.6538-4.7231.6923-2.5039-5.8423 1.0039-2.9385 2.6539-6.4962 5.773-10.7731 3.8078-5.2115 9.8232-11.4846 19.5347-18.9846.8385-.6962.977-1.2462.4192-1.8077-.973-.9692-1.9461-2.0808-2.9192-2.6385-.973-.5577-1.95-.2807-2.7846.5577-.8346.8346-2.223 1.8077-3.0577 2.3616-.8346.5538-7.5077-5.9808-10.9846-10.7077-3.477-4.727-7.0885-6.2539-8.2-6.8116 1.3884-1.5307 4.527-4.85 3.3346-4.45-2.0846.6923-5.7385 1.1577-9.4577-2.7846-4.5885-4.8615-2.777-7.3692-3.7538-8.0615-.9731-.6962-5.9808.4154-9.7308-5.4231-3.7577-5.8423-5.2615-8.3846-2.2308-12.5192 1.5346-2.0846 2.0885-3.0577 1.6731-5.7-.4192-2.6423 0-4.3077 3.477-7.6462 3.4768-3.3346 5.5615-6.3961 7.0884-6.1192 1.2154.223-2.3-4.1962-4.427-7.5423-.5576-.8923-1.0153-1.6962-1.2769-2.3308-.5461-1.3461-1.4192-3.6615-1.6192-6.1538-24.4346 24.5115-37.8885 57.0577-37.8885 91.673 0 34.6808 13.5077 67.2923 38.0347 91.8193a131.224 131.224 0 0 0 18.523 15.4c2.85-3.0923 6.2385-1.8962 7.7077-.4308" fill="#FFF" fill-rule="nonzero"/><path d="M109.6254 70.657c11.4 2.9192 19.9461 12.1345 23.6923 17.2768.9615 1.3116 1.95 1.1154 2.3654.1424.8846-2.0654 2.5038-8.7616 2.5038-13.9077 0-11.677 1.6-16.3 4.5231-21.7193-13.6423.7462-25.6115 7.7616-33.0846 18.2077M102.7423 106.4346c21.4115 1.9462 28.073-10.0154 29.4654-11.827 1.3846-1.8038-.2808-2.9191-.977-3.8922-3.7-5.1846-11.9884-14.3539-23.3922-17.273-3.9962 6.5922-6.3385 14.3-6.3385 22.5768 0 3.5923.423 7.077 1.2423 10.4154" fill="#A73832" fill-rule="nonzero"/><path d="M187.705 105.5988c-9.0385-3.7576-19.7615-.2846-27.4077 6.3924-7.65 6.673-11.5385 11.8-14.1808 27.6538-.3269.0077-.6538.0077-.9769.0077-11.3308 0-21.6154-4.3115-29.377-11.3962 13.077-3.3384 24.0962-9.3115 36.4655-20.9923 12.3807-11.6807 18.4961-25.3077 20.1654-31.7038 1.6692-6.3962-.7-2.6423-1.9462.273-1.9385 4.5193-8.3461 16.6885-20.9961 28.5078-12.6577 11.823-22.3847 17.6538-35.5885 22.1038-4.4115-4.527-7.8077-10.0192-9.923-16.1192 4.45.2769 18.4691-1.3385 25.4845-7.0962 9.227-7.5654 10.2923-16.5461 11.5423-29.3423 1.25-12.7885 3.1308-16.5961 6.1885-21.4615 23.1615 1.0538 41.6192 20.1654 41.6192 43.5923 0 3.2923-.3769 6.4961-1.0692 9.5807" fill="#A73832" fill-rule="nonzero"/><path d="M186.4977 109.973c-2.0885-2.9192-9.523-4.323-21.3346 3.0578-1.1116.7-1.8808 1.1846-.5539 2.5038 2.5 2.5077 6.2616 7.2423 8.9039 13.6385 5.9038-5.0616 10.4423-11.6693 12.9846-19.2M170.0258 131.8704c-2.5-6.1192-4.5846-10.5654-6.9462-13.623-1.277-1.65-1.5308-2.3616-3.8961-.277-6.5731 5.8-9.1077 14.5923-10.5 21.5423 7.8923-.6346 15.1961-3.3654 21.3423-7.6423" fill="#A73832" fill-rule="nonzero"/><path d="M158.0723 180.6835c-1.8077-.5577-3.2 1.523-4.0346 3.1961-.8346 1.673-1.8115 3.477.8346 7.2308 2.6423 3.7577 4.2846 5.9923 8.9 5.7 2.227-.1385 4.1692-1.8077 4.8654-2.777.6961-.9769.8346.6924-.277 2.3616-1.1115 1.6654-1.946 5.5615.1385 8.2038 2.0885 2.6424 6.3962 4.8654 12.0962 1.5308 5.7-3.3346 8.0692-7.3692 9.0384-9.1808.9731-1.8038.9731-2.6384 0-3.75-.9692-1.1153-4.1692-6.4076-4.8653-16.8269-.4154-6.2615.6961-10.2884-3.2-12.5154-3.8923-2.2269-12.8-7.4884-13.9039-17.8-.4154-3.8923-.1384-9.8692-4.0308-6.673-3.8961 3.2-3.8961 5.423-4.3115 7.7846-.4192 2.3692 1.5308 5.5615 3.2 7.7884 1.6654 2.227 3.6115 7.0923 5.1423 8.3423 1.5308 1.2539 2.5039 2.227 3.7577 2.3654 1.2462.1385 6.2539.1385 7.5039.5577 1.2538.4193 1.95 1.95-1.1116 1.95-3.0577 0-7.7846.827-9.873 1.1077-2.0808.277-4.027.4154-5.004 4.5885-.973 4.1692-2.3653 9.0384-2.5038 10.5692-.1384 1.527-.973 2.3615-.973 3.1962 0 .8346 1.6692 4.8692 5.423.8346 3.7539-4.0308 5.2847-8.0616 5.9808-10.0116.6923-1.9461 1.5308-1.6692.8308 1.3923-.6923 3.0577-.9 10.7077.5577 13.35 1.573 2.8385 4.7423 5.7616 8.7615 3.75.8346-.4153 2.223-1.1115 3.3385-.973 1.1115.1384-.2116 2.0846-1.1846 2.923-.9731.8347-4.1693 4.3731-9.8-.6961-1.3962-1.2539-3.3231-4.0346-3.7577-7.5077-.1385-1.1154-1.6693-1.5308-2.3616-.5577-.6961.973-4.45 4.45-7.0923 1.9462-2.6423-2.5039-3.7384-3.8885-2.223-9.177.273-.973.8153-2.0153.1384-2.223" fill="#FAB383" fill-rule="nonzero"/><path d="M160.8535 172.8935c-.6 1.7961-1.1154 4.1692-1.3923 5.0077-.2808.8346-1.527 2.6423-2.6424.2807-1.1076-2.3654-1.0538-4.2307.6962-5.9807.5577-.5577 1.3885-1.6693 1.9462-1.1154.5576.5577 1.5307 1.3923 1.3923 1.8077M167.1092 166.4988c-1.1461.5731-3.5923.5693-4.45 2.5-.5577 1.2539-2.7807-.1307-1.6692-1.6653 1.1115-1.5308 1.95-1.3923 2.6423-1.8077.6962-.4154.977-1.6693 2.3654-.9731 1.3885.6961 1.6654 1.6692 1.1115 1.9461M258.7427 97.668c-3.8923.4155-7.5077 2.7847-11.123 5.2847-3.6193 2.5-16.6847 13.4885-19.7462 15.7115 3.1961 1.6693 4.0307 5.0077 2.9192 10.5693-.25 1.2346 0 1.6692.8385.8346.8307-.8346 4.723-5.0039 4.5884-8.3423-.1423-3.3385-1.6692-5.2846-1.95-5.7039-.277-.4154 1.1154-2.0846 2.6462 1.3923 1.5269 3.477 1.1077 8.3423-3.477 13.7654-4.5884 5.423-8.2076 5.2808-10.1538 6.2577-1.9462.973-3.8885 2.5-2.0808 5.423 1.8039 2.9232 5.2808 1.8078 6.6693.8347 1.3923-.977 3.3384-2.0885 7.7884-1.6692 4.4462.4154 5.9308-2.4116 2.9193-5.4231-.9731-.973-3.477-3.2-.4193-3.2 1.8116 0 4.0346 4.0346 5.2846 5.1461 1.2539 1.1116 4.0347 1.527 7.7885 1.8077 3.7538.277 9.5962 1.6654 9.5962 5.2847 0 2.223-1.2 2.873-2.7847 1.1153-.623-.7-1.5153.4-2.223 1.1077-2.3654 2.3693-8.4154 8.7616-12.7231 9.8731-4.3077 1.1115-5.9116-.1385-11.6116-3.1961-5.7-3.0577-10.9846-6.1193-12.5115-7.0924-1.5308-.973-4.7308-3.2-3.2 1.2539 1.5308 4.4461 5.2846 9.0346 12.7923 11.5423 7.5077 2.4962 8.6192 3.3346 10.2885 4.1692 1.6692.8346.7 1.6693-1.527 1.3885-1.9346-.2385-4.0346-1.9462-2.3615 1.8115 1.6616 3.7539 4.1692 7.7808 11.8192 6.8116 7.6424-.9731 7.8693-2.5923 12.65-10.5693.8308-1.3923 1.6731-.4153 1.1154 3.2 3.75-1.8077 5.8346-2.3653 8.0577-2.923 2.2308-.5539 8.0116-2.5193 11.827-9.5923 1.9423-3.6154 2.9923-4.8577 2.6384-8.6193-.1346-1.4038 1.9462-4.173 4.0346-6.123 2.0846-1.9424 7.7808-9.3154 4.8693-14.6-2.927-5.2847-7.7924-2.6385-10.1539 1.2538-2.3654 3.8961-5.0077 8.2038-5.1461 14.877-1.6693-.554-3.3731.0576-4.1693 1.3884-.4192.7-6.5384-.1346-8.6269.4192-2.0808.5577-2.773-.6961-.5538-3.6154 2.2269-2.9192 10.0615-13.5 9.5961-21.4154-.1385-2.3615.177-2.8.5539-4.5846.4884-2.2961.7038-2.3307-2.1539-3.8961-1.8577-1.0154-1.9692-3.9116-2.2923-6.1193-.35-2.3615-.8-2.373-3.477-1.8077-1.9807.4193-5.2884-1.5307-6.8153-4.0307" fill="#FAB383" fill-rule="nonzero"/><path d="M242.4754 141.1912c-.7616 1.7384-2.8654 3.4038-7.7192 2.85-2.4308-.277-4.8077-.3077-5.2116 1.6-.277 1.323-1.3846 1.2461-2.9192 1.1846-1.6039-.0693-3.3385-.4885-3.4116.0692-.0692.5538 6.8193 4.6538 9.1116 5.6962 2.2961 1.0461 5.6384 3.5307 8.3423 3.2692 3.6154-.3462 6.7654-2.1346 12.1-7.7885 2.2-2.3269 3.9615-3.5423 1.877-4.5192-1.4193-.6577-2.854-.8346-4.727-.8346-1.8808 0-5.9154-.277-7.4423-1.527M216.54 141.2623c-1.877-.073-2.0846-1.4615-.8346-3.5461 1.25-2.0885 2.4384-4.0308 4.1038-5.2847.277.9039.8346 2.0154 1.6693 2.5-1.1116 1.1847-2.5808 2.6654-2.3039 5.5885l-2.6346.7423z" fill="#FAB383" fill-rule="nonzero"/><path d="M258.8704 132.6254c-2.3885 0-5.9346-.777-8.473-2.5116-2.5693-1.7538-3.427-2.6-2.9732-5.1961.277-1.6039.4193-2.4692.5193-3.0615.0692-.4308.1192-.7154.1769-1.0385.2154-1.223.1461-2.027-.2192-2.4577-.1924-.2346-.4693-.3538-.7924-.3538-.5307 0-1.2346.3384-2.1384 1.0307-1.4692-1.1-2.8577-2.3346-3.8885-3.2461-.8-.7116-1.3769-1.2231-1.7384-1.4616-.2885-.1923-.6385-.5-.677-.8769-.0307-.2885.1231-.5961.45-.927.2-.2.4616-.2422.8154-.2422l.1616.0038h.1653c.25 0 .7154 0 1.0193-.3538.3-.3423.373-.9193.2384-1.8693.0039-.0538.1077-.1576.7347-.1576.1692 0 .3461.0038.5153.0115.1847.0077.3577.0154.5116.0154.3615 0 .5846-.0385.75-.1193.3115-.1538.3923-.4576.4461-.6769.0808-.3077.1154-.4346.5923-.4346.2693 0 .6308.0577 1.0731.1692a.9513.9513 0 0 0 .2308.0308c.4538 0 .673-.3577.8308-.6192l.0846-.1308c.1769-.273.3461-.4192.7346-.4192.0923 0 .1923.0077.3038.0269.377.0615.7116.1462 1.0077.2154.4039.1.75.1846 1.0577.1846.8192 0 1.077-.6154 1.1962-1.0846.25-.9385.4423-1.223.823-1.223.3347 0 .8347.2038 1.4847.6076.5692.3538 1.05.523 1.473.523.6385 0 1.0923-.4 1.2347-1.1076.0038-.0154.0153-.0616.1923-.0616.4115 0 1.1461.277 1.9038.7231l.377.2116c1.3038.7423 4.0153 2.2846 7.1076 5.8961.7077.823.9116 1.4539.8577 1.5962-.0115-.0039-.0308-.0039-.0461-.0039-.0539 0-.1231.0116-.1923.0231-.4731.073-1.1808.1808-1.327 1.3692-.0846.6539-.2884 1.0385-.3884 1.1 0-.0192-.1-.0961-.2462-.3846-.1884-.373-.4384-.7538-.8615-.7538a.8019.8019 0 0 0-.2154.0307c-.027-.0538-.0846-.15-.1577-.35-.0654-.1846-.273-.7423-.7923-.7423-.2462 0-.45.1423-.5962.2423a.613.613 0 0 0-.0807.0577c-.0808-.2077-.3-.7192-.7962-.7192-.1308 0-.2384.0308-.323.0577a.6936.6936 0 0 1-.104.027c0-.0116-.0384-.0616-.096-.1924-.0962-.223-.3-.35-.5693-.35-.1923 0-.4038.0654-.627.1346-.2384.0731-.4384.1308-.5845.1308-.1231 0-.1539-.0346-.1808-.0846-.1923-.3539-.477-.4077-.6308-.4077-.2461 0-.473.123-.6923.2384-.173.0885-.3654.1962-.5.1962-.0346 0-.1115 0-.2192-.1462-.077-.0961-.3039-.3923-.6385-.3923-.3307 0-.5307.2693-.6923.4847l-.0654.0923c-.1615.2115-.273.2923-.3961.2923-.0539 0-.1116-.0154-.177-.0423-.1846-.0654-.3422-.0962-.4884-.0962-.4808 0-.6962.35-.8154.5385-.1154.1846-.1346.1923-.177.1923-.0307 0-.1076-.0077-.246-.0654-.1693-.077-.327-.1154-.477-.1154-.5577 0-.7923.4846-.9461.8039-.1616.3307-.2308.4192-.3347.4192a.352.352 0 0 1-.1-.0154c-.2307-.0615-.4076-.0885-.5653-.0885-.7885 0-.8923.6654-1.0077 1.3731-.0193.123-.0385.25-.0654.3885-.1962 1.1269-.7 5.7807-.623 6.9769.0691 1.1154 1.523 1.1154 2.073 1.1154 1.0308 0 2.4384-.1885 4.1846-.4308 3.423-.477 9.7192-2.377 12.9692-5.0884.8308-.6924 1.477-.7693 1.7154-.7693.2039 0 .3.05.3192.0693.027.1653-.3653 1.05-1.1846 1.7384-.0769.073-.173.15-.273.2423-1.0154.8923-3.3885 2.9885-8.1808 3.9193-4.5846.8923-8.8192 1.6961-10.2423 1.6961-.1846 0-.277-.0154-.3154-.023-.0846-.0193-.1577-.0308-.2308-.0308-.2346 0-.4192.1192-.4923.3153-.0923.2577.05.5616.3962.8539.4577.3846 1.1.6115 1.7154.6115.1884 0 .373-.0192.5538-.0615.1615.0038.6654.473 1.0308.8154.9884.9269 2.4846 2.323 4.4577 2.323 2.4807 0 6.0692-2.6692 7.1038-3.4846.477-.373 1.5654-.9307 2.1885-1.1077-.1039.1308-.2616.3116-.5116.5616l-.1807.1808c-2.2847 2.2884-4.6462 4.6538-6.9423 4.7153-.0924.0039-.1847.0039-.2808.0039M288.2235 129.5115c-1.6116 1.1385-2.5039 1.5308-2.6423 3.4731-.1385 1.9462-.5231 5.2692-1.2539 5.5654-.9461.3846-.8154-1.8038-1.1077-1.1115-.4192.973-1.6038.5538-1.9461-.3462-.1577-.3923-3.6154-.3538-.8347-4.3846 2.5154-3.65 4.4462-5.5615 6.2539-6.3962 1.8077-.8346 4.8692.8347 1.5308 3.2" fill="#061922" fill-rule="nonzero"/><path d="M356.2862 294.7762c-.6424-1.6347.4884-4.3847 3.9653-2.4385 3.4808 1.95 6.1193 3.623 3.6193 11.2654-2.5116 7.6461-4.3116 12.0961-5.2885 15.2961-.9692 3.2-4.727 7.2308-3.477 1.8077 1.2578-5.423 1.9155-11.9769 1.3885-15.2961-.9653-6.1154.9962-5.7539.3539-8.55-.2-.8616-.323-1.5-.5615-2.0846M369.4323 301.3792c1 3.0039 2.0846 9.8693.4154 12.65-1.6692 2.7846-6.8154 10.4308-8.7577 12.3808-1.95 1.9462-3.477 1.1115-2.2308-.977 1.2539-2.0845 2.9231-4.8653 2.9231-5.8384 0-.973-.1346-2.0846 1.5308-5.2846 1.6654-3.1962 4.5884-13.9077 4.8654-14.7385.2769-.8346.973.9731 1.2538 1.8077M333.5512 327.1042c-.8308-2.5-1.25-6.1192-2.6385-8.2038 1.1115-3.0616 4.777-11.2808 10.9846-13.7654.6923-.2808 1.1154-.977.8346-1.5308-.2846-.5577.8346-.9692 1.3885.977.5615 1.9384 1.5308 7.5038 1.5308 7.5038.2769 1.2538-.277 2.227-.5539 3.8962-.2808 1.6692-.977 5.423-.5577 7.3653.4154 1.9462 1.1116 3.3423 5 2.5077 1.9539-.423 1.8154-.973 2.3654-2.6461.5577-1.6654 2.0885-6.3962 2.6462-9.0385.5538-2.6423.073-9.1038-.4847-10.773-.5615-1.6693.2077-7.304-.2115-8.4154-.4154-1.1116-.6962-2.7731-4.1692-3.8885-3.477-1.1154-4.45-1.3962-6.8154.9692-2.3654 2.3693-3.1923 3.3385-4.3077 4.45-1.1154 1.1116-3.8962.1346-1.5346-2.0807 2.3692-2.2231 4.5961-4.4539 5.2807-5.1539l-.6846-1.8077h-1.2577c-3.7577 3.7616-8.7615 5.9846-12.1 6.677-1.2538.2615-3.6153.4153-1.9461 2.6422.4192.5616.5577 2.0885 1.5346 1.5347.9692-.5616 2.4962-3.0616 3.8885-1.95 1.3961 1.1077-.2731 3.7577-1.9462 5.0077-1.6615 1.2538-3.477 2.5-4.723 3.2-1.254.6923-1.95 1.3846-1.8116 3.6115.1385 2.223.277 6.2615-.977 9.3192-1.25 3.0577-.55 3.8923.5578 5.977 1.1153 2.0884 2.923 3.8923 3.4769 7.2307.5577 3.3346.8384 4.1692 3.0615 3.8923 2.2231-.2769 3.0616-1.2538 3.8962-2.6423l.273-4.8654z" fill="#FAB383" fill-rule="nonzero"/><path d="M334.385 333.497c-.9692 1.673-2.6423 4.3115-2.6423 6.6768 0 2.3654-2.3615 4.8693-2.0846 5.9808.2807 1.1077 3.3423 4.0308 5.1461 7.0923 1.8039 3.0577 4.1654 7.6423 4.1654 15.2923 0 7.6539-2.5 18.077-2.773 19.4693-.2847 1.3884-.9731 2.5038 1.1115 4.45 2.0884 1.95 5.423 5.5615 6.6769 13.7615 1.25 8.2077 2.0846 12.5192 2.6423 12.9346.5577.4192.4154 1.1116.4154 2.6423 0 1.527 1.3846 10.2923 2.3654 11.9577.9692 1.673.8307-9.4538.6884-12.6538-.1384-3.1962.1423-18.4885.7-20.7116.5577-2.2307 1.1116-4.7346-.8384-7.5154-1.9385-2.7807-5.277-7.65-2.7731-15.7076 2.5038-8.0731 6.5308-7.927 5.277-11.127-1.25-3.2-3.4732-5.423-5.1385-7.2269-1.6693-1.8115-.3462-6.1192-.4193-7.9308-.1384-3.3423-2.7846-3.8923-3.0615-7.65-.277-3.7538-.5577-6.8115 2.227-10.5653 2.7807-3.75-.9732-3.6154-2.227-5.9808-1.2539-2.3616-1.9192-5.523-.8308-10.427.5539-2.5076.2731-3.196-.423-3.4769-.6924-.2769-3.6193-.8346-3.6193-.8346l-4.3038 8.6231c.7 1.6654.973 4.173.973 5.8385l-1.2538 7.0884z" fill="#A73832" fill-rule="nonzero"/><path d="M294.203 164.2754c-3.4268 4.5654-8.7576 16.1308-11.2653 23.3577-2.5 7.2346-8.2039 24.4769-4.1654 35.8769 4.027 11.4 11.9577 4.173 13.7577-.1385 1.8115-4.3077 4.5962-11.6807 5.4308-13.6269.8307-1.9461 1.25-3.0615 2.7769 1.527 1.5308 4.5922 3.7538 15.5769 3.7538 16.55 0 .973-1.5346 3.7576-3.1961 8.0653-1.6692 4.3077-2.6423 7.3693-.977 10.0154 1.6693 2.6385 8.2078 13.9 10.2924 18.7692 1.25 2.9193 2.3615 3.4731 5.7 2.6385 3.3384-.8308 11.4038-3.6154 13.7654-4.727 2.3653-1.1115 1.25-3.0615.5538-5.4192-1.0538-3.6-5.277-23.6461-5.277-26.2846 0-2.6423.704-6.1038-2.7884-2.223-1.2423 1.3923-2.9154 0-2.5-1.95.4192-1.9462 4.5846-29.0616 4.8692-32.3962-2.3692-5.1462-9.3192-21.4154-11.2615-24.3346-1.95-2.9192-2.6423-3.0577-5.5654-1.527-2.9192 1.527-9.4423 3.8731-11.8192-1.6692-.4154-.9769-1.1077-3.2.5577-3.4769l-1.2539-.4192s-.9769.8346-1.3884 1.3923M330.6288 264.2512c-2.5846 1.4846-11.3961 5.2807-15.0115 5.8423-3.7115.573-2.7808 1.5307-2.0846 4.3153.6885 2.7731 2.777 11.1154 3.8885 14.0385 1.1153 2.923 2.6423 2.8692 5.5653 2.7846 4.45-.1384 11.9577-2.0884 17.3808-7.0961-1.5346-1.8077-4.2115-10.4731-5.0038-14.1846-.8385-3.8885-.8385-7.9231-4.7347-5.7M250.9527 184.0188c-.277.5616-1.25 2.227-3.4692 2.227-2.2231 0-4.0347-.6962-5.427 1.25-1.3884 1.9461-9.0346 11.2654-10.7077 16.9615 1.6731 3.477 3.9 9.7346 5.5654 14.1846 5.4231-4.5846 22.7346-21.4807 26-24.75 1.2577-1.25 1.3923-2.3615-.4154-3.6115-1.8076-1.2577-8.4846-5.427-9.5961-6.1192-1.1115-.7-1.6692-.7-1.95-.1424M207.1558 208.493c-1.0693 4.2847-3.1962 11.8193-6.6731 17.6616 1.3885 2.223 2.5 4.173 4.1692 4.8654 3.8923-2.7808 11.2616-9.6 13.3462-12.1 2.0884-2.5 4.7307-6.2577 4.7307-7.0885 0-.8384-.973-1.1115-2.223-.8384-1.2539.2807-6.4-1.777-11.4039-2.777-1.3884-.2807-1.8077-.2807-1.9461.277M204.1004 204.322c-1.5308-.304-6.8154-5.9808-8.627-9.0385-1.8038-3.0616-2.0884-2.7808-2.7769-.5577-.6961 2.223-3.3384 7.0923-5.1461 9.4577-1.8077 2.3615-6.5346 8.4807-7.7885 9.873-1.2538 1.3885 0 1.9462 1.1154 3.0577 1.1115 1.1116 6.8115 8.0616 8.0615 9.5923 1.2539 1.5308 2.6462 4.3154 5.977 1.2539 3.3423-3.0616 7.373-8.623 9.1846-14.323 1.8038-5.704 1.9384-8.6924 3.4692-8.3462l.0692-1.1808-.4153-.6923-.8347-.6962c.2077.4846.2077.9039-.1346 1.4616-.35.5538-1.4615.273-2.1538.1384M289.1965 76.3962c-3.7461 4.423-11.2692 8.3384-23.9153 11.5384-12.6539 3.2-24.7539 12.1-29.8962 16.4077-5.15 4.3115-18.1154 14.927-24.3346 17.5192-1.6654.6962-5.2154 3.0539-.6962 3.6154 3.3385.4193 5.7-1.5269 12.9308-6.8115 7.2346-5.2846 12.8462-9.0962 18.3577-14.4616 5.1461-5.0076 14.4615-9.7346 24.4692-12.5153 10.0154-2.7847 23.1654-7.1539 26.977-11.2654 1.8038-1.9423 1.95-2.9193.2807-4.5885-1.6692-1.6654-2.6423-1.2461-4.173.5616M225.3704 120.1254c-1.0885.6-1.527 1.25-2.7846 5.2846-1.2462 4.0308-1.1077 6.3923-.0654 7.3692.7577.7039 1.873.7654 2.4346.7654.4154 0 .8346.1423.7692-1.0423-.0769-1.1808-.1538-6.223 3.6116-8.4808.6961-.4192-.0923-3.3346-2.5731-2.923-.8346.1423 0-1.7385-1.3923-.9731M182.4035 136.0473c1.95 0 3.2 0 3.0615 2.223-.1385 2.227-1.1115 5.2847-1.25 7.3732-.1423 2.0846-.1423 2.9153 1.1115 2.9153 1.2462 0-1.8077 1.2539-3.4807 1.5347-1.6654.2769-4.2346 1.2346-5.5616-5.8423-.4154-2.227-.2769-5.7-.5538-6.5347 1.8077-.8346 4.2923-1.6692 6.673-1.6692M219.3665 141.9854c.5154 2.8038 1.2808 2.75.7193 3.1692-.5577.4192-1.1385-1.0615-3.4077-.6923-2.1539.3462-19.6731 3.0577-20.9231 3.2-3.8923.4115-4.1038-.2154-.4885-.977 3.6154-.7653 16.8423-3.1768 20.7885-3.9691l3.3115-.7308zM198.2577 354.6358c1.8077 1.1115 6.1154 2.3654 13.4885-.6962 7.3692-3.0615 15.573-.977 16.823 4.3077 1.2539 5.2885 1.2962 12.1-.973 15.023-1.9462 2.5-3.7539 2.2232-5.977 1.5309-4.0307-1.2654-13.35-5.5616-15.9923-6.8154-2.6423-1.2539-7.0923-2.6423-10.2923-2.6423-1.25-2.6423-1.1115-7.2347-.277-8.9.8347-1.6693.8347-3.3385 1.527-2.9193.7.4154 1.673 1.1116 1.673 1.1116M227.4588 379.245c1.8077 0 5.0808.7615 6.1154 4.0385.8308 2.6384 6.2577 3.3307 8.6231 3.1923 2.3615-.1308 1.9462 1.1154 1.8039 2.5077-.1347 1.3884-.5539 5.5653-.5539 7.2307 0 1.6693.4192 7.5039.6962 8.6193.2769 1.1115-.6962 1.6692-1.9462 2.223-1.25.5577-5.8423 1.9462-8.7577-.1384-1.5384-1.0962-3.3423-2.6385-1.5346-2.7808 1.8077-.1346-2.2192-15.85-3.3346-18.6308-1.1116-2.7846-4.3154-6.2615-1.1116-6.2615M179.6223 346.4323c.75.2462 1.1154.977 1.6692 1.9462.5577.973.7462 1.8153-.1384 2.7807-1.5308 1.6693-3.3385 9.3154-3.0577 14.7423-.973-.2807-3.0577-.6961-4.1692-.4192-.4193-3.0615-.1424-12.6538 1.25-15.7154 1.3923-3.0538 2.7769-3.8923 4.4461-3.3346M179.9 431.2508c3.4654 3.9 10.0115 9.8769 14.877 11.9615 4.8692 2.0846 8.0692 2.7808 12.3768 2.3654 3.4885-.3385 2.7808 1.1115 0 1.5308-2.7807.4153-9.1769.4153-13.3423-1.8116-4.1769-2.2269-10.7923-6.3384-15.023-12.373-.9731-1.3962 0-2.9193 1.1115-1.6731M252.3442 421.5188c-2.823 1.2847-8.0615 3.8962-13.0654 5.1462.5539 2.5038.6962 3.6154.6962 4.3077 3.0538 0 8.95-2.1346 13.7615-5.1423 1.1154-.7 1.5308-1.527 1.1154-2.5039-.423-.973-.9769-2.5038-2.5077-1.8077M219.3946 410.1158c-.6961-.6923 3.2616-1.5231 4.0962-1.5231.9769.623 2.75 2.1885 3.4115 2.85.4192.4115.2115.6885-.2115.973-.4116.2731-2.8462.904-3.9616.9731-1.25-1.1115-2.9884-2.923-3.3346-3.273M226.7638 352.273c-1.1153-.8384-.973-1.25-.4153-2.0884.5538-.8346 1.1115-1.3884 1.6653-1.6692.5539-.277 1.3924-.4154 2.3616.973.973 1.3924 6.2577 10.1578 7.3692 12.5154 1.1154 2.3654 2.5077.8347 1.95-.5538-.5538-1.3923-1.6692-3.7538-2.0884-4.45 1.5346-4.727 3.0615-11.9577 3.0615-16.6846 0-4.7346-1.1115-9.4539-1.95-11.127 3.7577.1385 11.9577 0 15.1577-.973 3.2038-.977.5538-1.25-.6962-1.1116-1.25.1347-10.2423.1039-16.823-.6961-11.4-1.3923-22.6-7.8039-26.1385-12.2385-.5615-.6923-3.9-.4192-1.1154 1.8116 2.7846 2.223 9.877 8.8654 20.3039 10.7077 2.3615.4153 6.1115 1.1077 6.673 9.7307.5539 8.6231-.2769 14.1808-.2769 15.0154 0 .8385-.5538 1.1154-1.2538.1385-.6962-.9731-3.0577-4.1654-4.3154-4.8577-1.2462-.7-2.077-.5616-3.1923.273-1.1116.8347-2.7846 2.5-3.477 3.3347l3.2 1.95zM204.3742 379.4554c-1.0423 0-7.3.4884-8.6192 0-1.323-.4846-2.177-2.0039-1.25-2.6423 1.1077-.7654 3.2654.2115 5.4192.2115 2.1577 0 4.45-.5538 5.0077-.2115.5539.35 1.3231.2115 1.3231 2.8538l-1.8808-.2115zM189.217 417.6238c-1.8078-1.1076-3.9-6.2615-4.3116-16.5461-.1346-3.477 1.2577-9.3192 2.3654-12.0923 1.1115-2.7846-.6962-1.673-1.1077-.7-.4231.973-1.8116 4.8692-2.2308 7.7846-.4115 2.923-1.1115 7.2308 0 13.4885 1.1154 6.2577 1.673 8.2038 1.9462 9.3192l3.3384-1.2539z" fill="#FFF" fill-rule="nonzero"/><path d="M252.8327 85.57c1.8808.2077 3.9654.0692 4.4538-1.25.4847-1.3192.0654-2.1577-.5577-2.4346-.6269-.277-.9038-.2077-.6269-1.4616.277-1.25 1.1846-1.1076 1.1154-3.0576-.073-1.9462-1.5308-2.0154-2.8538-1.5924-1.3193.4116-1.8077 1.0347-3.0616 2.7039-1.2461 1.6692-.6923-1.1115-.4846-1.6.1962-.45.6962-3.6539-1.0192-4.2308-.9654.4846-1.9193.9654-2.8346 1.4385-.3.6115-.5347 1.327-.8039 2.0308-.6961 1.8076-1.5423.45-2.1577-.4193 0-.0038-.0077-.0077-.0115-.0115-1.8539 1.027-3.477 1.9884-4.7116 2.7923-.1346.0885-.2807.1885-.4153.277.1653 1.096 1.4846 2.4845 2.223 2.9922.9039.627.3423 1.8077-.7653 1.8077-1.1154 0-2.5039-.7615-3.8962.9-1.3923 1.673-.4885 3.273.8385 3.273 1.3192 0 2.4307.4847 2.9192 2.0116.4846 1.5308.9038 2.1616 2.7115 2.3654 1.8039.2077 2.8462-1.1808 3.3346-2.0154.4885-.8346 1.1154-2.0154 1.877-1.7346 1.1346.4116.9923 1.6039.6461 2.873 1.3077-.7691 2.6423-1.4922 4.0654-2.1845-.227-1.177-.927-2.2616-1.4423-2.777-.627-.6269-.423-.9038 1.4577-.6961M268.3392 65.4077c-.6423.15-1.3269.3308-2.0115.527.3308 1.5884.973 3.6307.623 3.923-.4192.3461-2.0192.627-3.2692.9692-1.25.35-4.2423 3.1346-2.7115 5.1462 1.527 2.0192 2.0154 3.2 2.2962 4.2461.273 1.0423 2.7769 2.2923 4.5115.2039 1.7423-2.0808 3.0615-4.377 3.4846-2.9193.35 1.227.2539 4.1924.0115 5.7847.3616-.0731.727-.15 1.0962-.2231.6962-7.7808-1.2423-13.3462-4.0308-17.6577M230.167 102.7427c-.9693-.7615-1.25-1.9462-.0732-2.2923 1.1885-.35 2.7885-.627 5.7077-1.877 2.9154-1.2538 1.3885-3.4076.0731-3.9653-1.323-.5577-1.4692-1.8039-1.323-3.1308.1384-1.3192-.2116-3.2615-2.7847-2.2885-2.5692.9693-1.673 3.4731-2.4307 4.3077-.7693.8347-1.1808.5539-1.0462-.6923.1423-1.2538-.9692-2.0884-1.5962-2.3692-.4923-.2115-1.5576-.4654-2.4692-.5385-2.6615 2.4-5.0961 4.9116-6.9423 7.4039.4154.8577 1.3885 1.8115 1.9 1.9654.7.2115 1.7423.7 1.6654 2.0884-.0577 1.1731-2.7039 1.2539-4.4423 1.2962 1.227 3.323 2.477 5.6808 4.2192 7.5654.3885-.1116.9077-.2885 1.6192-.5885 2.1539-.9038 2.8462-4.173 3.1962-5.1461.35-.9731 1.2538-.7654 1.8808.4884.4384.877.5961 1.6846.6577 2.473 1.2269-1.2268 2.4153-2.373 3.5846-3.4538-.3539-.35-.7885-.7653-1.3962-1.2461M267.0846 185.8235c.4154-.0693-.6961-5 .2154-5.2116.9-.2077 1.3115 2.7116 3.2615 2.3616 1.95-.3462 2.4347-2.2885 2.1577-4.4462-.2769-2.1577.9731-.973 1.95-2.5038.9654-1.527-1.1192-3.6116-3.4846-2.1539-2.3615 1.4577-1.9423-.4884-.6884-1.25 1.2538-.7692.3461-3.5461-2.2962-2.6461-1.9115.6577-2.877-.5808-3.7923-1.1039-.7077.273-1.4039.5692-2.1039.8808-.1538.5384-.0307 1.1923.127 1.8923.2.8923.623 3.2-.8346 2.227-1.2731-.8462-2.9924-1.3232-3.477.2768-.4884 1.6.4846 1.7423.3462 2.7116-.1423.973-2.6423 1.1807-1.4616 3.1961 1.1808 2.0154 2.9231.9077 4.1077.1423 1.1808-.7653 2.2923.1385 1.877 1.1808-.3308.8115-.9847 3.55-1.0308 5.3539.5538.3653 1.1346.7576 1.7423 1.1884.6962-.7 2.0077-1.8577 3.3846-2.0961M229.1977 181.0312c1.0385-.277 3.0577 1.873 4.8654.623 1.8115-1.25-.7654-2.5-.4154-3.5461.3461-1.0423 1.1808-3.0577-.073-4.0308-1.25-.973-2.5732-.0692-3.8885 1.3923-1.327 1.4577-.8385-1.327-.1424-2.5038.9039-1.5308 0-2.577-1.5307-2.8539-1.5308-.2769-2.0154 1.877-3.0577.9039-1.6577-1.5423-4.2423-.9039-3.6154 1.2538.627 2.1577 1.3154 2.85 0 3.127-1.3192.2769-2.573-3.1962-4.1-.4116-1.5346 2.773.9 3.6115.6923 5.7-.2077 2.0846.627 4.3077 1.877 4.5154 1.2538.2115 2.5692-1.1808 3.2653-2.0116.7-.8346 2.3654-1.4615 2.1577.1347-.1461 1.1038-.2192 3.3961-.2615 4.7153 2.5615-1.2461 5.3038-2.5461 6.7961-3.0461a4.795 4.795 0 0 0 .1846-.0692c-.6961-.2808-1.6846-.7423-2.6153-1.3923-1.3924-.9731-1.1808-2.2193-.1385-2.5M198.395 244.3685c3.2-.9731 3.3385 1.5307 2.9192 3.6153-.4154 2.0847-.4154 6.5347-.2769 8.7577l5.2808.2847c-.277-1.3962 0-5.4308.1423-7.7885.1346-2.3692 2.5038-5.9846 3.3384-2.3692.8347 3.6192 4.4462 3.7577 6.95 2.2269 2.5039-1.5308 4.3154-4.8654 6.9539-9.5962 2.6461-4.7269-.8308-5.9807-2.9192-5.7-2.0847.277-4.1731.5539.5577-3.3346 4.3961-3.623-3.0039-5.4423-6.4039-6.123-5.6038 5.8846-12.4923 12.55-18.627 17.8-.7845.6692-1.5153 1.3115-2.2153 1.9346.7346.423 2.177.9346 4.3.2923M192.8323 279.4104c2.6423-.8385 4.3115 4.8654 8.2039 1.527 3.8961-3.3347 1.1115-6.1155.9769-8.8962-.1423-2.7885 3.0577-3.8962 2.0884-7.3693-1.4884-5.3-6.4038-.2807-9.4615 2.6385-3.0577 2.9192-3.1962.5538-.1346-4.1654 3.0577-4.7308-1.95-6.2615-5.0077-5.0077-2.7192 1.1077-5.2154.023-6.8115-1.4038-1.177 1.8807-2.0385 3.6192-2.9231 5.4346-2.6423 5.423-.8346 5.5577 1.1154 5.5577 1.9423 0 6.1153 8.2077 6.6692 9.7307.1961.5462 1.623 2.6308 3.5154 5.2962-.1116-1.3154.1423-2.8308 1.7692-3.3423M268.895 224.6215c-2.5038-.5538-5.7538-.973-6.1192 4.1731-.1385 1.9462 1.8038 3.4808 3.6154 4.173 1.8076.6924 1.5269 1.9424-.4193 1.25-1.9423-.7-3.473-1.1114-4.8577 2.9193-1.4 4.0308 1.1077 4.5923 2.3616 4.8693 1.25.2769 2.2192.5538 1.9423 2.2269-.2808 1.6692-1.1116 6.5307 2.0846 6.95 3.2.4154 5.977-3.477 6.9538-5.4231.977-1.9462 2.0808-3.8962 2.3654-1.6692.277 2.2269-.1423 3.3346-1.25 5.8384-1.1154 2.5039-1.1154 3.6193.5539 3.4808 1.6692-.1462 4.45 0 5.2846-1.9538.8346-1.9424 2.0884-5.6962 2.227-8.3385.0807-1.6539 1.5307-1.8385 2.6038-1.7423a156.667 156.667 0 0 1 1.15-7.9923c-5.4577.8154-10.1039-5.85-11.7193-11.6193-1.8577 2.0193-4.5884 3.3462-6.7769 2.8577M242.8942 223.6504c-.9769 1.6654-3.7538 6.3961-2.5077 7.927 1.2539 1.5268 2.6423-1.5309 3.7577-.4155 1.1154 1.1116 3.6154 2.3577 3.6154 1.527 0-.8347.277-2.5039.6962-4.727.4192-2.2269 1.3884-3.4769 2.3615-1.6692.973 1.8038 2.3615 3.3346 5.8385 2.5 3.4769-.8308 3.0615-4.45 2.3654-7.0885-.7-2.6423 1.8115-3.8961 3.0615-4.5884 1.25-.6962 4.45-3.2 2.0885-5.4231-2.3654-2.227-4.4539.973-6.5385 1.3846-2.0885.423-1.2539-1.3846 3.0577-4.723 3.723-2.8808.6077-5.7616-1.6577-6.7578-5.9885 6.0231-16.5923 15.8-18.923 18.0231-.8347.8-1.554 1.7346-2.227 2.8616 5.5961-2.6039 5.9308-.4116 5.0115 1.1692M277.3762 279.5492c1.8076 1.6731 6.123 4.0346 9.1769 1.25 3.0654-2.7807-.6962-5.8423-1.1077-8.0615-.423-2.2308 2.223-3.623.8308-7.2308-2.4154-6.2961-5.977 1.25-8.0693 3.3346-2.0807 2.0847-1.7346-1.4577.1423-3.3346.977-.9769 5.2885-3.6192 2.7808-6.5384-2.5038-2.9193-6.1154-1.2539-7.923 0-1.8116 1.2538-3.2 2.7807-5.9808 1.9461s-5.1462-1.1115-6.8116 2.923c-1.673 4.027 1.527 2.9193 4.1654 5.8347 2.6462 2.9192.9808 3.0654-1.1038 2.3692-2.0924-.6961-3.0616-3.3384-6.1231-2.9269-3.0616.4192-3.0616 5.2923-2.0846 6.5423.9769 1.25 2.9153 1.9462 1.5269 4.3077-1.3846 2.3654.6961 5.1462 3.1961 6.2577 2.5077 1.1115 6.2539-3.3385 7.6539-5.1461 1.3884-1.8077 2.773-1.3885 2.4961 0-.2307 1.1961-.8846 4.3423-.9769 6.9692 2.1192-.677 4.2154-1.3039 6.227-1.8539-.004-1.4615-.3193-3.8115-.9347-6.0807-.8346-3.0616 1.1154-2.2308 2.9193-.5616M241.2246 294.4304c-3.3384.9692-3.8961-.5616-6.1192-1.3923-2.223-.8308-2.3692 1.1077-.8385 3.473 1.5346 2.3654 3.2 4.5885 1.3923 4.5885s-3.1961.2808-3.4769 1.673c-.277 1.3847-3.1961-.2768-3.8923-3.2-.6923-2.9268-1.3885-8.4807-2.9192-5.7038-1.527 2.777-2.9193 7.3731-6.8116 5.2885-3.8961-2.0846-1.2538-4.8692-3.2-6.8192-1.9461-1.9462-3.7538-4.4462-1.8077-7.9231 1.95-3.477 3.6154-.5577 5.4231-.5577 1.8077 0 2.0885-1.6692.4192-2.9192-1.6692-1.25-3.7576-7.2308 3.8924-6.8116 2.9461.1616 6.1192-.8346 8.6192-2.6423 2.5-1.8115 9.0423-.8384 6.4 3.7577-2.6462 4.5846-1.8077 5.5577-.2808 3.8885 1.5308-1.673 3.477-4.723 6.3962-3.8885 2.923.8308 1.6692 3.0539-.1385 5.5577-1.8077 2.5039-.6961 4.173.6923 5.1423 1.3923.977 3.9539 6.2346-3.75 8.4885M255.4112 261.6104c-2.5077.1384-5.5693-.5577-5.5693-.5577-.2769 2.6423-2.8423 6.427-5.4192 10.2923-.2808.4192-1.8077.4192-2.5077-.1423-.6885-.5539-2.6346-1.5308-1.1115-3.2 1.5346-1.6615 4.0346-5.1423 3.6192-6.6692-.4192-1.5308-1.527-2.9193-3.1962-.8347-1.6692 2.0847-4.3115 6.3962-7.2307 6.5385-2.927.1346-5.8385-2.5077-4.4539-5.15 1.3923-2.6385 1.8077-4.0308-.1384-6.4-1.9462-2.3615-1.2193-5.3846 2.923-7.227 1.25-.5538 3.4731 0 5.0039 1.25 1.527 1.254 2.3654 0 .277-1.25-2.0886-1.25-3.754-2.7807-4.0309-5.5615-.2653-2.6423 1.3923-5.4192 5.0077-3.8923 3.6116 1.527 5.8385.277 7.3693-.973 1.5269-1.2539 8.05-2.8154 7.0923 2.923-.7 4.1654-2.6385 4.3077-3.2039 6.5308-.55 2.223 1.1116.8346 2.0885-.8308.973-1.673 3.2-8.5 7.7846-3.3423 1.1154 1.2539.7 3.3423-.6962 5.7039-1.3884 2.3654-.2769 3.7538.5577 5.0038.8385 1.2539 2.7731 7.4-4.1653 7.7885" fill="#008348" fill-rule="nonzero"/><path fill="#FFF" fill-rule="nonzero" d="M370.112 151.0242l4.246-3.0115 9.204 13.6692 5.4192-3.8423-9.477-13.3923 4.1193-2.9115 10.0846 14.1384 5.4269-3.8461-14.977-20.9923-24.6384 17.4615 13.5885 19.3192 5.423-3.8423zM387.9192 198.4927l8.0577-3.727-5.55-12.0576 18.8731-7.8616-3.427-7.5538-26.6576 11.5961zM392.7196 211.2423l.8385 7.4346 17.8923-2.1038.7 7.7538 8.0077-.5923-2.227-26.0038-8.0153.5923.6923 10.8154zM393.6208 236.603l.1115 8.8616 26.3-.0808-.1077-8.8576zM405.9746 257.9896c-4.4077-.8461-9.627-.1192-13.2808 2.65-3.2807 2.4923-4.8076 4.9923-5.6769 9.5308-.5461 2.877-.1038 6.6538.85 9.9615l6.95-2.3307c-.6692-1.6-.95-4.0308-.2269-6.4924 1.4077-4.7538 5.2692-6.8961 9.9846-6.2 5.0039.7347 7.8539 5.3231 6.95 10.7847-.35 2.1769-1.4346 4.0615-3.9115 5.5423l4.3038 5.1846c3.5039-2.1462 6.1577-6.373 6.727-9.3423.9653-5.0039-.227-8.4577-2.5462-12.5193-2.2577-3.9615-6.077-5.9961-10.123-6.7692M401.152 294.7312c-3.6732-.9424-8.677 3.0923-11.0885 5.4115-1.3923 1.3385-6.25 6.2346-8.4923 5.477-2.0077-.6732-1.3962-3.7385-.7154-5.7424.9846-2.923 2.4961-5.3808 4.8461-6.9615l-4.3538-1.9308c-2.1154 1.7692-4.4731 4.623-5.4423 7.4962-1.1193 3.3153-1.5808 7.1961-1.1077 9.6653.6077 3.1808 1.7192 5.2077 5.3154 4.8808 2.7692-.2577 9.723-4.773 13.7346-8.5615 2.0346-1.9154 3.7692-2.1231 4.673-1.6193 1.4693.8116 1.377 3.3154.85 4.8847-.7076 2.0961-1.7153 5.3-3.3846 6.4846l5.9423 3.9884c2.427-2.4384 3.6847-6.1038 4.3962-9.5307 1.727-8.277-2.7577-13.3193-5.173-13.9423M368.125 120.1665c-.5154-4.073-2.7654-8.7577-5.0538-10.7384-3.5385-3.0731-7.727-3.8962-12.1808-3.3193-4.5192.5924-8.723 3.4924-11.0962 6.8654-2.5846 3.6654-4.0692 8.7231-3.0423 13.1962.9154 4.0115 2.5693 6.4346 6.35 9.0923 2.3962 1.6885 6.0193 2.8346 9.427 3.323l.7346-7.2922c-1.7347-.0462-4.0693-.7923-6.0077-2.4654-3.7577-3.2423-3.9346-8.3654-1.55-11.6462 2.9692-4.0961 8.15-4.973 12.7577-1.9038 1.8384 1.2154 2.5653 3.1846 2.8923 6.0615l6.7692-1.173zM99.1273 271.6842c.1885-1.9884.077-5.623 2.2308-6.0769 2.0769-.4385 3.4461 1.577 3.8846 3.6462.6385 3.0192 1.4885 5.3692.273 7.9307l5.6-.5884c.9193-2.5962.6347-6.0693.0078-9.0308-.727-3.4308-1.8193-5.8385-4.3423-8.077-2.427-2.1538-4.2539-2.7153-7.7924-1.9692-2.1576.4577-6.0076 4.3154-6.1423 12.0731-.023 1.4731-.373 4.2846-1.6961 4.35-1.6846.0885-2.927-1.9154-3.2654-3.5346-.4615-2.1654.1615-6.9077.9885-8.777l-5.8616-.0268c-.85 3.3307-1.1769 8-.4538 11.4269 1.5961 7.55 6.173 10.0192 9.8884 9.6115 3.9731-.4384 6.0577-4.5846 6.6808-10.9577M87.4008 239.8296l20.7654-.2577-.1-6.523-20.7654.2576-.0846-8.85-6.6462.0731.2654 24.7808 6.6461-.073zM124.9027 174.6496l-16.0308-9.2461.0423-.077 21.2308-.3538 5.0654-7.8192-26.1616-15.0847-3.9538 6.15 17.85 11.2116-24.3423.6923-3.3962 6.5692 25.7423 14.9423zM98.9377 189.8238c4.6192 0 8.373 3.7462 8.373 8.3693 0 4.623-3.7538 8.373-8.373 8.373-4.627 0-8.373-3.75-8.373-8.373 0-4.6231 3.746-8.3693 8.373-8.3693m0 24.4424c8.877 0 16.073-7.1962 16.073-16.0731 0-8.8731-7.196-16.0731-16.073-16.0731-8.8808 0-16.073 7.2-16.073 16.073 0 8.877 7.1922 16.0732 16.073 16.0732M109.2965 312.3165c-4.623 0-8.373-3.7538-8.373-8.3769 0-4.623 3.75-8.3692 8.373-8.3692 4.6193 0 8.3693 3.7461 8.3693 8.3692 0 4.623-3.75 8.377-8.3693 8.377m16.0731-8.377c0-8.877-7.1961-16.0692-16.073-16.0692-8.8808 0-16.0731 7.1923-16.0731 16.0692 0 8.8808 7.1923 16.077 16.073 16.077 8.877 0 16.0731-7.1962 16.0731-16.077M139.4835 341.418l-.5539-.6653c-1.773-2.127-7.7615-8.4654-5.2884-10.7923 2.2576-2.123 7.95 5.1038 9.5615 7.0308l.6885.8384-4.4077 3.5885zm-9.8731 8.9155c-2.123-2.5423-8.4539-7.5193-5.75-10.0654 2.577-2.4231 8.927 5.3192 9.7154 6.2654l-3.9654 3.8zm-.977-28.0347c-2.4653 2.1885-3.6576 7.3847-1.3307 10.9039-2.5346-1.2346-7.6462-1.6577-9.9923.3808-5.7846 5.023 1.2308 12.2807 6.9923 18.0346l8.0308 7.9307 21.3423-17.6538-8.6423-10.05c-3.0308-3.8077-11.4077-13.9615-16.4-9.5462z"/><path d="M223.6335 405.387c.9038-.4155 2.1577-.9732 2.7153-.554.5539.4155 3.8847 2.7808 5.977 4.5924 2.0807 1.8038 2.7769 2.3615 1.1115 3.3346-1.6692.9692-3.2038 1.9462-2.9192 1.1077.2769-.827.6923-2.0808-.4231-3.1923-1.1077-1.1154-3.8385-3.223-5.0038-4.173-.7616-.627-1.4577-1.1155-1.4577-1.1155M215.7758 407.6854c-.6962.627-.8346 1.6692 0 2.5.8346.8346 5.4923 4.727 6.2577 5.4961.7653.7616 1.8769 1.0462 3.1269.7616 1.2538-.2808-1.4577 1.5307-2.5039 1.7384-1.0346.2039-2.2192.2039-3.3307-.8346-1.1193-1.0423-7.3731-6.9538-8.6231-8.1346-1.2539-1.1808.3461-1.1808 1.4577-1.3154 1.1154-.1384 2.0846-.073 3.6154-.2115M246.16 76.1162c.2615-.677.4846-1.4193.773-2.0154a133.9911 133.9911 0 0 0-2.9153 1.5654c.6154.8692 1.45 2.2461 2.1423.45M271.2615 77.5042c-.4192-1.4577-1.7423.8385-3.4807 2.9193-1.7346 2.0884-4.2423.8384-4.5154-.2039-.277-1.0461-.7654-2.227-2.2962-4.2461-1.5307-2.0116 1.4616-4.7962 2.7116-5.1462 1.25-.3423 2.8538-.623 3.2692-.9692.3538-.2923-.277-2.3423-.6154-3.927-5 1.427-11.0961 4.0385-16.477 6.6924 1.6386.6269 1.154 3.8077.9616 4.2538-.2115.4885-.7654 3.2692.4846 1.6 1.2539-1.6692 1.7424-2.2923 3.0577-2.7038 1.3231-.4231 2.7808-.3539 2.8577 1.5923.0654 1.95-.8384 1.8077-1.1154 3.0577-.2807 1.2538 0 1.1846.627 1.4615.623.277 1.0384 1.1154.5538 2.4346-.4884 1.3192-2.573 1.4577-4.4538 1.25-1.877-.2077-2.0846.0692-1.4539.6962.5039.5115 1.1885 1.623 1.4346 2.7846 4.5231-2.1885 9.9962-4.0192 18.4731-5.7616.2308-1.6038.3192-4.573-.023-5.7846M227.32 104.97c-.627-1.2538-1.5308-1.4615-1.877-.4885-.3538.9731-1.046 4.2423-3.2 5.1423a13.5762 13.5762 0 0 1-1.6307.5808c.7462.8077 1.577 1.5308 2.5346 2.2039 1.7-1.7962 3.2923-3.4347 4.8193-4.9616-.0577-.773-.2193-1.6192-.6462-2.4769M248.1038 88.3535c-.7615-.277-1.3884.9038-1.8769 1.7346-.4846.8346-1.5269 2.2269-3.3307 2.0192-1.8116-.2077-2.2308-.8346-2.7154-2.3654-.4885-1.5269-1.6-2.0154-2.9193-2.0154-1.323 0-2.2269-1.6-.8346-3.2692 1.3923-1.6654 2.7808-.9038 3.8923-.9038 1.1077 0 1.6693-1.1808.7654-1.8077-.7192-.4962-1.9808-1.9154-2.2-3.0077-3.9654 2.6077-9.65 6.6423-14.6077 11.1115.8962.077 1.9423.377 2.4154.5885.627.2769 1.7385 1.1115 1.6 2.3654-.1385 1.2461.277 1.5307 1.0423.6923.7616-.8308-.1384-3.3385 2.4308-4.3077 2.577-.9731 2.927.9692 2.7846 2.2884-.1462 1.327 0 2.5731 1.323 3.1308 1.3155.5577 2.8462 2.7115-.073 3.9654-2.9192 1.25-4.5192 1.5308-5.7038 1.8808-1.1808.3423-.9 1.5269.0692 2.2884.5961.4693 1.023.9231 1.3692 1.2731 3.677-3.4154 7.1539-6.2077 11.0808-8.85 2.15-1.4423 4.1115-2.7462 6.1538-3.9462.3346-1.25.4539-2.4615-.6654-2.8653M220.848 101.3527c.077-1.3885-.9653-1.877-1.6653-2.0846-.5077-.1577-1.4615-1.1423-1.8808-1.9885-.6923.927-1.3038 1.8462-1.8038 2.7539.3038.9346.6077 1.8.9038 2.6153 1.7423-.0423 4.3885-.1307 4.4462-1.2961M279.6035 166.2212c-4.5539-.2885-9.9731.6346-15.15 2.6307.9038.5385 1.8692 1.7654 3.7461 1.1231 2.6423-.9038 3.55 1.877 2.2962 2.6462-1.2539.7615-1.6731 2.7038.6923 1.2461 2.3615-1.4577 4.4461.627 3.4807 2.1577-.9769 1.527-2.2269.3462-1.95 2.5.277 2.1577-.2076 4.1038-2.1576 4.45-1.9462.35-2.3616-2.5692-3.2616-2.3615-.9115.2077.2039 5.1423-.2154 5.2115-1.3577.2308-2.6538 1.4077-3.3538 2.1154.0577.0384.1038.073.1538.1115 7.6577 5.4962 9.5962 2.5039 10.7116-.1384 1.1115-2.6423 3.5846-10.4731 4.3077-14.6.423-2.3654.9769-4.8654.7-7.0923M262.987 181.3785c.4153-1.0423-.6962-1.9462-1.8732-1.1847-1.1884.7693-2.9307 1.877-4.1115-.1384-1.177-2.0192 1.3192-2.223 1.4615-3.1962.1385-.973-.8346-1.1115-.3461-2.7115.4846-1.6 2.2077-1.123 3.4808-.2808 1.4577.977 1.0307-1.3307.8307-2.223-.1538-.677-.2615-1.3616-.1384-1.8885-1.4962.6808-2.977 1.4461-4.3808 2.3038-7.1462 4.3731-7.3692 8.0654-5.7038 9.4577 1.4961 1.2423 4.5538 1.827 9.75 5.2193.0538-1.8039.7076-4.5539 1.0307-5.3577M240.252 177.2035c-2.9578-1.4731-5.8462-4.727-7.7885-8.4808 0 0 .1384-.5539-.6962-.5539-.8308 0-3.8961-.2807-9.0385-2.0884-5.1461-1.8039-5.8384-.6923-6.5307 1.5308-.7 2.223-1.2577 6.2576-1.3962 12.9346-.1384 6.673 2.7808 10.8423 4.5923 10.1461.877-.3423 3.15-1.4692 5.5846-2.6538.0347-1.327.1077-3.6231.2539-4.7154.2077-1.5962-1.4577-.9692-2.1577-.1346-.6962.8307-2.0115 2.223-3.2654 2.0115-1.25-.2077-2.0846-2.4308-1.877-4.5154.2078-2.0884-2.2268-2.923-.6922-5.7 1.527-2.7846 2.7808.6923 4.1.4116 1.3154-.277.627-.9693 0-3.127-.627-2.1576 1.9577-2.7961 3.6154-1.2538 1.0423.977 1.5269-1.1808 3.0577-.9038 1.5307.2807 2.4346 1.323 1.5307 2.8538-.6961 1.1808-1.1846 3.9615.1423 2.5038 1.3154-1.4615 2.6385-2.3653 3.8885-1.3884 1.2538.9692.4192 2.9846.073 4.027-.35 1.046 2.227 2.3.4155 3.546-1.8077 1.25-3.827-.9-4.8654-.623-1.0423.2808-1.2539 1.5308.1384 2.5038.9077.6346 1.8577 1.1308 2.5577 1.4116 2.8962-.9846 6.2846-2.8846 7.3846-3.5693l1.8077.1423c.1385-2.3653 0-3.8961-.8346-4.3153M229.9604 207.798c-1.1116-2.5038-1.5-.5807-4.5885 4.3116-1.5615 2.473-5.5077 7.0577-10.4461 12.2385 3.423.6923 10.7961 2.5038 6.4154 6.1192-4.7308 3.8885-2.6424 3.6115-.5577 3.3308 2.0884-.2808 5.5653.973 2.9192 5.7038-2.6385 4.7308-4.45 8.0616-6.9539 9.5962-2.5038 1.5269-6.1153 1.3884-6.95-2.227-.8346-3.6153-3.2038 0-3.3384 2.3654-.1423 2.3616-.4192 6.3962-.1423 7.7885l-5.2808-.2808c-.1385-2.2269-.1385-6.6769.277-8.7615.4192-2.0808.2807-4.5885-2.9193-3.6154-2.0885.6385-3.5192.1-4.2615-.327-6.2154 5.5309-9.3577 9.35-11.4654 12.7193 1.5961 1.4154 4.1269 2.4808 6.8269 1.377 3.0577-1.254 8.0692.2769 5.0077 5.0076-3.0615 4.7193-2.9192 7.0846.1346 4.1654 3.0615-2.9192 7.977-7.9384 9.4615-2.6384.9693 3.473-2.2269 4.5846-2.0884 7.3692.1384 2.7808 2.923 5.5615-.973 8.9-3.8924 3.3346-5.5616-2.3692-8.204-1.5308-1.5922.5077-1.9153 1.973-1.8269 3.273 3.4616 4.8962 8.5 11.8193 10.3077 14.7962 2.7846 4.5962 2.7846 10.1616 3.8923 9.3231 1.1116-.8384 3.7577-3.3423 4.5923-4.0307.8347-.6962 1.6654-1.5308 1.25-3.0616-.4153-1.527-2.0153-9.7308-1.5269-15.4346.5539-6.5346 3.6116-13.6962 5.8385-17.7962 2.1384-3.9461 8.6192-16.55 10.15-19.8884 1.5308-3.3346 4.3115-7.227 5.0077-10.2885.6923-3.0615 3.3346-10.15 4.45-13.4884-.277-2.7808-2.0731-8.4077-5.0077-15.0154M250.8173 176.7865c-.8346 2.227-1.9423 5.0077-2.5 6.4-.5577 1.3923-3.1192.85-2.923-.1423.4192-2.0846-2.554-.7038-2.2231-2.3615.2769-1.3923-.277-3.6192 1.25-3.6192 1.5307 0 4.4538-.277 6.3961-.277" fill="#BB9753" fill-rule="nonzero"/><path d="M246.16 76.1162c.2615-.677.4846-1.4193.773-2.0154a133.9911 133.9911 0 0 0-2.9153 1.5654c.6154.8692 1.45 2.2461 2.1423.45M255.4112 261.6104c-2.5077.1384-5.5693-.5577-5.5693-.5577-.2769 2.6423-2.8423 6.427-5.4192 10.2923-.2808.4192-1.8077.4192-2.5077-.1423-.6885-.5539-2.6346-1.5308-1.1115-3.2 1.5346-1.6615 4.0346-5.1423 3.6192-6.6692-.4192-1.5308-1.527-2.9193-3.1962-.8347-1.6692 2.0847-4.3115 6.3962-7.2307 6.5385-2.927.1346-5.8385-2.5077-4.4539-5.15 1.3923-2.6385 1.8077-4.0308-.1384-6.4-1.9462-2.3615-1.2193-5.3846 2.923-7.227 1.25-.5538 3.4731 0 5.0039 1.25 1.527 1.254 2.3654 0 .277-1.25-2.0886-1.25-3.754-2.7807-4.0309-5.5615-.2653-2.6423 1.3923-5.4192 5.0077-3.8923 3.6116 1.527 5.8385.277 7.3693-.973 1.5269-1.2539 8.05-2.8154 7.0923 2.923-.7 4.1654-2.6385 4.3077-3.2039 6.5308-.55 2.223 1.1116.8346 2.0885-.8308.973-1.673 3.2-8.5 7.7846-3.3423 1.1154 1.2539.7 3.3423-.6962 5.7039-1.3884 2.3654-.2769 3.7538.5577 5.0038.8385 1.2539 2.7731 7.4-4.1653 7.7885m-14.1847 32.8192c-3.3423.9692-3.8961-.5577-6.123-1.3923-2.2231-.8308-2.3654 1.1077-.8347 3.473 1.5308 2.3655 3.2 4.5924 1.3924 4.5924-1.8077 0-3.2.277-3.477 1.6692-.2769 1.3885-3.1961-.2769-3.8923-3.2-.6961-2.9269-1.3884-8.4807-2.923-5.7-1.527 2.7731-2.9193 7.3693-6.8116 5.2846-3.8923-2.0846-1.25-4.8692-3.2-6.8192-1.9423-1.9461-3.75-4.4461-1.8038-7.923 1.9461-3.477 3.6153-.5578 5.423-.5578s2.0847-1.6653.4193-2.9192c-1.6731-1.25-3.7577-7.227 3.8884-6.8115 2.95.1615 6.1193-.8346 8.6231-2.6423 2.5-1.8116 9.0385-.8347 6.3962 3.7577-2.6423 4.5846-1.8077 5.5576-.2808 3.8923 1.5346-1.677 3.477-4.727 6.4-3.8923 2.9192.8307 1.6692 3.0538-.1385 5.5576-1.8077 2.5077-.6961 4.1731.6923 5.1424 1.3923.9769 3.95 6.2346-3.75 8.4884m49.3616-24.8961c-3.6154-5.9731-4.3116-8.3385-4.8693-14.4577-.35-3.8616-.0346-8.8808.5231-13.7039-1.0692-.0846-2.523.1193-2.6038 1.7423-.1385 2.6462-1.3923 6.3962-2.227 8.3423-.8346 1.9539-3.6153 1.8077-5.2846 1.9539-1.6692.1384-1.6692-.977-.5538-3.4808 1.1077-2.5038 1.527-3.6154 1.2461-5.8384-.2807-2.227-1.3846-.277-2.3615 1.6692-.977 1.9461-3.7538 5.8346-6.9538 5.423-3.1962-.4192-2.3654-5.2807-2.0847-6.9538.277-1.6692-.6923-1.9461-1.9423-2.227-1.2538-.273-3.7615-.8345-2.3653-4.8653 1.3884-4.0346 2.9192-3.6192 4.8615-2.923 1.9461.696 2.227-.554.4154-1.2462-1.8077-.6923-3.75-2.227-3.6116-4.1731.3654-5.15 3.6116-4.727 6.1193-4.173 2.1769.4807 4.923-.827 6.7884-2.8193-.0384-.127-.0846-.2539-.1115-.3846-3.7115-14.15 3.3308-31.5616 5.277-36.427 1.95-4.8653 9.4576-18.5615 12.0307-22.6653-1.3885-.6962-5.073-2.5693-7.0923-3.6154-2.0116-1.0385-3.127-1.527-3.6846-.7616-.5577.7616-1.2539 1.177-2.2231 2.5693-1.9539 2.7884-.277 2.3654.277 2.3654.5576 0 2.9191 3.0577 3.3422 3.7577.4154.6923 0 1.2461-.977 3.4692-1.2768 2.9115-2.0845 9.6-3.196 13.6308-3.3693 12.2115-8.6231 10.9846-10.9885 9.4576-2.3654-1.5346-3.0577.8347-5.4231 4.1693-.5654.7923-1.9808 2.3115-3.85 4.1923 2.2654 1.0115 5.3308 3.927 1.627 6.7923-4.3116 3.3385-5.15 5.1461-3.0616 4.727 2.0846-.4155 4.173-3.6155 6.5384-1.3885 2.3654 2.2269-.8346 4.7269-2.0884 5.423-1.25.6962-3.7577 1.9462-3.0616 4.5885.6962 2.6385 1.1154 6.2577-2.3653 7.0923-3.4731.8346-4.8616-.6962-5.8347-2.5038-.9769-1.8077-1.9461-.5577-2.3653 1.6692-.4154 2.223-.6923 3.8923-.6923 4.727 0 .8307-2.5039-.4116-3.6193-1.527-1.1115-1.1154-2.5 1.9423-3.7577.4154-1.2423-1.5308 1.5308-6.2616 2.5116-7.927.9154-1.573.5307-3.7538-4.9962-1.1961-1.7884 2.9961-3.2077 7.3385-5.4384 14.127-3.0577 9.323-9.9847 22.0115-12.8616 26.6307-7.4884 12.0384-8.827 23.4308-7.7115 30.523 1.1038 7.054 2.0807 6.5308 3.6115 6.5308 1.5308 0 5.2846 4.727 7.7846 7.6539 2.5039 2.9192 3.4808 1.6654 4.7308.6884 4.0192-3.123 12.0923-8.3423 23.4962-13.7615 4.8653-2.3115 11.3423-4.777 17.6615-6.8.0961-2.6192.7385-5.777.9692-6.9654.277-1.3923-1.1077-1.8115-2.4961 0-1.4 1.8039-5.1462 6.2539-7.6539 5.1423-2.5-1.1115-4.5807-3.8923-3.1961-6.2577 1.3884-2.3615-.55-3.0577-1.527-4.3077-.9769-1.25-.9769-6.123 2.0847-6.5423 3.0615-.4115 4.0307 2.2308 6.123 2.927 2.0847.6961 3.75.55 1.1039-2.3693-2.6385-2.9154-5.8385-1.8077-4.1654-5.8346 1.6654-4.0346 4.0308-3.7538 6.8115-2.923 2.7808.8345 4.1693-.6924 5.9808-1.9462 1.8077-1.2539 5.4192-2.9193 7.923 0 2.5078 2.9192-1.8038 5.5615-2.7807 6.5384-1.877 1.877-2.223 5.4193-.1423 3.3347 2.0923-2.0847 5.65-9.6308 8.0692-3.3347 1.3923 3.6077-1.2538 5-.8307 7.2308.4115 2.2192 4.173 5.2808 1.1077 8.0615-3.0539 2.7847-7.3693.4231-9.177-1.25-1.8038-1.6692-3.7538-2.5-2.9192.5616.6115 2.25.923 4.6192.9308 6.0808 6.0846-1.6847 11.3846-2.7077 14.0807-2.4693 3.9731.3539 6.9577 1.527 6.8193-2.0884-.1385-3.6154-2.0846-6.1193-5.7-12.1M208.187 380.492c-.6116 0-1.9385-.2155-1.9385-.7808l-1.6039-.177c.9692.1962 1.8539 1.3077.8308 2.0039-1.1116.7769-4.6577 1.1961-8.4039.9769-3.7538-.2-4.6692-2.2385-4.7346-3.7154-.0461-.977.0654-1.8308.0654-3.2384 0-1.4-.3346-2.6693.4962-3.2308.8269-.5577.623.8384 1.173.8384 2.3731 0 10.5731.777 12.5231 1.0616 1.9577.273 1.8192-.8885 1.3846-2.1923-.1307-.4231-.6807-.2654-.8884.2923-.2154.5615-2.0231.3538-2.0231.3538s-3.6154-.3538-5.9654-.5c-2.373-.1461-4.1961-.4115-5.6423-.6961-1.4692-.2923-3.2846-.2116-3.1308.4923.1154.7038.5462 9.4846.627 10.7538.0615 1.2616.1346 1.7616.7576 1.7616 1.6039 0 12.3924.1384 14.8808.1384 2.5077 0 2.377-.2846 2.4346-1.6846.0731-1.4115-.2-2.4577-.8423-2.4577" fill="#BB9753" fill-rule="nonzero"/></g></svg>