<svg width="500" height="500" viewBox="0 0 500 500" xmlns="http://www.w3.org/2000/svg"><title>brooklyn-nets</title><g fill="none" fill-rule="evenodd"><path d="M435.8133 117.995l.0318-16.9044-9.9785-5.0405c-3.0254-1.5174-75.1042-37.3529-174.6877-37.3529h-4.501c-99.9655 0-171.6834 35.846-174.6558 37.3423L62.0118 101.08l.0318 16.5648c-.8068 42.457 4.4797 150.3029 70.7307 234.4211 54.075 68.7103 105.8996 85.0097 111.6214 86.6333l4.9786 1.422 4.9574-1.3902c2.2292-.626 55.179-16.0872 110.7297-86.665 66.3146-84.1395 71.5799-191.6246 70.7519-234.071" fill="#FEFEFE" fill-rule="nonzero"/><path d="M425.2 118.0745c.0318-3.7459.0318-5.8576.0318-5.8576v-4.5948l-4.1613-2.1011c-2.9192-1.475-72.8219-36.2068-169.8895-36.2068h-4.501c-97.0038 0-166.9808 34.7318-169.8894 36.2068l-4.1719 2.101v4.595s0 2.1116.0425 5.6347c-.7856 41.3004 4.278 146.175 68.4483 227.651 52.0475 66.1315 100.8149 81.4653 106.197 82.9934l2.0911.6049 2.07-.5943c2.1125-.5836 51.7928-15.0897 105.2628-83.004 64.234-81.5079 69.287-186.2445 68.4696-227.4282" fill="#2D2925" fill-rule="nonzero"/><path d="M249.3945 417.8781c-3.949-1.1354-50.381-15.408-100.2629-78.8124-65.752-83.4604-66.0386-192.7494-65.5397-218.4932-.0318-3.6186-.0318-5.656-.0318-5.656s.0636-.0318.2017-.1061v-.2122l1.4649-.6898c3.4925-1.5917 11.2736-4.998 22.5472-9.041C135.788 94.6164 185.9672 80.227 246.698 80.227h4.4267c60.6248 0 110.666 14.3151 138.7226 24.5553 11.401 4.0855 19.2776 7.5237 22.7913 9.126l1.465.6685v.2335c.1167.0743.2016.1061.2016.1061s0 2.0374-.0424 5.656c.5095 25.7438.2441 135.0328-65.5292 218.4932-50.0093 63.5317-95.539 77.7619-99.3392 78.8124m102.7362-76.0004c62.8434-79.778 67.7902-182.5304 66.9622-222.9924.0318-3.7672.0318-5.847.0318-5.8577v-1.528l-1.3694-.6898c-2.8555-1.4538-71.3039-35.4534-166.588-35.4534h-4.4904c-95.2099 0-163.7007 33.9996-166.588 35.4534l-1.3907.6898v1.528c0 .0107 0 2.0905.053 5.6242-.7749 40.6107 4.1932 143.4796 66.9835 223.226 50.7524 64.4867 97.7894 79.3005 102.9804 80.765l.7006.191.6794-.191c2.017-.5519 49.8607-14.538 102.0356-80.765" fill="#FEFEFE" fill-rule="nonzero"/><path d="M370.4646 166.5017c-23.354-24.152-26.0503-28.0677-26.0503-38.0002 0-9.837 4.2993-11.1528 8.5242-11.1528 2.1868 0 4.8937.4457 8.004 1.337 16.8999 4.8602 16.8999 14.0817 16.8999 20.9156v9.805c0 .7747.5095 1.4751 1.242 1.7298 4.0763 1.3901 6.125 2.1117 10.403 3.6928.552.2016 1.189.1274 1.6773-.2016.499-.3608.7856-.9126.7856-1.5175v-8.1921c0-10.3464 0-27.6751-30.2222-36.3448-21.1353-6.0592-31.9206.4245-31.9206 18.7613 0 15.2277 9.331 24.343 24.8083 39.4434l3.121 3.0561c18.354 17.9867 22.0694 23.9186 22.0694 35.3261 0 4.0855-.6157 6.9506-1.879 8.744-1.3056 1.8252-3.3756 2.6635-6.5284 2.6635-2.4522 0-5.5519-.5412-9.2142-1.5917-8.0465-2.3134-13.885-5.465-17.3457-9.3807-4.2249-4.754-4.2249-8.7864-4.2249-16.83v-8.7016a1.8306 1.8306 0 0 0-1.4119-1.7827c-4.5221-1.0187-6.6877-1.4644-11.0188-2.324-.5308-.0955-1.0934.0425-1.518.382-.4246.3502-.6581.8702-.6581 1.4114v15.408c0 14.485 11.8362 25.521 34.2772 31.9198 6.3268 1.8146 11.7938 2.7166 16.2629 2.7166 17.5685 0 17.5685-14.1453 17.5685-20.1833 0-15.928-8.1102-25.054-23.6512-41.1094m-47.037-65.5055c-22.3137-4.0855-45.1156-6.2927-67.769-6.5474-.4989-.0212-.966.1804-1.3057.52-.3503.3608-.5414.8171-.5414 1.3052v7.0037c0 .9975.7962 1.8146 1.8047 1.8358 10.6154.1167 16.0824.3502 26.1352 1.146v101.3091c0 .955.7112 1.751 1.6666 1.8359 4.4373.3501 6.5922.5624 11.0613 1.0399.053.0212.138.0318.191.0318.4565 0 .8812-.1698 1.2209-.4775.3821-.3502.6156-.8383.6156-1.3689V107.6815c10.0847 1.1355 15.6154 1.9632 26.252 3.9157.5414.1061 1.104-.053 1.5074-.4032.4034-.3396.6476-.8596.6476-1.4008v-6.993c0-.8914-.6157-1.6448-1.4862-1.804m-78.9576-6.367c-18.9804.3078-38.1307 1.995-56.9094 5.0087-.8917.138-1.5393.9126-1.5393 1.804v109.8408c0 .5412.2442 1.0506.6476 1.4007.3397.276.7643.4245 1.189.4245.0848 0 .191 0 .276-.0106 18.5239-2.9713 37.4193-4.6479 56.1768-4.9662.9873-.0106 1.794-.8277 1.794-1.8252v-6.8445c0-.4882-.191-.9763-.552-1.3053-.3397-.3395-.8598-.5305-1.3163-.52-17.558.2972-26.942.9551-43.725 3.1411V157.312c13.9275-1.804 21.2946-2.4088 35.8696-2.9394.9766-.0424 1.7728-.8595 1.7728-1.8358v-6.696c0-.4987-.2017-.9762-.5733-1.3158-.3503-.3395-.828-.5411-1.3375-.5093-14.2565.5306-21.9421 1.146-35.498 2.897v-38.6263c17.0802-2.239 26.0078-2.8652 43.7887-3.1517.9978-.0106 1.794-.8277 1.794-1.8252V96.465c0-.4987-.2017-.9762-.5414-1.3052-.3503-.3502-.8386-.5412-1.3163-.5306m-72.737 7.8738c-4.3842.8808-6.4967 1.3371-10.7853 2.324-.8386.191-1.4225.9444-1.4119 1.8146l.8811 79.8948c0 5.3058.138 10.1766.3503 14.538-10.7959-27.6009-22.0695-56.178-33.513-85.1052-.3715-.902-1.3693-1.3795-2.3035-1.0612-6.3692 2.1117-9.4583 3.2047-15.732 5.5711-.7007.2547-1.1784.955-1.1784 1.6979v109.8514c0 .6049.2866 1.1673.7856 1.5069.2972.2122.6687.329 1.0509.329.2017 0 .4352-.0425.637-.1274 3.8746-1.4644 5.8278-2.1648 9.9572-3.608.7325-.2546 1.2314-.9444 1.2208-1.719-.1486-25.9985-.2973-51.9863-.4246-77.953 0-6.8445-.085-10.6646-.3079-15.5035 11.2736 28.6726 22.25 56.7403 32.6637 83.5983.3503.8595 1.2526 1.3476 2.155 1.1036 6.6877-1.6448 9.9679-2.377 16.6768-3.7247.8386-.1804 1.465-.9232 1.465-1.7934V104.2964c0-.5518-.2548-1.0718-.6688-1.422-.4353-.3395-.9979-.4775-1.518-.3714M310.515 351.1406c-1.0616.7322-2.1125 1.5069-3.2908 2.3133-3.0785 2.1436-6.072 3.9582-9.2779 5.8683-1.4755.9126-3.0148 1.8146-4.5965 2.8014-10.9339 6.7702-24.0333 14.262-38.0776 18.5598-4.0657 1.2627-7.813 2.1753-11.454 2.759-3.3864.4881-6.5498.7428-9.7025.7428h-.6051c-4.1507-.0319-8.174-.4245-12.038-1.1355 14.6918 5.2103 31.0078 6.3352 47.26 2.3028 9.2991-2.3028 17.8446-6.123 25.3921-11.121 7.2504-5.6666 13.1101-13.7208 16.868-23.441-.1593.1167-.3079.2334-.4777.3501zm-74.3824 28.9379c9.331-1.1036 17.059-3.4594 25.8592-7.8738 1.2845-.6261 2.5477-1.284 3.8003-1.942 1.0722-.5518 2.1337-1.1142 3.2059-1.6554 7.4733-3.905 15.488-8.1497 25.1798-13.3494 3.4076-1.8252 6.8151-3.7777 10.1165-5.656l3.8747-2.1541c1.4967-.8065 2.898-1.56 4.3205-2.4195.1273-.0849.2972-.191.467-.2971 1.242-4.5312 2.0488-9.455 2.4204-14.6546-9.5221 4.7646-23.8317 8.9455-44.8184 13.1584-26.8783 5.3376-53.1728 2.95-76.6541-6.9506-15.7746-6.643-23.2266-15.8432-26.3582-20.9155.4034 3.608 1.0297 7.2159 1.9427 10.8344 5.1803 20.4592 17.7384 37.1725 34.1923 47.9964l-.0743-.138 2.3142 1.3583c1.8683 1.1142 4.193 2.0799 6.9212 2.8651 5.1273 1.5281 10.1696 2.2815 15.4561 2.2815 2.484 0 5.0742-.1698 7.8342-.4881zm83.7664-34.4347c-.0637-.329-.138-.3396-.3078-.3396-.2548 0-.8174.1168-1.9639.849-.2017.1591-.4246.297-.6581.4563-.1911.1273-.3928.2546-.5626.382-2.0382 5.4013-4.7452 10.5055-7.8449 15.0579 4.501-4.7753 8.3862-10.081 11.5815-15.7583h-.1062l-.138-.6473zm3.1316-20.2788c-.2866.2016-.552.4032-.8386.6155-.4459.329-.9023.6685-1.3907.9975-.3821 5.189-1.3481 10.325-2.813 15.2913 2.5689-.902 3.45.138 3.7154.7322.0212.0849.0424.1804.0636.2653 4.2356-8.3089 7.0275-17.3394 8.1846-26.7413-1.3057 3.141-3.4288 6.4094-6.9213 8.8395zm-1.9745-4.4463c.2017-.1485.4034-.297.5839-.4244 6.8788-4.7753 8.6515-12.5323 8.8957-13.8057 0-6.505-.7962-13.1054-2.484-19.6952-.0637-.2653-.1274-.52-.2123-.7853-.6263 6.0487-3.6093 11.6516-8.8745 16.6603 1.4012 6.038 2.0912 12.0972 2.0912 18.0503zm-122.4915 9.89c19.3837 6.3883 30.1478 8.4363 44.2982 8.4363 5.1485 0 11.0082-.3077 18.4708-.9232 20.6683-1.7828 42.4618-8.606 54.1706-14.2833-.0212-5.6878-.5413-11.4499-1.5498-17.1802-3.4713 2.1011-7.399 3.088-12.2396 3.088-4.8619 0-10.7428-.9232-20.2861-3.2153-11.2736-2.6741-27.409-12.2776-41.6338-20.735-7.8023-4.6586-15.1694-9.0518-21.2733-12.0549-23.2266-11.4818-36.411-9.8688-39.9247-9.1154-8.2907 13.7845-12.4625 29.999-11.3904 46.7018 1.5605 2.2284 9.5115 12.0866 31.358 19.2813zm11.8468-66.4393c7.8979 3.3003 18.2585 8.8501 29.203 14.7396 17.2714 9.2745 35.1372 18.878 47.2282 21.8811 10.7746 2.6635 19.6173 2.43 25.8273-.6897-.0212-.1168-.0424-.2441-.0743-.3502-.0743-.4563-.1592-.8808-.2972-1.3265-5.244-22.0085-32.8017-70.1958-80.5288-70.1958-2.0063 0-4.0657.1061-6.1038.2865-18.4497 5.3483-33.6404 16.6709-43.9267 31.3255 1.741-.5518 4.0232-1.0505 7.123-1.0505 5.8278 0 13.0782 1.804 21.5493 5.38zm106.9718 32.4716c1.2526-1.2946 2.2292-2.7166 2.983-4.2022 5.764-11.0785.5944-23.4941-1.5712-27.813-16.0505-26.4654-46.347-42.0539-77.9385-39.019 32.7061 1.7616 64.3932 31.0178 76.5267 71.0342z" fill="#FEFEFE" fill-rule="nonzero"/><path d="M281.1463 323.1992c0-5.9531 0-14.8032-7.0486-21.669a22.5892 22.5892 0 0 0 1.9107-4.3401c1.1783-3.5443 1.2739-7.4281 1.2102-9.9537l-.0319-16.3843v-.2547c-.191-6.091-1.1146-12.5323-6.0932-18.1246-4.4691-5.03-11.1887-7.6722-19.4475-7.6722l-22.25.053c-2.4203 0-4.83.9445-6.6028 2.7166-1.709 1.7297-2.7281 4.0855-2.7281 6.5792l.2123 107.6018c0 3.194 1.6347 6.1653 4.3735 7.8101 1.5074.9126 3.2271 1.422 5.0424 1.422l22.6215-.0425c8.1739-.0212 15.0102-2.3451 20.3498-6.94l.0743-.0424c7.4626-6.696 8.2588-14.5804 8.4499-22.1252v-.085l-.0425-18.549z" fill="#FEFEFE" fill-rule="nonzero"/><path d="M251.1715 296.615c-1.9108.5411-2.8343.7003-6.985.8489l-4.1294.0106c-.7112.0212-.9023-.3184-.9023-.8595 0-.329-.0425-34.5833-.0425-34.5833 0-.5518.1911-.8808.775-.9444H246.7979c3.0573.0955 6.4542.191 8.641 1.5386 1.019.6155 1.6242 1.3583 1.9957 2.3452.2972 1.0293.5945 2.812.7643 5.8576l.0425 13.3919c-.0425.2228-.0425.573-.0425 1.0187-.1061 3.4594-.1698 9.3276-7.0274 11.3757zm7.813 55.8701c-1.6667 1.1779-3.6836 1.8677-8.864 2.0587 0 0-8.885.0212-9.575.0212-.7962 0-1.1147-.4882-1.1147-1.2522 0-6.5474-.085-42.6268-.085-42.9346 0-.3396.085-.7959.775-.7959.6688 0 4.4691-.0424 4.4691-.0424 4.7133.2335 9.6388.5942 12.8447 2.621 1.847 1.1249 3.0997 2.6954 3.8959 4.8071.7112 2.1648.8492 4.5524.8492 6.7809l.0318 15.9174c0 7.2583-.4564 10.6753-3.227 12.8188zm16.3902-28.5452c0-6.0274 0-13.3813-6.2631-18.5704-1.3057-1.093-2.8768-2.0374-4.7345-2.7908 2.898-1.9526 4.8831-4.6373 5.9765-8.0118 1.0085-3.0243.9554-6.7596.9235-8.224l-.0424-17.0847c-.1699-4.7328-.6794-10.1235-4.5116-14.4955-3.3863-3.7565-8.5242-5.6878-15.042-5.6666l-23.1948.0637c-.69 0-1.3376.2653-1.8683.7853-.5202.4881-.7537 1.146-.7537 1.8252l.2017 112.2815c0 .8913.4564 1.7827 1.242 2.239a2.836 2.836 0 0 0 1.4755.4139l23.6088-.0637c2.4946 0 10.1908-.0212 16.6025-5.4862 5.6793-5.136 6.2525-11.1953 6.4224-18.008l-.0425-19.207z" fill="#2D2925" fill-rule="nonzero"/><path d="M0 0h500v500H0z"/></g></svg>