<svg width="500" height="500" viewBox="0 0 500 500" xmlns="http://www.w3.org/2000/svg" xmlns:xlink="http://www.w3.org/1999/xlink"><title>charlotte-hornets</title><defs><path id="a" d="M.003 437.6206h430.4257V.0188H.003z"/><path id="c" d="M0 437.654h430.4287V.0482H0z"/><path id="e" d="M0 437.654h430.4287V.0482H0z"/><path id="g" d="M0 437.654h430.4287V.0482H0z"/><path id="i" d="M0 437.654h430.4287V.0482H0z"/><path id="k" d="M0 437.654h430.4287V.0482H0z"/><path id="m" d="M0 437.654h430.4287V.0482H0z"/><path id="o" d="M0 437.654h430.4287V.0482H0z"/><path id="q" d="M0 437.654h430.4287V.0482H0z"/><path id="s" d="M0 437.654h430.4287V.0482H0z"/><path id="u" d="M0 437.654h430.4287V.0482H0z"/><path id="w" d="M0 437.654h430.4287V.0482H0z"/><path id="y" d="M0 437.654h430.4287V.0482H0z"/><path id="A" d="M0 437.654h430.4287V.0482H0z"/><path id="C" d="M0 437.654h430.4287V.0482H0z"/><path id="E" d="M0 437.654h430.4287V.0482H0z"/><path id="G" d="M0 437.654h430.4287V.0482H0z"/><path id="I" d="M0 437.654h430.4287V.0482H0z"/><path id="K" d="M0 437.654h430.4287V.0482H0z"/></defs><g fill="none" fill-rule="evenodd"><path d="M0 0h500v500H0z"/><g transform="translate(34.6154 30.8026)"><mask id="b" fill="#fff"><use xlink:href="#a"/></mask><path d="M420.1164 42.8043s-3.4717 1.6667-7.3923 3.553c5.427-19.0224 8.7091-34.2723 8.749-34.462l2.544-11.8665-10.1557 6.6568c-.878.569-86.0439 56.5184-151.088 107.857l-.05-.1097c-.5087-1.4572-1.3766-3.2536-2.883-5.1.4689-.3293.9378-.6587 1.3967-.998 6.4744-4.6109 7.6416-5.4892 7.9509-5.8584 7.4621-6.4872 9.2379-14.3517 8.4996-19.1123l-2.3344-15.0802-39.8245 29.6614c-10.485-2.6847-23.384-4.4312-40.483-.01L155.231 68.284l-2.3444 15.0702c-.7482 4.7706 1.0375 12.635 8.0806 18.713.7183.7885 1.9154 1.6768 8.5395 6.3974.399.2895.8081.5889 1.2171.8683-1.267 1.567-2.2446 3.2835-2.893 5.12l-.03.0798C104.0537 64.222 17.6108 7.2745 16.713 6.6857L6.5773.0187l2.514 11.8666c.1896.8683 3.781 17.725 8.5994 34.392-3.8807-1.8663-7.2327-3.473-7.2327-3.473L.003 37.7941l3.5516 11.0382c.2095.6687 5.2773 16.3976 9.4074 26.867 6.0954 16.7369 17.6677 43.2146 28.0628 61.5284 5.387 9.122 13.807 17.4955 24.3616 24.2322 6.0256 3.8324 12.4901 6.9962 19.2539 9.4014 1.227 2.7945 3.5914 7.9743 6.4146 12.9644h-20.441v35.3801l-29.7487 14.2519 29.7687 15.0004.0399 27.865 26.6062 16.2678 1.7259-.2096s16.0316-1.986 25.2395-2.984l68.7652 39.7115c13.8868 63.7042 17.3485 81.8184 17.3784 81.988l5.018 26.5277 4.7885-26.5675c.0399-.1897 3.5116-19.302 17.3684-81.9382l68.7652-39.7216c9.208.998 25.2296 2.9841 25.2395 2.9841l1.7259.2096 26.6062-16.2679.03-27.855 29.7786-15.0103-29.7487-14.2519v-35.38h-20.481c2.8532-5.0401 5.2176-10.18 6.4446-12.9645 8.35-3.014 31.5345-12.9245 43.6355-33.6535 5.826-9.9903 18.376-35.6496 28.0228-61.4387.3392-.8783 5.5168-14.3117 9.4574-26.9767l3.3918-10.9284-10.3152 4.9402z" fill="#FEFEFE" fill-rule="nonzero" mask="url(#b)"/></g><path d="M143.7708 223.9021h-29.3397v31.857l-17.6377 8.643 17.6377 9.2118v28.3141l19.4834 11.9265c7.1827-.9382 16.3408-2.046 26.9454-3.1239l75.3095 43.4243 13.7272 63.1752c.0897-.1497 13.8667-63.1752 13.8667-63.1752l75.1799-43.4243c10.6146 1.0779 19.7726 2.1857 26.9454 3.1239l19.4634-11.9265v-28.314l17.6776-9.0123-17.6776-8.8425v-31.857h-29.3198s4.5392-4.3914 10.2954-14.2919c2.4042-4.1418 4.6688-9.3016 7.4521-15.4195 21.3788-6.5072 37.151-20.1602 43.9148-33.474 18.3061-33.5337 32.0831-74.5327 32.0831-74.5327s-7.901 3.7925-17.4382 8.5032c7.7415-23.6234 12.3903-43.6738 12.3903-43.6738s-84.4476 55.8897-150.23 108.396l-5.6964-3.4233c.02-.5389.1796-5.3394.1796-5.7386 0 0 .6385-5.579-9.178-8.9124-.6085-.2096-1.1772-.3992-1.7458-.5889 4.7586-3.573 12.1608-9.0421 17.5579-12.7448 8.6094-5.9083 7.5918-12.4055 7.5918-12.4055l-31.2052 23.2341c-24.1122-7.8245-44.2041 0-44.2041 0l-31.1953-23.2341s-1.0275 6.4972 7.5819 12.4055c5.407 3.7027 12.7993 9.1719 17.5679 12.7448-.5687.1897-1.1473.3793-1.7458.5889-9.8265 3.3334-9.168 8.9124-9.168 8.9124 0 .3992.1396 5.1997.1695 5.7386l-5.7063 3.4233c-65.7724-52.5063-150.21-108.396-150.21-108.396s4.6288 20.0504 12.3703 43.6738c-10.2056-5.05-17.4382-8.5032-17.4382-8.5032s13.777 40.999 32.093 74.5328c6.7539 13.3137 22.526 26.9667 43.9049 33.4739 0 0 3.6113 8.2836 6.7338 14.2319 3.8508 7.3554 11.0136 15.4794 11.0136 15.4794" fill="#1C1060" fill-rule="nonzero"/><path d="M285.3167 176.1584c-.2793.9282-.6086 1.8164-.9178 2.7047 29.5691-19.3219 81.2254-53.0353 139.1067-90.651 0 0 .0698 1.2575 5.1975-13.6231-61.1535 36.947-115.3137 78.8243-143.3864 101.5694M214.4864 176.1614c-28.0727-22.745-82.223-64.6224-143.3765-101.5794 5.1178 14.8906 5.1876 13.623 5.1876 13.623 57.8813 37.6158 109.5376 71.3292 139.1067 90.651-.3192-.8782-.6285-1.7764-.9178-2.6946M160.798 225.5489c-.02-.01-14.5252-10.3795-22.7155-29.362l5.796 1.7265c18.9247 5.0101 55.108 10.0003 55.108 10.0003-17.4282.3892-32.1629 1.7565-40.5727 2.6947-1.7459-2.1658-3.751-4.9303-4.5192-6.9862 0 0 .6484 6.6369 2.1349 10.7886 1.8854 6.068 4.7486 11.118 4.7685 11.138m89.0766-19.5214c-5.0579-1.9362-17.7973-8.2936-25.439-24.9208 6.265 5.3994 14.2857 7.126 20.7004.9182-7.8313-3.3733-8.799-17.3457-10.3153-21.0085-3.0627-7.4253-7.911-11.178-11.7419-12.7548a196.2127 196.2127 0 0 1 5.3173-1.7166c3.6612 1.986 9.7765 6.557 11.692 15.669 0 0 .798-10.3994-4.3496-17.695 9.986-2.4053 20.062-2.076 28.2822-.01-5.1576 7.2956-4.3695 17.705-4.3695 17.705 1.9254-9.122 8.0607-13.703 11.7319-15.679 1.646.509 3.4218 1.0878 5.3372 1.7266-3.8408 1.5769-8.6892 5.3295-11.7419 12.7548-1.5064 3.6628-2.484 17.6352-10.2953 21.0085 1.7957 10.639-.419 20.5594-4.8085 24.0026M343.7317 214.4069c1.4865-4.1518 2.1349-10.7887 2.1349-10.7887-.7682 2.0559-2.7734 4.8204-4.5291 6.9862-8.4-.9282-23.1446-2.2955-40.5629-2.6847 0 0 36.1734-5.0002 55.098-10.0103l5.7961-1.7166c-8.1804 18.9825-22.6856 29.352-22.7056 29.352.02-.01 2.8732-5.06 4.7686-11.138M204.8435 315.3944l-36.8517-21.278c-2.6536.2495-5.2574.499-7.7614.7585l51.1674 29.5517c-2.494-2.7546-4.6888-5.7886-6.5543-9.0322M294.9506 315.3944l36.8517-21.278c2.6437.2495 5.2474.499 7.7514.7585l-51.1574 29.5517c2.494-2.7546 4.6888-5.7886 6.5543-9.0322M233.5128 320.3626c-16.271-3.533-23.0049-11.5572-23.0049-11.5572 3.332 6.7866 8.37 12.5952 14.5452 16.8567 0 0 6.8536-1.986 8.4597-5.2995M223.5517 302.976a163.5182 163.5182 0 0 1-3.4717-3.4832c-5.1876 1.8065-8.1405 3.8225-9.6968 5.1898 3.6014 3.4332 10.465 7.9942 22.7854 10.5591-1.4964-4.2316-5.3272-8.0241-9.617-12.2658" fill="#008CA8" fill-rule="nonzero"/><path d="M249.5773 341.3781c-5.397.0898-9.2478 2.1757-10.5347 2.6548-1.3468-2.545-2.923-5.13-4.4095-7.4154 4.639.5689 8.7191-.2994 8.7191-.2994-1.9453-.6387-6.9533-2.3354-13.5375-6.6768-.01 0-.02-.01-.02-.01.5687-.2395 1.1473-.499 1.7359-.7884 0 0 .01-.01.01-.02 1.7358-.8683 3.4816-1.996 4.8583-3.4133 1.646-1.6966 2.7733-3.8025 2.7733-6.4173 0-8.084-5.437-10.8086-11.5523-16.8467-1.227-1.2076-2.5439-2.4552-3.8807-3.7726 5.6066-1.507 13.2283-2.6847 23.4838-2.8643l2.454 34.3022h.3592l2.534-34.3022c10.2554.1796 17.8671 1.3573 23.4837 2.8643-1.3368 1.3174-2.6537 2.565-3.8807 3.7726-6.1154 6.038-11.5523 8.7627-11.5523 16.8467 0 2.6148 1.1273 4.7207 2.7733 6.4173 1.3767 1.4172 3.1126 2.545 4.8484 3.4133l.02.02c.5885.2894 1.1672.5489 1.7258.7884 0 0 0 .01-.01.01-6.5842 4.3414-11.5922 6.038-13.5375 6.6768 0 0 4.0702.8683 8.719.2994-1.4864 2.2855-3.0626 4.8704-4.4193 7.4154-1.277-.479-5.1277-2.565-10.5248-2.6548h-.6385z" fill="#008CA8" fill-rule="nonzero"/><path d="M274.744 325.6601c6.1752-4.2615 11.2032-10.07 14.5452-16.8467 0 0-6.7339 8.0142-23.005 11.5472 1.5963 3.3135 8.4598 5.2995 8.4598 5.2995M266.6235 315.2427c12.3205-2.565 19.184-7.126 22.7854-10.5591-1.5563-1.3773-4.5092-3.3933-9.6968-5.1898-1.1572 1.1977-2.3344 2.3653-3.4717 3.4831-4.2997 4.2417-8.1205 8.0342-9.617 12.2658" fill="#008CA8" fill-rule="nonzero"/><path d="M238.869 182.957s-5.9657-3.9422-6.9234-12.3257c0 0-7.7315 12.9544 6.9234 12.3257M261.357 182.957s5.9658-3.9422 6.9235-12.3257c0 0 7.7415 12.9544-6.9234 12.3257M256.9726 353.9223c-1.0674-1.1078-2.6237-2.3952-7.3823-2.4052-4.4893-.01-6.0555 1.1377-7.3624 2.2056l7.6716 30.3401 7.0731-30.1405zM307.684 220.6425v11.1081h-3.731v-11.108h-3.0926v-3.1738h9.9063v3.1737zM290.3187 220.6425v11.1081h-3.741v-11.108h-3.0926v-3.1738h9.9262v3.1737z" fill="#FEFEFE" fill-rule="nonzero"/><g transform="translate(34.6154 30.7692)"><mask id="d" fill="#fff"><use xlink:href="#c"/></mask><path d="M197.0878 192.7077h3.9804v-2.8244h-3.9804v2.8244zm6.1452 3.2137h1.3368v-7.6849l-1.5562-1.537h-9.4474v14.2819h3.5216v-5.06h2.6436l2.0352 5.06h3.4916l-2.0252-5.06z" fill="#FEFEFE" fill-rule="nonzero" mask="url(#d)"/></g><g transform="translate(34.6154 30.7692)"><mask id="f" fill="#fff"><use xlink:href="#e"/></mask><path fill="#FEFEFE" fill-rule="nonzero" mask="url(#f)" d="M294.5662 189.8773v-3.1737h-10.4749v14.2818h10.4749v-3.2137h-6.8237v-2.3454h6.8237v-3.2036h-6.8237v-2.3454z"/></g><g transform="translate(34.6154 30.7692)"><mask id="h" fill="#fff"><use xlink:href="#g"/></mask><path fill="#FEFEFE" fill-rule="nonzero" mask="url(#h)" d="M217.2056 197.7757v-11.0781h-3.6613v14.2818h8.9286v-3.2037z"/></g><g transform="translate(34.6154 30.7692)"><mask id="j" fill="#fff"><use xlink:href="#i"/></mask><path d="M232.9219 197.7777h4.0503v-7.8944h-4.0503v7.8944zm5.9757-11.0781h-9.4773v12.675l1.5962 1.6068h9.4573v-12.695l-1.5762-1.5868z" fill="#FEFEFE" fill-rule="nonzero" mask="url(#j)"/></g><g transform="translate(34.6154 30.7692)"><mask id="l" fill="#fff"><use xlink:href="#k"/></mask><path d="M177.4748 193.117h4.0602v-3.2437h-4.0602v3.2436zm7.6716 7.8644l-.02-12.685-1.5762-1.5968h-9.6668v14.2818h3.5914v-4.6409h4.0503v4.6409h3.6213z" fill="#FEFEFE" fill-rule="nonzero" mask="url(#l)"/></g><g transform="translate(34.6154 30.7692)"><mask id="n" fill="#fff"><use xlink:href="#m"/></mask><path fill="#FEFEFE" fill-rule="nonzero" mask="url(#n)" d="M162.4847 186.6996v6.4173h-4.0304v-6.4173h-3.5914v14.2818h3.5914v-4.6409h4.0304v4.6409h3.5814v-14.2818z"/></g><g transform="translate(34.6154 30.7692)"><mask id="p" fill="#fff"><use xlink:href="#o"/></mask><path d="M376.7203 85.3188c6.9434-16.3278 12.1709-27.885 12.1709-27.885-57.8813 37.6158-109.5475 71.3392-139.1067 90.661-1.1273 3.1438-2.4142 6.0082-3.8208 8.633l116.5906-63.5445-91.012 65.7601 4.2-.7585 48.0948-4.6508s32.502-3.1438 50.5887-27.4658c8.5097-13.0642 23.005-51.2388 23.005-51.2388l-20.7105 10.4893z" fill="#FEFEFE" fill-rule="nonzero" mask="url(#p)"/></g><g transform="translate(34.6154 30.7692)"><mask id="r" fill="#fff"><use xlink:href="#q"/></mask><path d="M98.1468 237.4903l11.2132-4.8305v25.4597c3.2023-.4391 6.5144-.8483 9.8663-1.2475l-.01-55.8896H109.37c-.02-.0699-.02 20.0304-.01 20.1302l-11.213 4.7307.01-24.861h-9.9163v28.933s-8.1605 3.9122-8.1206 3.992l8.1206 4.062v23.4637c3.1823-.5789 6.5443-1.1278 9.9062-1.6667v-22.276z" fill="#FEFEFE" fill-rule="nonzero" mask="url(#r)"/></g><g transform="translate(34.6154 30.7692)"><mask id="t" fill="#fff"><use xlink:href="#s"/></mask><path d="M175.0316 218.7613h11.1732c0 2.7445-.02 6.2776-.02 8.7627-3.731.0499-7.4221.1197-11.1432.1796l-.01-8.9423zm.01 18.5633c2.464-.0699 4.8683-.1397 7.3424-.1996 1.8156 4.7307 3.6911 10.1 5.5068 14.8407 3.2622-.0898 6.5543-.1697 9.8664-.2296-1.8157-4.7606-3.6613-10.1-5.467-14.8107 1.247-.02 2.504-.05 3.771-.0599l-.01-22.8549-4.3695-4.3114h-30.2675l3.741 4.4611v38.7835c3.2623-.1797 6.5444-.3494 9.8864-.499v-15.1202z" fill="#FEFEFE" fill-rule="nonzero" mask="url(#t)"/></g><g transform="translate(34.6154 30.7692)"><mask id="v" fill="#fff"><use xlink:href="#u"/></mask><path d="M213.5792 218.7613h11.323v32.8451c3.4018.03 6.9333.0798 10.2952.1497v-37.5758l-4.5091-4.4811h-30.936l3.7212 4.4611v37.486c3.352-.0399 6.7039-.0698 10.1057-.0798v-32.8052z" fill="#FEFEFE" fill-rule="nonzero" mask="url(#v)"/></g><g transform="translate(34.6154 30.7692)"><mask id="x" fill="#fff"><use xlink:href="#w"/></mask><path d="M272.146 243.739c-6.3948-.3394-12.6897-.6288-19.0844-.8484-.0299-2.3454-.0299-4.6807-.0299-7.0161a1353.074 1353.074 0 0 1 19.1142.6686v-9.8605c-6.4046-.1696-12.7494-.3194-19.1341-.4291-.01-1.8963-.01-5.11-.01-7.4952h19.1441v-9.0522h-33.2104l3.6812 4.4313v37.8153c10.1058.2894 19.992.7386 29.5292 1.3374v-9.5512z" fill="#FEFEFE" fill-rule="nonzero" mask="url(#x)"/></g><g transform="translate(34.6154 30.7692)"><mask id="z" fill="#fff"><use xlink:href="#y"/></mask><path d="M297.0223 218.7613h8.5096v-9.0621h-27.9031v9.062h8.6792v35.5598c3.5614.2895 7.2726.5889 10.7143.9182v-36.478z" fill="#FEFEFE" fill-rule="nonzero" mask="url(#z)"/></g><g transform="translate(34.6154 30.7692)"><mask id="B" fill="#fff"><use xlink:href="#A"/></mask><path d="M147.9176 244.224c-3.801.2395-7.522.479-11.3229.7585v-26.2182h11.3329l-.01 25.4597zm9.9262-30.0607l-4.4693-4.4611h-30.3672l3.5914 4.3214.01 36.9071 3.9205 4.6708c8.7092-.8783 17.9071-1.6268 27.3046-2.2356l.01-39.2026z" fill="#FEFEFE" fill-rule="nonzero" mask="url(#B)"/></g><g transform="translate(34.6154 30.7692)"><mask id="D" fill="#fff"><use xlink:href="#C"/></mask><path d="M341.2863 237.7717c3.0526-1.3673 6.1253-2.7645 9.188-4.2017-9.8465-4.561-19.7029-8.7128-29.5592-12.5452l-.02-11.2079h10.455v4.072h9.9362v-12.9045h-34.0185l3.7809 4.3813v23.1044l20.3014 8.8226v12.9145s-4.7088-.5989-10.445-1.3374v-4.1418l-9.8564-1.1777v13.184c10.7842 1.2575 20.9099 2.7346 30.2376 4.3813-.01-7.0261 0-18.1142 0-23.3439" fill="#FEFEFE" fill-rule="nonzero" mask="url(#D)"/></g><g transform="translate(34.6154 30.7692)"><mask id="F" fill="#fff"><use xlink:href="#E"/></mask><path fill="#FEFEFE" fill-rule="nonzero" mask="url(#F)" d="M143.2518 196.5451v1.2276h-3.1924v-7.8944h3.1924v1.1777h3.5814v-4.3514h-10.2954v12.675l1.6062 1.5968h8.6892v-4.4313z"/></g><g transform="translate(34.6154 30.7692)"><mask id="H" fill="#fff"><use xlink:href="#G"/></mask><path d="M53.857 85.3188C46.9136 68.991 41.686 57.4338 41.686 57.4338c57.8813 37.6158 109.5475 71.3392 139.1067 90.661 1.1273 3.1438 2.4142 6.0082 3.8209 8.633L68.023 93.1833l91.012 65.7601-4.2-.7585-48.0948-4.6508s-32.502-3.1438-50.5887-27.4658c-8.5097-13.0642-23.005-51.2388-23.005-51.2388L53.857 85.3188z" fill="#FEFEFE" fill-rule="nonzero" mask="url(#H)"/></g><g transform="translate(34.6154 30.7692)"><mask id="J" fill="#fff"><use xlink:href="#I"/></mask><path d="M109.1555 193.1329H79.8158v31.857l-17.6378 8.643 17.6378 9.2118v28.314l19.4833 11.9265c7.1828-.9381 16.3408-2.046 26.9454-3.1238l75.3096 43.4242 13.727 63.1753c.0899-.1497 13.8668-63.1753 13.8668-63.1753l75.18-43.4242c10.6145 1.0779 19.7725 2.1857 26.9453 3.1238l19.4634-11.9264v-28.3141l17.6776-9.0122-17.6776-8.8425v-31.8571H321.417s4.539-4.3914 10.2953-14.2918c2.4042-4.1418 4.6688-9.3016 7.4521-15.4195 21.3788-6.5072 37.151-20.1602 43.9148-33.474 18.3062-33.5337 32.0831-74.5327 32.0831-74.5327s-7.901 3.7925-17.4382 8.5032c7.7415-23.6234 12.3903-43.6738 12.3903-43.6738s-84.4476 55.8896-150.23 108.396l-5.6964-3.4233c.02-.539.1796-5.3395.1796-5.7387 0 0 .6385-5.579-9.178-8.9124-.6085-.2095-1.1772-.3992-1.7458-.5888 4.7586-3.573 12.1609-9.0421 17.558-12.7448 8.6093-5.9084 7.5917-12.4055 7.5917-12.4055l-31.2052 23.234c-24.1122-7.8245-44.204 0-44.204 0l-31.1953-23.234s-1.0276 6.4971 7.5818 12.4055c5.407 3.7027 12.7993 9.1719 17.5679 12.7448-.5686.1896-1.1472.3793-1.7458.5888-9.8265 3.3335-9.168 8.9124-9.168 8.9124 0 .3992.1396 5.1998.1695 5.7387l-5.7063 3.4232C104.9156 76.134 20.478 20.2443 20.478 20.2443s4.6288 20.0504 12.3703 43.6738C22.6427 58.868 15.41 55.4149 15.41 55.4149s13.777 40.999 32.093 74.5328c6.7539 13.3137 22.5261 26.9667 43.9049 33.4739 0 0 3.6113 8.2836 6.7338 14.2318 3.8508 7.3555 11.0137 15.4795 11.0137 15.4795M412.9176 74.028c-9.2478 24.7411-21.5284 50.1809-27.6637 60.7001-10.3452 17.705-30.9459 28.2642-43.0269 32.1565 0 0-5.866 14.162-11.9115 21.9566h24.661v33.5438l23.4238 11.2179-23.4538 11.8266-.03 28.1344-22.7354 13.8926s-18.1166-2.2456-26.9355-3.1638l-72.0773 41.6378c-14.4554 65.2711-17.8772 84.2736-17.8772 84.2736s-3.3918-17.9246-17.8771-84.2736l-72.0873-41.6378c-8.8189.9182-26.9355 3.1638-26.9355 3.1638L75.6557 273.564l-.0399-28.1344L52.182 233.603l23.4139-11.2179v-33.5437h24.6609c-5.9358-7.4254-11.9115-21.9567-11.9115-21.9567-7.2526-2.3753-14.1062-5.6688-20.2714-9.611-9.7367-6.1978-17.7176-14.0223-22.7555-22.5455-9.8165-17.3158-21.3588-43.3843-27.6637-60.7001-4.17-10.5592-9.3576-26.6873-9.3576-26.6873s13.4179 6.4173 17.538 8.4333c-6.4246-19.252-11.8616-44.8813-11.8616-44.8813v-.01s92.3088 60.7101 157.0537 112.6376l1.0275-.6288c-.0299-1.0779-.0598-2.1657-.0598-3.2935-.02-.6487.02-1.9262.5586-3.503.7483-2.1359 2.4242-4.8106 6.1852-7.106-4.7586-3.4932-13.328-9.4115-14.0762-10.2398-6.265-5.4393-7.3225-11.5672-6.8436-14.5812l1.0674-6.9064 35.1258 26.1683c19.1043-5.4692 32.602-2.7645 42.548 0l35.126-26.1683 1.0674 6.9064c.4788 3.014-.5787 9.142-6.8337 14.5812-.7282.7784-9.3376 6.7466-14.0762 10.2398 3.741 2.2954 5.427 4.9701 6.1752 7.106.5387 1.5768.5886 2.8543.5487 3.503 0 1.1278-.01 2.2156-.05 3.2935l1.0276.6288C325.8363 70.4052 416.5988 10.8828 416.5988 10.8828v.01s-4.5192 21.0983-11.8616 44.8813c3.4917-1.6966 17.538-8.4333 17.538-8.4333-3.9805 12.8147-9.3576 26.6873-9.3576 26.6873" fill="#A0A0A4" fill-rule="nonzero" mask="url(#J)"/></g><g transform="translate(34.6154 30.7692)"><mask id="L" fill="#fff"><use xlink:href="#K"/></mask><path mask="url(#L)" d="M-73.0769-69.2308h576.9231v576.9231H-73.0769z"/></g></g></svg>