<svg width="500" height="500" viewBox="0 0 500 500" xmlns="http://www.w3.org/2000/svg"><title>dallas-mavericks</title><g fill="none" fill-rule="evenodd"><path d="M64.0002 317.093c-3.2322-4.803-13.9992-23.0692-13.9992-52.5112 0-11.0511 1.5278-23.6617 5.4978-37.6966.0416-.0936.052-.1663.0624-.2703l1.7356-6.7991.4261.4262.8314-2.495c1.3927-4.1897 2.8477-8.5977 3.1906-9.627.2287-.9044 1.4966-5.9465 2.5047-9.4605.3014-1.05.5612-1.9129.8314-2.6614l.0624-.499c.3222-2.6094.7379-5.1253 1.2263-7.558.1767-1.2996.395-2.5471.5716-3.618l.0832-.4677.187-.4263c.1144-.291.2183-.5094.3014-.6965 5.0198-20.5221 14.4253-32.6649 19.7152-38.1853l.0728-.0623.0623-.0624c1.029-.9565 3.939-3.6803 7.2854-5.7595 1.5381-2.0169 6.537-8.4937 11.1203-13.6398 1.559-1.7258 3.0555-3.2956 4.4585-4.5743.7587-1.7362 2.5775-5.4476 6.007-9.7309 4.5314-5.6659 11.9414-12.361 23.2488-16.5091 8.678-5.8843 17.8757-11.1136 27.4267-15.6151 1.8187-1.8817 8.7507-8.7328 19.5073-15.6255 12.513-7.9947 30.295-16.0933 51.3198-16.1037.8002 0 1.6109.0104 2.4111.0312l7.6595.2183-9.4782 12.7561c5.0405-.3742 10.1434-.5821 15.2982-.5821 27.1876 0 53.1385 5.3228 76.7614 14.9185l.1143.0416.104.0416c.9249.447 2.5566 1.2683 4.2402 2.2975 1.4342.9253 2.8892 1.8505 4.1675 3.2644 1.6213.1768 5.0821.7486 8.9586 2.4847l.1143.052.104.052c25.5767 13.411 47.8485 32.0722 65.2357 54.5384l.156.1871.1246.2288c.2702.4574.9562 1.84 1.5382 4.751.291.1768.7067.447 1.1744.7382.9353.6445 1.985 1.3515 3.0139 2.391l.2286.2392.1975.2599c21.3884 31.0742 33.891 68.4901 33.891 108.7338 0 38.1332-11.2347 73.761-30.6485 103.8268l-.0727.104-.0728.0935c-.3117.4055-.4469.5406-.7379.8005-.2494.26-.5612.5199-.9665.8317-.582.447-1.351.9669-2.328 1.5595-.0831.3742-.187.8732-.3325 1.4242-.3222 1.2164-.686 2.6303-1.6525 4.2001l-.052.0832-.0727.104c-36.2606 49.7665-95.8738 82.1819-163.1881 82.1819-88.048 0-162.8555-55.4533-189.6274-132.6243" fill="#FEFEFE" fill-rule="nonzero"/><path d="M416.5746 148.053c-1.1536-1.1852-3.8558-2.7862-3.8558-2.7862-.9977-.3743-1.1951-1.2788-1.1951-1.2788-.5405-3.3683-1.2472-4.5639-1.2472-4.5639-17.0442-22.0087-38.8691-40.2956-63.9366-53.4572-4.4793-2.0065-8.5117-2.2248-8.5117-2.2248-.9042.0208-1.3303-.6862-1.3303-.6862-1.4758-2.0896-5.9343-4.356-7.6076-5.146-23.1656-9.4086-48.5968-14.6171-75.2648-14.6171-8.096 0-16.0465.4886-23.8723 1.4138l10.2785-13.8269c-41.1348-1.2267-70.6608 30.9287-70.6608 30.9287l.0208.0416c-9.8628 4.5847-19.3099 9.9491-28.2061 16.0413l.0208-.052c-21.4404 7.6932-27.6345 24.9925-27.6345 24.9925-5.4355 4.5535-16.2025 18.8483-16.2025 18.8483-3.0866 1.7777-6.2876 4.7199-7.2541 5.6451-4.9366 5.1357-13.9888 16.7275-18.811 36.6882-.1248.3223-.2807.6445-.4262.9876-.187 1.102-.4053 2.36-.5716 3.5971-.4676 2.3807-.8834 4.8342-1.2055 7.3917l.1974-.2703c-.0727.5406-.135.8629-.135.8629-.499.3327-3.5856 12.6418-3.5856 12.6418-.4989 1.549-6.1006 18.4012-6.1006 18.4012l-.0416-.0312c-.0104.0312-.0104.0728-.0104.104-14.7474 51.534 4.8431 82.7849 8.1792 87.588 26.0444 75.809 99.4905 130.441 186.0211 130.441 66.0256 0 124.4333-31.802 159.9663-80.5393 1.0081-1.601 1.5174-4.8239 1.5174-4.8239.0312-1.0708.8314-1.549.8314-1.549 2.7437-1.4762 3.6895-2.495 3.8038-2.6406 19.0292-29.4524 30.0144-64.3005 30.0144-101.6748 0-39.412-12.2323-76.017-33.1842-106.4467" fill="#051821" fill-rule="nonzero"/><path d="M171.3081 111.0165c.5093-.5406.977-1.0292 1.3823-1.4763.6651-.6757.9145-.8524.9977-.8005a4.1294 4.1294 0 0 1 .1455-.1247c.1663-9.814 2.3903-17.6943 2.3903-17.6943 17.8237-24.9093 47.2458-31.5213 47.2458-31.5213 3.6583-1.0396 1.2991.5718 1.2991.5718-18.5304 20.7612-16.5973 37.9045-16.5973 37.9045l17.6782 64.5292s-14.3317-5.0318-25.369-27.7163c-5.1028 45.2443 37.539 81.9117 37.539 81.9117 1.8603 1.601-1.0601-.1248-1.0601-.1248-10.6838-5.3332-22.9785-16.582-26.3354-19.7424.8938 3.4932 21.6586 107.8813 21.7106 108.1724.104.4887.3845 1.5075.6028 2.1625l7.1918-17.8607 5.9447 52.7087c-27.0317 25.1692-55.8302 15.1992-57.6074 14.5339.6963 1.1436 1.2367 1.9649 1.2367 1.9649s23.3943 45.9407 118.634 41.065c0 0 2.2761-.0209 1.9332.2702.0311.0832-.0936.1976-.5197.3535-1.798.6446-4.5936 1.102-4.5936 1.102-114.9862 30.7104-174.5682-67.305-177.1457-71.6714-.7275-.998-6.3084-8.868-9.4263-16.8002-.0935-.2183-.2286-.998.3118-.4055 0 0 12.2116 12.7354 46.7262 15.8854.2598-.0208.4053-.0624.4053-.0624-26.6992-29.7643-38.0377-51.3364-39.711-54.632 0-.0104-.0104-.0104-.0416-.0104 0 0-3.201-4.8238-7.0047-18.4948 0 0 .1039-.6965.426 0 1.2992 2.703 10.133 15.7398 20.8793 18.6612h.0207c-9.1145-14.721-14.7785-38.0293-15.506-41.4289 12.4298 17.4137 34.4418 18.6716 34.4418 18.6716-.0312-.0728-.0624-.1144-.1144-.1871.052.0831.0728.1247.0728.1247-36.219-36.1268-28.414-75.4764-13.7185-103.8788 8.6572-16.769 19.7152-29.733 25.5351-35.9604" fill="#FEFEFE" fill-rule="nonzero"/><path d="M279.672 350.2309l-23.758 25.0132.052-.052 29.3285-22.5181-15.1839-52.3657 6.6306-62.9801-11.588 60.1524 14.5188 52.7503zM284.9495 196.125c-2.0682 10.76-5.4563 21.78-11.3178 26.687.4261-.2183.9561-.4886 1.559-.8525 1.7667-1.0396 4.105-2.703 6.4643-5.1461 4.6871-4.8758 9.4055-12.8497 9.4055-25.3875 0-5.5932-.9458-12.122-3.253-19.68-.2286 4.3248-.9353 14.2428-2.858 24.379M284.701 115.7676c8.2832-12.517 21.8874-13.6087 27.6554-13.6502-4.9886-1.466-9.6134-1.9961-13.7497-1.9961-8.7404 0-15.2463 2.4015-17.9276 3.597-.395.1664-.7067.3224-.9354.4367 2.1305 2.9733 4.2299 9.3046 4.9574 11.6126zm-.135.9668l.4053-.1144-.4053.1144zM263.905 148.8347l.3638-.2079-.3637.208zm10.3305-6.7887c.2079.0208.3638.1872.3742.395.0207 1.1645.0311 2.308.0311 3.4932-.0104 26.9261-7.1606 56.4305-9.8835 66.6916 10.32-23.6098 13.095-45.6497 13.095-62.5747 0-9.918-.9562-18.0686-1.9124-23.745-.4988-2.9524-.9977-5.2188-1.351-6.7263-2.619 20.2726-10.3305 29.4629-10.372 29.5148-.0832.1144-.2287.1664-.3534.156-.1455-.0208-.2598-.104-.3326-.2287-12.6792-23.4123-31.3863-37.6966-39.9396-43.3626a80.5788 80.5788 0 0 0-3.4296-2.1728c24.1321 52.4488 31.1888 92.9212 33.0076 106.2492.052-1.5283.0831-3.0877.0831-4.668 0-23.9632-6.1214-52.8542-9.1976-65.787-1.0185-4.3145-1.694-6.8408-1.694-6.8408v-.0104c-.0416-.1767.0207-.3534.1766-.447.1351-.104.3326-.0936.4885.0208 10.8397 8.421 18.4576 32.3634 19.7983 36.8025 2.0266-2.5055 4.6872-8.7848 6.8385-14.5546 2.3384-6.2274 4.126-11.914 4.126-11.9245.0623-.1871.2182-.291.3949-.291.0207 0 .0415.0103.052.0103z" fill="#C4CDD3" fill-rule="nonzero"/><path d="M71.2117 250.8173c.0104 24.9404 4.3027 51.0453 25.7535 84.3547l.0311.0416c20.266 42.718 57.6282 65.704 75.0466 74.5095 5.7992 2.9421 9.364 4.304 9.3951 4.3144 27.6761 13.0472 53.7101 17.8503 77.0316 17.8503 48.8567 0 85.8863-21.0523 101.33-31.594 5.1653-3.5036 7.909-5.8323 7.909-5.8323l.2702.3119-.2702-.3223c1.0288-.8421 1.798-1.5179 2.3591-2.0169-.3014.1664-.6131.3535-.9145.5406-1.112.655-2.1306 1.3203-2.1306 1.3203-37.965 22.2895-72.9576 29.099-101.5067 29.099-44.741 0-73.6955-16.6859-73.7162-16.6963-94.8553-49.7666-96.248-136.0134-96.248-136.0758 0-.1871.1248-.3535.3222-.4054.187-.0416.3742.0415.4677.2183 12.2323 23.7137 27.0733 31.802 33.6831 34.3698a30.5747 30.5747 0 0 0 2.3072.8005C104.7494 270.83 96.851 241.575 96.851 219.504c0-29.2133 13.8328-45.7536 13.864-45.7952.1143-.1456.3221-.1976.4884-.1144.1871.0832.2702.2807.239.4575-1.9746 10.2922-2.7332 19.3889-2.7436 27.2588.0104 19.2433 4.5208 31.2301 6.7657 35.9916.0623.1456.1247.2807.1974.4055a169.9398 169.9398 0 0 1-1.216-20.2934c0-65.0386 38.1002-105.116 46.1442-112.8403-6.0278 2.5159-13.334 8.9823-19.289 15.0849-6.5995 6.747-11.5777 13.016-11.588 13.0264-.104.1351-.291.1871-.4573.1351-.156-.052-.2806-.2183-.2703-.395.0624-5.167 3.0036-11.6645 4.604-14.8042-4.9053 4.46-8.969 11.4462-11.8685 17.5488-3.2114 6.7679-4.9782 12.4234-4.9782 12.4442l-.0831.1456c-15.0904 17.081-22.3966 35.3262-25.0987 43.3625-.9042 2.6926-1.2887 4.2105-1.2887 4.2105-.343 1.3827-.5404 2.0688-.7275 2.4119-.0832.104-.0832.291-.478.343-.3119-.0103-.395-.239-.4366-.3118-.0416-.0936-.052-.1664-.0623-.2495-.0208-.1664-.0312-.364-.0312-.5822 0-.8005.0935-1.8921.0935-1.8921.291-12.278 5.3939-26.084 7.4517-31.1886-14.4668 15.563-18.0108 36.657-18.0108 53.5196 0 7.9739.8003 15.0017 1.5901 20.0023.7899 5.0213 1.5693 8.0258 1.5693 8.0362l.0104.104c.0416 9.918 1.9954 22.1647 3.9285 31.9371 1.9435 9.7724 3.8557 17.029 3.8557 17.0186.6444 1.892.8834 2.7654.9042 3.2332-.0104.0936-.0104.1663-.052.291-.0415.1144-.239.2912-.4364.2808-.3222-.0416-.3638-.1664-.4677-.2495a2.5444 2.5444 0 0 1-.2702-.3639c-.1871-.2703-.395-.6238-.5924-.9772a48.0232 48.0232 0 0 1-.7275-1.3515c-10.1018-15.48-15.028-41.013-16.1505-47.4483-.0104.9773-.0208 1.9441-.0208 2.9214" fill="#C4CDD3" fill-rule="nonzero"/><path d="M293.719 128.9967l-.208-.1871.104-.2703c4.6352-12.3923 26.429-23.4122 30.6588-25.481-10.1434-5.6972-19.8606-7.4022-27.9359-7.4022-6.111 0-11.2554.9877-14.872 1.9649-3.6168.9876-5.685 1.9649-5.685 1.9649l-.291.1455-.1974-.2599c-3.7518-4.6887-8.6365-9.3566-12.5857-12.8393-3.783-3.3372-6.6826-5.5931-6.932-5.7803-.5509-.3534-.9042-.5718-.9458-1.0916 0-.3015.2183-.5094.3845-.5925.1767-.0936.3534-.1456.5613-.1872.4053-.0727.8833-.0935 1.3094-.0935.5197 0 .9666.0415 1.0705.052 86.9048.0103 133.1009 62.1172 133.1113 62.138.6027.6965.9041 1.3723.9041 2.0169-.0727 1.8713-2.1928 2.7653-4.1155 3.3683-1.9435.5926-3.8765.811-3.8765.811-8.3974 1.1643-16.1817 1.6737-23.3735 1.6737-45.1776 0-67.0337-19.9087-67.0857-19.9503M264.0984 380.1095c-.1455-.052-.2495-.1663-.2806-.3222-.0312-.1456.0311-.3015.1455-.4055l29.1518-23.4642-14.789-54.7984v-.1559l4.0844-36.7401c.0104-.1352.0728-.2496.1767-.312.104-.0727.2286-.0935.343-.052 6.641 2.0377 9.7484 11.0616 11.349 19.4826 1.1327 6.0401 1.455 11.8204 1.5484 14.6482 7.7427-16.769 10.2682-30.2321 10.2682-40.67 0-14.773-5.0614-23.5057-7.566-26.9365-.8314-1.1332-1.3719-1.6738-1.3719-1.6738-.1559-.1559-.1559-.4158 0-.5821.156-.1664.4157-.1664.582-.0104 34.7224 32.904 41.696 78.9695 41.696 110.7194 0 21.4474-3.1802 36.3971-3.1802 36.4075l-.0104.052c-1.1432 3.3892-4.6456 4.2416-4.708 4.2624-14.1342 3.1293-26.5951 4.1585-36.832 4.1585-19.206 0-30.5758-3.597-30.607-3.6075" fill="#007DC5" fill-rule="nonzero"/><path d="M345.7433 376.1299c-.5404-.4263-.8834-1.154-.873-2.1728 0-.4575.0624-.998.2079-1.6114 0-.0104 1.1328-4.356 2.2656-11.8517 1.112-7.506 2.2449-18.1102 2.2449-30.5856 0-33.0807-7.9297-79.2294-44.7723-115.117-.1455-.0832-.6651-.4471-.9977-.8214-.1247-.1455-.2598-.2807-.2806-.5822-.0104-.1975.1455-.4366.3118-.499.1663-.0832.3118-.0935.4884-.0935.3638 0 .8626.0831 1.6629.2806.0312.0208 9.8212 2.9942 16.7012 10.7185-.0623-.4782-.1455-1.0812-.239-1.7985-.3118-1.9753-.8314-4.7303-1.7564-7.9427-1.8291-6.4353-5.2484-14.669-11.484-21.8528-.0104-.0104-.873-.9149-1.3407-1.5386-.1455-.2496-.2806-.3327-.3222-.6862 0-.0728.0208-.2287.1351-.343.1143-.104.2598-.1248.3326-.1248.3014.0208.426.1247.7275.3015.2806.1767.6547.4366 1.164.8109 2.2033 1.0708 94.7513 45.8576 97.9939 136.3149 0 .0208.0416.5302.0416 1.341-.0104 2.204-.3534 6.6225-3.2738 9.128-.8938 1.1227-22.8226 28.4127-55.0923 38.8921-.0208 0-.977.3743-2.0474.3743-.6028 0-1.268-.1144-1.798-.5406" fill="#007DC5" fill-rule="nonzero"/><path d="M415.3576 312.4532c-.2495-.6446-.3846-1.549-.4157-2.7654-2.1098-87.037-97.4951-141.8145-121.3466-154.134-3.3985-1.757-5.3212-2.651-5.3212-2.651l-1.6732-.7693 1.8395-.0208h.2287c12.5025.0104 20.162 7.5684 22.438 10.1778v-.0104c0-2.2871-.4572-4.6886-.9041-6.5184-.4677-1.8401-.925-3.0772-.925-3.0772l-.3014-.8525.8419.3118c9.9875 3.805 22.8538 5.063 35.4707 5.063 12.1907 0 24.1633-1.1748 33.07-2.3495 8.917-1.1852 14.7577-2.36 14.7681-2.36l.0208-.0104h.0208c.4677-.0416.9146-.0624 1.3303-.0624 5.0717-.0103 6.693 2.859 6.9112 3.3476 11.9206 13.3072 26.6888 44.1423 29.1623 81.1631.3014 4.6575.4468 9.159.4468 13.515-.0311 32.4882-7.7946 56.1707-12.3674 61.7847-.6652.8109-1.268 1.2995-1.985 1.3203-.6132 0-1.0705-.4679-1.3095-1.102" fill="#007DC5" fill-rule="nonzero"/><path d="M212.2964 68.4981c.052-.0727.135-.1455.1663-.2287l-.0312.0104c-1.06.3015-20.0582 5.905-25.691 34.9 0 0-.0416.5303.2701.0416 1.7045-2.8173 7.6388-11.81 13.1054-9.1486 0 0 .0312-.2287.0727-.5926.3014-2.4535 2.0786-12.5274 12.1077-24.982M197.7215 330.5342c-4.1052-8.2545-30.4822-65.9014-30.4822-65.9014-8.2103 2.6198-18.3953-4.065-18.3953-4.065v.0312c12.991 34.4738 43.5356 64.6228 48.4098 70.1016.0416.0416.052.0416.0728.0728.8314.9044.8314.5821.8314.5821-.1247-.1767-.239-.4678-.4365-.8213M171.5721 142.8143c-23.8203 54.4449 29.7754 76.8903 30.4822 77.171l.0207.0104-2.8372-12.5379-1.6213-7.1837c-1.3614-.4367-2.5878-.9253-3.8141-1.4763-.4158-.1767-.8107-.3742-1.216-.5614-.4989-.2287-.9977-.4782-1.4654-.7173-23.415-12.4547-21.1494-42.2813-19.7048-51.9602 0-.0832 0-.1352.0104-.208.0624-.2806.104-.551.1455-.8108.1455-.9045.2598-1.5283.3326-1.8506.0312-.1455.052-.2495.052-.2495v-.0311c.0623-.7174-.2807.0935-.3846.4054" fill="#051821" fill-rule="nonzero"/><path d="M206.8256 296.077l-3.8557-68.4173 22.9993 76.2873s-7.5452-18.027-19.1436-7.87M208.2162 99.3717l5.0924 40.909s2.4943 11.176-12.8247-5.5827c11.0372 22.674 25.3689 27.7163 25.3689 27.7163L208.3097 98.384c-.0312.104-.1559.2183-.0935.9876M183.7764 173.9925c-1.4342-3.3684-2.0058-6.4456-2.0058-9.2006 0-9.9388 7.3165-15.532 7.3477-15.5631l.2183-.1664c0 .0936-.3742-6.3105.2286-16.5611-5.8823 8.66-18.3433 29.1717-3.4296 45.213-.239-.3223-.447-.6237-.6548-.9148-.769-1.1124-1.299-2.0169-1.7044-2.807" fill="#C4CDD3" fill-rule="nonzero"/><path d="M199.3656 182.3178c-2.5358-4.4392-9.0002-18.6092-10.0083-32.956-.0103-.0935-.0207-.2079-.0207-.291l-.2183.1559c-.0312.0312-7.3477 5.614-7.3477 15.563 0 2.755.582 5.8427 2.0058 9.2007.4053.7901.9457 1.6946 1.7044 2.807.2079.291.4261.5926.6652.9356.2702.3535.5924.6758.9457 1.05 2.5047 2.7447 6.745 5.5724 13.7081 5.874 0 0-.5716-.8318-1.4342-2.3392" fill="#051821" fill-rule="nonzero"/><path d="M220.172 312.2494c2.38.0312 4.1884 2.1936 5.6745 5.219 1.4862 3.0356 2.6814 7.059 3.6064 11.0615 1.1536 4.9693 1.8914 9.9595 2.2864 12.9952-.0104 1.3723-.0208 2.3807-.052 2.9733v.052c.4989-3.306 5.342-35.2847-10.902-39.7862 0 0-11.3075-2.8902-10.58 20.678.0728-.551.1352-1.0188.1767-1.4555 3.7103-8.3377 6.8177-11.675 9.79-11.7373" fill="#C4CDD3" fill-rule="nonzero"/><path d="M231.681 344.5452v.0104-.0104zM231.7424 341.5293c-.0624-.998-1.1432-8.0259-2.2968-13.0057-.925-4.0025-2.1098-8.0154-3.6063-11.0511-1.4758-3.0253-3.2946-5.1877-5.6641-5.219-2.9828.052-6.0798 3.3996-9.79 11.7374-.2287.603-.1767.6861-.1767 1.445l5.5913 12.33s3.2218-33.0184 15.8594 6.6743c.0104.0832.0104.1455.0208.1663v-.0727.0208-.0624c.0416-.5822.1767-1.31.0624-2.963" fill="#051821" fill-rule="nonzero"/><path d="M0 0h500v500H0z"/></g></svg>