<svg width="500" height="500" viewBox="0 0 500 500" xmlns="http://www.w3.org/2000/svg" xmlns:xlink="http://www.w3.org/1999/xlink"><title>detroit-pistons</title><defs><path id="a" d="M384.6162.0004v384.6158H.0008V.0004z"/></defs><g fill="none" fill-rule="evenodd"><path d="M0 0h500v500H0z"/><g transform="translate(57.6923 57.6923)"><mask id="b" fill="#fff"><use xlink:href="#a"/></mask><path d="M376.9238 192.308c0 101.9578-82.6576 184.6155-184.6153 184.6155C90.343 376.9235 7.693 294.2658 7.693 192.308c0-101.9616 82.65-184.6154 184.6154-184.6154 101.9577 0 184.6153 82.6538 184.6153 184.6154" stroke="#FFF" stroke-width="3.8462" fill="#B4B2B2" fill-rule="nonzero" mask="url(#b)"/></g><path d="M429.3165 250.0004c0 99.0346-80.2846 179.3192-179.3153 179.3192-99.0385 0-179.3193-80.2846-179.3193-179.3192 0-99.0385 80.2808-179.3192 179.3193-179.3192 99.0307 0 179.3153 80.2807 179.3153 179.3192" fill="#1D428A" fill-rule="nonzero"/><path d="M250.0004 402.9042c-84.4539 0-152.9116-68.4577-152.9116-152.9038 0-84.4539 68.4577-152.9077 152.9116-152.9077 84.45 0 152.9115 68.4538 152.9115 152.9077 0 84.4461-68.4615 152.9038-152.9115 152.9038z" fill="#C8102E" fill-rule="nonzero"/><path d="M249.9988 394.1354c-61.073 0-113.3576-38.1962-134.3153-91.9346 25.6269 35.073 76.2153 59 134.3153 59 58.1039 0 108.6885-23.927 134.3193-59-20.9577 53.7384-73.2462 91.9346-134.3193 91.9346m0-288.277c61.0731 0 113.3654 38.2 134.3193 91.9462-25.6308-35.073-76.2116-59.0038-134.3193-59.0038-58.1038 0-108.6884 23.9307-134.3153 59.0038 20.9538-53.7461 73.2423-91.9461 134.3153-91.9461M105.972 254.4969h28.1423v-8.9961H105.972c.1077-3.4039.2885-6.7923.627-10.1308 9.973-50.2077 70.4615-88.9538 143.4-88.9538 72.9346 0 133.4269 38.7461 143.4038 88.9576.3385 3.3385.523 6.7231.627 10.127h-28.1462v8.9961h28.1461c-.1038 3.4077-.2884 6.7923-.627 10.1346-9.9768 50.2077-70.4691 88.95-143.4038 88.95-72.9384 0-133.4269-38.7384-143.4-88.95-.3384-3.3423-.5192-6.7269-.6269-10.1346M249.999 97.0892c-84.3116 0-152.9077 68.5962-152.9077 152.9116 0 84.3115 68.5961 152.9038 152.9076 152.9038 84.3154 0 152.9116-68.5923 152.9116-152.9038 0-84.3154-68.5962-152.9116-152.9116-152.9116" fill="#FEFEFE" fill-rule="nonzero"/><path fill="#FEFEFE" fill-rule="nonzero" d="M185.3862 302.5712h10.8192v-48.577H185.39zM226.828 254.0173h-.3268c-3.0385-.023-14.0808-.0654-16.2-.023l-.55.0307c-3.2654 0-5.3385 1.55-5.8462 4.3615-.0885.4577-.0923.8077-.0885.8077-.0115.1-.75 9.2039.1462 11.7731 1.45 4.1808 4.823 5.727 7.927 6.6885.1038.0269.2076.0615.323.0923.1961.05.4038.1038.6.1884.3423.1385.5808.3231.723.5539l.0462 17.4923-8.9269.027.0346 6.473 11.7385.0115h.0077c4.0769-.1769 6.8846-1.9615 7.9269-5.0423.2961-2.373.3346-18.6615.1-22.0615-.073-1.2846-.6615-2.3154-1.8462-3.25-.4615-.3577-1.0307-.727-1.7577-1.1308-.6423-.3346-1.3346-.677-2.0038-.9846-2.5346-1.2385-5.4115-2.6462-5.4115-5.8808l.0077-2.7654h8.4923c1.7423 0 3.1307-.8538 4.0346-2.4615.6846-1.2308.8692-2.4615.8654-2.5308.073-.8038.0346-1.55.0038-2.0423l-.0192-.3269zM272.6946 264.9285c.05-1.2808.1577-2.2423.3346-3l.1923-.1885c.4847-.077.9539-.1077 1.527-.1077l.2192.0039c3.6654.0423 3.7692 1.1423 3.7692 7.7769v20.2846c0 .6077 0 1.177-.0384 1.777-.027.5807-.0923 1.1307-.2 1.6422l-.1962.1923c-.6423.0923-1.2615.1423-1.9308.1423-1.3461 0-2.2807-.2923-2.8615-.8884-.8615-.8885-.8885-2.3731-.8346-4.0846v-20.4847s-.0192-2.2769.0192-3.0653m3.5654-10.9539c-2.4346 0-4.973.0808-7.0154.6577-5.2961 1.277-7.873 4.8154-7.873 10.8192v28.8962c0 7.4038 5.296 8.923 13.246 8.923 9.6347 0 15.1578-3.4038 15.1578-9.3307l.0154-30.1192c0-9.8462-6.2731-9.8462-13.5308-9.8462M314.8523 274.638c-5.1654-18.7038-13.4538-20.7922-16.8885-20.7922-.8923 0-1.4307.1423-1.45.15l-.2576.0692-.0039 48.5385 10.95.0153V283.092l7.627 19.527H325.96v-48.577h-11.1077v20.5962zM167.855 275.547l-6.0846.0076V261.447s3.3077-.0654 3.8 0c1.2.1539 2.3115.6193 2.3115 2.0616 0 .4692-.0269 12.0384-.0269 12.0384m4.3692-21.5692l-27.2923.0346-.3346.0039-.0154.3307c-.0038.0577-.2346 5.7808 6.15 7.1116v41.1269h11.1923v-20.6692h9.4154c4.9692 0 7.8192-3.2693 7.8192-8.9693l.027-1.7384c0-13.7616-.5577-16.5193-6.9616-17.2308M258.0123 254.053H232.697v7.6385h7.2154v40.9654l11.127-.0077.0076-41.0038c.1385.0077.2731.0115.4039.0115 1.9884 0 3.573-.6077 4.7077-1.8077 2.0192-2.123 1.8769-5.3269 1.873-5.4654l-.0192-.3307zM355.4396 254.0173h-.327c-3.0422-.023-14.0807-.0654-16.2038-.023l-.5461.0307c-3.2654 0-5.3385 1.55-5.8462 4.3615-.0884.4577-.0884.8077-.0884.8077-.0116.1-.7539 9.2039.1461 11.7731 1.45 4.1808 4.8231 5.727 7.9231 6.6885.1077.0269.2115.0615.323.0923.2.05.404.1038.6.1884.3424.1385.5847.3231.727.5539l.0462 17.4923-8.927.027.0308 6.473 11.7423.0115h.0116c4.0692-.1769 6.8807-1.9615 7.923-5.0423.2962-2.373.3346-18.6615.1039-22.0615-.0808-1.2846-.6654-2.3154-1.8539-3.25-.4615-.3577-1.0269-.727-1.7538-1.1308-.6462-.3346-1.3346-.677-2-.9846-2.5423-1.2385-5.4116-2.6462-5.4116-5.8808l.0039-2.7654h8.4885c1.7461 0 3.1346-.8538 4.0346-2.4615.6846-1.2308.873-2.4615.8692-2.5308.073-.8038.0385-1.55.0038-2.0423l-.0192-.3269zM256.1458 204.192l1.8423-.004.2923.004c2.8308.046 3.8846.0615 3.8115 5.046.0077 3.977 0 4.227-.0807 6.1885l-.0077.3731c.0077.573-.2347 1.2039-.6 1.5808-.2577.2615-.5616.3923-.9039.3923h-4.3538v-13.5808zm-.0308 19.8268h1.877c1.8076.0385 4.8384.5924 4.8384 3.8385 0 1.55.1384 6.4077.1923 8.2308l.023.7307c.0116.2693.1308 2.6462.2462 3.0962.777 2.8308 2.977 4.527 6.4116 4.8962h3.1692v-17.2885c0-1.4846-.8077-3.5615-1.973-5.0462l-.2309-.3153c1.7385-1.95 2.4116-3.9154 2.4116-6.9154l.0115-1.6885c0-13.4308-.5346-16.1192-6.7692-16.8115h-21.0154v47.4115h10.8077v-20.1385zM323.2208 196.7458h-10.5423l-.0347 47.3846 10.577.0077zM221.9904 244.2012l10.85-.0154.0154-40.05c.1346.0038.2654.0077.3961.0077 1.9462 0 3.4962-.5923 4.6039-1.7654 1.9654-2.0693 1.823-5.1885 1.8154-5.3154l-.0154-.3192h-24.7039v7.4423h7.0385v40.0154zM335.8108 244.2012l10.8577-.0154v-40.05c.1346.0038.273.0077.4.0077 1.9538 0 3.5038-.5962 4.6153-1.7654 1.9654-2.0731 1.827-5.1885 1.8193-5.3154l-.0193-.3192h-24.7076v7.4423h7.0346v40.0154zM209.2708 236.535h-11.3616v-11.5192h7.7885v-10.3193h-7.7885v-10.6692h11.3616v-7.2808h-21.9039l-.0384 47.3847h21.9423zM169.8365 236.535h-6.0038v-32.3577c3.7192-.1538 4.5077.173 4.5692.2039 1.4.55 1.3731 3.1461 1.3731 3.2153.3923 3.7462.1038 25.9577.0615 28.9385m3.7462-39.7885h-27.023l-.0385.2885c-.0193.1154-.3424 2.8385 1.4115 4.9115 1.1115 1.3231 2.8077 2.0616 5.0615 2.2077v39.9193h20.1231c4.5885 0 7.6692-3.9 7.6692-9.7l.0077-21.9923c.0077-12.1347.0116-15.3962-7.2115-15.6347M289.9123 207.4673c.0539-1.2538.1615-2.1923.3346-2.9423l.1962-.1808c.473-.073.9423-.1038 1.5077-.1038h.2154c3.6423.0461 3.7461 1.127 3.7461 7.6154v19.85c0 .5961 0 1.1538-.0385 1.7423-.0307.5654-.0961 1.1038-.1961 1.6038l-.2.1885c-.6346.0961-1.25.1423-1.9154.1423-1.327 0-2.2577-.2885-2.8346-.873-.8577-.8693-.8846-2.3193-.8308-3.9962v-20.05s-.0192-2.227.0154-2.9962m3.5423-10.7192c-2.4154 0-4.9346.073-6.9654.6423-5.2577 1.25-7.8115 4.7115-7.8115 10.5846v28.2846c0 7.2462 5.2577 8.727 13.1461 8.727 9.5577 0 15.0424-3.327 15.0424-9.127l.0153-29.4808c0-9.6307-6.223-9.6307-13.4269-9.6307"/></g></svg>