<svg width="500" height="500" viewBox="0 0 500 500" xmlns="http://www.w3.org/2000/svg"><title>houston-rockets</title><g fill="none" fill-rule="evenodd"><g fill-rule="nonzero"><path d="M115.1407 264.7694c10.8754-5.9065 40.0433-10.4877 66.9474-14.5434-.0682 10.2135-.2275 21.1353-.5233 33.0739-47.5286-5.221-64.7746-14.4406-66.424-18.5305zM230.527 108.2423c28.292 3.8272 44.48 11.3445 45.8223 21.3867 1.3879 10.3734-1.0352 18.8847-7.0417 25.6023-9.715 8.8654-24.4924 13.5151-37.0173 15.9371.1365-24.1057-.4323-44.4184-1.7633-62.9261zm.8077 112.3028c.2503-9.5737.512-19.4445.694-29.5209 23.1272 3.416 36.5736 9.825 36.346 17.5937l-.728 77.9723c-12.1722.3084-25.0043.2513-37.0742-.08l.1707-5.2553c-.5233-17.6394.0227-38.5577.5915-60.7098zm85.6609 63.1204l.3867-33.0854c52.6593 7.186 65.9464 12.864 67.5959 16.0286 0 0-.0455.24-.3754.7654-9.499 6.9233-34.4009 12.8983-67.6072 16.2914zm118.2188-14.829c-.2162-4.5812-2.4686-8.8654-6.7005-12.7498-15.8694-14.5205-60.975-23.1231-110.9382-21.6837l.4323-36.8097c-.0114-7.643-2.514-13.9607-7.4171-18.7819-3.447-3.3816-7.9632-5.9179-13.5146-7.5973 5.1988-3.1189 10.2952-6.969 14.618-11.6872 12.2292-11.3788 17.849-25.7166 16.7227-42.602-.728-10.7047-5.3694-19.7758-13.8104-26.9504-16.6999-14.235-47.0281-19.7986-87.7995-16.1542-3.0943-21.5352-7.4399-40.2028-13.253-56.9512L207.9798.8177l-1.9225 5.9636-1.0466-3.0275-5.2102 16.2c-7.2351 22.5633-12.0471 41.6423-15.0049 59.6587-33.5021 6.055-56.4815 13.5494-57.4826 13.8693l-47.779 15.6859 8.35-.7655-11.2053 3.6787 49.963-4.5355c.2731-.0343 25.596-2.0564 55.0483-2.182-1.6495 21.4665-1.1262 43.0931-.4664 69.8722.4095 17.0567.876 36.2156.91 59.2588-45.1283-.594-94.8184 6.215-109.3796 23.3174-6.3023 5.3696-7.4854 10.7962-7.3603 14.4406.9897 28.367 84.0341 38.969 116.9333 42.0536l2.7303 87.5916 11.3532.2514.2275-3.0275.7735.0228.5575 22.2435 11.3645.2856.2275-3.0274 1.2855.0342.5688 21.101 11.376.0344.1024-2.959h2.8326l3.8678-119.8316c12.559.3428 25.63.3313 38.1776-.0457l3.9361 125.1669 11.3646.1142.1479-2.9818 1.4106 29.9093 11.3646.0343.1365-2.9704 1.1262.0115.7963 29.8636 11.376-.0228.0682-2.959h2.8895l4.1636-179.079c58.461-5.5752 100.0173-17.4338 110.9268-31.2118 5.1306-4.3413 7.7357-8.9682 7.7357-13.755v-.2628z" fill="#FEFEFE"/><path d="M426.5856 272.0548c0 20.8497-80.9398 39.5173-178.625 39.5173-97.6967 0-176.1565-18.679-176.8846-39.5173-.6598-18.7933 54.6614-31.109 118.071-28.6755-41.1924 6.2149-82.7828 12.087-82.7828 23.2717 0 16.8854 62.4539 28.8011 141.5963 28.8011 79.1197 0 142.6999-11.9157 142.6999-28.8011 0-10.899-38.155-17.3881-84.0227-23.2603 64.1944-3.4274 119.1288 10.5334 119.9479 28.664" fill="#2D2925"/><path d="M214.7633 353.4098l2.3434 86.2207 5.0054-155.2476c-2.0135-68.2156 11.7855-180.1757-16.8933-262.672-30.442 94.8347-14.0606 116.1757-18.065 265.1969l3.5835 114.8162 4.7665-62.8005c.1593-7.7915 6.0634-7.0718 6.0634-.3884l2.0931 82.702 5.0737-67.3018c-.0796-9.071 6.2682-8.6598 6.0293-.5255" fill="#2D2925"/><path d="M308.0983 309.262l-4.357 186.7107-2.935-109.9494c-.1592-7.803-6.6549-8.1571-6.9165 0l-3.572 82.9533-3.5152-96.0344c.0113-7.723-5.87-8.1685-5.9269.5484l-3.4924 68.4785-4.2432-135.2318.9214-98.068c.7736-26.2192-76.0027-25.8879-76.0027-25.8879s91.4171 1.908 83.9317-53.9122c-5.449-40.694-155.8618-27.0075-155.8618-27.0075s42.5233-13.9722 95.8537-19.1703c59.7806-5.815 95.8424 8.614 97.799 37.5637 3.447 51.2275-62.6132 58.6877-62.6132 58.6877s52.1246-10.1564 52.2156 21.6152l-1.2855 108.704z" fill="#2D2925"/><path d="M429.5286 269.0981c0 20.8497-80.9285 39.5288-178.6137 39.5288-97.708 0-176.1679-18.6905-176.8846-39.5288-.6711-18.7819 54.6614-31.1203 118.0596-28.6755-41.1923 6.2264-82.7828 12.0986-82.7828 23.2717 0 16.8969 62.4653 28.824 141.6078 28.824 79.1197 0 142.6884-11.9271 142.6884-28.824 0-10.8875-38.1435-17.3766-84.0227-23.2717 64.183-3.4273 119.1175 10.5334 119.948 28.6755" fill="#C21F32"/><path d="M217.713 350.4531l2.3321 86.2207 5.0054-155.2475C223.037 213.1992 236.836 101.2505 208.18 18.7542c-30.4648 94.8348-14.0834 116.1757-18.0764 265.1855l3.5835 114.8162 4.7665-62.8005c.1479-7.78 6.052-7.0717 6.052-.3656l2.1159 82.6906 5.0623-67.3018c-.0796-9.0824 6.2454-8.6597 6.0292-.5255" fill="#C21F32"/><path d="M311.0424 306.3066l-4.3456 186.7106-2.9464-109.9494c-.1478-7.803-6.6435-8.1685-6.9165 0l-3.572 82.9418-3.5152-96.0229c.0113-7.723-5.87-8.18-5.9155.5484l-3.5038 68.4785-4.2433-135.2319.9215-98.0679c.7736-26.2306-75.9913-25.865-75.9913-25.865s91.4057 1.8964 83.9203-53.9351c-5.4604-40.694-155.8504-26.996-155.8504-26.996s42.5233-13.9951 95.8423-19.1818c59.792-5.8265 95.8537 8.6026 97.8104 37.5752 3.4355 51.216-62.6132 58.6876-62.6132 58.6876s52.1132-10.1792 52.2042 21.6037l-1.2855 108.7042z" fill="#C21F32"/></g><path d="M0 0h500v500H0z"/></g></svg>