<svg width="500" height="500" viewBox="0 0 500 500" xmlns="http://www.w3.org/2000/svg"><title>miami-heat</title><g fill="none" fill-rule="evenodd"><path d="M117.7534 210.9305c-.1018-.0567-.215-.1133-.328-.17-6.9231-3.8086-8.9028-6.767-9.0498-7.3339.5316-6.121 33.4163-22.7156 104.0837-27.1023-4.129 5.6676-7.5792 12.9788-8.8575 22.2396l-.7692 5.5769c-.4186 2.879-.9616 6.2116-2.138 9.3061-1.8892 4.9421-7.3417 10.111-15.8145 14.9964-29.6267-3.8653-53.4163-10.077-67.1267-17.5128m229.0385-20.2785c2.0588-.7482 3.4728-2.6071 3.6877-4.7268 19.6267 4.8514 34.0385 10.9724 39.3892 16.878.9276 1.0315 1.1651 1.6323 1.2104 1.6436-.2376.8275-2.4321 3.888-9.672 7.6852-10.9841 5.7923-27.862 10.6777-48.8122 14.237 3.3824-4.2167 5.7353-9.9183 5.9955-17.9436.215-7.2431.7127-9.4535.9728-10.0656 1.5159-3.0151 5.2263-6.9824 7.2286-7.7078m84.57-15.3025c-13.8347-15.291-42.5225-28.1111-81.2443-36.3858.611-.442 1.3349-.9521 2.1833-1.5415 2.6584-1.8363 5.9615-4.1374 9.2647-7.2772 13.4955-12.8427 4.8077-31.183-2.4547-39.979l-8.439-10.315c-1.6176-1.9723-4.3552-2.6297-6.6742-1.587-2.3303 1.043-3.6764 3.514-3.2918 6.0417l2.0249 13.1941c.6221 4.058.475 5.8603-3.5747 9.2722-.2262-3.2986-.7127-6.8351-1.6516-10.7117-2.4095-9.9976-7.5-14.407-8.0656-14.883-1.6403-1.315-3.8461-1.6663-5.7805-.8389-.6674.272-1.267.6801-1.776 1.1675l-.2037-1.1675c-1.6855-9.8162.6222-15.257.6335-15.5745.5656-.34 1.0747-.7707 1.482-1.2808 1.9456-2.3804 5.8144-6.3024 5.837-6.3364 1.301-1.3375 1.8779-3.2191 1.5272-5.0328-.3507-1.825-1.5611-3.3665-3.258-4.126-1.0972-.476-4.389-1.5075-11.3348-.6234-13.0882 1.8136-26.1086 9.4649-25.69 22.4663.1696 5.5882 1.923 10.7457 3.3484 14.9283.577 1.723 1.3914 4.126 1.6629 5.5882-.724.3174-2.025.7595-4.2195 1.1562-20.2488 3.684-35.871 13.3755-44.0045 27.261-1.923 3.2872-3.405 6.7671-4.4344 10.3943-45.0226.4875-87.7941 6.359-120.905 16.6287-40.3506 12.5026-62.647 30.2421-64.5022 51.2575-.9842 10.9837 3.3597 27.0796 29.2986 41.9853.4638.4874 1.0068.8955 1.6403 1.1902l10.5882 5.0668c.2828.1474.5883.2607.8937.34 8.0882 3.5706 17.1493 6.8125 27.0701 9.703-1.5158 1.1788-2.9638 2.369-4.3439 3.5932-24.966 20.5506-39.2873 50.9174-39.2873 83.3132 0 28.8366 11.199 55.9502 31.5385 76.3195 20.3393 20.3805 47.3868 31.6023 76.1538 31.6023 50.8824 0 95.2489-36.1817 105.3167-85.3989 8.5747-25.6854 7.5792-52.935 7.206-63.1707-.6788-19.111 8.043-30.0494 14.0836-35.309 32.172-4.2053 60.2037-11.301 81.233-20.5732.3055-.0793.611-.1927.8937-.34l3.3258-1.587c.0453-.0226.0905-.034.1358-.0566l7.353-3.514c.5995-.2833 1.1311-.7027 1.5723-1.1788 17.8733-10.3716 27.9299-22.9423 29.129-36.4198.8484-9.6122-2.6018-18.7823-10.2602-27.261" fill="#FEFEFE" fill-rule="nonzero"/><path d="M102.7387 202.9256c1.1425-13.0467 48.0656-30.2761 123.9027-32.9625-7.0362 5.2821-15.3846 14.5203-17.4434 29.3806l-.7693 5.6223c-.509 3.4685-1.1199 7.005-2.4547 10.5076-2.9186 7.674-11.1539 13.999-19.966 18.8277-30.5318-3.854-56.0521-10.2923-70.9503-18.3856h-.0226c-8.1561-4.432-12.6358-9.1588-12.2964-12.99m291.3235-3.922c2.896 3.1965 2.7036 5.2595 2.647 5.951-.3167 3.6838-4.932 8.1272-12.647 12.1965h-.0226c-16.2217 8.5467-44.095 15.0077-77.285 18.4083 1.4479-.9408 3.043-1.7683 4.7624-2.471l.543-.2154c9.5362-3.888 20.3506-8.286 20.8597-24.0872.0792-2.505.215-10.2243 1.595-12.9787 1.776-3.5366 6.3348-9.0228 10.3507-10.4737.0565-.034-6.7082-1.3489-6.7082-1.3489-.362-.034-.7013-.0567-1.052-.0567 2.2738-1.6549 3.8914-3.6272 5.0792-5.7015 26.957 5.6222 45.0905 13.2848 51.8778 20.7773m33.1109-19.8478c-14.2534-15.7445-45.6788-28.5192-86.1652-36.2498.181-4.6587 3.009-6.631 8.0543-10.1223 2.6358-1.825 5.6109-3.8993 8.6086-6.7444 13.0656-12.4346-2.2737-31.4777-2.9298-32.2824l-8.439-10.315 2.025 13.194c1.38 9.0342-1.9232 12.2307-11.7195 19.0884-1.2557.8615-2.319 1.825-3.258 2.8452.4073-6.0303.69-12.752-1.3348-21.174-2.0362-8.4334-6.1652-11.8453-6.1652-11.8453L324.775 97.781c-.0113.068-.9502 9.5442-13.5747 21.004 1.086-1.2242 2.1041-2.4937 3.009-3.82 6.1879-9.0227 4.4005-19.2923 2.3304-31.1715l-.4299-2.5051c-2.1267-12.3893 1.1765-20.1199 3.3032-21.3894 2.0701-2.5277 6.1878-6.733 6.1878-6.733s-2.1833-.9749-8.258-.1814c-7.8959 1.0881-21.1651 5.8262-20.8144 16.6513.147 4.7607 1.6855 9.2835 3.0317 13.2734 1.448 4.262 2.8167 8.3087 1.6063 10.383-.9729 1.6436-3.9027 2.9471-8.4842 3.786-18.6086 3.3892-32.862 12.1172-40.1357 24.5632-2.4095 4.1146-4.0159 8.524-4.819 13.1487-46.1539.136-89.853 5.9056-123.733 16.4133-37.9752 11.7772-58.9028 27.8051-60.543 46.3494-.871 9.7595 3.5294 23.8378 27.9072 37.372l-.1697.1813 6.923 3.3098a.035.035 0 0 0 .0227.0114l3.6425 1.757.0566-.0568c11.233 5.0328 24.4118 9.3855 39.095 12.9674-5.2262 2.9585-10.0452 6.359-14.3665 10.213-23.6199 19.4284-37.2285 48.231-37.2285 78.9265 0 27.3177 10.6109 53.0031 29.8869 72.3182 19.276 19.315 44.8982 29.9474 72.1606 29.9474 48.2466 0 90.2376-34.266 99.9435-81.5336 8.2353-24.6993 7.285-51.1895 6.923-61.1757-.8144-22.7043 10.3055-35.2636 17.3756-40.9199 32.2398-4.092 60.7692-11.165 82.0136-20.6526l.034.034 3.4388-1.6322.0227-.0227 7.3529-3.5026-.2036-.1926c17.0927-9.5669 26.6402-20.8114 27.7036-32.7926.7013-7.98-2.2625-15.6992-8.8122-22.9536" fill="#2D2925" fill-rule="nonzero"/><path d="M93.2681 349.4708c2.6697 13.4548 10.3507 29.5734 25.6109 40.3304 4.6153 3.2418 9.638 5.8716 14.966 7.9006-3.3031-5.6336-7.138-11.3125-11.0407-17.0934-7.3077-10.7797-14.853-21.9448-19.638-33.9374-4.9548-12.412-6.3122-25.3907-4.1516-38.4374-3.8914 10.5983-6.0407 22.0468-6.0407 34.0054 0 2.437.1131 4.8514.2941 7.2318" fill="#8B2231" fill-rule="nonzero"/><path d="M109.7093 344.0379c4.5136 11.301 11.8439 22.1261 18.9253 32.6111 5.4864 8.0933 10.8371 16.0166 14.9095 24.0192 4.4797 1.0542 9.129 1.723 13.8688 2.0063-4.8982-6.9938-9.1516-14.951-12.7941-24.0531-14.163-35.275-12.1154-78.8812 5.4412-104.1133 9.0837-13.0127 19.932-21.8654 33.9027-29.494 12.0135-6.5857 19.5362-8.5467 27.1832-13.1147 8.3145-4.9648 12.7602-13.2735 7.2964-31.9084-1.6063-5.4409-1.8891-9.737-1.561-13.0808-1.9005 3.684-3.3824 7.9573-4.0725 12.9334l.0453-.0453c-.8598 5.2708-1.2217 11.063-3.4616 16.9687-7.353 19.2924-42.9525 30.004-47.647 31.4323-13.5068 4.0806-24.3326 10.315-32.7602 17.8415-24.3778 21.7295-28.733 54.3293-19.276 77.997" fill="#8B2231" fill-rule="nonzero"/><path d="M258.1957 169.6956c.362 1.1901.6561 2.369.8032 3.5252.9276 6.7444-1.1086 12.1852-9.3552 13.5115-8.4955 1.3715-11.3914-6.0303-12.0475-12.072-.068-2.097.0905-3.7746.2601-4.9874-1.4253.0227-2.8393.0453-4.2534.0907-2.7262 1.5529-6.267 3.9786-9.672 7.4585-1.6967 3.6499-3.7442 8.694-.5995 20.528 5.543 20.8679 3.19 33.4612-13.5294 40.6704-21.3235 9.1928-34.9434 14.5883-53.224 37.6213-8.699 10.961-13.4502 29.12-14.2307 47.4035-.758 17.7395 2.8846 36.6919 9.1176 52.221 4.1742 10.3943 9.0498 19.4284 14.7738 27.1023 5.7127-.2154 11.4932-.9522 17.2737-2.2217-6.3461-7.4585-10-16.5266-10.656-26.7056-2.1833-33.8353 16.0067-48.0723 43.9931-70.5498l12.5227-10.5304c49.9773-42.5294 35.3959-85.7843 40.8936-122.7142-3.948-.1586-7.975-.272-12.0701-.3513" fill="#8B2231" fill-rule="nonzero"/><path d="M278.2183 170.4074c-1.5271 7.3792-2.2172 15.0757-2.7036 23.0443-1.9796 32.1691-1.018 68.589-41.6516 104.7593l-12.2964 9.9636c-27.1945 21.8542-42.7488 35.5017-41.6742 65.2224.3507 9.8049 4.4797 18.3856 11.3688 25.13 7.6018-2.2897 15.1244-5.4862 22.353-9.6122 35.3506-20.0972 57.5905-50.1466 66.086-88.6974 5.3845-24.3706 5.2714-44.1957 5.181-60.133-.0453-8.0592.9954-23.8604.9954-23.8604 1.1312-9.9749 2.7376-23.9625 14.2873-42.2914.3733-.5894.7806-1.1902 1.1652-1.791-7.3643-.7254-15.0679-1.3035-23.1109-1.7342" fill="#8B2231" fill-rule="nonzero"/><path d="M290.1143 273.8246V273.7c0 .0567-.0114.1247-.0114.1814-1.1086 5.7696-1.3914 12.2533-2.0927 18.7143-.3394 2.471-.6674 4.8628-1.0294 7.1865-.1245.6574-.2489 1.3149-.396 1.961-8.9253 40.591-32.0248 72.1934-69.1742 93.3221-6.38 3.6273-12.862 6.6084-19.3665 8.9208 10.8937 7.2431 23.5973 9.4762 32.3303 8.1613 33.3598-5.0215 49.6154-26.8303 57.4435-50.158 8.0316-23.9398 7.172-49.4892 6.7873-60.0649-1.267-35.3316 26.0068-48.367 26.0068-48.367-21.2104-1.1562-28.1674 8.1046-30.4977 20.2672" fill="#8B2231" fill-rule="nonzero"/><path d="M267.8382 404.148c-13.6425 11.4259-28.3484 13.931-35.0339 14.9625-13.1335 2.0176-28.6878-1.1109-42.4434-11.9813-.2263-.1813-.4412-.374-.6561-.5554-5.8937 1.5756-11.7987 2.6298-17.681 3.1172 13.4615 14.4863 31.1877 22.7156 54.9547 24.3365.1018 0 .215.0113.3054.0113h.0227c16.1764-6.359 30.2715-16.878 40.9615-30.2648-.147.136-.2828.2494-.4299.374M143.6923 428.4812c.2602-7.4472-1.8326-14.7697-5.2489-22.0922-8.156-2.3577-16.1538-5.8716-23.8461-10.553-4.3326-2.641-8.2353-6.6764-11.6855-10.4283-.0113-.0227-.034-.0227-.0453-.0453 8.8688 18.2382 23.1787 33.3253 40.8258 43.1302v-.0114zM211.7217 438.634c-13.3031-3.083-24.6832-7.8098-34.672-15.393-5.1017-3.888-9.751-8.2633-13.9818-13.2281-5.3846-.068-10.7353-.5894-16.0294-1.587 2.9411 7.606 4.423 15.3592 3.4728 23.4978v.0113c12.4548 5.7016 26.2783 8.9094 40.871 8.9094 7.025 0 13.8801-.748 20.4865-2.1536-.0566-.0114-.1018-.0454-.147-.0567M326.0464 196.4691c-2.2964 7.6853-9.8416 6.7785-12.025 2.6298-3.4728-6.5517-2.1605-11.6185 1.4594-15.0757 3.6086-3.4573 9.5249-5.3049 15.2602-7.9006a.6486.6486 0 0 1 .0791-.0454c-6.629-1.1335-13.6877-2.1536-21.1538-3.0378-.1018.1247-.2036.238-.3054.3514-.6675.7595-1.3236 1.5076-1.9684 2.2897-11.8665 17.8868-13.3484 31.1376-14.5135 41.328l-.362 3.1397c-.6561 5.3502-.6222 12.0946-.5883 19.8932.0113 1.0655.0227 2.1763.0227 3.3099-.0905 2.7204-.1923 5.4068-.3168 8.0252.0679.0227.1131.034.1697.0454.0905-1.0882.1357-1.5076.1244-.9522 3.3598-10.7117 9.525-17.2294 18.2127-20.766 9.4118-3.8199 18.6991-7.3451 19.129-21.038.1923-5.7129.6108-11.4371 1.9117-14.3502 2.3756-5.2935 6.629-6.6991 6.629-6.6991-4.5702-.442-9.5588 1.4736-11.7647 8.8527" fill="#8B2231" fill-rule="nonzero"/><path d="M337.4355 142.2362c.69-9.1588 9.344-10.8704 17.715-18.8503 10.7579-10.2243-3.224-27.3064-3.224-27.3064 1.7647 11.4825-3.5408 15.8692-13.2466 22.6363-3.077 2.1537-5.3168 5.1688-5.6222 8.966-.3394 4.262-.6222 8.8642-1.5498 13.5229 2.0023.3287 3.9706.6801 5.9276 1.0315M307.8247 126.2752c-2.5905 1.927-5.0114 3.9106-7.2738 5.9396-1.6063 1.5416-3.1787 3.0832-4.6267 4.5567 9.4457.8162 18.6312 1.8817 27.4887 3.1739 5.6561-10.315 8.3597-22.0242 5-41.9514 0 0-.7805 13.5002-20.5882 28.2812M255.0238 134.8094c10.8031.102 21.4027.5441 31.742 1.2469.3507-.34.6675-.6915 1.0294-1.0315 6.9457-7.4585 17.6697-13.7609 23.4163-22.1262 5.7353-8.3767 3.4276-18.601 1.301-30.9903-3.6539-21.3554 5.328-25.3113 5.328-25.3113s-18.009 2.4824-17.6697 12.922c.4638 14.0103 14.8756 27.193-6.8326 31.149-23.8235 4.3413-38.6312 17.252-41.8891 34.13 1.1878.0114 2.3756 0 3.5747.0114" fill="#F9A11A" fill-rule="nonzero"/><path d="M254.9615 140.4033c-99.7963-.9862-183.0543 24.824-185.9502 57.6505-1.1538 13.0694 10.6222 25.2887 31.5158 35.3203 12.9186 6.2003 29.31 11.5505 48.2806 15.7671 3.7896-1.6889 7.7602-3.1965 11.9457-4.466 3.3032-.9975 9.4004-3.0038 16.1199-5.9283-27.9412-4.092-50.5656-10.3716-64.4796-17.9095-10.2715-5.5769-15.8032-11.8339-15.215-18.4082 1.9457-22.0355 71.81-39.231 156.0634-38.4035 84.242.8388 150.9728 19.3718 149.0271 41.4186-.5316 5.9963-6.0973 11.6412-15.6221 16.6627-17.6019 9.2608-48.6878 16.3906-86.448 19.7117-1.301 1.791-2.4548 3.7746-3.3937 6.0303 17.172-6.529 36.957 3.1172 36.957 3.1172s1.3236.51 2.2512 1.1449c25.0565-4.4774 46.5837-10.8478 62.715-18.5557 19.0836-9.102 30.656-20.0632 31.6967-31.9424 2.896-32.8152-75.656-60.2349-175.4638-61.2097" fill="#FEFEFE" fill-rule="nonzero"/><path d="M0 0h500v500H0z"/></g></svg>