<svg width="500" height="500" viewBox="0 0 500 500" xmlns="http://www.w3.org/2000/svg"><title>minnesota-timberwolves</title><g fill="none" fill-rule="evenodd"><path d="M0 0h500v500H0z"/><g fill-rule="nonzero"><path d="M250.0015 434.6156c-78.5154 0-148.6-49.864-174.4001-124.0793-33.3693-96.1443 17.7038-201.5207 113.85-234.8928 19.6078-6.8098 39.977-10.2589 60.5462-10.2589 78.5347 0 148.6155 49.8601 174.3963 124.0716l.8769 2.5109-.023.027c31.6269 95.4482-19.3732 199.2789-114.6732 232.3588-19.6231 6.8136-40 10.2627-60.5731 10.2627" stroke="#FFF" stroke-width="3.8462" fill="#C4CDD3"/><path d="M403.0458 294.61c-4.0423 13.8846-9.8346 26.7808-17.0231 38.5577-8.4462-30.5692-27.9346-62.1462-53.0077-90.9923 2.2615-3.8462 4.85-7.723 7.8077-11.8577 6.8423-7.427 10.0654-.5385 10.0654-.5385 5.4923-14.8961 2-22.3961-.6616-25.6038-.9961-1.473-2.1961-2.0039-2.1961-2.0039-2.3039-10.4769-11.8-15.9769-11.8-15.9769s3.273-14.7192 1.6884-29.9577c51.35 21.4462 66.5231 60.2423 70.9347 80.6 1.5769 18.927-.1808 38.45-5.8077 57.7731m-68.4616 90.4538c-1.1461-18.5884-4.2384-33.6115-4.2384-33.6115 1.6692.677 5.8538 3.6846 5.8538 3.6846-.7961-34.773-15.4154-47.0192-15.0154-65.9846.3308-15.8808 2.5-26.927 6.6923-36.85 25.3731 29.8808 44.327 62.2654 50.4077 92.373-12 16.2578-26.9 29.8732-43.7 40.3885M93.865 218.1215c10.7962-14.6346 38.6154-47.3538 69.3077-44.0769-2.427 4.377-4.4692 8.1423-5.6846 10.55-8.0462 12.4423-15.5962 27.3692-21.2077 45.027-5.8423 18.3922-8.8808 37.5346-9.2116 57.3115-6.5384 5.3846-13.2846 10.3846-20.1884 14.7538 0 0 12.2923 10.9654 24.523 15.2808 0 0-8.4038 13.2115-13.7692 21.8308-23.0692-34.4539-32.6154-77.627-23.7692-120.677m38.05-75.1923c3.523-.2423 8.5308-.4269 14.5192-.2615 14.5654 1.3077 19.8423 5.323 28.3 10.8692a2271.7227 2271.7227 0 0 0-6.2769 11.0577c-27.073-5.2961-51.4423 12.5885-67.6461 29.4 7.2384-19.3192 17.8923-36.523 31.1038-51.0654m71.977-45.4577c-.7732 4.8847-.8693 11.0539 1.5076 17.1193 1.5039 3.823 3.8192 7.1384 6.8692 9.9615-7 2.9692-13.3038 5.7385-18.4884 8.0692-12.277-.4961-33.7616-1.1153-48.85-.223-.8154-.0116-1.677-.0462-2.45-.0462 17.6077-16.0538 38.6384-27.9692 61.4115-34.8808m11.1116-2.9423c18.6846-4.223 38.3115-5.1307 58.0423-2.2269 7.173 1.0539 14.3538 2.6154 21.5115 4.7039.2692.0769.527.1692.7962.2461-10.0616 1.5539-23.0077 4.4846-37.5808 9.8-11.5346 3.8615-23.5077 8.4462-34.523 12.9346-4.0155-2.3423-6.8693-5.3461-8.3385-9.0577-2.4424-6.1538-.9847-12.923.0923-16.4m40.3653 78.927c-5.4269-3.6731-10.873-7.1731-16.3076-10.4462-4.0808-4.5885-12.3077-13.1923-16.6193-17.6808 2.1231-3.3615 4.95-7.3692 8.3808-11.1615 16.8192 5.8 30.777 6.8846 39.5538 7.4808 1.7077.1192 3.2308.2192 4.55.35l1.2731.1077c2.3154.1961 4.5462.4461 6.7885.6923-8.4308 8.8307-17.2962 18.3115-27.6193 30.6577m-52.0692 33.8115c-14.127 14.1808-37.4538 44.7538-65.4846 70.3385 2.4423-37.7154 15.1808-69.4885 32.7-94.1347 1.8462-1.8153 4.0423-3.6153 6.4692-5.3692 10.9308 5.5077 19.5 16.023 26.3154 29.1654m7.75-6.85c-6.5077-11.9385-14.5038-21.9385-24.4615-28.477 4.6038-2.6576 9.3807-5.0884 13.7461-7.1692 6.25.85 24.477 3.5 32.1154 6.2462 5.4462 3.2615 10.9 6.7654 16.3462 10.4577-1.3923 1.723-2.8 3.4846-4.2423 5.323 0 0-16.1577.2-33.5039 13.6193M317.215 105.683l.0077-.1885c36.3 16.827 63.9461 46.273 79.127 81.3808-16.6193-20.65-39.1155-33.6116-60.5885-41.7462-2.5962-8.5192-7.5039-16.0461-16.3577-19.7538-1.727-3.9539-4.1462-6.7192-8.8923-8.5-5.2231 1.1615-13.7385 7.223-19.0154 16.8154-5.7308-.877-10.6616-1.4154-14.4462-1.7385l-1.15-.1c-1.3961-.1346-3.0192-.2423-4.8308-.3692-7.7038-.527-18.4346-1.3-31.4307-5.1039.7077-.4807 1.423-.9384 2.1538-1.3654 41.4731-20.1076 74.9808-19.3423 75.4231-19.3307m84.8423 60.8846c-22.3-40.6154-59.077-70.1154-103.5692-83.073-7.6654-2.227-15.5346-3.95-23.377-5.104h-.0038l-.0154-.0038c-85.1538-12.5423-167.55 40.4077-191.6423 123.1693-12.9538 44.4884-7.8077 91.3538 14.4885 131.973 22.3 40.6193 59.0807 70.1193 103.5654 83.0731 7.673 2.2346 15.5423 3.9539 23.3961 5.1077 17.4077 2.5654 34.6846 2.35 51.3885-.25.2077.1.4077.2192.6154.3154l.2-.4423c64.6577-10.3962 120.35-57.2154 139.4461-122.7923 12.9539-44.4846 7.8077-91.3539-14.4923-131.9731" fill="#002A5B"/><path d="M223.2512 119.9858c11.0153-4.4885 22.9846-9.0693 34.523-12.9346 14.5693-5.3154 27.5154-8.2462 37.5808-9.7962-.273-.0808-.527-.177-.7923-.25-7.1654-2.0846-14.3385-3.6462-21.5154-4.7-19.7346-2.9077-39.3615-1.9962-58.0423 2.227-1.077 3.473-2.5385 10.2422-.0962 16.396 1.4731 3.7155 4.327 6.7193 8.3424 9.0578M136.2788 229.622c5.6154-17.6616 13.1654-32.5847 21.2077-45.027 1.2193-2.4077 3.2577-6.177 5.6847-10.55-30.6885-3.277-58.5077 29.4423-69.3039 44.077-8.85 43.05.7 86.223 23.7692 120.6768 5.3616-8.6192 13.7654-21.8307 13.7654-21.8307-12.2307-4.3154-24.5192-15.277-24.5192-15.277 6.9038-4.373 13.65-9.373 20.1846-14.7576.3308-19.777 3.3692-38.9193 9.2115-57.3116M142.482 132.3542c.7692.0039 1.6307.0308 2.4422.0462 15.0962-.8962 36.577-.277 48.8539.2192 5.1884-2.3308 11.4923-5.1 18.4923-8.0654-3.05-2.8269-5.3654-6.1384-6.8692-9.9654-2.377-6.0653-2.2808-12.2346-1.5077-17.1153-22.777 6.9077-43.8039 18.823-61.4116 34.8807M334.585 385.0623c16.8-10.5115 31.7038-24.127 43.6962-40.3885-6.077-30.1076-25.0308-62.4923-50.4-92.373-4.1962 9.9269-6.3693 20.9692-6.6962 36.85-.4 18.9692 14.2192 31.2154 15.0115 65.9884 0 0-4.1846-3.0115-5.8577-3.6846 0 0 3.0962 15.0154 4.2462 33.6077M200.3338 164.7688c-4.3615 2.0808-9.1423 4.5116-13.7461 7.177 9.9577 6.5307 17.9538 16.5384 24.4577 28.4769 17.3461-13.427 33.5077-13.623 33.5077-13.623 1.4461-1.8385 2.85-3.6 4.2384-5.327-5.4346-3.6846-10.8961-7.1923-16.3423-10.4539-7.6384-2.7423-25.8654-5.3961-32.1154-6.25M282.9885 142.7996c-2.2423-.2461-4.4731-.4961-6.7923-.6923l-1.2693-.1077c-1.3192-.1346-2.8423-.2346-4.55-.3461-8.7807-.6039-22.7346-1.6808-39.5538-7.4808-3.4308 3.7846-6.2539 7.7961-8.377 11.1577 4.3077 4.4846 12.5347 13.0923 16.6154 17.6808 5.4385 3.2692 10.8808 6.773 16.3039 10.45 10.327-12.3539 19.1961-21.8308 27.623-30.6616" fill="#004F83"/><path d="M100.8108 193.9962c16.2038-16.8116 40.573-34.6962 67.6461-29.4039 2.1423-3.8 4.3039-7.6 6.277-11.0577-8.4577-5.5461-13.7347-9.5615-28.3-10.8692-5.9885-.1654-11 .027-14.5193.2692-13.2115 14.5385-23.8654 31.7423-31.1038 51.0616M403.0458 294.61c5.6269-19.323 7.3846-38.8462 5.8077-57.773-4.4116-20.3578-19.5847-59.154-70.9347-80.6 1.5847 15.2384-1.6884 29.9576-1.6884 29.9576s9.4961 5.5 11.8 15.977c0 0 1.2.5307 2.1961 2.0038 2.6616 3.2077 6.1539 10.7077.6616 25.6038 0 0-3.2231-6.8884-10.0654.5385-2.9577 4.1346-5.5462 8.0115-7.8077 11.8577 25.073 28.8461 44.5615 60.423 53.0077 90.9923 7.1885-11.777 12.9808-24.673 17.023-38.5577" fill="#004F83"/><path d="M310.5127 116.8777c4.7385 1.777 7.1615 4.5423 8.8961 8.4961 8.8462 3.7116 13.7577 11.2347 16.35 19.7577 21.4731 8.1308 43.9731 21.0923 60.5885 41.7423-15.177-35.1038-42.827-64.5538-79.127-81.3769l-.0076.1885c-.4385-.0154-33.95-.7808-75.4192 19.327-.7347.4268-1.45.8845-2.1539 1.3691 12.9923 3.8 23.7192 4.577 31.427 5.1039 1.8153.127 3.4346.2346 4.8307.3692l1.1539.1c3.7769.3154 8.7115.8577 14.4461 1.7385 5.277-9.5923 13.7923-15.6539 19.0154-16.8154M203.3012 207.2662c-6.8154-13.1424-15.3847-23.6539-26.3193-29.1654-2.423 1.7577-4.6192 3.5577-6.4692 5.3692-17.5192 24.6462-30.2539 56.4192-32.7039 94.1385 28.0385-25.5885 51.3577-56.1616 65.4924-70.3423" fill="#004F83"/><path d="M218.9392 130.463l-11.023 15.9885s8.3307 5.7885 15.1807 13.6193c-11.9884-2.45-25.15-4.6654-25.15-4.6654l-20.8654 11.3461 9.7808-16.2307s-6.5808-5.6193-14.1692-10.5154c8.3192.2423 24.1423 1.5538 24.1423 1.5538l22.1038-11.0961zM239.5542 201.1812s-2.3346 6.4576-2.6423 12.4576c0 0-14.6307 2.1577-21.673 6.95 0 0 14.6076-14.5576 24.3153-19.4076" fill="#7AC142"/><path d="M338.123 200.5335c1.627-.3962 2.8424-.4616 3.75-.3962-.273-.7461-.7768-1.8654-1.6845-2.9692-1.2923-1.5654-3.1731-2.7385-3.1731-2.7385 1.2115 1.8692 1.2461 4.45 1.1077 6.1039M324.9242 207.1927c1.8885-1.3 3.6116-2.377 5.177-3.2539-.2847-.6769-.727-1.6538-1.3885-2.8346-1.2539-2.2461-4.523-4.2038-4.523-4.2038 1.35 3.9961 1.0615 8.05.7345 10.2923" fill="#FEFEFE"/><path d="M167.9796 305.9496c-12.4384 5.0846-41.873-1.8461-41.873-1.8461 29.7346-1.7116 58.8192-23.0154 58.8192-23.0154-.0231.05-.05.1038-.0654.15-8.7192 13.373-20.7346 21.1077-20.7346 21.1077 1.323 1.6923 2.6577 2.8192 3.8538 3.6038" fill="#C4CDD3"/><path d="M316.2442 128.5346s-7.3115-5.7308-15.6077 3.1577c8.8885-16.2 14.0231-6.9115 15.6077-3.1577" fill="#7AC142"/><path d="M345.113 207.1027s-.7653-.5192-.9268-.6077c-4.6385-2.4692-12.9539 4.7385-18.3847 7.727-5.423 2.9884-13.3269 9.3538-17.1884.5845-3.8577-8.7692 5.0154-22.4846 8.0923-31.1153 6.7846-19.0808 7.0308-30.3154 5.6-36.3885 6.2692 7.0808 8.2423 20.6538 8.2423 20.6538s2.3308-25.4923-10.1346-32.2077c.2884.9039-.0385 4.0808-.2923 6.5847 0 0-.0231-.0347-.0385-.0539-5.8077 1.0616-18.6115-.3923-22.7692-2.5692-15.7423 16.8846-32.9039 40.3808-45.8231 61.9577-5.6038 11.4115-11.0885 24.7961-12.4615 35.6769 0 0-1.7847-4.9192-2.2077-11.4808-7.1462 2.7577-31.4462 14.7-36.6423 51.3154 0 0 15.4423-15.9346 32.5153-22.1423 0 0-10.8115 28.3154 9.827 78.5077 0 0 8.3538-30.777 25.8307-38.5423 10.5808 52.5538 41.6 53.4154 50.6462 89.173 0 0 9.4808-18.523-1.9308-50.0076 0 0 3.9346 1.1 7.2731 5.0307 0 0-.5192-9.2115-9.127-29.0769-5.6076-10.6346-7.3653-24.9884-7.3653-24.9884-5.0385 4.5653-6.3308 19.9846-6.3308 19.9846-15.4-41.7808 28.3116-83.1885 36.2923-89.2923 3.8923-2.9885 6.2923-3.0385 7.7462-2.3231 1.5-3.1115 1.3654-5.1-.4423-6.4" fill="#C4CDD3"/></g></g></svg>