<svg width="500" height="500" viewBox="0 0 500 500" xmlns="http://www.w3.org/2000/svg"><title>new-york-knicks</title><g fill="none" fill-rule="evenodd"><path d="M247.2329 441.5343l-31.343-40.6977c-39.8828-13.15-67.64-49.1749-70.207-91.0908l-19.447-25.2414c-18.4882 7.9678-37.0063 20.5885-37.0063 20.5885l-58.321-58.5106 24.581-53.8676-43.9481-57.0628h69.9273l13.534-29.475 34.629-13.9686 3.8355-10.434 28.0669 12.8104 6.672-23.3144 4.5747-1.5177c22.2037-7.3987 47.7735-11.3726 73.9626-11.5224.749-.0499 9.0692.0999 9.269.0999.9788 0 5.064.2197 5.064.2197 22.1438 1.0683 42.9592 4.7527 61.8569 10.9632l4.6445 1.5277 6.1328 22.226 10.108-7.6284 56.713 20.1592 13.6938 29.8644h70.277l-44.4276 57.2924 24.2114 53.0889-59.23 60.9668s-21.7143-15.8358-36.6067-21.7368l-17.8489 23.0148c-2.0376 42.9144-31.243 80.5569-72.3045 93.1876l-31.0633 40.0587z" fill="#FEFEFE" fill-rule="nonzero"/><path fill="#B3B1B1" fill-rule="nonzero" d="M247.2858 413.3335l202.0512-260.422-402.764-.01z"/><path d="M449.337 152.9065l-202.0512 260.422-200.7127-260.432 402.7639.01zM29.9727 144.729l217.2931 281.949 218.7415-281.939-436.0346-.01z" fill="#0F4B90" fill-rule="nonzero"/><path d="M420.1665 171.0228l-.07-.1697-.1598-.0999-12.9247-8.6867 4.8143-9.196.1399-.2795-.1299-.2896-17.789-38.9904-.1198-.2396-.2497-.0898-47.9633-17.074-.3396-.1198-.2797.2097-12.715 9.7052-.1398.1098-.07.1598-2.1773 5.3318s-19.8865-4.9924-49.092-7.9079c-2.9765-.2995-10.9271-.9485-23.6121-1.947l-1.2286-.0999-1.2784-.0898-.2997-.03-.2097.2097-9.4788 9.4456.01-9.6952s-26.8883 1.5177-44.4975 3.914c-17.6091 2.3863-34.9187 6.7497-34.9187 6.7497l-3.1862-6.8196-.0999-.2097-.2197-.1098L139.2485 94.36l-.6392-.2796-.2397.649-2.627 7.169-.5992-1.4377-.2497-.5891-.5893.2396-32.3918 12.9802-.2397.0998-.1098.2397-59.7494 131.2194 49.052 49.115 2.2873-1.308c1.4782-.8388 3.5758-2.067 5.933-3.4648 5.933-3.4946 14.0634-8.2773 17.9488-10.1545l.789-.3794c5.0241-2.4263 7.5511-3.6544 31.393-13.8488l1.9876-.7489c.03 0 2.6868-1.0384 7.591-2.6659 13.0945-4.3434 47.1143-14.4679 80.0854-14.4679h.3695c1.3185 0 2.627.02 3.9453.06 22.3936.619 48.5626 5.3717 66.5714 9.2458 17.3395 3.7343 30.374 7.3288 34.0797 8.3672l2.497.7688c16.4006 6.3403 36.447 16.7944 55.025 28.6862l2.3572 1.5177 49.6513-51.1219-33.2107-73.228z" fill="#0F4B90" fill-rule="nonzero"/><path d="M414.8298 175.5709l-47.7236-31.8413-8.3002-23.2944 14.7825 5.252 5.973 14.5577 22.4634 7.199-13.1045-28.9558-42.3999-15.057-7.7808 6.0208 14.0934 45.79 45.3763 32.061 11.6363 28.9758-18.8677-8.507-6.4824-18.0325-23.1526-6.8196 12.3754 40.7577c3.8155 1.4079 7.611 2.8557 11.3665 4.3734 10.2979 4.1736 20.396 8.7865 30.2543 13.8388 6.8319 3.4847 13.554 7.199 20.1562 11.103l9.8683-10.1245-30.534-67.2971zM92.9842 197.1599l15.9012-14.1983 3.7955 4.4232-15.7014 45.141a371.045 371.045 0 0 1 26.199-10.3841l11.3766-37.2231-9.8184-16.2152 20.336-19.3205 11.8859-39.5895-14.6028-6.56-13.1244 37.323-21.0352 18.1023 19.1773-48.376L106.758 118.5 49.9551 243.0697l8.8894 8.9064c5.2738-3.0653 10.6175-6.0208 16.0311-8.8365l18.1086-45.9797zM236.923 108.3307l-17.4193.9186-8.1904 93.4371c7.4013-.6989 14.8625-1.1782 22.3736-1.4378l3.2362-92.918zM288.607 183.293l-20.2261-1.208-3.2462-57.2226 17.1398.8287-2.0077-15.7659-23.0427-1.6375-10.3178 10.2843-.02 71.5706 10.8172 11.073c11.1668.3396 22.2237 1.1783 33.1408 2.4963l-2.2373-20.4188zM173.9984 145.2123l7.3014 35.5257-4.7244 26.9188c7.0716-1.3579 14.1932-2.5261 21.3847-3.4747l.05-.01 11.2567-93.6967-16.171 2.3564-5.3137 30.673-6.0128-28.8758-19.0176 4.7628-26.4587 98.3796a363.9818 363.9818 0 0 1 23.1626-6.4102l14.5428-66.149zM314.5723 178.123l5.6933-7.6883 8.3101 6.8496 7.651 34.8367c8.0305 2.017 15.9711 4.2934 23.8019 6.8296l-14.2732-51.102-14.7226-12.0315 8.3801-11.173-6.9617-25.9403-17.769-3.954 6.9917 26.1201-11.067 14.7874-8.1703-42.9543-16.4505-2.0868s8.2502 63.0037 12.1456 94.0362c7.4512 1.0584 14.8325 2.3464 22.1438 3.8342l-5.7032-30.3636z" fill="#F26729" fill-rule="nonzero"/><path d="M213.8693 220.4323s6.852-4.0139 20.5657-5.5315l-.4395-10.7935c-7.521.2496-14.9923.7189-22.4035 1.4178.6492 4.2235 1.618 10.514 2.2773 14.9072M257.4458 214.2468c5.5734.649 11.5364 2.4762 16.7802 3.954 4.7344 1.1382 9.8383 3.175 14.0134 5.0322l2.3073-16.6246c-11.027-1.3579-21.4447-2.1766-32.7213-2.5261-.1599 3.225-.1698 7.7781-.3796 10.1645M185.297 240.5885c6.3825-4.7428 10.218-9.6253 16.94-13.719-1.2784-6.0308-2.9764-13.8489-4.215-19.8197-7.3113.9685-14.5528 2.1766-21.7243 3.5645 2.7468 8.9463 6.2526 20.938 8.9994 29.9742M293.8058 226.579c6.2227 3.6044 11.077 7.6782 16.6404 13.08l1.0987.8386 8.7696-29.0056c-7.551-1.5676-14.8924-2.9256-22.6033-4.0139l-3.9054 19.1008zM321.4771 251.7814l20.9053 4.9225 17.5892-34.7669c-8.1104-2.646-15.9311-4.8226-24.2513-6.9094l-14.2432 36.7538zM153.2989 256.6999c5.4536-2.007 13.0746-4.7627 20.1861-6.6598l-13.574-35.8752c-8.2002 1.987-15.3518 4.0738-23.3423 6.5999 5.054 12.0216 10.7173 24.4027 16.7302 35.935M121.7672 269.6131c1.2085-1.0384 13.0745-6.1606 21.195-9.5953-6.1728-11.163-13.594-23.4841-19.7867-34.8467-8.8495 3.1551-16.91 6.4301-25.4699 10.2343l24.0616 34.2077zM92.1632 285.3101c3.7755-2.2665 7.7808-4.593 12.1856-7.139l-27.7373-32.71c-5.2737 2.7358-10.4776 5.6014-15.6115 8.5768l31.1632 31.2722zM353.4513 261.0023c16.6504 6.4601 39.9328 19.5102 49.1919 25.7207 4.275-4.0838 27.4376-28.3966 30.6238-31.7315-19.2572-11.2928-39.4933-20.898-60.5484-28.6362l-19.2673 34.647zM254.2436 213.7026l-7.9506-.2796-.1398-19.3105 8.2702 8.577z" fill="#B3B1B1" fill-rule="nonzero"/><path d="M248.1068 209.8794c-51.6789 0-93.5594 41.876-93.5694 93.537.01 51.6511 41.8905 93.5271 93.5694 93.5271 51.669 0 93.5694-41.876 93.5694-93.527 0-51.661-41.9004-93.537-93.5694-93.537" fill="#0F4B90" fill-rule="nonzero"/><path d="M253.86 216.8807c-7.1815 2.5062-14.0933 6.1506-20.9452 9.3258-4.6745-2.7957-7.3513-3.5047-10.5076-5.5415 9.8384-3.5746 20.4259-4.1138 31.4528-3.7843M320.8878 256.59c-22.044-22.206-55.1148-20.5985-83.1717-28.4565 0 0 16.5105-7.858 25.0304-10.0346 22.923 3.904 45.1167 17.623 58.1413 38.4911M196.9583 259.928c-21.175 32.4803-24.0416 72.4991-7.1815 107.5655-21.7943-18.302-34.7789-53.7378-25.0005-88.1452 8.0106-11.193 18.3184-21.0878 32.182-19.4204" fill="#F26729" fill-rule="nonzero"/><path d="M219.6305 283.0566c11.4165 33.9281 13.9435 71.4807 43.4986 105.6485-23.0428 4.6729-45.8758-2.2266-64.0743-13.759-22.5533-32.8897-20.4258-81.9547 2.1175-113.846 10.987 3.1652 16.97 17.5233 18.4582 21.9565" fill="#F26729" fill-rule="nonzero"/><path d="M203.7892 257.5176c3.426-4.8326 7.2914-9.3956 11.6363-13.6491 47.9333 13.5293 93.6393 63.2134 101.47 112.0387-2.2873 3.6844-7.7608 8.8265-11.4364 12.501-11.916 10.7036-25.0404 16.245-37.6356 19.2505-22.3835-23.2145-29.7548-53.3485-37.6654-83.053-6.0629-22.7952-10.2779-39.989-26.3489-46.9683l-.02-.1198z" fill="#F26729" fill-rule="nonzero"/><path d="M315.7829 257.303c-23.1527-20.4188-55.4046-17.8028-82.4626-27.3183-5.2238 3.2051-10.3378 6.9893-14.7026 10.9033 47.9333 15.027 91.432 61.8755 101.7897 110.2915 7.5111-10.8535 12.0557-23.4542 13.8836-36.8238 1.1686-20.5286.9688-39.21-18.5081-57.0528M211.4751 242.3708c-4.6245 4.4432-8.0904 8.8165-11.6961 13.9187l-.1099-.03c-12.685-2.8356-22.6932 3.7244-30.7337 11.9019 3.8355-9.6852 11.876-21.1777 20.386-28.6862 7.8506.3395 13.5639.2197 22.1537 2.8956M214.8741 239.4003c4.5347-4.0338 8.9295-7.5584 14.383-10.8334l-12.2954-6.0907c-8.1804 3.3449-16.94 7.6982-22.953 13.1998 9.2991 1.0883 13.2744 1.6575 20.8654 3.7243" fill="#F26729" fill-rule="nonzero"/><path d="M234.8535 95.2197l-3.7855 3.7642-6.4824.3895-2.4171-2.0968-3.0464 2.586-7.0616.659-3.1064-2.9555 4.0752-27.6377 5.3437-.729-2.8866 24.4028 3.8355-.4194 2.9764-24.4526 5.2838-.5192-2.2074 24.2829 3.7556-.3495 1.9277-24.163c2.2473-.2397 3.406-.2197 5.3736-.3296l-1.578 27.5679zM252.191 67.2764l.05 17.3934 3.406-.02-.2098-17.2935s3.5857.1098 5.1938.2496l.6892 19.5002-3.286 3.285-1.0788.05.1598 8.3471-5.8031-.1697-.07-8.3572-1.1586-.0899-3.5158-3.5845.2197-19.4003c1.8778 0 5.4036.0898 5.4036.0898M209.1399 70.4995l-.909 5.7113-6.4623 1.218-1.1686 6.6799c2.3672-.4294 3.8155-.659 6.6322-1.0384-.3896 2.4862-.5094 3.3449-.939 5.6913l-6.4923.9286-1.2185 6.3902 6.6521-.9586s-.6592 4.3035-.9988 6.2205c-4.6545.5792-9.339 1.2481-13.8037 2.027 0 0 5.0041-23.1846 6.2426-30.3337l12.4653-2.5361zM184.7767 104.3917l-6.742 1.328 3.0963-12.6407-2.0975-4.5331-5.2938 18.1922-6.5822 1.4977c2.7368-9.845 5.5435-19.6999 8.2802-29.5448 2.2674-.7589 3.9554-1.278 5.953-1.8672.7291 1.6575 2.507 5.0024 2.507 5.0024l1.5981-6.1706s4.1751-1.0983 6.2726-1.5776l-6.9917 30.3137zM270.6672 73.9712l1.688 18.8711 3.346.2696-1.7779-18.7813-3.2561-.3594zm8.8795-1.338c.6692 7.918 1.9776 15.4963 2.7767 22.885l-2.9465 4.4932-9.5288-.629-3.4359-3.7443c-.6093-8.0777-1.0288-16.2252-1.5282-24.3328.879-1.1583 2.2174-2.0569 3.2662-3.1852l7.9406.7688 3.4559 3.7443zM310.3333 75.4629c1.1886 4.533 3.5059 13.8788 3.5059 13.8788l2.2573.4593 1.0987-1.5077-2.8267-11.6123s2.7967.7788 5.7932 1.6875l2.9964 11.2428-1.4083 2.0269 2.617 2.8756 3.9552 13.699-6.5123-1.4577-2.557-9.6053-4.0552-.9087 2.2174 9.5654-6.6022-1.298c-2.3072-10.3042-6.4823-30.5932-6.4823-30.5932s3.356.6989 6.0029 1.5476M290.8623 76.9636l1.1287 7.868 3.5857.3994-1.5182-7.6883-3.1962-.579zm9.1592-.3994l2.1774 11.3027-1.2585 1.7374 2.2174 2.646 1.9177 11.2228-6.3425-1.1083-1.728-9.3457-3.8154-.4194 1.3484 9.116-6.3326-.7987-4.205-31.0026 12.1057 2.1367 3.9154 4.5131z" fill="#0F4B90" fill-rule="nonzero"/><path d="M0 0h500v500H0z"/></g></svg>