<svg width="500" height="500" viewBox="0 0 500 500" xmlns="http://www.w3.org/2000/svg" xmlns:xlink="http://www.w3.org/1999/xlink"><title>oklahoma-city-thunder</title><defs><path id="a" d="M499.962 293.5432H0V.3055h499.962z"/></defs><g fill="none" fill-rule="evenodd"><g transform="translate(0 100.7346)"><mask id="b" fill="#fff"><use xlink:href="#a"/></mask><path d="M268.5557 69.9454v.0104l-.0104.0104.0104-.0208zm15.5652 74.1807v-.0104h.0104c-.0104 0-.0104.0104-.0104.0104zM499.848 89.8128c-.0207-.0935.0104-.187-.0104-.2806-.0621-.239-.2072-.426-.2901-.6546-.1244-.3221-.228-.6442-.4042-.9352-.1658-.2597-.373-.4676-.5803-.6962-.228-.239-.4249-.4883-.6943-.6962-.2798-.1974-.5804-.3325-.8912-.478-.2591-.1246-.5078-.2701-.7876-.3532-.3524-.0935-.715-.104-1.0882-.1247-.2487-.0208-.4767-.1143-.7357-.0935-30.1046 2.421-61.059 7.0554-92.148 13.5913a419.5081 419.5081 0 0 0 5.1815-14.7759c29.4413-5.3305 59.0692-10.1311 88.1168-14.2563.228-.0312.4041-.1559.6218-.2182.3108-.0832.6114-.1663.8912-.3014.3005-.1558.5596-.3429.829-.5403.2487-.187.4767-.3637.684-.5819.228-.2494.4041-.5195.5803-.8105.1554-.2598.3213-.5091.4352-.8.1244-.3118.1762-.6443.2384-.9872.0414-.2286.1554-.426.1658-.665 0-.0936-.0414-.187-.0414-.2806 0-.0935.0414-.187.031-.291-.0103-.2597-.1347-.4883-.1865-.7377-.0622-.3117-.114-.6234-.228-.9144-.1347-.3117-.3316-.5819-.5181-.8624-.1658-.2598-.311-.5092-.5285-.7274-.228-.2494-.5182-.426-.798-.6235-.2487-.1766-.4663-.3636-.7461-.4883-.3316-.1559-.684-.2182-1.0363-.291-.2487-.0623-.4664-.187-.7254-.2078-25.8247-2.0158-52.7064-2.5042-79.9819-1.6002.7358-2.764 1.4612-5.5591 2.166-8.3958.5802-2.338-.5182-4.7695-2.653-5.871C354.7968 12.9202 307.075.3056 250.0162.3056c-57.0691 0-104.7909 12.6146-164.741 43.5587-2.1347 1.1014-3.2332 3.5329-2.6632 5.8709l3.627 14.6511c5.451 21.9768 13.047 42.9768 22.4256 62.782-37.825 16.2305-73.5982 34.9342-106.2625 55.7575-2.228 1.4236-3.0363 4.3019-1.8757 6.6814.9016 1.8184 2.7359 2.899 4.653 2.899.5907 0 1.1918-.1039 1.7721-.3117 31.172-11.3572 63.6393-22.247 96.5005-32.5859-6.021 12.76-11.9486 25.5825-17.6482 38.4568l-.9223 2.0574c-3.1504 6.9411-7.4718 16.4592-4.4043 24.4498 1.4508 3.7823 4.2903 6.6086 9.2023 8.6764.601.1559 1.1918.291 1.7928.3949-22.9644 16.0851-44.592 33.095-64.5823 50.8115-1.9794 1.756-2.3213 4.7279-.798 6.8892 1.0052 1.4236 2.6011 2.2029 4.2385 2.2029a5.1094 5.1094 0 0 0 2.5078-.6547c45.3797-25.1875 93.3398-49.6685 142.5745-72.7883 20.7986 20.2 44.903 38.571 71.9401 54.812 1.6374.9768 3.679.9768 5.3266 0 63.7326-38.3112 106.9983-83.917 135.6727-143.1243 36.198-13.0926 72.5101-25.2396 107.9517-36.1396.228-.0728.3938-.2286.6114-.3221.2798-.1247.5389-.2494.7876-.4157.2901-.2078.5285-.4468.7772-.6962.1969-.2182.3938-.4156.5596-.665.1969-.291.3213-.5923.456-.9144.114-.2701.2383-.5403.3005-.8416.0725-.343.0725-.6858.0829-1.0391 0-.2286.083-.4468.0518-.6754-.0103-.0936-.0725-.1767-.0829-.2702z" fill="#FEFEFE" fill-rule="nonzero" mask="url(#b)"/></g><path d="M494.7836 191.4213c-36.0737 11.0871-72.8106 23.39-110.0346 36.8877 3.3162-6.9515 6.425-14.1212 9.3682-21.5091M394.1193 206.7999c34.4052-7.6685 68.1265-12.7705 100.6664-15.3786M30.3253 389.0824c28.7781-25.5097 61.2248-49.7829 96.7803-72.1233 6.6841-3.3978 13.3787-6.7645 20.1043-10.1 2.7669-1.3716 8.1867-4.0109 15.0056-7.2944 4.5805 5.1643 9.3267 10.1727 14.2388 15.0564-51.0586 23.8783-99.9099 48.8061-146.129 74.4613" fill="#0070B9" fill-rule="nonzero"/><path d="M494.7836 165.6477c-29.8973 4.2499-60.3542 9.1856-91.2671 14.8278 1.7099-5.2993 3.3161-10.713 4.8706-16.2202" fill="#EF5133" fill-rule="nonzero"/><path d="M408.3881 164.2522c29.7419-1.2573 58.6444-.769 86.3965 1.3924" fill="#ED2A37" fill-rule="nonzero"/><path d="M5.1815 288.0453c33.4-21.291 70.396-40.6804 110.3455-57.524 1.3265 2.6808 2.7047 5.3513 4.0934 7.9802-2.1348 4.4057-4.28 8.801-6.394 13.2276-37.141 11.4924-73.194 23.6185-108.0449 36.3162" fill="#EF5133" fill-rule="nonzero"/><path d="M250.008 116.5797c56.3023 0 100.4591 13.2069 150.3052 38.1243-24.3842 92.1674-69.0177 154.0764-150.2949 204.3788-30.5398-18.9426-56.4992-40.057-78.189-64.1223 9.648-4.5928 20.5291-9.7675 30.0839-14.2979 3.8654.3533 7.5753.5403 11.0262.6338-.2176 5.3098-1.886 9.2064-4.5597 12.0015 1.5544 1.7769 3.14 3.5641 4.7255 5.3098 4.2178-3.7823 6.9225-9.3518 7.1401-17.2905 9.8864-.1558 19.4307-1.1741 28.2911-3.0549-.4974 14.5161-2.5182 25.2083-6.6427 29.4478-.145.1351-.2176.239-.2902.3845-1.0259 1.0807-1.9482 1.995-2.7462 2.6912 3.9898-.7273 7.8967-1.6521 11.762-2.7432 4.9743-10.3181 5.0365-28.388 5.109-31.526 9.2335-2.3275 17.441-4.6655 24.8298-7.2009.2902 8.4894 3.6686 16.5943 10.135 19.5869 2.912-2.0574 5.7308-4.2499 8.4563-6.5151-1.6374.2494-11.8553.956-11.7102-15.5344 21.6276-8.1777 35.711-18.0283 48.1051-32.7522 3.2748-7.4087 5.9173-15.181 7.7827-23.234-14.8191 23.4522-28.4776 37.137-55.1417 47.8709.7565-4.7279 2.1244-10.3805 4.3318-17.1554 7.7722-3.2628 15.8865-7.1594 20.7778-9.1752l11.6584-12.282c2.9328-11.347 5.8448-22.7042 8.7568-34.051l-9.1195 2.847 10.7154-11.2949c2.2591-8.8842 4.4665-17.7892 6.6738-26.6734-5.368.7897-10.7465 1.5898-16.1249 2.4314.9016-4.4473 1.5441-8.8426 1.886-13.238-2.5907-.6546-5.1814-1.2885-7.793-1.8703-.5491 4.9356-1.513 10.4116-2.974 16.5111l-.7359.1143c-5.0364.852-10.1972 2.5146-14.6844 6.3073l1.4405-4.3746c-8.6428 1.569-17.2544 3.1589-25.8661 4.8318l-8.5806 9.04.2798-.7273 2.7773-7.2424c-8.5184 1.756-17.0161 3.5537-25.5241 5.4136-1.7721-11.5235-3.5546-21.9352-5.0986-30.3622-2.4146.2805-4.8292.6234-7.223.9663 1.5544 8.5206 3.368 19.192 5.1814 30.9753l-6.0312 1.3613-7.6583 8.0945c-5.368-5.6942-16.2596-2.099-23.1303-.3637-7.4406 1.8807-14.871 3.8342-22.3012 5.8397-2.2177.613-4.425 1.2885-6.5909 2.0366-5.565-8.0426-10.7983-16.3449-15.1196-25.281l-.7773-1.6522a235.6806 235.6806 0 0 0-6.7048 2.847l.9533 1.9743c4.2074 8.7388 9.275 16.906 14.7363 24.8343-8.0106 3.5745-15.4098 8.531-21.8246 15.6176 0 0-10.4148 10.9312-11.6376 12.2716-2.7048 3.1173-5.0365 6.432-7.0987 9.809-10.933-22.0703-19.6068-46.0836-26.1148-72.4038 49.8565-24.9174 94.034-38.145 150.3674-38.1347zm5.5027 139.5188c5.1815-2.286 10.363-4.5512 15.5238-6.8268l2.425-2.525c1.0155.1662 2.1866.1974 3.5027.0727 2.0208-.3429 4.4872-1.039 7.1608-1.9743-1.741 6.3697-2.798 11.8768-3.2747 16.667-7.3681 2.6082-15.6378 5.0708-25.037 7.4503-.0104-4.1148-.114-8.4166-.3006-12.864zm-35.856 16.1994l4.8602-2.2652 12.477-10.0584 2.7774-7.6893c1.8031 3.6576 2.7773 5.0916 4.57 8.7803l4.1038-1.808c.1451 3.959.2073 7.814.2073 11.4924-9.0055 2.0678-18.7364 3.1796-28.7781 3.3355l-.2176-1.7873z" fill="#FEFEFE" fill-rule="nonzero"/><path d="M280.3384 135.4434c11.8968 0 23.6381.6234 35.2136 1.8704 8.8086 1.8495 17.5342 4.094 26.1874 6.7125 3.2954 11.5859 5.0778 23.8263 5.0778 36.4617 0 10.4636-1.202 20.6156-3.4923 30.3726-14.8191 23.4523-28.4776 37.1475-55.1416 47.8813.7565-4.7278 2.1347-10.3909 4.3317-17.1554 7.7723-3.2731 15.8865-7.1593 20.7675-9.1855l11.6688-12.282c2.9327-11.347 5.8447-22.7042 8.7567-34.051l-9.1194 2.847 10.7257-11.2949c2.2488-8.8842 4.4665-17.7788 6.6634-26.663-5.368.7792-10.7464 1.5793-16.1249 2.421.9016-4.437 1.5441-8.8427 1.8861-13.238a283.188 283.188 0 0 0-7.793-1.86c-.5389 4.9253-1.513 10.4117-2.9742 16.5112l-.7357.1143c-5.0468.852-10.1973 2.5146-14.6844 6.2969l1.4404-4.3746c-8.6427 1.569-17.2544 3.1692-25.866 4.8318l-8.5807 9.04.2902-.7273 2.767-7.232c-8.5081 1.7456-17.0162 3.5536-25.5242 5.4136-1.772-11.5235-3.5442-21.9352-5.0986-30.3623 12.902-1.569 26.0215-2.3483 39.3587-2.3483zm55.2039 98.6513c-8.3008 18.8075-20.84 35.298-36.3846 48.2866-1.6477.2493-11.876.956-11.7206-15.5345 21.638-8.1776 35.711-18.0282 48.1052-32.7521zm-44.8512 54.8017c-12.0522 8.5101-25.5448 15.046-40.0634 19.14 4.9638-10.3182 5.026-28.388 5.109-31.5156 9.223-2.3276 17.4305-4.676 24.8194-7.201.2901 8.479 3.6685 16.584 10.135 19.5766zM238.8656 310.79c-4.0726.7585-8.1971 1.3196-12.3734 1.6937a318.4677 318.4677 0 0 1-13.389-13.8822c4.2073-3.7823 6.9224-9.3519 7.14-17.2801 9.8864-.1663 19.4307-1.1742 28.2911-3.0653-.4974 14.516-2.5182 25.2083-6.6323 29.4478-.1555.135-.228.2494-.2902.3845-1.0466 1.091-1.9586 1.995-2.7462 2.7016zm-30.4776-17.4983c-3.2022-3.6784-6.3215-7.4399-9.3578-11.2637l2.8809-1.3716c3.8654.3636 7.5754.5507 11.0262.6338-.2072 5.3098-1.886 9.2167-4.5493 12.0015zm-57.2454-94.5988c-4.0312-10.2559-7.596-20.761-10.6428-31.4949 3.3473-1.5898 6.736-3.1173 10.135-4.5928l.943 1.9847c4.2075 8.7388 9.275 16.8956 14.7363 24.8239-5.368 2.3899-10.4667 5.4136-15.1715 9.279zm6.1868-38.9348c24.8298-10.1935 50.2192-17.2177 76.4376-21 1.5441 8.5205 3.3576 19.1816 5.1712 30.9753l-6.0313 1.3508-7.6583 8.105c-5.3784-5.6943-16.27-2.099-23.1303-.3741-7.4406 1.9015-14.8813 3.8342-22.3012 5.8396-2.2177.6131-4.425 1.2885-6.5909 2.0367-5.565-8.0426-10.7982-16.345-15.1196-25.2811l-.7772-1.6522zm98.1896 96.3342c5.1712-2.286 10.3527-4.5513 15.5134-6.8165l2.425-2.525c1.0156.1559 2.1866.2078 3.5027.0624 2.0104-.343 4.4768-1.0391 7.1712-1.964-1.7513 6.3593-2.798 11.8665-3.285 16.6567-7.3682 2.6185-15.6379 5.0708-25.0371 7.4607-.0104-4.1252-.114-8.4166-.2902-12.8743zm-35.8664 16.1994l4.8602-2.2548L236.99 259.968l2.7773-7.6893c1.8032 3.668 2.7877 5.0915 4.5701 8.7907l4.1038-1.8184c.145 3.9693.2072 7.8243.2072 11.5131-9.0054 2.047-18.7363 3.1589-28.7781 3.3147l-.2176-1.7872z" fill="#EF5133" fill-rule="nonzero"/><path d="M252.4412 343.749c-23.9282-16.2515-45.2553-35.3811-63.6912-56.8487l10.2802-4.8734c3.0363 3.8239 6.1556 7.575 9.3578 11.2638a375.9824 375.9824 0 0 0 4.7151 5.3201c13.6585 15.0357 28.7782 28.8036 45.2554 41.1688a391.6803 391.6803 0 0 1-5.9173 3.9693zM139.7018 210.0802c-6.995-15.3474-12.8812-31.3078-17.5756-47.819 41.7215-19.7427 84.925-30.3934 130.7813-31.63 21.4411.1871 42.2812 2.4315 62.6549 6.6814-11.5859-1.2365-23.3272-1.8703-35.224-1.8703-13.3475 0-26.4568.7897-39.3587 2.3483-2.4146.2806-4.8188.613-7.2127.9664-26.2288 3.7822-51.6078 10.8065-76.4376 21-2.2488.9248-4.4769 1.8703-6.705 2.8575-3.3886 1.4651-6.7773 2.9926-10.1246 4.5824 3.0467 10.7338 6.6012 21.239 10.6428 31.4948-2.311 1.8912-4.539 4.011-6.6427 6.3385l-4.798 5.05z" fill="#FCB424" fill-rule="nonzero"/><path d="M87.6453 149.2186c53.9291-27.8372 101.2364-42.9872 162.3678-42.9872 61.1004 0 108.418 15.15 162.3264 42.9872-25.0474 101.1867-72.8727 168.1977-162.3264 221.9706-33.7627-20.283-63.2662-44.047-87.7955-71.6245-6.8189 3.2835-12.2387 5.9124-15.016 7.284-8.4459 4.2187-16.8918 8.4582-25.2962 12.7497-9.4821 4.8525-20.011 12.1885-30.9336 9.3518-11.9382-5.1955-4.0727-19.7739-.4249-28.0555 9.2853-20.9792 18.9747-41.7818 29.0787-62.3974-12.1351-22.8392-21.6795-47.6735-28.3636-74.6275l-3.6167-14.6512zm162.3678-32.6378c-56.3437-.0104-100.511 13.2172-150.3778 38.1346 6.5183 26.2994 15.1818 50.3544 26.1252 72.4039 2.0519-3.377 4.3835-6.6918 7.0986-9.8194 1.2125-1.33 11.6377-12.2613 11.6377-12.2613 6.4044-7.097 13.814-12.0535 21.8142-15.6175-5.4613-7.9283-10.5185-16.0956-14.7362-24.8343l-.943-1.9743c2.228-.9871 4.456-1.9327 6.7048-2.8575l.7772 1.6626c4.3214 8.9257 9.5444 17.228 15.1197 25.281 2.1659-.7481 4.3628-1.4235 6.5909-2.0366 7.4199-2.0158 14.8502-3.959 22.3012-5.85 6.8603-1.725 17.7519-5.3202 23.1199.374l7.6686-8.0945 6.021-1.3612c-1.8032-11.7833-3.6271-22.4548-5.1712-30.9753 2.3939-.343 4.8084-.6858 7.2127-.9664 1.5544 8.427 3.3265 18.8387 5.0986 30.3623 8.508-1.86 17.016-3.6576 25.5345-5.4137l-2.7773 7.232-.2902.7274 8.5806-9.04c8.6117-1.6626 17.2337-3.2628 25.8661-4.8318l-1.4405 4.385c4.4872-3.7927 9.648-5.4553 14.6844-6.3073l.7462-.1143c1.4508-6.0995 2.425-11.5755 2.9638-16.5112 2.6115.5819 5.2126 1.2157 7.8034 1.86-.3524 4.3953-.9949 8.801-1.8965 13.238 5.3784-.8313 10.7672-1.6314 16.1249-2.421-2.197 8.8841-4.4146 17.7788-6.6634 26.6734l-10.7258 11.2845 9.1195-2.8471c-2.9016 11.3573-5.824 22.7041-8.7464 34.0614l-11.6687 12.2717c-4.881 2.0262-13.0056 5.9228-20.778 9.1855-2.1969 6.7645-3.5752 12.4276-4.3317 17.1554 26.6641-10.7338 40.3226-24.429 55.1417-47.8813-1.8653 8.0633-4.508 15.8357-7.7826 23.2445-12.3942 14.7239-26.4672 24.5745-48.0948 32.7521-.1555 16.4904 10.0728 15.7734 11.7102 15.524-2.7255 2.2756-5.5546 4.4681-8.4666 6.5151-6.4665-2.9822-9.8449-11.087-10.135-19.5764-7.3889 2.5353-15.586 4.8733-24.8195 7.2009-.0829 3.1276-.145 21.2078-5.109 31.526a131.5016 131.5016 0 0 1-11.762 2.7432c.7876-.6962 1.71-1.6106 2.7462-2.7016.0622-.1351.1347-.239.2902-.3741 4.1141-4.2395 6.1349-14.9318 6.6323-29.4479-8.8604 1.8808-18.4047 2.8887-28.2807 3.055-.2176 7.9282-2.9327 13.5081-7.1401 17.28-1.5959-1.7248-3.171-3.5225-4.7255-5.3097 2.6736-2.7848 4.342-6.6814 4.5493-12.0015-3.4509-.0831-7.1505-.2702-11.0262-.6339-9.5547 4.5305-20.4255 9.726-30.0839 14.3083 21.6898 24.0654 47.6596 45.1797 78.189 64.112 81.2772-50.292 125.9108-112.2115 150.3053-204.3685-49.8565-24.9174-94.003-38.1242-150.3053-38.1242zm5.5028 139.5083c.1865 4.4577.2798 8.7596.2902 12.8744 9.4096-2.39 17.669-4.8422 25.037-7.4607.487-4.7902 1.5338-10.2974 3.2851-16.6566-2.684.9455-5.1504 1.6313-7.1608 1.9639-1.3162.135-2.4872.0935-3.5131-.0728l-2.4146 2.5354c-5.1711 2.2652-10.3527 4.5304-15.5238 6.8164zm-35.8664 16.2099l.2176 1.7872c10.0418-.1455 19.7726-1.2677 28.7885-3.3355 0-3.6784-.0622-7.5334-.2177-11.5027l-4.1037 1.8184c-1.7824-3.6888-2.767-5.1227-4.5597-8.7803l-2.7877 7.6892-12.477 10.0688-4.8603 2.2549z" fill="#081E3F" fill-rule="nonzero"/><path d="M180.7612 188.9046c-12.6844 3.4602-24.0008 8.8946-33.058 18.9427-5.2023 5.9747-8.9123 12.8223-12.3735 19.8258-10.135 20.6675-19.8556 41.5117-29.1616 62.5429-2.425 5.4864-9.8863 18.8283-1.9482 22.2781 8.7878 2.286 19.7726-5.1123 27.5242-9.0713 8.4251-4.2914 16.8606-8.5517 25.3272-12.76 14.415-7.1697 27.3377-15.867 36.1048-29.8427 3.4923-5.902 6.0934-12.23 8.6531-18.5478 5.5028-13.5809 11.1092-27.1618 16.8192-40.6908 2.1451-5.0707 5.8862-11.4611 4.6945-16.9995-2.4043-7.4295-14.9228-2.8887-20.3738-1.5275-7.3992 1.8912-14.8087 3.8343-22.208 5.8501m-16.0315 77.5993c-6.7049 3.003-13.3787 6.0164-20.0628 9.1025 9.6894-22.5275 19.7415-44.8991 30.2393-67.0941 5.8654-1.8704 11.7516-3.6888 17.669-5.5072-9.6066 21.0312-18.8711 42.2079-27.8455 63.4988m114.7187-100.875c-9.2853 12.1678-18.4566 24.4291-27.5139 36.7735 4.2281-11.2949 8.5184-22.5794 12.8398-33.8224-9.6272 1.9743-19.2234 4.0836-28.8092 6.2657-2.4767 5.819-4.9639 11.6275-7.4095 17.4568 2.0726-.582 4.1555-1.1534 6.2178-1.725-7.5547 18.3088-14.902 36.68-22.1147 55.0823a12539.6916 12539.6916 0 0 0-8.8293 22.4651c9.6272-4.5512 19.2545-9.0712 28.9128-13.5185 4.3732-12.1055 8.7775-24.2005 13.244-36.2643 4.0934 8.2296 8.166 16.48 12.2076 24.7511 6.2075-2.7951 12.446-5.5383 18.6949-8.2608-3.8032-8.6868-7.6583-17.3528-11.5444-26.0188 6.9121-10.5156 13.876-20.9896 20.9126-31.4221a613.5546 613.5546 0 0 1 5.938-1.4028l4.4457-13.5913c-5.7307 1.0495-11.4718 2.1094-17.1922 3.2316m37.2654-6.3904c-5.1712.8624-9.8449 2.525-13.7 6.4112-3.1606 3.429-4.8395 7.4918-6.2488 11.8352-4.1141 12.9679-8.2594 25.9461-12.3942 38.9244-1.6166 5.133-4.2592 14.4745 3.938 13.7783 2.798-.4572 5.4302-1.6106 8.052-2.7432 8.2904-3.5433 16.6016-7.045 24.9335-10.4948 2.1244-8.136 4.2384-16.293 6.3214-24.4602-4.3836 1.3716-8.7464 2.7744-13.1196 4.1771-1.0363 3.6784-2.0519 7.3672-3.0778 11.0352-3.0364 1.1222-6.0727 2.2236-9.1091 3.3562 3.8447-13.1652 7.6894-26.3201 11.503-39.4958 2.6943-.5819 5.3784-1.1534 8.0831-1.7145-.6425 2.3068-1.2643 4.6136-1.9068 6.9307 3.9276-.9455 7.8655-1.8807 11.7931-2.7743a11178.2113 11178.2113 0 0 0 4.4665-17.81c-6.508.9663-13.0263 1.9742-19.5343 3.0445" fill="#FEFEFE" fill-rule="nonzero"/><path d="M351.7096 147.2049c3.9483 1.2988 7.6376 2.6185 11.3268 4.0005 9.2438 3.4497 17.4203 6.9619 24.177 10.2142-20.8712 71.8324-63.6187 132.0685-123.9418 174.9414l-4.9225 3.4186c-17.6585-13.2588-28.0837-23.6705-28.0837-23.6705l8.3111-1.3716c25.2236-4.2187 49.5352-15.6799 69.6395-34.477 34.2602-32.056 48.1673-77.8072 41.1101-120.919-.1761-.9768-.373-1.9535-.5285-2.9303l-.0829-.426-.0829-.4572-.1036-.478-.0933-.4468-.0829-.4988-.1036-.4676-.114-.5195-.114-.4884-.1036-.4676-.0726-.3948-.145-.5507-.1037-.5196-.1036-.3845-.0726-.3844-.0932-.374c-.3835-1.5483-.7254-2.868-1.0985-4.146a1167.845 1167.845 0 0 1 5.482 1.7976m.6633.8416c3.6892 1.2677 7.4924 2.6081 11.1195 3.9694-3.6893-1.4132-7.3992-2.7225-11.1195-3.9694" fill="#0070B9" fill-rule="nonzero"/><path d="M0 0h500v500H0z"/></g></svg>