<svg width="500" height="500" viewBox="0 0 500 500" xmlns="http://www.w3.org/2000/svg" xmlns:xlink="http://www.w3.org/1999/xlink"><title>orlando-magic</title><defs><path id="a" d="M499.169 291.0825V.0436H.002v291.039z"/></defs><g fill="none" fill-rule="evenodd"><g transform="translate(0 103.9496)"><mask id="b" fill="#fff"><use xlink:href="#a"/></mask><path d="M432.6797 71.4142c3.6768-1.618 7.9818-3.473 11.947-5.132l12.8224-5.3691-42.0308-13.634L405.3148.0395l-25.4183 38.0163-43.0916-10.9751 14.4806 18.8175c-54.2662-6.8943-114.5369-1.8034-168.6692 14.314l3.5738-11.2327-9.2486 2.6588c-73.711 21.1362-138.225 78.5369-168.3808 149.7982L.002 221.6762l16.6537-14.3244c36.0264-30.947 73.2064-62.8935 127.1739-80.0003l-15.0368 34.9763 13.1109-7.1828c11.844-6.4924 25.2123-11.4802 39.4766-14.9221l19.2594 6.616c30.156 10.3362 56.326 19.2915 82.0327 35.7389-.1956 28.051 11.185 55.8754 31.4846 76.7643 19.9288 20.4973 45.9342 31.7404 73.3093 31.7404h.8136c62.8455-.474 99.9018-46.7552 108.7488-92.3872 7.951-41.0255-4.6655-97.5709-64.3491-127.2811" fill="#FEFEFE" fill-rule="nonzero" mask="url(#b)"/></g><path d="M194.277 243.1667c35.7175-5.4825 71.3628-3.8748 102.5692 9.3057l3.8004-8.368c-50.4864-16.2618-113.9498-15.427-161.2229 10.4703l13.461-31.3076c-59.4158 16.066-99.397 49.5995-139.5844 84.1327 29.3011-69.2621 93.0117-126.199 165.0645-146.8613l-3.6665 11.4905c63.0926-20.6004 132.3441-24.506 188.4127-15.2416l-13.1314-17.0965 32.1642 8.203 20.691-30.916 8.1775 38.2328 31.6287 10.2641s-23.0392 9.656-21.9372 10.1095c119.7894 49.3729 81.4457 213.4234-32.4629 214.2993-57.6134.474-102.3118-51.6194-100.3652-106.114-29.2908-19.2915-58.6846-28.5766-93.5987-40.603" fill="#C4CDD3" fill-rule="nonzero"/><path d="M408.8557 175.6297c6.5914-2.8752 18.899-8.2443 18.899-8.2443l.9165-.4019-.9578-.3195s-19.795-6.513-24.0485-7.8938c-.6385-4.4829-3.7695-26.021-3.7695-26.021l-.1442-1.0408-7.199 11.7171s-4.13 6.647-6.3546 10.2744c-4.6862-1.1954-25.1403-6.4099-25.1403-6.4099l-1.0814-.268.6798.876c.0206.0206 8.332 10.7279 13.3683 17.2408-20.588-4.4725-44.3379-6.9767-71.5688-6.9767-8.9397 0-18.2501.268-27.9313.8245-37.1285 2.1229-73.639 9.048-108.6767 21.7133l4.0064-11.9233-.7106.2164c-54.8327 17.1378-114.7944 68.5717-141.3044 119.4285l.5974.4534c37.4786-35.172 88.2019-63.2644 133.6726-73.4873l-11.947 27.8553.927-.4431c21.1544-10.2229 48.9312-14.747 76.9655-14.747 28.6728 0 57.6134 4.7405 79.9832 12.892l-8.5792 18.7042c-20.3923-9.3572-49.889-15.664-74.3599-15.664-4.3565 0-8.5586.1957-12.5237.6182l-.0618.7523c28.8994 8.1618 58.8287 17.3851 82.5477 36.4087a85.002 85.002 0 0 0-.2163 6.0493c.0103 50.0632 43.205 95.3758 93.887 95.386.34 0 .69-.0102 1.03-.0102 55.8626-.6596 97.2548-51.908 97.2651-105.341.0103-39.3561-22.5036-79.9179-78.1705-102.2186" fill="#120C0D" fill-rule="nonzero"/><path d="M378.3836 267.3327c-20.6292 0-41.2687-7.5642-62.0009-15.19-5.4585 11.5625-8.2393 23.6815-8.2393 36.0067 0 6.5542.7827 13.1805 2.379 19.7966 1.7097.0412 3.4297.0618 5.1497.0618 40.0225 0 82.4962-11.1298 116.8026-31.4828-3.9548-7.358-8.8572-14.2316-13.945-20.8477-13.358 8.4504-26.747 11.6554-40.1461 11.6554" fill="#C4CDD3" fill-rule="nonzero"/><path d="M314.2302 315.7852h-1.3492c12.5135 32.3897 41.2172 53.8557 76.224 54.34 11.2055-27.6183 23.6366-57.7923 52.052-71.9003-1.4832-4.9774-3.3061-9.821-5.3144-14.5923-36.593 21.3939-79.3138 32.1526-121.6124 32.1526M400.7379 214.1386c-12.4414-4.7507-20.3717-6.2244-21.1133-6.3584-3.481.474-8.2084.9378-12.0294 1.7004 21.1545 8.4298 36.768 18.6527 52.4639 36.1614 8.0642-6.379 15.15-13.603 20.0627-22.476-14.3879-14.0049-41.485-31.1632-109.068-36.4808 28.539 6.7912 54.7812 15.9527 70.0343 26.7836l-.3502.6698zM211.253 204.7577c4.1918-.0928 8.7132-.1443 13.5023-.1443 48.0146.0206 122.117 5.668 150.8516 39.8095l-.484.577c-9.9387-5.5442-29.8264-14.7262-42.2265-14.716-.4017 0-.793.0104-1.1741.031-4.2639 4.7095-8.0334 9.924-11.4115 15.324 19.208 7.0798 38.6527 14.1183 57.9224 14.108 12.1015 0 24.131-2.7618 36.047-10.027-33.3074-36.316-89.6747-52.1553-142.8492-52.1553-21.1132 0-41.7321 2.4938-60.178 7.193M438.4616 272.7275c9.2899-6.3275 17.3129-12.9332 24.5944-21.4248-4.5831-8.7183-12.5032-18.5083-18.1883-23.5477-5.2938 9.3367-12.0706 17.045-20.31 23.826 4.851 6.4717 9.98 14.0255 13.904 21.1465" fill="#C4CDD3" fill-rule="nonzero"/><path d="M397.2485 369.7882c16.87-2.061 32.3806-7.8217 45.4193-18.9 2.0083-7.4713 2.8632-15.2003 2.8632-22.95 0-7.3991-.7828-14.8293-2.1114-22.0533-25.4492 12.2324-36.0161 39.0984-46.171 63.9033M453.0432 332.9147c0 2.5558-.0618 5.1115-.1854 7.6672 9.8975-13.397 15.2015-25.0316 18.1368-42.1488-7.2197.639-14.3776 1.855-21.1854 4.1118 2.2246 10.089 3.234 20.1882 3.234 30.3698M441.9664 279.8114c2.2246 5.1114 4.2124 10.295 5.9426 15.6022 7.9304-2.5866 15.593-3.916 23.8632-4.421.0103-.5873.0103-1.1644.0103-1.7518 0-10.9546-1.617-19.3844-5.1805-29.8649-7.5905 7.7702-15.6032 14.3863-24.6356 20.4355" fill="#C4CDD3" fill-rule="nonzero"/><path d="M471.7701 290.9968c-8.2702.505-15.9225 1.8343-23.8631 4.421-1.7303-5.3176-3.7077-10.4909-5.9426-15.6023 9.0323-6.0595 17.0554-12.6756 24.6355-20.4458 3.5635 10.4909 5.1805 18.9206 5.1805 29.8752 0 .577 0 1.1645-.0103 1.7519" fill="#C4CDD3" fill-rule="nonzero"/><path d="M471.7701 290.9968c-8.2702.505-15.9225 1.8343-23.8631 4.421-1.7303-5.3176-3.7077-10.4909-5.9426-15.6023 9.0323-6.0595 17.0554-12.6756 24.6355-20.4458 3.5635 10.4909 5.1805 18.9206 5.1805 29.8752 0 .577 0 1.1645-.0103 1.7519M444.8646 227.753c5.6851 5.0393 13.6155 14.8397 18.1986 23.5477-7.2918 8.4916-15.3148 15.1076-24.6047 21.4247-3.924-7.121-9.053-14.6747-13.9038-21.1465 8.2393-6.7809 15.0161-14.4893 20.31-23.826" fill="#C4CDD3" fill-rule="nonzero"/><path d="M444.8646 227.753c5.6851 5.0393 13.6155 14.8397 18.1986 23.5477-7.2918 8.4916-15.3148 15.1076-24.6047 21.4247-3.924-7.121-9.053-14.6747-13.9038-21.1465 8.2393-6.7809 15.0161-14.4893 20.31-23.826M331.0497 186.6821c67.583 5.3279 94.6801 22.4863 109.0783 36.4809-4.923 8.8729-12.0088 16.097-20.0627 22.476-15.696-17.4985-31.3197-27.7317-52.4639-36.1615 3.8107-.7523 8.538-1.2263 12.0191-1.7004.7416.134 8.6719 1.6077 21.1133 6.3584l.3604-.6698c-15.2633-10.831-41.5055-19.982-70.0445-26.7836" fill="#C4CDD3" fill-rule="nonzero"/><path d="M331.0497 186.6821c67.583 5.3279 94.6801 22.4863 109.0783 36.4809-4.923 8.8729-12.0088 16.097-20.0627 22.476-15.696-17.4985-31.3197-27.7317-52.4639-36.1615 3.8107-.7523 8.538-1.2263 12.0191-1.7004.7416.134 8.6719 1.6077 21.1133 6.3584l.3604-.6698c-15.2633-10.831-41.5055-19.982-70.0445-26.7836M315.671 308.0109c-1.72 0-3.4399-.0206-5.1495-.0619-1.5964-6.6263-2.3791-13.2423-2.3791-19.7965 0-12.3355 2.7807-24.4545 8.2496-36.0068 20.7219 7.6156 41.3614 15.19 61.9906 15.19 13.3992 0 26.788-3.205 40.146-11.6656 5.0878 6.6263 9.9902 13.5 13.9451 20.858-34.3065 20.353-76.7802 31.4828-116.8027 31.4828" fill="#C4CDD3" fill-rule="nonzero"/><path d="M315.671 308.0109c-1.72 0-3.4399-.0206-5.1495-.0619-1.5964-6.6263-2.3791-13.2423-2.3791-19.7965 0-12.3355 2.7807-24.4545 8.2496-36.0068 20.7219 7.6156 41.3614 15.19 61.9906 15.19 13.3992 0 26.788-3.205 40.146-11.6656 5.0878 6.6263 9.9902 13.5 13.9451 20.858-34.3065 20.353-76.7802 31.4828-116.8027 31.4828" fill="#C4CDD3" fill-rule="nonzero"/><path d="M389.106 370.1221c-35.0068-.4843-63.7105-21.9503-76.224-54.34h1.3492c42.2986 0 85.0195-10.7587 121.6124-32.1526 2.0083 4.7817 3.8313 9.6149 5.3143 14.5923-28.4153 14.108-40.8464 44.282-52.0519 71.9003" fill="#C4CDD3" fill-rule="nonzero"/><path d="M389.106 370.1221c-35.0068-.4843-63.7105-21.9503-76.224-54.34h1.3492c42.2986 0 85.0195-10.7587 121.6124-32.1526 2.0083 4.7817 3.8313 9.6149 5.3143 14.5923-28.4153 14.108-40.8464 44.282-52.0519 71.9003M452.8578 340.585c.1236-2.566.1854-5.1218.1854-7.6672 0-10.1816-1.0094-20.2912-3.234-30.38 6.8078-2.257 13.9657-3.4627 21.1854-4.112-2.9353 17.1275-8.2393 28.7623-18.1368 42.1592" fill="#C4CDD3" fill-rule="nonzero"/><path d="M452.8578 340.585c.1236-2.566.1854-5.1218.1854-7.6672 0-10.1816-1.0094-20.2912-3.234-30.38 6.8078-2.257 13.9657-3.4627 21.1854-4.112-2.9353 17.1275-8.2393 28.7623-18.1368 42.1592M414.2761 249.7147c-11.916 7.2652-23.9352 10.0374-36.047 10.0374-19.2697 0-38.7145-7.0283-57.9224-14.1183 3.3781-5.4 7.1476-10.6042 11.4114-15.324.3811-.0104.7725-.031 1.1741-.031 12.4002-.0103 32.2879 9.182 42.2266 14.7263l.484-.5874c-28.7243-34.1415-102.837-39.7888-150.8516-39.8094-4.7788 0-9.3105.0618-13.5022.1442 18.456-4.6889 39.0646-7.1828 60.1882-7.1828 53.1745-.0103 109.5418 15.829 142.839 52.145" fill="#C4CDD3" fill-rule="nonzero"/><path d="M414.2761 249.7147c-11.916 7.2652-23.9352 10.0374-36.047 10.0374-19.2697 0-38.7145-7.0283-57.9224-14.1183 3.3781-5.4 7.1476-10.6042 11.4114-15.324.3811-.0104.7725-.031 1.1741-.031 12.4002-.0103 32.2879 9.182 42.2266 14.7263l.484-.5874c-28.7243-34.1415-102.837-39.7888-150.8516-39.8094-4.7788 0-9.3105.0618-13.5022.1442 18.456-4.6889 39.0646-7.1828 60.1882-7.1828 53.1745-.0103 109.5418 15.829 142.839 52.145M442.6668 350.8841c-13.0388 11.0783-28.5493 16.8492-45.4193 18.9 10.155-24.805 20.7219-51.6606 46.1711-63.9033 1.3286 7.224 2.1113 14.6541 2.1113 22.0534 0 7.7496-.8548 15.4786-2.8631 22.95" fill="#C4CDD3" fill-rule="nonzero"/><path d="M442.6668 350.8841c-13.0388 11.0783-28.5493 16.8492-45.4193 18.9 10.155-24.805 20.7219-51.6606 46.1711-63.9033 1.3286 7.224 2.1113 14.6541 2.1113 22.0534 0 7.7496-.8548 15.4786-2.8631 22.95M375.8963 182.8599l14.697-5.1424 11.154 12.6653-1.2978-16.5298 14.2334-6.214-15.4899-5.0806-2.3997-16.5091-8.2702 13.4072-15.6856-4.0088 10.4021 13.3763z" fill="#C4CDD3" fill-rule="nonzero"/><path fill="#FEFEFE" fill-rule="nonzero" d="M297.6001 194.7677l10.2065-5.0393 8.5071 7.5641-1.6582-11.2534 9.8254-5.7195-11.2158-1.9168-2.4203-11.0988-5.2628 10.089-11.3394-1.1543 7.9613 8.131zM182.8305 217.357l6.7254-3.3183 5.5821 4.9774-1.0917-7.3992 6.4576-3.7717-7.3742-1.2676-1.5964-7.2962-3.4708 6.6057-7.4463-.7316 5.232 5.3484z"/><path d="M436.9322 318.9232l-.0103-1.3706-9.4752 15.8805 2.719-13.9843-.6695-.3195c-13.8832 16.8492-19.1873 28.958-23.5026 43.88l-.206.7112.7003-.237c15.5826-5.4104 23.6263-11.6657 26.922-14.2833l.072-.0618.0413-.0824c2.3173-5.029 3.409-15.221 3.4193-27.711 0-.8039-.0103-1.6077-.0103-2.4218M405.253 282.1507c-15.1603 3.0813-32.8542 4.895-49.0651 4.895-2.441 0-4.8406-.0412-7.1888-.1236l34.7802-10.295-.0927-.7524c-22.967-1.082-40.692-1.5148-63.1338-12.0366l-.3192-.1546-.1751.3092c-3.337 5.9977-5.2423 14.3965-5.2423 22.9087 0 4.8332.618 9.7077 1.9362 14.1802l.0824.268.2678.0102c.0206 0 .8136.0206 2.2864.0206 10.0314 0 51.2383-1.1026 86.1112-18.5083l-.2472-.7214zM412.9239 310.379c-17.5395 13.0363-30.743 23.5786-56.6042 28.453 23.9455-12.4488 40.0122-21.0125 55.1108-36.316l-.4635-.5976c-26.7778 15.6022-61.6507 22.28-86.2554 23.2076l-.6694.0206.3604.5668c20.2585 32.0702 45.8828 34.9453 54.2148 34.9453h.0515c1.7302 0 2.6984-.1133 2.719-.1133l.175-.031.0927-.1442c10.876-17.1996 17.7867-33.7603 31.7832-49.4244l-.515-.5668z" fill="#0077C0" fill-rule="nonzero"/><path d="M394.9663 203.5076c-1.2668-.6698-2.5645-1.2984-3.9137-1.9064 20.7116 6.1522 34.6772 14.1492 42.484 20.2293-1.205 1.7828-2.544 3.5038-3.9137 5.1733-9.5885-9.9447-21.2987-18.0446-34.6567-23.4962m63.8033 116.0483l-.0721-1.35c1.1226-5.5751 1.7508-11.171 1.9465-16.6946 1.4625-.3916 2.9662-.6904 4.4699-.9687-1.6067 6.853-3.6047 13.0878-6.3443 19.0133m8.6513-36.3572c-2.6984.3607-5.2011.7523-7.6729 1.2882-.5561-4.0088-1.3595-7.9763-2.3791-11.882 2.688-2.2569 5.2629-4.555 7.8686-7.0077 1.4933 5.7607 2.1216 11.171 2.1834 17.6015m-9.2384-34.0282c-2.2967 2.4733-4.5213 4.6684-6.7768 6.7191-2.513-5.4-5.4483-10.5835-8.847-15.4786 1.7715-2.1332 3.4811-4.3385 5.0878-6.647 4.3256 4.792 8.0848 10.3982 10.536 15.4065" fill="#FEFEFE" fill-rule="nonzero"/><path d="M0 0h500v500H0z"/></g></svg>