<svg width="500" height="500" viewBox="0 0 500 500" xmlns="http://www.w3.org/2000/svg"><title>phoenix-suns</title><g fill="none" fill-rule="evenodd"><g fill-rule="nonzero"><path fill="#FEFEFE" d="M381.4372 50.003l-44.061 43.8298-70.8813-37.1036-12.8058 70.385-71.92 15.568 40.2252 24.2202-45.1298 22.6234 36.7192 3.1735-166.3552 129.264 128.3874-68.1298L36.6503 359.526l148.395-77.301L21.657 404.9626l169.5217-90.2543L.001 453.0535l226.4084-123.8651L81.111 446.4171l215.3207-123.6255-2.757 19.42 33.8225-18.7614 66.8358 63.14 35.4606-106.4409 45.909-6.5665-19.768-61.3337 43.5915-37.882-56.5672-23.861 15.9623-67.6607-53.5505 24.4996z"/><path fill="#F9A01B" d="M67.1424 410.6348l205.8713-112.6382-139.605 112.6382 169.3919-97.2599-2.777 19.6097 28.2487-15.6777 63.799 60.2759 33.9623-101.9302 43.1021-6.1773-18.9589-58.839 40.0355-34.7783-53.081-22.394 14.5838-61.8327-48.9756 22.394-23.0444-55.2464-41.394 41.1753-68.1043-35.6466-12.1865 66.9721-62.8901 13.612 37.2087 22.4139-37.4484 18.7713 31.8246 2.7544L95.8405 290.512l131.6338-69.8562L86.281 328.0448l150.293-78.279L76.0225 370.3678l176.9334-94.1962z"/><path d="M443.8668 211.5425c-2.3274 56.5237-50.0843 100.4533-106.6715 98.0981-56.5671-2.3152-100.5283-50.037-98.1809-106.5507 2.3274-56.5336 50.0844-100.4433 106.6515-98.118 56.5772 2.3551 100.5483 50.047 98.201 106.5706" fill="#E55F1F"/><path d="M353.9917 295.6764c-56.5572-2.3352-100.5283-50.057-98.201-106.5707 1.0789-26.1661 11.8869-49.578 28.7881-67.012-26.3108 17.5538-44.181 46.9633-45.5694 81.0032-2.3474 56.5037 41.6238 104.2155 98.181 106.5507 30.4062 1.2574 58.2452-10.8676 77.8734-31.106-17.4206 11.6261-38.5272 18.0629-61.0721 17.1348" fill="#B85914"/><path d="M443.9208 208.5118c.0499-3.6725-.1-7.285-.4396-10.8776-5.9134-4.1116-12.9456-7.2451-21.2663-8.323-1.5783-.1895-3.0966-.2893-4.6249-.409a128.7702 128.7702 0 0 0-4.555-19.8392c1.049.0898 2.1277.1297 3.1965.1896 7.212.5389 14.3141 1.3472 21.3263 2.375-.9689-2.6145-2.0777-5.1593-3.2464-7.6641-7.8712-1.2076-15.8823-2.1357-23.9933-2.7444h-.08c-2.597-6.5864-5.7635-12.9334-9.4794-18.971 5.2342-1.0777 9.909-3.2233 13.6948-6.796-1.9279-1.956-3.9456-3.852-6.0433-5.6583-3.2863 3.0238-7.5516 4.6404-12.4462 5.299-.7591-1.0677-1.4983-2.1056-2.2874-3.1335-6.9623-9.0414-14.9934-16.7755-23.8335-23.0525-7.7215-2.2354-15.7925-3.5926-24.1832-3.932-.4595-.0199-.919 0-1.3884-.0299 15.5827 6.1274 29.4972 16.4162 40.6848 30.178-10.6682-1.028-22.9645-4.6006-35.131-8.1633-3.596-1.0678-7.122-2.1057-10.5283-3.0437-20.717-5.7183-36.6393-6.6364-48.596-5.5885-8.8801 5.0496-16.9212 11.4065-23.9034 18.8013 12.9156-5.369 38.9467-14.57 70.5416-5.828 3.3563.928 6.8424 1.946 10.3884 2.9838 13.9645 4.1116 29.6171 8.6822 43.172 8.8219 3.736 5.5585 6.9623 11.4265 9.6294 17.5439-2.647-.1198-5.3041-.1896-7.9312-.2495-65.8369-1.1277-122.2742 18.5518-153.5994 49.9472.1798 6.2371.889 12.3346 2.1377 18.2724 8.8302-12.674 21.9156-24.1104 38.7969-33.6108 31.8646-17.8932 74.1476-27.3138 119.0677-26.5255 1.5383.02 3.0965.0799 4.6448.1398 2.2675 6.4966 3.9656 13.2128 5.0444 20.1186-28.9378 1.2174-47.697 19.2503-69.233 38.4408-19.3286 17.2944-42.9224 34.509-77.434 44.8677 3.2464 4.0018 6.7824 7.734 10.6082 11.187 32.5238-13.0831 54.1298-33.4612 72.3895-49.7676 20.717-18.5219 38.5172-36.2654 64.6482-37.1436.6693 7.2152.6992 14.57.04 21.9948-3.5161 40.1274-26.7703 74.1474-58.485 90.9228 8.121-.7484 15.9722-2.4749 23.4439-5.0496 2.5372-2.0956 5.0244-4.311 7.4118-6.6563 20.7969-20.4579 33.7125-48.3305 36.3496-78.4485.6592-7.5445.6592-15.029.05-22.4039 1.2985.1397 2.597.2595 3.9356.479 8.91 1.457 15.9722 5.9378 21.506 11.3467" fill="#051821"/></g><path d="M0 0h500v500H0z"/></g></svg>