<svg width="500" height="500" viewBox="0 0 500 500" xmlns="http://www.w3.org/2000/svg"><title>portland-trail-blazers</title><g fill="none" fill-rule="evenodd"><path d="M0 0h500v500H0z"/><path d="M388.2108 159.5735c-5.9308-8.777-12.7423-17.027-20.2423-24.5308-3.2539-3.2539-6.65-6.377-10.1654-9.3577l73.7615-73.7615H216.6723L133.73 134.8696h.0115a7.592 7.592 0 0 1-.1769.173c-7.5 7.504-14.3077 15.754-20.2384 24.5309-5.9847 8.8615-11.127 18.3346-15.2808 28.1538-8.6462 20.4346-13.027 42.1423-13.027 64.5192 0 22.377 4.3808 44.0808 13.027 64.5154 4.1538 9.8193 9.2961 19.2923 15.2808 28.1539 5.9307 8.7769 12.7384 17.0346 20.2384 24.5307a165.7776 165.7776 0 0 0 10.2 9.3808l-73.7384 73.7385h214.8307l83.277-83.2808h-.0077c7.4384-7.4577 14.1961-15.65 20.0846-24.3692 5.9846-8.8616 11.1269-18.3346 15.2807-28.1539 8.6423-20.4346 13.0193-42.1384 13.0193-64.5154 0-22.3769-4.377-44.0846-13.0193-64.5192-4.1538-9.8192-9.2961-19.2923-15.2807-28.1538" fill="#061922" fill-rule="nonzero"/><path d="M388.2108 159.5735c-5.9308-8.777-12.7423-17.027-20.2423-24.5308-3.2539-3.2539-6.65-6.377-10.1654-9.3577l73.7615-73.7615H216.6723L133.73 134.8696h.0115a7.592 7.592 0 0 1-.1769.173c-7.5 7.504-14.3077 15.754-20.2384 24.5309-5.9847 8.8615-11.127 18.3346-15.2808 28.1538-8.6462 20.4346-13.027 42.1423-13.027 64.5192 0 22.377 4.3808 44.0808 13.027 64.5154 4.1538 9.8193 9.2961 19.2923 15.2808 28.1539 5.9307 8.7769 12.7384 17.0346 20.2384 24.5307a165.7776 165.7776 0 0 0 10.2 9.3808l-73.7384 73.7385h214.8307l83.277-83.2808h-.0077c7.4384-7.4577 14.1961-15.65 20.0846-24.3692 5.9846-8.8616 11.1269-18.3346 15.2807-28.1539 8.6423-20.4346 13.0193-42.1384 13.0193-64.5154 0-22.3769-4.377-44.0846-13.0193-64.5192-4.1538-9.8192-9.2961-19.2923-15.2807-28.1538" stroke="#FFF" stroke-width="3.8462"/><path d="M358.2565 144.5758c-3.25-3.25-6.6077-6.3231-10.0653-9.2154l-90.1924 90.1884c4.4424 1.25 8.6347 3.6193 12.1308 7.1039l.023.027c10.8924 10.8922 10.8924 28.55 0 39.4422L103.095 439.1796h19.573l157.2732-157.273c16.25-16.2462 16.2961-42.5578.1461-58.8693l9.7846-9.7846c21.5539 21.7115 21.5077 56.7885-.1461 78.4385L142.2335 439.1796h19.5769l137.7038-137.7038c27.0577-27.0539 27.1039-70.8923.1462-98.0077l9.7884-9.7885c32.3654 32.523 32.3116 85.123-.15 117.5846L181.3835 439.1796h19.5769l118.123-118.127c37.8693-37.8653 37.9193-99.2345.15-137.1614l9.7885-9.7847c43.177 43.3308 43.127 113.4616-.15 156.7347L220.5335 439.1796h19.573l98.5539-98.5538c48.6808-48.6731 48.727-127.5693.1461-176.3077l9.85-9.8539c54.0231 54.1808 53.9731 141.8923-.1423 196.0154l-88.7077 88.7h19.577l78.9192-78.9115-.0462-.0462c59.55-59.55 59.55-156.1 0-215.6461" fill="#FFF" fill-rule="nonzero"/><path d="M143.3658 360.0523c3.25 3.25 6.6077 6.323 10.0654 9.2154l90.1923-90.1923c-4.4385-1.25-8.6308-3.6154-12.127-7.1l-.0269-.027c-10.8923-10.8922-10.8923-28.5538 0-39.4422L398.7581 65.2177H379.185l-157.5038 157.5c-16.2462 16.25-16.2962 42.5615-.1424 58.873l-9.7846 9.7847c-21.5538-21.7154-21.5115-56.7923.1423-78.4385L359.6158 65.2177h-19.577L202.1081 203.1485c-27.0539 27.0538-27.1 70.8961-.1423 98.0077l-9.7846 9.7884c-32.3693-32.523-32.3193-85.123.1423-117.5846L320.4658 65.2177h-19.5731L182.5388 183.5715c-37.8692 37.8693-37.9192 99.2347-.1461 137.1616l-9.7885 9.7884c-43.1769-43.3307-43.1307-113.4653.1462-156.7384L281.3158 65.2177h-19.5731l-98.7808 98.7808c-48.6807 48.6807-48.7269 127.5692-.1461 176.3115l-9.85 9.85c-54.0231-54.177-53.9731-141.8923.1461-196.0115l88.9308-88.9308h-19.577L143.3236 144.36l.0423.0423c-59.55 59.55-59.55 156.1 0 215.65" fill="#E03A3E" fill-rule="nonzero"/></g></svg>