<svg width="500" height="500" viewBox="0 0 500 500" xmlns="http://www.w3.org/2000/svg"><title>toronto-raptors</title><g fill="none" fill-rule="evenodd"><path d="M0 0h500v500H0z"/><g fill-rule="nonzero"><path d="M312.5932 432.8423c-1.2192 0-2.3846-.577-3.1154-1.5885l-.7385-1.023c-1.4038-2.05-1.0923-3.8346-.7846-4.7231.9846-2.8462 3.9462-3.7846 6.8116-4.6846.9846-.3116 2.6346-.8308 3.0769-1.1731.977-.8308 2.0538-1.5654 3.1423-2.2885 2.35-1.573 4.2885-3.4077 6.0615-5.1769.7039-.7115 1.5039-1.3692 2.3039-2.0192 0 0 1.0461-.8577 1.2692-1.027l2.7308-2.8269 2.15-2.2769 1.5923-1.6538c1.1423-1.177 2.2884-2.3462 3.3423-3.6039 2.4308-2.8192 4.9346-5.8615 7.4808-9.0846.8884-1.1 1.6307-2.2461 2.3846-3.3961l1.3307-1.9962c.2616-.4.5231-.7923.8231-1.1885 1.4962-2.0807 2.6616-3.9384 3.6231-5.7846 1.4077-2.6077 2.9885-5.0192 4.5192-7.3538l1.3423-2.05c1.0654-1.6654 2.1808-3.4577 2.9577-5.2923.4193-1.0116.9616-1.9885 1.5116-2.9654.3615-.6346.7269-1.2692 1.0269-1.9346.7538-1.6539 1.45-3.327 2.1461-4.9962l1.1039-2.6308c.1-.2884.323-.9269.8038-1.5769 1.8-2.9 3.0962-6.473 4.4693-10.2615l.8807-2.4346c1.5962-4.3962 3.1077-8.5462 3.95-12.9116a38.0466 38.0466 0 0 1 2.4693-8.0807c.2884-.6885.4769-1.65.6769-2.6731l.9808-4.7039c.9115-4.3307 1.823-8.6615 2.65-13.0153.4923-2.6193.9077-5.3962 1.3077-8.7424.1769-1.4307.2769-2.8615.3846-4.2923l.2692-3.5077c.1654-2.1846.327-4.3538.5308-6.5346.0654-.8346.123-1.7538.1769-2.6884.1038-1.6577.2077-3.3462.3808-4.9193.1384-1.4384.35-3.65 2.373-5.0461 1.1423-.7154 2.2423-1.023 3.4308-1.023.4885 0 1.0077.0538 1.5654.1538 1.473.25 3.8654.8076 5.523 1.3653 2.0693.7347 4.0962 1.4539 6.0308 2.2847 4.6539 2.0192 8.977 4.6 13.2347 7.8884.4076.3154.7846.627 1.2192.873.1346.0732.2615.1578.3884.2462 1.1039.7962 2.1116 1.777 3.1885 2.8077l1.273 1.2154c.4578.3346 1.304 1.027 2.0616 1.9231.5231.6115 1.9154 2.377 2.4308 3.1577.1154.1692.2885.4.473.6385.4347.5846.8962 1.2153 1.2655 1.8307.4269.7116.8153 1.4577 1.1923 2.2.4192.8154.8192 1.627 1.3115 2.3193 1.0808 1.5346 1.3154 3.3115.7115 5.3-1.7307 6.0307-4.9653 17.6884-4.9653 17.6884l-2.7808 8.9423c-.0462.1385-.0923.277-.1539.4077l-2.5307 5.7577-4.727 9.6308-2.823 5.3115-4.7808 9.477-2.2 3.6615-7.3346 10.5692-3.877 4.7962-1.0922 1.5038-3.4693 4.65-6.4769 7.4692-5.6885 5.4847-4.5115 4.8538-3.0346 3.0038-2.85 2.677a5.5389 5.5389 0 0 1-.3616.3l-6.2115 4.5846-4.677 3.3846-3.0922 2.4538-6.7808 4.7847-3.9192 2.5653-3.1962 1.7693-2.3192 1.4307-1.3577.9308c-.1962.1308-.4038.25-.6154.3423l-1.2692.5616c-.0039.0115-1.777.9461-2.0923 1.123l-.0231-.0423c-1.1654.6385-4.3308 2.1462-14.2885 6.8962l-5.8653 2.2961-1.8577.8c-.2539.1154-.527.1962-.8.25l-2.9539.5616a3.7966 3.7966 0 0 1-.7192.0692" fill="#CE1141"/><path d="M396.4242 253.8462c-1.9076 0-3.6846.4961-5.2769 1.4769a9.9313 9.9313 0 0 0-.3346.2154c-3.5077 2.4192-3.8654 6.2-3.9961 7.623l-.0231.227c-.1731 1.5884-.2846 3.3346-.3885 5.0577-.0577.9038-.1154 1.8076-.1808 2.673-.1961 2.0923-.3576 4.2808-.523 6.4808l-.0885 1.127a138.4764 138.4764 0 0 0-.1885 2.4653c-.1038 1.35-.1961 2.7-.3615 4.0346-.3923 3.2808-.7961 5.977-1.273 8.5039-.8155 4.3115-1.7424 8.7154-2.6424 12.973l-.7423 3.5385c-.0808.3654-.1577.7654-.2384 1.173-.1577.7924-.3193 1.6155-.4808 2.0116-1.1808 2.727-2.1 5.727-2.677 8.8-.7769 4.0346-2.2422 8.0539-3.7884 12.3077l-.6308 1.7423-.2423.6616c-1.2846 3.5461-2.4961 6.8961-4.2077 9.6769-.6.9077-.9115 1.7384-1.0654 2.1654-.3461.8115-.6846 1.623-1.023 2.4384-.6846 1.6423-1.3693 3.2846-2.1039 4.9-.2692.5885-.5807 1.1231-.8846 1.6539-.55.9769-1.173 2.0807-1.7192 3.3846-.65 1.5346-1.6654 3.1692-2.65 4.7038l-1.2654 1.9347c-1.5923 2.423-3.2346 4.9269-4.7077 7.6653-.923 1.7577-1.9962 3.4654-3.4308 5.4616-.2538.3384-.55.7807-.8461 1.223l-.3077.4577c-.3846.5731-.7154 1.077-1.0423 1.577-.7385 1.123-1.4308 2.1807-2.1308 3.0461-2.5654 3.25-5.0308 6.25-7.4038 8.9962-.9923 1.1769-2.0577 2.2769-3.1885 3.4423-.5577.577-1.1192 1.1538-1.6654 1.7346l-2.327 2.4577-2.1191 2.2423c-.277.2154-.4962.3923-.6923.5615l-.627.5154c-.8.6462-1.7115 1.3846-2.6154 2.2923-1.6192 1.6154-3.3846 3.2885-5.2923 4.5654l-.25.1692c-.9615.6424-2.0307 1.3616-3.1077 2.2424-.4653.2-1.4076.5-2.0615.7038-3.2385 1.023-7.673 2.423-9.2885 7.1-.9269 2.673-.4923 5.6154 1.1847 8.0654.0384.0577.0769.1115.1192.1654l.7385 1.023a7.6998 7.6998 0 0 0 6.2307 3.1808c.4808 0 .9654-.0461 1.45-.1346l2.9539-.5692c.5461-.1039 1.0807-.2693 1.5923-.4846l1.8538-.8 5.4808-2.1385c.177-.0692.35-.1423.5192-.223 9.1385-4.3616 12.8-6.1078 14.477-7.0232l.0384.0616c.3039-.1693 1.5039-.8 2.0154-1.0731l1.0461-.4615a8.0023 8.0023 0 0 0 1.2308-.6808l1.3577-.9308 2.1539-1.323 2.7846-1.527c.1769-.0961.3461-.2.5115-.3077l3.8077-2.4884c.077-.05.15-.1.227-.1539l6.6038-4.6577a7.0526 7.0526 0 0 0 .3384-.2538l3.0962-2.4462 4.5077-3.2615 4.3-3.1962 1.9577-1.4269a6.758 6.758 0 0 0 .723-.6038l2.7808-2.5962c.05-.05.0962-.1.15-.1461l2.927-2.8923c.073-.077.146-.1539.2153-.2308l4.5154-4.85 5.2962-5.0846a8.27 8.27 0 0 0 .473-.5l6.3-7.2462a9.972 9.972 0 0 0 .3577-.4423l3.4462-4.6115 1.15-1.577 3.5808-4.4115c.1192-.15.2307-.3.3423-.4577l7.2038-10.3692c.0923-.1346.177-.273.2654-.4116l2.0538-3.3961c.1-.1692.1962-.3385.2808-.5154l4.823-9.5577 2.6847-5.0461a4.0983 4.0983 0 0 0 .1192-.2231l4.6577-9.4846c.0462-.0962.0923-.1923.1385-.2962l2.5308-5.7538c.1153-.2654.2192-.5346.3038-.8154l2.7462-8.8308.0692-.223c0-.004 3.2308-11.6462 4.973-17.727 1.1578-3.8346-.0384-6.7346-1.2576-8.473-.3077-.4308-.6885-1.177-1.0577-1.9-.4193-.8116-.8423-1.627-1.3039-2.4-.5269-.8693-1.0692-1.5962-1.5038-2.177-.1462-.1961-.2885-.377-.4039-.5461-.6653-1-2.1269-2.8308-2.6769-3.4731-.8308-.9885-1.7538-1.7808-2.5808-2.4308a76.8255 76.8255 0 0 1-.9653-.927c-1.127-1.0884-2.2923-2.2114-3.6231-3.173a6.945 6.945 0 0 0-.7846-.5c-.2308-.1423-.45-.3346-.6731-.5115-4.5615-3.527-9.1539-6.2654-14.0885-8.4039-2.1961-.9423-4.45-1.7346-6.2538-2.373-2.0154-.6808-4.623-1.2731-6.2308-1.55-.7346-.1308-1.4692-.2-2.1808-.2m0 7.6923c.2731 0 .5654.0346.8808.0884 1.4308.2462 3.6192.7693 4.9692 1.227 1.9462.6884 3.8962 1.3769 5.7577 2.173 4.4923 1.95 8.4808 4.3693 12.3962 7.3962.5423.423 1.0846.85 1.7038 1.1923 1.2654.9154 2.5808 2.323 4.0962 3.727.6154.473 1.2308.9807 1.7423 1.5845.4808.5616 1.7077 2.1116 2.1615 2.8.4577.6731 1.1577 1.5077 1.6462 2.3231.9423 1.573 1.673 3.3692 2.677 4.777.4345.6192.3691 1.2422.1576 1.946-1.7461 6.104-4.9923 17.7808-4.9923 17.7808l-2.7462 8.8308-2.5307 5.7577-4.6577 9.4808-2.7692 5.2-4.8193 9.5538-2.0538 3.4-7.2039 10.3654-3.7038 4.5692-1.2116 1.6654-3.4461 4.6116-6.3 7.2461-5.45 5.2346-4.6577 5.0077-2.927 2.8923-2.7768 2.6-2.0077 1.4693-4.227 3.1384-4.6384 3.3577-3.2231 2.55-6.6115 4.6577-3.8077 2.4885-2.9462 1.6192-2.477 1.523-1.5153 1.0308-1.2885.5693s-2.3923 1.2615-2.4538 1.3077c-.0308.0307-14.0346 6.7115-14.0346 6.7115l-5.6077 2.1846-1.977.8539-2.9538.5615-.7384-1.023c-2.0077-2.927 5.9653-3.2385 8.4807-5.3924.9231-.7884 1.9462-1.4577 2.9654-2.1423 2.373-1.5884 4.45-3.523 6.4616-5.5308.85-.8538 1.8461-1.6 2.7769-2.373.3577-.3231.7846-.5923 1.1154-.9462 1.5538-1.6346 3.0846-3.273 4.6384-4.9077 1.7039-1.8 3.4923-3.5307 5.0885-5.4307 2.5846-2.9924 5.1154-6.0847 7.5538-9.177 1.3-1.6 2.3616-3.3654 3.5231-5.0846.3615-.523.6808-1.0423 1.073-1.5692 1.4578-2.027 2.7962-4.0846 3.954-6.3116 1.696-3.1423 3.7384-6.0846 5.6845-9.0961 1.2039-1.877 2.3847-3.7923 3.2693-5.8846.6884-1.6539 1.7538-3.1577 2.5-4.8077 1.1577-2.5385 2.1884-5.1346 3.2846-7.7039.0961-.2461.1808-.5615.3615-.8038 2.3116-3.6962 3.7577-7.8462 5.2385-11.923 1.7923-4.9847 3.7192-9.9578 4.7423-15.2424.4692-2.5 1.2-4.9192 2.223-7.277.5962-1.4384.8078-3.0076 1.1385-4.55 1.1616-5.5422 2.3616-11.0845 3.4193-16.6615.5615-2.9923.9884-5.9807 1.3461-8.9961.2808-2.2692.3885-4.5615.5885-6.85.1884-2.5385.3692-5.0539.6077-7.5885.1923-2.4384.2846-5.123.55-7.5384.1-.9346.1192-1.8808.7384-2.3077.3923-.2462.7962-.3346 1.2423-.3346" fill="#FFF"/><path d="M440.1515 282.5923c-1.2847 0-2.527-.6077-3.4193-1.673-.5769-.677-1.3038-1.7731-1.9884-2.85-.4616-.7193-.8923-1.4385-1.2423-1.8231-.7077-.6193-1.4-1.3577-1.95-2.0924-1.7577-2.3115-4.2423-4.1269-6.8693-6.05l-4.6654-3.4538-2.1115-1.1885c-1.5346-.8461-2.9808-1.6461-4.4308-2.2423-3.2-1.3-6.7653-2.4769-9.8615-3.4807-.4577-.1423-1.0846-.2808-1.6346-.4077-.4462-.1077-.8539-.2-1.1693-.2885l-.4846-.0846c-.5807-.1039-1.1577-.223-1.7654-.4077-.9961-.3038-2.523-.7615-3.5653-2.4038-.8308-1.277-1.0462-2.7616-1.077-3.777 0 0-.0153-2.0077-.0384-2.8192l-.2462-5.0154c-.1038-2.077-.2077-4.1538-.2961-6.2308-.2731-7.6384-1.5231-15.0115-2.85-22.823l-.2616-1.5423c-.2038-1.227-.4153-2.1654-.6192-3.0885-.2654-1.1962-.5192-2.3692-.7615-3.9615l-.1116-.65c-.2769-1.5654-.6615-3.7077.6962-5.65 1.8654-2.4347 4.723-2.4347 6.2577-2.4347 1.8423 0 3.1.0193 4.6884.0424l1.3577.0192c3.5923.0615 6.3462.1923 8.9423.423 3.277.3078 7.0654.6847 10.7654 1.3193 2.1654.3615 4.1962.9385 6.1577 1.4961.9.2539 1.8.5116 2.7154.7462.8538.2077 1.8077.55 2.7423.8962.4654.173.927.3461 1.3692.4846.7654.2346 1.5577.5961 2.2885.95 1.2.5807 4.6654 2.273 5.5885 6.7038 1.2077 6.0346 2.7461 17.2923 2.8153 17.7692l1.35 12.9731.0539 2.0616-.05 11.4423-.823 11.6384s-1.4655 13.2385-1.5347 13.7462c-.1 2.3346-2.077 3.727-3.9615 3.727" fill="#CE1141"/><path d="M395.3212 192.9442c-1.7193 0-6.3 0-9.2154 3.8154a5.9094 5.9094 0 0 0-.1808.25c-2.2885 3.2462-1.677 6.6846-1.35 8.5308l.1.573c.2654 1.7424.5538 3.054.8077 4.2116.1923.8654.3923 1.7423.5846 2.8885l.2615 1.55c1.3039 7.6769 2.5308 14.9346 2.7962 22.2884.0923 2.1693.1962 4.2808.3038 6.3962.0808 1.6538.1654 3.3038.2385 4.9615.0192.6616.027 1.2192.0308 1.9154l.0077.6462c.05 1.673.3884 3.9 1.723 5.9538 1.7654 2.7885 4.5154 3.6038 5.4154 3.8692.0308.0116.1693.0539.2.0616.9039.2807 1.6654.4192 2.2193.5192.1192.0192.2346.0385.3538.0654.3154.0846.7039.173 1.1192.2692.4462.1039.9577.2116 1.3539.3346 2.9923.9693 6.4692 2.1154 9.5654 3.377 1.25.5076 2.6077 1.2615 4.0423 2.0576.5692.3154 1.1423.6308 1.7154.9424l2.8846 2.1346.9115.6769.8385.6154c2.3961 1.75 4.6577 3.4077 6.1 5.2961.5769.7731 1.3154 1.5885 2.1654 2.377.2538.35.5307.8076.8269 1.2653.723 1.127 1.4692 2.2923 2.327 3.2962 1.5768 1.8846 3.9 2.9923 6.3191 2.9923 3.5193 0 7.377-2.5577 7.8039-7.3077.0692-.5846.15-1.373.15-1.373l1.35-12.0578a7.8317 7.8317 0 0 0 .027-.3115l.8114-11.3808a7.5773 7.5773 0 0 0 .0193-.5115l.0538-11.35-.0346-1.9077a7.5477 7.5477 0 0 0-.0423-.6577l-1.3385-12.8538a5.1824 5.1824 0 0 0-.0269-.2423c-.0692-.4808-1.623-11.8539-2.8461-17.9731-.8847-4.227-3.4423-7.3731-7.6193-9.4116-.7615-.3653-1.7577-.8461-2.9461-1.2077-.3116-.1-.7077-.25-1.1154-.4-.9462-.35-2.0154-.7461-3.2-1.0384-.8154-.2077-1.6808-.4539-2.5462-.7-2.0653-.5846-4.2-1.1923-6.6038-1.5923-3.7923-.65-7.673-1.0385-11.0077-1.35-2.7154-.2462-5.5577-.3808-9.2346-.4385l-1.5-.023c-1.5462-.0231-2.8039-.0424-4.6192-.0424m0 7.6923c2.3115 0 3.6923.0308 5.9923.0616 2.8961.05 5.7653.15 8.65.4115 3.4769.323 7.0115.6846 10.4577 1.277 2.9384.4884 5.6807 1.4346 8.5769 2.1769 1.2538.3077 2.6577.9307 3.9038 1.323.6308.1923 1.2462.4885 1.8193.7654 1.7115.8346 3.0115 1.9154 3.45 4.0077 1.1884 5.95 2.7615 17.5 2.7615 17.5l1.3423 12.8539.0346 1.7346-.0538 11.35-.8116 11.3846-1.3577 12.1654s-.0884.8692-.15 1.3423c-.0115.227-.0423.3923-.15.3923-.0961 0-.2769-.0615-.4692-.2923-1.1192-1.3116-2.6385-4.1885-3.5308-4.9923-.5538-.4885-1.0884-1.0308-1.523-1.6154-2.3193-3.0462-5.4462-5.2-8.4693-7.423-1.2769-.954-2.573-1.9193-3.8615-2.8655-.2346-.1807-.477-.3615-.7346-.4769-2.2154-1.177-4.35-2.4885-6.6385-3.4192-3.2461-1.3231-6.7923-2.5-10.1308-3.5808-.9153-.2885-2.2576-.5538-2.9769-.7461-.7038-.1654-1.3846-.2308-2.1192-.4577-.6039-.2-1.127-.2693-1.4577-.7923-.3077-.4731-.4577-1.1731-.477-1.827-.0115-1.0807-.0115-1.7692-.046-2.8307-.1693-3.777-.3808-7.5231-.5385-11.2847-.3-8.3884-1.7693-16.6038-3.1654-24.8461-.4654-2.7808-.9462-4.1846-1.3693-6.9846-.2153-1.3885-.6038-2.7423-.0653-3.5154.5769-.75 1.8846-.7962 3.1077-.7962" fill="#FFF"/><path d="M344.7915 145.1615c-2.4616 0-4.6808-.1269-6.5885-.3769-4.8961-.6115-14.1154-2.9692-14.5-3.0692l-9.027-3.2462c-.7884-.2846-1.4614-.823-1.9191-1.5269l-2.5962-4.0154-7.4654-1.6884a3.846 3.846 0 0 1-3.4346-2.1116l-2.0923-2.3807a3.891 3.891 0 0 1-1.2154-.9231l-3.15-3.5616-2.7846-.1846c-1.2385-.0846-2.3654-.7654-3.0192-1.8269l-1.2808-2.0846-9.2308-3.1154-6.8077 2.65c-.45.177-.923.2615-1.3961.2615-.673 0-1.35-.1769-1.9462-.5307-.5769-.3346-1.0423-.8116-1.3692-1.3693l-12.0846-5.8807c-.4654-.0731-.9116-.2039-1.2616-.4077l-8.0692-4.6654-15.5384-.9077c-.3847.127-.7847.1885-1.1924.1885-.0384 0-6.4615-.1731-6.4615-.1731a3.8277 3.8277 0 0 1-1.2423.2077c-.9808 0-1.9462-.3731-2.6808-1.0885l-4.3961-4.2615c-.3846-.1539-.7423-.3731-1.0654-.6462l-4.5962-3.9423-12.1692-.6308c-.223.0424-.4461.0654-.6654.0654-.0846 0-10.7654-.8615-10.7654-.8615a3.741 3.741 0 0 1-.6884-.123s-4.6654-.3655-4.6731-.3655c-.273 0-7.977-.1884-7.977-.1884a3.3657 3.3657 0 0 1-.65-.0731l-2.6268 1.0808-5.5347 1.9346a3.8223 3.8223 0 0 1-1.0577.2077l-.3538.0192-9.8538 3.777-4.3924 1.5692c-2.5192.9846-3.2884 1.2538-3.8384 1.3269-.7654.2307-2.3385.7692-2.3385.7692l-5.6269 2.2077c-.45.173-.923.2654-1.4038.2654l-4.6116 1.873a3.8687 3.8687 0 0 1-1.4538.2847c-.0654 0-.2462-.0077-.2731-.0077-1.027.3615-2.8423 1.0308-2.8423 1.0308l-2.2462.6846a3.9191 3.9191 0 0 1-1.1077.1615 3.8413 3.8413 0 0 1-2.6192-1.0308c-.9961-.9269-1.4308-2.3153-1.1346-3.6461.2808-1.2654.8038-1.973 4.2077-4.8885l1.9538-1.6423 5.4462-4.2961 5.873-3.9654 5.4616-4.3116c.1-.0807.2077-.1577.3154-.2269l.8192-.5192 5.2616-2.8 1.5269-.8846 4.7346-2.4693 4.5808-3.0115 5.9-3.2077 2.823-1.3615 8.3116-3.2539 6.2538-2.6 2.377-.9192 1.7884-1.0462c.2923-.1692.6077-.3.9346-.3884l3.7462-1.0154 1.2923-.7923a3.9709 3.9709 0 0 1 1-.4308l2.8923-.7884 4.5846-1.6731c.4192-.15.8615-.227 1.3077-.227.0385 0 .8846.027.8846.027l4.5923-.8962 3.0346-.9384c.1308-.0423.2616-.0731.3923-.1l4.2654-.8462 4.4654-.5077 5.0192-.1384 5.75-.6616 6.4462-.1884 3.8577.0692 2.3961.2461 5.7039.377c.1538.0115.3038.0307.4538.0577l4.5847.8615 2.3346.077c.1884.0038.3769.0268.5615.0576l5.477.9962 2.8653.7346.5346.0923 3.8423.9115c.1654.0385.3308.0885.4923.1462l9.2116 3.4692 6.173 2.2423 1.6578.6962 7.9461 4.2807 11.0846 6.7347 3.1616 1.6769c.1923.1.373.2192.5423.35l9.2654 7.1577 11.5807 10.6923 3.2346 3.1692 10.427 11.4423c.0884.0962.1769.2.2538.3077l1.7385 2.3577 1.7154 2.023 9.25 13.304 2.2153 3.4576c1.4077 2.477 2.2577 4.0308 2.6077 4.7462 1.0308 1.7923 1.1962 3.4692.5193 5.0346-1.1577 2.7461-3.7847 2.9923-4.6462 3.077-.6115.0691-1.2961.1076-2.0308.1422l-1.2153.0692c-1.85.1308-4.2308.2577-6.7193.2577h-.0038z" fill="#CE1141"/><path d="M233.8241 50h-.2076l-6.1193.1654a7.479 7.479 0 0 0-.6538.05l-5.75.6461-4.3539.1077a6.2258 6.2258 0 0 0-.6577.0462l-4.1384.4577c-.2193.023-.4346.0538-.65.1l-4.2654.8423c-.2615.0538-.523.1192-.777.2l-2.8384.877-3.973.773-.327-.0116c-.0808-.0038-.1615-.0038-.2385-.0038a7.6987 7.6987 0 0 0-2.6192.4615l-4.5884 1.6577-2.5924.7039c-.7.1923-1.373.4807-1.9923.8615l-.8269.5039-3.2154.873a7.5476 7.5476 0 0 0-1.8615.7808l-1.523.8846-2.004.777c-.0615.023-.123.0461-.1807.073l-6.3346 2.6308-7.8846 3.077a7.2252 7.2252 0 0 0-.5346.2307l-2.6577 1.277c-.1116.0538-.2231.1076-.3308.1691l-5.627 3.0423c-.1884.1-.3692.2077-.546.327l-4.5885 2.9923-4.25 2.2154c-.1.05-.1962.1038-.2962.1615l-1.527.8808-4.8768 2.5846c-.1808.0961-.3577.2-.5308.3115l-.8192.5193a7.9203 7.9203 0 0 0-.6231.4423l-5.4693 4.3038-4.4807 3.0192-.9154.6154a8.2046 8.2046 0 0 0-.473.3423l-5.354 4.2193-.1845.1538-1.927 1.6154c-3.3115 2.8385-4.9077 4.3-5.5154 7.0038a7.7026 7.7026 0 0 0 2.2654 7.3154 7.696 7.696 0 0 0 5.2423 2.0616 7.7921 7.7921 0 0 0 2.2116-.3231l2.023-.6077c.15-.0462.2962-.0962.4462-.15a221.1466 221.1466 0 0 1 2.1808-.7962 7.7795 7.7795 0 0 0 2.5154-.5615l4.0038-1.6346c.6692-.073 1.3308-.2346 1.9577-.4846l5.6385-2.2077c.3692-.127 1.2615-.427 1.8538-.6077 1.0154-.2 2.1615-.6423 4.3154-1.4846l4.2-1.5 9.4692-3.627c.6308-.0576 1.2539-.1884 1.85-.3961l5.3423-1.8615a8.0559 8.0559 0 0 0 .3885-.15l1.75-.7154c.4538.0077 6.3.15 7.9308.1884l4.2692.3346c.3038.0654.6077.1154.8923.1385l10.5115.85c.2116.0154.4154.023.6231.023.2885 0 .5692-.0115.8539-.046l10.4115.5384 3.6038 3.0885a7.679 7.679 0 0 0 1.3385.923l3.9539 3.8308c1.4653 1.423 3.3961 2.1692 5.3538 2.1692.573 0 1.1462-.0654 1.7115-.1923l5.7808.1577c.073 0 .1423.0039.2115.0039.527 0 1.0539-.0577 1.5616-.1616l14.0308.8193 7.2807 4.2076c.6693.3847 1.3885.6693 2.127.8385l10.6076 5.1654c.5539.6423 1.2077 1.2 1.9577 1.6423 1.1962.7038 2.5462 1.0577 3.8962 1.0577.9461 0 1.8923-.173 2.7923-.523l5.5038-2.1424 6.5923 2.223.5539.904c1.3038 2.1192 3.5538 3.4807 6.0385 3.646l1.2076.0809 2.0962 2.373a7.513 7.513 0 0 0 1.6423 1.4039l1.3923 1.5846c1.2846 2.1385 3.5692 3.5654 6.1423 3.7154l5.5346 1.2577 1.7462 2.7a7.6727 7.6727 0 0 0 3.8385 3.0538l8.673 3.1423c.2346.0846.4693.1539.7077.2154 1 .2577 9.9308 2.5308 15.0039 3.1615 2.0269.2654 4.4077.4039 7.0384.4039 2.1346 0 4.4193-.0885 6.9923-.2654.3923-.027.7693-.0461 1.1308-.0654.827-.0384 1.5962-.0846 2.2846-.1654 4.9616-.4653 7.0039-3.6153 7.777-5.45.7769-1.7923 1.3115-4.7577-.6808-8.2807-.3039-.6039-.9577-1.8308-2.5462-4.6539-.073-.123-.1461-.25-.2269-.373l-2.1385-3.3347a8.3453 8.3453 0 0 0-.1577-.2346l-9.0307-13.0154a6.9486 6.9486 0 0 0-.4346-.5692l-1.7116-2.0308-1.5846-2.1538c-.1577-.2192-.327-.423-.5077-.623l-2.9808-3.2732-7.3-8.0115a4.5182 4.5182 0 0 0-.3-.3077l-3.1461-3.0923c-.0539-.0539-.1077-.1077-.1654-.1577l-11.3192-10.4692a8.0904 8.0904 0 0 0-.5231-.4385l-9.2654-7.1615a7.5542 7.5542 0 0 0-1.0923-.7039L304.705 72.5l-10.727-6.527a6.9274 6.9274 0 0 0-.3345-.1922l-7.6193-4.1231c-.2153-.1192-.4346-.223-.6576-.3192l-1.4693-.6193a5.492 5.492 0 0 0-.3769-.15l-6.2154-2.2538-9.127-3.4385a7.7921 7.7921 0 0 0-.9807-.2961l-.7115-.1654-2.9039-.7c-.1269-.0308-.2577-.0577-.3846-.0846l-.5269-.1-2.3346-.6039a9.6514 9.6514 0 0 0-.5577-.123l-5.4808-.9924a7.4298 7.4298 0 0 0-1.123-.123l-2.0424-.0654-4.2884-.8077a8.0115 8.0115 0 0 0-.9077-.1116l-5.7-.3846-1.9-.2038c-.227-.027-.4539-.0385-.6846-.0462L233.9703 50h-.1462zm0 7.6923l3.6808.0692 2.0539.2231 5.8653.3923 4.8731.9154 2.627.0846 5.4769.9962 2.5884.673.7846.1462 2.9808.7192.7116.1654 9.2153 3.4693 6.2154 2.2538 1.4693.623 7.6153 4.1232 10.9193 6.6384 3.35 1.7846 9.2654 7.1577 11.323 10.4693 3.15 3.0923 7.2962 8.0115 2.9808 3.273 1.7346 2.3578 1.873 2.223 9.0347 13.0154 2.1384 3.3385s2.1923 3.8885 2.4346 4.4615c.1693.3154.6923 1.0346.3962 1.7193-.2885.6884-.8962.7192-1.5539.7807-.8846.1039-1.9269.1193-3.0769.2-1.7769.1231-4.0615.2462-6.4577.2462-2.0307 0-4.1423-.0885-6.0884-.3423-4.7308-.5923-14.0423-2.9808-14.0423-2.9808l-8.6693-3.1385-3.45-5.3307-9.373-2.127h-.4693l-.0538-.2461-3.3846-3.8577-.4231-.0154-4.1923-4.7461-4.3654-.2923-2.0077-3.2693-11.873-4.0077-8.1116 3.1539-.1039-.7654-14.2807-6.9538-.35.05-8.0885-4.677-.1038-.4077-18.1731-1.0615-.3616.2462-7.2269-.2-.4769.2307-5.2462-5.0846-.3923.0154-5.15-4.4154-.0846-.3615-14.523-.75-.1193.0923-10.5115-.85-.1693-.077-5.1923-.4115c-.1077 0-8.1923-.1961-8.1923-.1961l-.6077-.4423-4.2269 1.7346-5.3384 1.8615-.9577.0539-10.4154 3.9884-4.3116 1.5385s-2.8923 1.1307-3.0769 1.1307c-.0038 0-.0077 0-.0077-.0038s-.0038-.0038-.0154-.0038c-.2077 0-3.0192.9538-3.0192.9538l-5.7961 2.2692h-.777l-5.2884 2.1577s-.6385-.0307-.7116-.0615h-.0038c-.1385 0-3.7346 1.327-3.7346 1.327l-2.0193.6038c.0731-.3308 2.9577-2.7962 2.9577-2.7962l1.927-1.6192 5.35-4.2193.9269-.6192 4.7115-3.177 5.6923-4.4807.8193-.5192 5.0038-2.65 1.6462-.9539 4.5884-2.3884 4.9039-3.2039 5.6307-3.0423 2.6577-1.2769 8.0423-3.1385 6.3346-2.6346 2.5731-.9923 2.0539-1.2 4.2769-1.1577 1.7654-1.0807 2.8961-.7885 4.8808-1.7654 1.1923.0385 5.227-1.0154 3.2307-1.0039 4.2692-.8423 4.1385-.4615 4.6923-.1154 6.0846-.6846 6.1192-.1654z" fill="#FFF"/><path d="M434.6559 203.0192c-.677 0-1.4423-.1577-1.9385-.3038l-.6192-.177c-1.0693-.3115-2.1154-.6269-3.0962-1.073-1.8154-.8462-3.7923-1.4962-5.7192-1.8923l-2.0039-.427c-1.9346-.4153-3.8807-.8307-5.8192-1.1923-1.05-.1692-3.3808-.4115-3.4-.4153-3.073-.2847-6.8385-.5962-7.4846-.6-3.45.0615-6.9.1615-10.3539.2769-.9769.0461-2.0192.0846-3.0615.0846-2.8461 0-4.9885-1.677-5.65-4.377l-.4885-1.873c-.2153-.8385-.4307-1.6654-.6615-2.4923l-1.373-4.4346-1.3116-4.1346c-.6192-1.95-1.2385-3.9039-1.873-5.8462-.377-1.1423-.8732-2.2961-1.377-3.4308-.5962-1.3807-1.127-2.7307-1.6539-4.0769-.9653-2.4654-1.873-4.7923-3.0692-6.9692-.95-1.7654-1.7846-3.573-2.6115-5.373l-1.0846-2.327c-.2885-.5808-.5231-1.2962-.6731-2.0692-.277-1.55.0115-2.8347.8461-3.9962.9923-1.2115 2.0193-1.627 2.5693-1.85.5769-.2385 2.5615-1.1577 2.5615-1.1577l2.6538-1.5423c-.0115 0 1.7924-1.1923 2.2308-1.5192.5539-.4116 3.0616-2.4808 3.1692-2.5654h-.0038c-.0077 0 3.1077-2.873 4.6-4.523.9808-1.0886 3.6538-5.2155 5.2346-7.7962a3.8363 3.8363 0 0 1 2.077-1.6462c.4153-.1423.8653-.223 1.2961-.223 1.5577 0 2.8385.7115 3.8115 2.1153.5539.6462 1.8308 2.177 1.8308 2.177l13.923 18.8192 2.0732 3.3577 2.9076 5.8153 2.8808 4.6847c.0808.1384.1577.2807.2231.4269l2.5308 5.6269 2.0769 4.9923 4.4038 9.8115 1.5385 4.2693 1.5615 4.6538.55 2.1077.4385 1.1577c.1846.5039 1.1423 3.1654 1.427 4.8077.3038 1.7962-.5308 4.1-2.654 4.873l-.0038-.0076c-.4615.1654-.973.2538-1.4307.2538" fill="#CE1141"/><path d="M396.5748 119.2308c-.8269 0-1.673.1423-2.473.4077-1.7154.5577-3.2116 1.7115-4.177 3.2961-1.9076 3.1077-4.1653 6.5-4.8307 7.2577-1.0731 1.1808-3.4 3.377-4.3308 4.2423-.5615.4577-2.323 1.9039-2.827 2.2846-.4268.3154-1.596 1.0923-2.0768 1.4116l-2.4577 1.4115c-.5423.25-1.6308.75-1.9923.9039-.8154.3307-2.5539 1.0307-4.0039 2.7692-.123.15-.2423.3-.3577.4577-1.4346 2.0077-1.9461 4.2923-1.5154 6.7923.2462 1.2808.5962 2.3308 1.0731 3.2846.3.6346.6577 1.4038 1.0116 2.177.8307 1.8 1.6846 3.6615 2.6884 5.5307 1.1116 2.0192 1.977 4.2346 2.8923 6.577.5423 1.3884 1.0885 2.7845 1.6846 4.1615.4616 1.0423.9462 2.1692 1.2847 3.1807.6076 1.85 1.2076 3.75 1.8076 5.6462a720.1556 720.1556 0 0 0 1.3847 4.3538c.173.5808.4038 1.3154.6307 2.0462.2385.7538.477 1.5077.6962 2.2654.2077.7153.4077 1.5038.6077 2.2961.1692.6539.3384 1.3154.5192 1.977 1.1039 4.3038 4.827 7.1846 9.3039 7.1846 1.1576 0 2.2615-.0385 3.3653-.0924 3.3039-.1076 6.7385-.2076 10.2039-.2692.5654.0192 4.1654.323 7.077.5885-.004 0 2.1307.223 3.1807.3923 1.7.3192 3.5846.723 5.4615 1.123l2.077.4462c1.646.3385 3.3807.9116 4.9076 1.6154 1.3423.6154 2.6116.9808 3.6346 1.2808l.5885.1692c.5192.1538 1.7423.4654 3.0539.4654.9269 0 1.8961-.173 2.7923-.5l.0038.0038c4.0692-1.5115 5.6577-5.8346 5.0808-9.1346-.327-1.8615-1.2346-4.4461-1.6116-5.477l-.4077-1.1384-.3923-1.5038c-.0461-.1692-.0923-.3385-.15-.5039l-1.5307-4.5807-1.477-4.1423c-.0692-.1885-.1423-.3731-.2269-.5577l-4.4038-9.8116-1.9923-4.7923c-.027-.0654-.0539-.1384-.0846-.2038l-2.5308-5.627c-.1385-.2961-.2846-.5769-.4539-.8538l-2.8653-4.6885-.5577-1.1384-2.0462-4.1a8.4854 8.4854 0 0 0-.323-.577l-1.8847-3.0769a8.6567 8.6567 0 0 0-.3692-.5538l-.8-1.0808-12.9808-17.5654c-.0923-.123-.1846-.2461-.2846-.3615 0 0-1.0423-1.2462-1.7462-2.0654-2.2192-3.123-5.2384-3.6038-6.85-3.6038m0 7.6923c.4154 0 .5116.2923.8116.6846.6384.7346 1.8808 2.223 1.8808 2.223L412.2479 147.4l.8 1.077 1.8808 3.0768 2.0346 4.0693.7115 1.4423 3.0424 4.9846 2.5346 5.6308 2.0307 4.8884 4.4462 9.9116 1.427 3.9884 1.5345 4.5808.477 1.8462.5423 1.5038s1.0153 2.773 1.2538 4.1577c.0308.1808-.0923.5692-.177.6-.023.0115-.0653.0154-.1191.0154-.2 0-.5924-.0654-.85-.1423-1.1039-.3308-2.2039-.6077-3.2039-1.0654-2.0538-.9462-4.3308-1.7039-6.5461-2.1577-2.6231-.5539-5.2654-1.1462-7.8924-1.6346-1.2153-.1962-3.7-.4577-3.7-.4577s-6.7538-.623-7.8884-.623h-.0423c-3.5.0653-6.9654.1653-10.4385.2768-.977.05-1.9538.0846-2.9346.0846h-.0538c-.9693 0-1.6231-.4423-1.8616-1.4423-.4154-1.5192-.7692-3.0269-1.1923-4.5115-.4461-1.5038-.9346-2.9923-1.3808-4.4846-1.0769-3.3346-2.1192-6.7192-3.2153-10.0692-.427-1.277-.9654-2.5539-1.5231-3.8-1.6346-3.7924-2.8616-7.6885-4.8577-11.3308-1.3116-2.4346-2.4077-5.0077-3.6-7.5039-.1808-.3653-.2962-.7577-.373-1.1461-.0847-.4962-.0193-.7192.1922-1.0154.2462-.2923.673-.4423 1.0346-.5923.3616-.1423 2.5962-1.173 2.5962-1.173l2.9654-1.704s2.1423-1.4192 2.6192-1.7807c.4923-.3577 3.2962-2.6692 3.2962-2.6692s3.3423-3.0731 5.0038-4.9039c1.6692-1.8615 5.6615-8.373 5.6615-8.373.027 0 .0616-.0308.0923-.0308" fill="#FFF"/><path d="M366.8915 143.1846c-1.8654 0-3.7884-1.0846-4.8923-2.7654l-.45-.6346c-.7192-1.027-1.5385-2.1923-2.177-3.5384-.7653-1.6577-1.85-3.2847-3.4307-5.1616-1.8308-2.2192-3.2615-4.5538-4.6461-6.8115-.4385-.7154-.877-1.4308-1.3231-2.1385-.1462-.2154-.2923-.477-.4346-.7423-1.2193-1.4961-2.2731-2.8538-3.3231-4.2115-1.6192-2.0885-3.1462-4.0616-4.8923-5.7885-1.877-1.8808-3.4923-3.9192-4.827-5.6615-1.3115-1.7077-2.8769-3.25-4.5422-4.8808l-.8193-.8115c-2.5807-2.4577-4.5461-4.4308-6.3269-6.35-1.0615-1.1462-2.3692-2.15-3.7538-3.2154-.7193-.5539-1.4423-1.1077-2.1462-1.6885 0 0-1.6077-1.3692-1.85-1.5884-.2077-.1885-.4038-.4-.6346-.5424-2.2-1.2269-3.9039-2.7038-5.3346-3.9961-1.6385-1.55-3.4193-2.9-5.3577-4.073-3.5423-2.1-7.1-4.1809-10.7077-6.25-.6346-.3809-1.3115-.6616-2.2615-.9462-1.25-.3616-2.4039-.8923-3.427-1.3616-.4884-.223-.9769-.4461-1.4769-.6461-1.1462-.4654-2.2923-.9-3.4346-1.3346-1.227-.4654-2.45-.9308-3.6616-1.4193-.3692-.1307-1.4346-.6615-1.4346-.6615-.4346-.2116-.7923-.4923-1.1154-.85l-.2961-.3308c-1.3692-1.5154-1.3154-3.8423.1308-5.2923l.6692-.6692c.727-.727 1.7077-1.1308 2.723-1.1308.1231 0 .25.0039.377.0192l1.1885.1154c.15.0154.2923.0346.4346.0693l7.5846 1.6307 7.9577 2.0116c.3192.0961 10.3077 3.5653 11.2154 3.8461v.0116c.5692.1692 1.5423.5115 3.5077 1.1961l-.0116.0346c1.1077.3693 3.427 1.277 9.1577 3.5308l17.2115 8.1346 21.8385 13.0962c.2.1192.3885.2577.5615.4077l4.2885 3.7692c.9692.7538 1.6846 1.3077 2.2077 1.777l.023-.0232c.2578.2154 12.3885 10.0346 12.3885 10.0346l.8423.7231 2.5654 2.5231c.1693.1654.3231.35.4616.5462L386.38 112.8l1.7423 1.9962c.1654.1923.3154.4.4423.623l.673 1.1808c1.1924 1.8115 1.3693 2.6615 1.4462 3.023.25 1.2693-.0346 2.6693-.8461 4.1885l-2.9423 4.9347c-.0654.1192-.1423.2307-.2231.3384l-1.673 2.227c-.404.4846-2.6386 3.0769-3.8655 4.2346-.8461.7538-1.9461 1.5884-2.8192 2.2461-.4039.3039-.75.5577-.927.7115-.7884.7462-2.4153 1.6193-3.3115 2.0654l-2.8615 1.2654-1.623.6692c-.5347.2308-1.4155.5577-2.2193.6539-.15.0192-.327.027-.4808.027" fill="#CE1141"/><path d="M281.4387 53.8462a7.7084 7.7084 0 0 0-5.4385 2.25l-.6692.673c-2.8962 2.8923-3.0154 7.55-.277 10.5885l.3.3308c.6308.7038 1.3924 1.2846 2.2385 1.7115.4923.25 1.1846.5846 1.8192.827 1.2039.4845 2.4193.946 3.6385 1.4115 1.123.4269 2.2462.8538 3.3654 1.3038.4423.1808.873.3808 1.3077.5808 1.0884.5 2.4461 1.1192 4.0115 1.5692.55.1692.9693.3346 1.277.5154a875.6564 875.6564 0 0 1 10.7807 6.3038c1.65 1 3.2116 2.1808 4.5846 3.4808 1.6846 1.523 3.5385 3.127 5.8923 4.4654.0693.0615.1308.123.2.1808.2885.2653.577.523.8731.7692l.373.3154.5809.4923c.0538.0461.1077.0923.1577.1346.7384.6115 1.4961 1.1962 2.2538 1.777 1.3077 1 2.4346 1.8653 3.2692 2.7692 1.8462 1.9846 3.8654 4.0115 6.5577 6.5807l.7462.7346c1.5538 1.5308 3.023 2.9731 4.1577 4.4577 1.4154 1.8423 3.1269 3.9923 5.1269 6.0077 1.6154 1.6 3.0692 3.477 4.6154 5.4693.9692 1.2538 1.9692 2.5461 3.0615 3.8384.1923.3462.3577.627.5346.9.3885.6077.8154 1.3077 1.2462 2.0077 1.45 2.3692 2.9538 4.8192 4.9384 7.2192 1.3924 1.6577 2.3 3.0116 2.9 4.3077.8154 1.7231 1.777 3.0923 2.5539 4.1923l.4538.65c1.75 2.65 4.8539 4.3693 8.0231 4.3693.0962 0 .227 0 .327-.0077a7.4773 7.4773 0 0 0 .5846-.0462c1.0269-.1154 2.1653-.4423 3.3846-.973l1.3807-.5654c.0693-.027.1347-.0577.2039-.0847.0038 0 1.9461-.8615 2.6423-1.1653a6.837 6.837 0 0 0 .3808-.177c1.773-.8884 3.15-1.7577 4.0961-2.5846.1808-.1461.4423-.3423.7462-.5692.9077-.6846 2.0423-1.5385 2.9692-2.3654a5.5504 5.5504 0 0 0 .1538-.1385c1.3193-1.2384 3.3962-3.6423 4.0077-4.35.1039-.123.2039-.25.3039-.3807l1.6692-2.2231c.1654-.2192.3154-.4462.4577-.6808l2.8539-4.7769c.0576-.1038.1192-.2115.173-.3154.8577-1.6038 1.7654-4.0769 1.227-6.7538-.1885-.9308-.577-2.177-1.9885-4.3693l-.55-.9769c-.2577-.45-.5577-.8692-.8962-1.2615l-1.6-1.8346-1.0192-1.4731a7.8096 7.8096 0 0 0-.9192-1.0923l-2.3616-2.3346a7.2906 7.2906 0 0 0-.4-.3731l-.7384-.6308a2.8324 2.8324 0 0 0-.1923-.1615l-6.8962-5.5846c-2.7461-2.2231-5.127-4.15-5.4538-4.4193l-.0308.0385c-.6615-.6-1.4308-1.2038-2.2923-1.873l-4.1192-3.6193a7.7478 7.7478 0 0 0-1.1154-.8154L342.377 75.177c-.2154-.1307-.4423-.2538-.6692-.3577l-16.973-8.0346a5.3266 5.3266 0 0 0-.4808-.2077c-5.2693-2.0692-7.8424-3.0807-9.3039-3.573l.0154-.0424c-1.8039-.6307-2.8846-1.0115-3.623-1.2384l.0038-.0077c-.6693-.2154-6.0616-2.073-10.7847-3.7154a7.9274 7.9274 0 0 0-.6346-.1885l-7.823-1.9807a5.5195 5.5195 0 0 0-.2693-.0616l-7.5884-1.6346A7.3544 7.3544 0 0 0 283.381 54l-1.1923-.1192a8.2183 8.2183 0 0 0-.75-.0346m0 7.6923l1.1923.1153 7.5846 1.6347 7.8192 1.9807s10.977 3.8077 11.0885 3.8077c.0308 0 3.3115 1.1462 3.3115 1.1462.0616 0 9.0077 3.5115 9.0077 3.5115l16.973 8.0346 21.504 12.9193 4.2922 3.7653s2.2808 1.7808 2.2808 1.7962c.023.0346 8.3 6.723 12.4539 10.0885.2423.2115.7653.6577.7653.6577l2.3616 2.3384 1.2654 1.8308 1.8807 2.1577.6731 1.1807s.9192 1.4039 1.0192 1.8962c.1077.527-.4653 1.6-.4653 1.6l-2.85 4.777-1.6731 2.2268s-2.3116 2.6924-3.427 3.7424c-1.1576 1.0346-3.1692 2.4346-3.6615 2.8769-.4654.4423-1.8269 1.1807-2.4769 1.5077-.7115.3077-2.7 1.1884-2.7 1.1884l-1.523.6231s-.8.3462-1.2116.3962h-.0308c-.4423 0-1.2308-.3423-1.6846-1.0347-.8192-1.1923-1.7346-2.3807-2.3615-3.7038-1.0116-2.1962-2.4154-4.1577-3.9577-5.9923-2.1923-2.65-3.8423-5.6539-5.6731-8.5346-.2962-.4539-.5-.9846-.8615-1.377-2.8308-3.3038-5.2231-6.9653-8.3308-10.0384-1.627-1.6385-3.073-3.4385-4.4808-5.2692-1.7-2.2231-3.7192-4.1193-5.7038-6.0847-2.127-2.0269-4.2231-4.0846-6.2116-6.2307-1.873-2.027-4.1692-3.5154-6.2654-5.25-.373-.3231-.7538-.6385-1.1192-.9462-.6692-.5538-1.2884-1.2461-2.0423-1.6307-1.6808-.9385-3.1192-2.1616-4.5308-3.4385-1.8346-1.7346-3.8192-3.223-5.95-4.5115-3.5884-2.1308-7.1577-4.2193-10.7807-6.3-.9654-.5731-1.9731-.9616-3.0731-1.2924-1.5846-.4576-3.0423-1.2769-4.573-1.8923-2.3616-.9538-4.7462-1.8038-7.0885-2.75-.3693-.1346-1.1385-.523-1.1385-.523l-.2962-.3308.6693-.6692" fill="#FFF"/><path d="M59.2667 276.0808c-.4846 0-.973-.0885-1.4423-.2808a1.4686 1.4686 0 0 1-.1769-.0808c-1.1961-.5077-2.373-1.7077-2.6346-4.423l-.423-6.4616-.4078-.9c-.2346-.527-.35-1.1-.3346-1.6808l.6692-25.6076a4.726 4.726 0 0 1 .0308-.4077l1.5577-11.677.3577-5.3769a3.6068 3.6068 0 0 1 .0808-.573l1.0423-4.6808 1.7615-10.6193 1.1808-5.5423c.0538-.2461.127-.4846.2308-.7154l2.4576-5.7038.2654-2.177a3.8398 3.8398 0 0 1 1.5539-2.65l6.3923-4.6615L85.5706 171.35l12.6461-9.1115 7.9885-6.1039c.3846-.6.9308-1.0923 1.5885-1.4077l3.823-1.8346 1.6347-1.6692c.7461-.7654 1.7461-1.1577 2.75-1.1577.8346 0 1.673.273 2.373.823l.0116.0078c2.1884.3576 7.4615 1.2269 9.3269 1.5153 2.0538-.6653 5.4154-1.5153 11.027-2.9346a3.7454 3.7454 0 0 1 .9422-.1192c.3693 0 .7385.0538 1.0962.1615l1.2961.3846c.1231-.0153.25-.0192.377-.0192.5653 0 1.1269.123 1.6538.373l4.3039 2.0462 3.2076-2.5346c.2231-.3615.4924-.6807.7924-.9115L168.9244 136.1c.6885-.5308 1.5193-.8038 2.35-.8038.6693 0 1.3423.1769 1.9462.5307l.5192.3039 3.5346.1154c.3308.0115.6577.0653.9731.1576l14.177-.0884a3.8153 3.8153 0 0 1 1.2807-.2192c.1192 0 .2385.0038.3577.0153l7.3192.6885c.2193-.2077.4616-.3923.7308-.5462l17.7154-10.2269c.5961-.3461 1.2615-.5115 1.923-.5115.4308 0 .8616.073 1.2731.2154l10.1962-.7693c.4577-.2423.9654-.3884 1.4846-.4307 0 0 4.9692-.3885 5.0692-.3885.427 0 .8539.073 1.2577.2115 0 0 24.3154-1.2769 24.3846-1.2769.4962 0 .9847.0962 1.45.2846l6.4424 2.6231s7.3384-.5346 7.4307-.5346c.8616 0 1.6962.2923 2.377.823l1.6653.5732a4.9395 4.9395 0 0 1 .2423-.0077c.1923 0 .3808.0153.5731.0423l4.2654.6423c1.3923.2077 2.5462 1.1577 3.0308 2.45l2.0384 1.8423c.5.127.9693.3538 1.3846.6692l4.9193 3.7423 9.4577.7385a3.831 3.831 0 0 1 1.2615-.2154c.4192 0 .8385.0692 1.2385.2077l12.7077 4.3538h-.0039c.0616 0 7.3846 1.8193 10.477 2.2654l8.973 1.1693h3.2616c.3653 0 .7269.05 1.0769.1538 3.6346-.2923 6.0884-.477 6.9692-.477.5423 0 2.3192-.146 4.6654-.4153l.4423-.0692c.5192-.0847.95-.1347 1.3385-.1347.9077 0 1.7653.227 2.5423.677 1.4384.7884 2.0577 1.9538 2.3577 2.5154l-3.1808 2.2192 3.377-1.8423c.1807.3307.3038.5769.4268.873l1.277 2.4154c1.7153 3.2731 3.3384 6.3654 4.6653 10.1385.1424.427.3077.7808.4693 1.1462.1923.4461.3923.8961.5654 1.3615.2538.7077.4653 1.373.6769 2.0385.3115.9884.6115 1.9769 1.0461 2.9038 1.027 2.0692 1.7462 4.227 2.4423 6.3077.2962.8846.5924 1.773.9154 2.6538.8423 2.3231 1.5193 4.5616 2.2077 6.8347.377 1.2576.7616 2.523 1.177 3.8153.6884 2.15.1346 3.6731-.45 4.5731-.5847.9077-1.7693 2.0462-4.0693 2.3077-1.8654.2039-3.723.3808-5.573.5577l-2.3962.2385c-3.1885.3269-6.3654.65-9.5462.8884-4.6769.3885-13.4577 1.4539-16.1077 1.7808l-.1615.0961a3.8485 3.8485 0 0 1-1.9308.5193 3.8419 3.8419 0 0 1-2.1269-.6423s-2.2423.1538-2.3308.1538c-.473 0-.9384-.0846-1.3807-.2577l-5.3846-2.0692-5.4847-.823a3.882 3.882 0 0 1-1.573-.6078l-.0808-.0577-.0808.0193c-.2846.0653-.573.1-.8654.1-.3269 0-.6538-.0423-.9692-.127l-7.1154-1.8538-1.4154.3346c-.0538.027-2.3461 1.0923-2.3461 1.0923a4.204 4.204 0 0 1-.7.2462c-.7308.723-1.7116 1.1077-2.7077 1.1077-.6385 0-1.2885-.1577-1.8808-.4923l-3.5077-1.9731-.25-.0077c-.55-.0116-1.0961-.1462-1.5923-.3885l-3.2538-1.5923-.5346.1692c-.2308.1577-.4693.2924-.7154.3847l-12.3731 4.723c-.3962.427-.8923.7616-1.45.9731l-3.9885 1.5077c-.3.273-.6461.4962-1.0153.6615l-4.5424 2.027a3.879 3.879 0 0 1-1.2384.323l-2.177.977c-.5038.5346-1.15.9192-1.873 1.1l-1.5192.3769c-.3077.077-.6193.1115-.9308.1115-.4423 0-.8846-.0769-1.3077-.2269l-7.9192-.3808a3.8282 3.8282 0 0 1-2.1539.7039l-10.9154.1884c-.5423.277-1.1423.4154-1.7423.4154-.8846 0-1.7692-.3-2.4923-.9154l-4.4038-3.75-3.4.577c-.4577.273-.9654.45-1.5.5154l-4.7577.5846c-.6193.3884-1.327.5846-2.0423.5846a3.854 3.854 0 0 1-1.6423-.3654l-6.1731-2.9192-10.8539 1.3923-7.5577 7.1961a3.783 3.783 0 0 1-.7923.5808l-9.9961 10.2a3.8128 3.8128 0 0 1-1.9923 1.0808l-5.8193 1.1654c-.25.05-.5.073-.7538.073a3.9238 3.9238 0 0 1-.3654-.0154l-7.4577-.7076c-.4846-.05-.9461-.1847-1.3654-.3962l-16.2692-.227-5.7692 3.954-5.8654 3.6345-1.2692 1.6731c-.7462.977-1.8885 1.5154-3.0654 1.5154-.4423 0-.8962-.077-1.3308-.2385l-.1423-.05h-3.4038a3.9167 3.9167 0 0 1-1.3616.4154l-13.127 1.4731-4.9153 5.6385A3.8226 3.8226 0 0 1 109.8014 239l-7.9962.4115-8.9423 3.6039-30.8308 31.8923c-.7384.7654-1.7423 1.173-2.7654 1.173" fill="#CE1141"/><path d="M265.4181 119.2308c-.1346 0-.2692.0038-.4038.0115l-23.5692 1.2385a7.6037 7.6037 0 0 0-1.6693-.1846c-.2038 0-.4038.0076-.6077.023l-4.7653.377a7.5879 7.5879 0 0 0-2.1308.4807l-8.877.6693a7.628 7.628 0 0 0-1.646-.1808c-1.3193 0-2.6462.3423-3.8462 1.0308l-17.5654 10.1423-5.9154-.5539a7.5023 7.5023 0 0 0-.7192-.0346c-.6193 0-1.2347.073-1.8347.2192l-13.1769.0846c-.423-.0846-.8538-.1384-1.2923-.15l-2.5808-.0884c-1.1153-.577-2.3307-.8654-3.5461-.8654a7.6733 7.6733 0 0 0-4.7 1.6077l-16.5154 12.7577c-.5154.4-.977.8577-1.373 1.3654l-.7847.623-2.1461-1.0192c-1.0077-.477-2.0885-.727-3.1731-.7461l-.7116-.2077a7.6805 7.6805 0 0 0-2.1846-.3193c-.6346 0-1.2692.0808-1.8884.2347 0 0-2.9577.75-5.9193 1.5153-1.7346.4462-3.2154.827-4.473 1.2039-1.7-.2692-4.6308-.7462-7.5885-1.2346-1.1846-.677-2.5-1.0116-3.8154-1.0116-2.0077 0-4.0038.7808-5.5038 2.3154l-1.1539 1.1846-3.2154 1.5385c-1.0615.5115-1.9846 1.2538-2.7 2.1615l-7.5461 5.7616-12.5116 9.0115-14.2653 10.6039-6.3347 4.6192a7.691 7.691 0 0 0-3.1077 5.2923l-.1961 1.623-2.2385 5.1962c-.2038.4616-.3538.9462-.4615 1.4385l-1.1462 5.3654c-.0269.1154-.05.2346-.0653.35L53.7874 213.3l-1 4.4692a7.7927 7.7927 0 0 0-.1654 1.1539l-.3654 5.373-1.5192 11.4347a6.4103 6.4103 0 0 0-.0654.8115l-.6692 25.6115c-.0308 1.1539.1961 2.3.673 3.3539l.1193.2692.3692 5.65c.0038.077.0115.1539.0192.2308.3616 3.7885 2.0731 5.827 3.7346 6.9192.45.3116.9423.577 1.4616.7885.9384.377 1.9154.5615 2.8846.5615 2.0461 0 4.0538-.8154 5.5308-2.3461l30.2653-31.3039 7.5847-3.0615 7.35-.373c2.0846-.1078 4.0346-1.054 5.4038-2.627l3.9385-4.5116 11.6384-1.3076a7.5947 7.5947 0 0 0 1.7077-.3924h2.0039c.6923.2 1.4.2924 2.1.2924 2.3538 0 4.6384-1.0808 6.123-3.0347l.8424-1.1038 5.1038-3.1615a4.024 4.024 0 0 0 .3-.1962l4.7654-3.2654 14.3154.2c.573.2 1.1692.3308 1.7884.3885l7.4577.7077a7.6888 7.6888 0 0 0 2.2385-.1154l5.8192-1.1654c1.5116-.3038 2.9039-1.0538 3.9846-2.1577l9.6654-9.8654a7.7658 7.7658 0 0 0 1.027-.823l6.646-6.327 8.4847-1.0884 5.1577 2.4346a7.6728 7.6728 0 0 0 3.2846.7384 7.7582 7.7582 0 0 0 3.2154-.7l4.0538-.5c.7847-.0961 1.55-.3115 2.2616-.6384l1.0461-.177 3.0347 2.5847c1.45 1.2307 3.2192 1.8346 4.9846 1.8346.8615 0 1.723-.1423 2.5423-.4308l10.1807-.177c1.0347-.0153 2.05-.2422 2.9847-.6538l6.3615.3039c.6423.173 1.3077.2577 1.973.2577.6193 0 1.2424-.073 1.854-.227l1.523-.3769c1.1462-.2884 2.2077-.8307 3.0962-1.5807l1.1076-.5a7.7776 7.7776 0 0 0 1.7231-.5346l4.5423-2.027a8.1106 8.1106 0 0 0 1.3731-.7923l3.423-1.2961a7.7376 7.7376 0 0 0 2.154-1.2385l11.4576-4.377 1.6693.8155a7.704 7.704 0 0 0 2.3961.7192l2.7539 1.55a7.671 7.671 0 0 0 3.7653.9846c1.6539 0 3.2885-.5308 4.6308-1.5423.1346-.0538.2654-.1077.3962-.1692l2.0153-.9346.0847-.0193 6.1846 1.6154c.6346.1654 1.2884.2462 1.9423.2462.0692 0 .1384 0 .2077-.0039.5807.2462 1.1923.4154 1.8269.5116l5.0654.7577 4.9923 1.923a7.6921 7.6921 0 0 0 2.7615.5116c.1731 0 .35-.0077.527-.0193 0 0 .4423-.0307 1.0076-.0692a7.694 7.694 0 0 0 2.927.577 7.6597 7.6597 0 0 0 3.2692-.7308c3.2346-.3962 11-1.327 15.2692-1.6847 3.2193-.2384 6.5-.573 9.677-.9l1.573-.1576.8423-.0808c1.8231-.173 3.6654-.3462 5.5-.5539 4.0077-.4538 6.0308-2.7269 6.8808-4.0384.8462-1.3116 2.0846-4.0731.877-7.8346-.404-1.2616-.777-2.4962-1.1462-3.7231-.6846-2.2654-1.3885-4.6-2.2731-7.0423-.327-.8885-.6115-1.7423-.8962-2.6-.7038-2.0962-1.4961-4.4731-2.6653-6.8385-.2308-.4961-.5077-1.377-.8077-2.3077-.2193-.7115-.45-1.4192-.7-2.1192-.2346-.6346-.4616-1.1577-.6923-1.677-.1116-.2538-.2308-.5-.3231-.7653-1.45-4.1308-3.2192-7.5-4.927-10.7577-.423-.8039-.8538-1.623-1.2807-2.4615-.123-.2731-.2615-.5424-.4346-.8654l-.1077-.1962c-.0192-.0346-.073-.1384-.0923-.173-.4-.7462-1.4539-2.7231-3.9616-4.0962-1.2153-.7039-2.7192-1.1077-4.3192-1.1077-.8385 0-1.5154.1115-1.9615.1846l-.3039.05c-2.2038.2539-3.7846.377-4.1923.3808-.9308 0-2.8808.1423-6.6884.4461-.4424-.0769-.8924-.1192-1.3424-.1192h-3.0115l-8.7846-1.1462c-2-.2884-7.05-1.4615-9.977-2.1884l-5.373-1.8539-7.027-2.3961a7.645 7.645 0 0 0-2.4807-.4116 7.7166 7.7166 0 0 0-1.627.1731l-7.6653-.5961-4.0192-3.0616c-.5308-.4-1.1039-.7307-1.7154-.9846l-.8846-.7961c-1.1347-2.077-3.1885-3.5616-5.6154-3.9231l-4.2654-.6385c-.2462-.0346-.4885-.0615-.7385-.073l-.55-.1924a7.7088 7.7088 0 0 0-4.1384-1.2077 6.923 6.923 0 0 0-.5616.0231l-6.2461.4577-5.6116-2.2846a7.6693 7.6693 0 0 0-2.9-.5692m-.0038 7.6923l7.2808 2.9654 8.0423-.5923.3961.3615 3.5 1.2077.3923-.1808 4.2654.6385.15.7192 3.8308 3.4539.7154.0461 6.1461 4.6808.3423-.1962 10.9462.85.5346-.2807 7 2.3884 5.6923 1.9654s7.7885 1.9423 11.173 2.4346l9.277 1.2077h3.5115l.6731.1962c2.8808-.2308 6.5077-.5231 7.3731-.5231.9462 0 3.273-.227 5.1077-.4385.5923-.073.9923-.1769 1.3346-.1769.2192 0 .4154.0385.623.1615.527.2885.7.6539.9116 1.0462.2039.3923.3193.5692.4154.8154 2.1615 4.2384 4.2962 7.8807 5.8885 12.4.2961.8846.7307 1.6961 1.0615 2.5807.627 1.75 1.0615 3.5693 1.8462 5.2347 1.3769 2.7807 2.1653 5.7538 3.2269 8.65 1.277 3.5307 2.1808 6.9192 3.3308 10.5.4153 1.2923-.1616 1.75-1.2847 1.8807-2.0961.2346-4.1923.427-6.2692.6231-3.7115.373-7.4038.7692-11.1077 1.0462-5.6961.473-17.0692 1.9-17.0692 1.9l-.8385.4884s-1.0461-.7192-1.0923-.7192c-.0346 0-3.3654.2308-3.3654.2308l-5.7769-2.2231-5.9077-.8846-1.4654-.9846-1.7038.3923-8.0346-2.0923-3.1385.7384-.0923.1423-2.1962 1.0154-.1269-.0461-1.3423.6384-.3192.4077-4.3423-2.4423-1.2-.0308-3.9039-1.9115-.673-.7385-.5193.527-2.3692.75-.1.2-13.4462 5.1307-.3653.5577-4.8385 1.8308-.373.427-4.5424 2.0268-.4577-.0307-3.9269 1.7653-.2654.4424-1.5192.3769-.5462-.1962-9.85-.473-1.0538.7653-12.2462.2116-.3423.3923-5.9884-5.1-.4924.3077-5.4884.9307-.3.3154-5.85.7193-.4808.423-6.6077-3.123-.573-.5577-.4885.3461-12.7385 1.6346-8.4692 8.0616-.2115-.0116-10.6731 10.8885-5.8193 1.1654-7.4576-.7077-.127-.3885-19.0384-.2654-6.777 4.6423-6.3192 3.9116-1.7038 2.2384-.7846-.2923h-5.2885l-.5962.4423-14.1307 1.5847-.6385-.2923-.5115 1.1115-5.2346 6.0038-8.6385.4385-10.3 4.1538-31.4 32.4808c0-.0308 0 0-.0308-.0308-.2769-.05-.3923-1.2769-.3923-1.2769l-.4615-7.0346-.6885-1.5385.6692-25.6076 1.5539-11.677.3808-5.6269 1.0423-4.677 1.8-10.8268 1.15-5.3654 2.6807-6.2116.3308-2.7307 6.3923-4.6616 14.1731-10.5307 12.6-9.077 8.8846-6.7884.1039-.3808 4.4384-2.127 2.1077-2.1538.7846.6193s10.8654 1.7884 11.1077 1.7884h.0039c-.1193-.1038 11.7884-3.1154 11.7884-3.1154l2.3846.7077.3808-.1807 6.4692 3.0769 5.7885-4.5808.0538-.3269 16.5116-12.7577 1.3615.8 4.5116.1462.3192.1653 15.75-.1.4885-.2115 8.8961.8346.423.2923.8-.7346.2116-.75 17.7154-10.227.3385.3 12.4192-.9384.5-.3538 4.7692-.377.4039.2616 25.2346-1.327" fill="#FFF"/><path d="M157.0222 394.623a3.925 3.925 0 0 1-.9423-.1153l-12.8539-3.2462-.3884.2462a3.6924 3.6924 0 0 1-1.0692.473l-3.3347 1.8347a3.821 3.821 0 0 1-1.85.477c-.75 0-1.5-.2193-2.1461-.654 0 0-.6885-.4615-1.2923-.8653a3.8904 3.8904 0 0 1-1.9077-.7039c-.1346-.0346-.2654-.0807-.3962-.1269l-8.673-3.3615c-.0231.0038-.0424.0038-.0462.0038-.7577 0-1.4923-.273-2.1192-.7115-2.6808-.8308-4.1962-1.3077-5.1193-1.6654l-.0153.0423c-.2693-.0962-3.827-1.2923-4.2154-1.427-.6731-.0692-1.1962-.146-1.7808-.4153h.0038c-.65-.3039-1.5769-.9423-2.0884-2.2308l-7.1423-7.75-4.9808-6.3807-5.7346-8.75-7.4308-10.277c-.7-.9692-.9115-2.2115-.5692-3.3538l.5308-1.7808a3.866 3.866 0 0 1 1.1769-1.8154l5.5423-4.7769c.6077-.523 1.3654-.8423 2.1615-.9192l13.6885-1.2462 9.373-22.723c-.096-1.277.45-2.5308 1.4731-3.327L131.4222 296.2a3.8729 3.8729 0 0 1 1.6385-.7423l.0961-.0192 8.7116-6.7308c.1307-.2539.2884-.4885.473-.7115a3.8475 3.8475 0 0 1 2.9423-1.3693c.1385 0 .277.0077.4154.0231l.8077.0846 2.1-.8846c.477-.2038.9846-.3038 1.5-.3038.0539 0 2.5846.1076 2.5846.1076l3.4039-.6846 7.6654-8.2961a3.8577 3.8577 0 0 1 2.8269-1.2346c.0769 0 8.0538.4807 8.0538.4807l1.1116-.3846a3.8142 3.8142 0 0 1 1.2615-.2154c.15 0 .3.0077.45.027l7.3846.873c11.2885-6.2692 15.6-8.6654 17.3193-9.6077.7653-.8884 1.8884-1.5115 3.0115-1.5115.0538 0 .6308.0308.6308.0308l10.0577-1.75a3.8452 3.8452 0 0 1 2.0807-.65l2.2-.0346s13.0962-14.9308 13.1039-14.9424c.1577-.3.3538-.5807.5846-.8346l10.2923-11.2154a3.8116 3.8116 0 0 1 .7654-1.3153l2.2346-2.5154a3.8486 3.8486 0 0 1 2.873-1.2923c.0885 0 12.8385.8692 12.8385.8692l.8846-.7538c.5808-.4924 1.2885-.8039 2.0424-.8924l1.8692-.2192 6.0384-3.55c.5924-.3461 1.2654-.5308 1.95-.5308h.0462l11.5577-8.9153c.5308-.4116 1.1692-.677 1.8423-.7654l12.0808-1.5962 5.3384-4.9615c.5962-.55 1.3423-.9 2.1423-1l4.9231-3.627c.277-.4807.6539-.9 1.1154-1.223.6538-.4654 1.4308-.7039 2.2154-.7039.4 0 .8.0616 1.1884.1847l1.9962.65 21.8577.5884 15.3461-5.35c.2654-.0884.5347-.1538.8077-.1846 2.6462-.3192 5.2231-.5538 7.7962-.7885 2.8346-.2577 5.6654-.5153 8.5885-.8923l.5346-.0654c.8961-.1076 1.9884-.2346 2.7961-.4.3-.0576.5693-.0961.8116-.1307.9461-.1231 1.5807-.1693 2.1269-.1693 5.1115 0 6.0384 4.35 6.3884 5.9885.4424 2.0308.7962 3.9577 1.1654 5.9385l.7962 4.3384c.3615 1.9808.723 3.9808 1.023 5.9654.527 3.4846 1.0231 6.9423 1.3924 10.473.1769 1.9.2692 3.7462.3615 5.5924l.15 2.7577.0654.7308c.05.5153.1 1.0269.1192 1.5423l.35 6.5461c.0116.2308.0385.4193.0654.6039.0692.5192.1308 1.023.1308 1.6577 0 .8461-.027 1.1538-.0731 1.723-.1115.9693-.3077 2.6231-1.8308 4.0347-1.4 1.2-2.8038 1.4-3.4769 1.5-.7846.1192-2.0961.2884-2.0961.2884l-2.627.1616-4.0192.6692-3.3346.6154c-.3962.1192-2.4616.7269-2.4616.7269-1.7038.5808-3.473 1.1846-5.2423 1.827-.6307.2307-1.2615.4268-1.9038.6268-.6654.2077-1.35.4231-2.0346.6808-3.0962 1.1923-10.7116 4.7615-10.7885 4.7962-.5154.2384-1.0692.3653-1.6346.3653-.15 0-.3-.0076-.45-.0269l-1.7885-.2115-2.9692-.4192c-.3654-.0539-.7154-.1539-1.0461-.3039-.7-.1-1.7577-.2423-2.6616-.3654l-.4846.4731a3.7813 3.7813 0 0 1-.7615.5692l-2.3077 2.7308c-.5577.65-1.3077 1.1038-2.1462 1.277l-6.5884 1.3884c-.3577.2423-.7616.4308-1.1847.5423l-3.9923 1.073-1.4923 2.8385.0193.4346c.0692 1.5731-.8308 3.0308-2.2731 3.677l-10.6193 4.7538c-.6461.6923-1.5269 1.1308-2.4769 1.2116a3.322 3.322 0 0 1-.3384.0153 3.8621 3.8621 0 0 1-2.2808-.7461l-5.6-.25-4.6692 3.25a3.8744 3.8744 0 0 1-1.7193.6577l-5.7884.7192-3.2962 1.427-1.277 4.3076a3.827 3.827 0 0 1-.9268 1.5808c-.477 1.427-1.75 2.4538-3.2693 2.6038l-.3923.0385-15.7884 7.2577c-.3846.4615-.8693.8308-1.4193 1.0692l-5.2038 2.2885a3.753 3.753 0 0 1-.8039.2538c-.7769.4385-1.9769 1.1577-1.9846 1.1654-.4269.2539-.8923.423-1.3769.4962-.0923.0654-.1885.123-.2885.1807l-3.8153 2.1693-2.3923 4.6384a3.8572 3.8572 0 0 1-1.3731 1.4923l-5.977 9.6847c-.123 1.6769-1.3269 3.0923-2.9807 3.4692l-.8539.1961c-.2269.1308-.4577.2347-.6692.2962l-3.2308.9615-1.8884 6.8923.3846 1.377c.2885 1.0423.1308 2.1577-.4423 3.073-.4654.75-1.173 1.3077-1.9962 1.5962l-1.823 1.8846c-2.6462 2.827-3.65 3.9-4.477 4.3115l-2.3154 2.4077-5.35 4.8923c-.0307.0654-.0653.127-.0961.1924-.1885.3576-.4346.6807-.723.9615-.0616.0577-3.4462 3.1961-3.4462 3.1961-.3039.2808-.6462.5116-1.0154.6808-.8462.8539-2.2077 2.2385-3.2308 3.25L194.453 385.05a3.8492 3.8492 0 0 1-2.8885 1.8l-22.823 2.25-9.9655 5.1038c-.55.277-1.15.4193-1.7538.4193" fill="#CE1141"/><path d="M380.7376 192.3077c-.7077 0-1.473.0538-2.4154.173-.0346.004-.1769.0231-.2115.027-.327.0461-.6692.1-1.0192.1654-.7616.1538-1.7154.2615-2.5077.3577l-.577.073c-2.8538.3654-5.5807.6116-8.4692.877-2.6115.2384-5.227.4769-7.9115.8-.55.0654-1.0923.1884-1.6154.373l-14.6808 5.1154-20.6038-.5538-1.4616-.477a7.9088 7.9088 0 0 0-2.3769-.3769c-1.573 0-3.123.4847-4.4385 1.4116a7.633 7.633 0 0 0-1.7115 1.6615l-3.727 2.7462a7.6828 7.6828 0 0 0-3.1384 1.7692l-4.4384 4.127-10.8654 1.4345a7.707 7.707 0 0 0-3.6923 1.5347l-10.6923 8.25c-.8616.1615-1.6923.4769-2.4539.923l-5.3423 3.1385-1.0692.127a7.6792 7.6792 0 0 0-3.7616 1.523l-11.0269-.7539a8.0394 8.0394 0 0 0-.527-.0192 7.6856 7.6856 0 0 0-5.75 2.5846l-2.2345 2.5154a7.828 7.828 0 0 0-1.177 1.7616l-9.8384 10.7192a8.1776 8.1776 0 0 0-.9 1.1961L218.38 258.877l-.4962.0077a7.693 7.693 0 0 0-3.3462.827l-8.9577 1.5576-.0346-.0038a7.4525 7.4525 0 0 0-.4115-.0116c-2.15 0-4.1693.9039-5.6039 2.4231-2.2346 1.227-6.6077 3.6539-15.4654 8.577l-6.15-.727c-.3-.0346-.6-.0538-.9-.0538-.8577 0-1.7115.1461-2.523.4269l-.3885.1346-7.05-.427c-.1577-.0076-.3115-.0153-.4692-.0153-2.1347 0-4.1847.8923-5.6462 2.4692l-6.823 7.3847-1.727.3461-1.9423-.0846c-.1154-.0039-.227-.0077-.3385-.0077-1.0307 0-2.05.2038-2.9961.6077l-1.1846.5a7.1141 7.1141 0 0 0-.6423-.027c-2.2539 0-4.4077.9924-5.8808 2.7347-.1577.1846-.3039.3808-.4423.577l-7.527 5.8191c-.8576.2731-1.6615.7-2.3769 1.25l-16.5423 12.877c-1.7654 1.373-2.8192 3.423-2.9538 5.5961l-8.1962 19.873-11.373 1.0347a7.7597 7.7597 0 0 0-4.3231 1.8346l-5.5423 4.777a7.6771 7.6771 0 0 0-2.35 3.6307l-.5308 1.777a7.6924 7.6924 0 0 0 1.1346 6.7076l7.427 10.2846 5.4576 8.3424a6.855 6.855 0 0 0 .3654.5115l4.7654 6.1346c.1308.1692.273.3346.4192.4962l6.7193 7.2807c.8884 1.7385 2.2807 2.9039 3.7077 3.5693.973.4538 1.8653.623 2.5653.7115.3962.1346.8693.2962 1.4423.4885.9808.3307 2.0116.673 2.3116.7846l.0192-.0462c1.05.3962 2.4923.8539 4.5308 1.4885 1.027.6115 2.1538.9654 3.25 1.077l8.0884 3.1345c.0462.0193.0962.0385.1424.0539a7.7006 7.7006 0 0 0 2.0884.8423c.3462.2269.6116.4077.6116.4077 1.2923.8692 2.7884 1.3077 4.2923 1.3077a7.6805 7.6805 0 0 0 3.7-.95l3.0153-1.6577c.15-.05.3-.1077.4462-.1693l11.3962 2.877a7.7875 7.7875 0 0 0 1.8769.2307 7.6822 7.6822 0 0 0 3.5077-.8461l9.3192-4.7654 22.0962-2.1808c2.3807-.2384 4.5192-1.5692 5.7807-3.6l9.1731-14.7846a381.9124 381.9124 0 0 0 2.523-2.5385 7.8214 7.8214 0 0 0 1.3078-.9769s3.5269-3.273 3.5923-3.3423c.4307-.427.8038-.9038 1.1192-1.4192l4.7039-4.2885c.123-.1115.2423-.2307.3576-.35l2.0385-2.123c1.273-.8731 2.6462-2.3424 4.8346-4.6808l1.2116-1.2539a7.6651 7.6651 0 0 0 3.0153-2.7654c1.1424-1.8346 1.4654-4.0615.8847-6.1423l-.1-.3577 1.0461-3.8076 1.1808-.35a7.8866 7.8866 0 0 0 .9423-.35l.3385-.077c2.9461-.673 5.1807-2.9923 5.8076-5.8654l5.1808-8.3923c.7808-.6538 1.4346-1.4615 1.9077-2.3769l1.8692-3.627 2.6654-1.5114a7.9445 7.9445 0 0 0 1.8808-.8039c.0115-.0077.7961-.477 1.4846-.877.3039-.0884.6-.2.8923-.3268l5.2039-2.2923c.7884-.3424 1.5077-.8193 2.1346-1.3962l14.5538-6.6885c2.6346-.35 4.8693-2.0307 5.9616-4.3846a7.7832 7.7832 0 0 0 1.2807-2.5077l.7654-2.5846 1.1423-.4923 5.2423-.65a7.6993 7.6993 0 0 0 3.4462-1.323l3.6-2.504 3.3461.1462a7.6688 7.6688 0 0 0 3.4039.7962c.2308 0 .4615-.0115.6923-.0346 1.5923-.1423 3.0846-.777 4.2885-1.7923l10.0269-4.4885c2.6807-1.2 4.4269-3.8115 4.5423-6.7077l.25-.477 2.3692-.6307a7.7358 7.7358 0 0 0 1.6-.6307l5.9654-1.25c1.677-.3539 3.1923-1.2539 4.2962-2.5654l1.8615-2.2c.15.0192.3.0384.4385.0577.4769.1692.973.2923 1.4769.3615l2.8846.4115 1.9615.2347a8.035 8.035 0 0 0 .9077.0538c1.127 0 2.2423-.25 3.2693-.7308 2.0961-.9807 8.073-3.7384 10.55-4.6923.5846-.223 1.1923-.4077 1.7884-.5961.6885-.2116 1.3692-.4308 2.0346-.6693 1.777-.6423 3.5154-1.2423 5.2577-1.8269.2962-.0961.7077-.2115 1.1154-.3308.3154-.0884.6346-.1807.9539-.2769l3.1961-.5923 3.673-.6115 2.1655-.1231a8.3671 8.3671 0 0 0 .5346-.05s1.3538-.177 1.8654-.25c.0961-.0154.1923-.0308.2846-.05.9654-.1423 3.227-.4962 5.3154-2.2808a3.6696 3.6696 0 0 0 .2269-.2c2.573-2.3807 2.8961-5.1577 3-6.073.0115-.0731.0423-.3231.0461-.4.0616-.7193.0924-1.0808.0924-2.1077 0-.9577-.1-1.6923-.1654-2.1808-.0116-.0923-.0308-.1846-.0385-.2923l-.1808-3.3616-.1653-3.2038c-.0231-.4962-.077-1.073-.1308-1.6462l-.0616-.7115c-.0538-.8346-.1-1.7461-.1423-2.6577-.0961-1.8923-.1923-3.7846-.373-5.6923-.3962-3.7961-.9154-7.4-1.4231-10.7461-.3-2.0231-.6808-4.0962-1.0539-6.1385l-.3615-2.0077-.427-2.277c-.3692-2.0115-.7307-3.973-1.1807-6.0538-1.673-7.8384-7.077-9.0115-10.15-9.0115m0 7.6923c1.6654 0 2.1539.6962 2.6308 2.9423.5961 2.7615 1.0307 5.3 1.5538 8.0615.4654 2.6154.9885 5.2962 1.3808 7.9462.523 3.4385 1.0115 6.8385 1.373 10.3038.254 2.7462.3308 5.4654.5 8.1924.054.7423.15 1.4769.1808 2.2115.1193 2.1885.2347 4.3808.35 6.577.0423.7845.1923 1.273.1923 2.0538 0 .7115-.023.9538-.0653 1.4461-.0616.4539-.05.977-.6039 1.4885-.5538.473-1.277.473-1.7346.5654-.4692.073-1.7115.2307-1.7115.2307l-2.577.15-4.2153.7039-3.627.6654c-.9038.2884-1.7654.5077-2.7.8038-1.8.6115-3.6 1.227-5.3961 1.8808-1.277.4577-2.6154.8038-3.9923 1.323-3.2731 1.2654-11.0539 4.9116-11.0539 4.9116l-1.7884-.2115-2.8847-.4077-.273-.2s-5.2346-.7193-5.3-.7193c-.0423.0346-1.827 1.7654-1.827 1.7654l-.373.0846-2.9616 3.4962-7.7038 1.6192-.273.3616-5.6193 1.5038-2.7577 5.25.0654 1.4692-11.4385 5.1193-.427.5269-.796-.6885-8.2155-.3577-5.7346 3.9885-6.3269.7885-5.4577 2.35-1.7884 6.0346-.6731.5077-.2116.9461-1.0307.1039-17.3 7.9461-.4423.623-5.2 2.2886h-.3308c-.1346 0-2.8808 1.6346-2.8808 1.6346l-.9577-.1462-.6384.7846-4.8116 2.7346-2.9154 5.6539-.6461.3-7.0885 11.477-.0307.8845-1.5654.3539-.2.2-5.2808 1.5692-2.7346 9.9808.673 2.4038-.6922.127-2.627 2.7115s-3.173 3.3884-3.2577 3.3884c-.0846.0193-.7115.3962-.7115.3962l-2.8346 2.9423-6.073 5.5462s.0345.3423 0 .4077c-.0616.0615-3.3847 3.1384-3.3847 3.1384l-.3692.0116s-2.7462 2.8038-4.2885 4.323l-9.65 15.55-23.5461 2.327-10.6193 5.4307-14.473-3.65-1.7885 1.1462-.1885-.0193-3.9884 2.1924s-2.1962-1.4731-2.2577-1.5039h-.8539l-.5192-.6192-.723.0307-9.5347-3.6961s-.5423.0808-.573.0808c-.0655 0-.127-.277-.127-.277s-5.727-1.7692-5.7462-1.7961c-.0346-.0346-4.6615-1.573-4.7038-1.6-.0308-.0385-.923-.0885-1.0654-.15-.1692-.05-.2115-.6385-.2115-.6385l-7.8-8.4577-4.7654-6.1307-5.5539-8.4923-7.5346-10.4308.5308-1.7808 5.5462-4.777 16.8769-1.5422-.4077-1.0385 10.2154-24.7692-.1385-.7462 16.5462-12.8769 1-.1923 10.6077-8.1961-.1077-.3731 1.8.1961 3.023-1.2769 2.8808.127 5.0846-1.027 8.5154-9.2077 8.5846.523 1.8423-.6422 8.6154 1.0192s19.1346-10.6308 19.2192-10.6615c.0424-.0385.2847-.577.2847-.577l.9077.05 11.6576-2.0269.3077-.3923 3.9077-.0654 14.2039-16.1884.4384-.1.1154-.7039 11.15-12.15-.05-.4269 2.2308-2.5154 12.8961.8808.6924.5538 2.6307-2.2384 2.6693-.3154 6.7346-3.9577 1.3077.0385 12.6423-9.75 13.85-1.8308.3-.7192 5.3846-5.0039.9577-.0961 6.8077-5.0231.0115-.4077 2.523.8154 23.1193.623 16.0116-5.5807c5.5769-.6692 10.8346-.9616 16.4192-1.6808 1.0615-.1308 2.5538-.2961 3.6077-.5115.2423-.0462.4884-.077.7115-.1116.573-.0692 1.05-.1115 1.4577-.1115" fill="#FFF"/><path d="M245.0308 445.2846l-2.4039-.0961-4.973-.0808-4.5039-.2154-6.5308-.5346c-4.4923-.4962-7.3884-.8115-7.3884-4.4039 0-.7269.2038-1.4423.5923-2.0576l1.173-1.85a3.9104 3.9104 0 0 1 1.2924-1.2539l9.8846-5.85a3.8682 3.8682 0 0 1 1.8846-.5385l4.25-2.5115c.0577-.4154.1846-1.3654.2923-2.1654-.3654-.7807-.4654-1.6615-.2692-2.5115.2346-1.0154.873-1.9 1.773-2.4385 4.65-2.7769 7.1616-4.2846 8.6347-5.1 1.4423-2.0154 6.0884-8.5769 7.7423-10.9154.0846-.523.2692-1.0269.5615-1.4769l2.5346-3.977a3.8234 3.8234 0 0 1 1.4693-1.3422l8.673-13.7385c-.0269-.7654.1693-1.5346.5923-2.2038l.8154-5.5077c-.1192-.6192-.0846-1.2616.1077-1.8616l2.6577-8.5115c.1115-.3461.2692-.673.4654-.9808l1.8423-8.3577c.3885-1.7653 1.95-3.023 3.7577-3.023h.8615l6.9539-3.327a3.8024 3.8024 0 0 1-.0039-2.023l7.2654-26.8577a3.7912 3.7912 0 0 1 1.0539-1.7731l1.0115-.9654 1.6962-6.7692c.2-.7885.6423-1.5 1.2653-2.0192l2.827-2.3577c.4769-.3962 1.0384-.6731 1.6346-.8039l17.0154-10.9423.8692-1.427a3.8406 3.8406 0 0 1 1.8115-2.7615l2.9154-5.1153a3.873 3.873 0 0 1 .8462-1.9193c.2154-1.4115 1.1961-2.6154 2.6-3.0769l8.1461-2.6961c.55-.3577 1.1731-.5962 1.7846-.6347l1.2193-.073 4-4.2539a3.9139 3.9139 0 0 1 1.0846-.8077c3.4038-1.6923 10.877-5.3346 11.6654-5.7154 1.3115-.6192 2.6923-1.1538 4.0654-1.6769 1-.3808 1.9961-.7615 2.9384-1.1808 2.0039-.8884 4.0462-1.473 6.0154-2.0346l.9885-.2884c1.4653-.4077 2.9038-.7346 4.3461-1.0616l1.85-.423c.277-.1077.8692-.2039 1.477-.2808l3.2846-.5116c.0807-.0115 2.4884-.3115 2.9961-.3115 1.7039 0 3.3077.6885 4.3923 1.8962 1.5077 1.5961 1.4154 3.7615 1.373 4.6884l-.0922 2.8193c-.1308 3.2615-.2808 6.5-.5539 9.7115-.15 1.8038-.4077 3.5961-.6769 5.3846l-.5115 3.573c-.3923 2.7232-.7846 5.454-1.2193 8.177-.473 3.1615-1.0153 6.3346-1.5615 9.5308l-.1885 1.0769c-.1.65-.2307 1.5154-.5769 2.4154-.9384 2.477-1.5307 5.0961-2.1538 7.873-.35 1.5578-.7 3.1154-1.1116 4.6578-1.8153 6.8846-3.55 12.4346-5.4615 17.4615-1.65 4.2846-3.427 8.5154-5.2115 12.75l-1.2539 2.977c-1.3154 3.1538-2.9961 6.1076-4.6192 8.9576l-.3077.5462c-1.5462 2.6807-2.9923 5.3807-4.4385 8.0769l-1.2961 2.4115c-1.3731 2.5846-3.0116 4.9808-4.5923 7.3a191.583 191.583 0 0 0-1.7039 2.5116l-1.0269 1.5807c-1.223 1.877-2.4462 3.7577-3.7385 5.5962-1 1.427-2.1846 2.8384-3.4384 4.0923-.4.4038-.8308.8038-1.2654 1.2115-.8692.8154-1.6962 1.5846-2.1808 2.3577-.6384.9885-1.3269 1.7116-1.9346 2.3462l-.823.8384c-.554.5423-1.077 1.0539-1.2308 1.4347-.3808.9615-1.0385 1.5923-1.3885 1.9307l-4.8923 4.8885c-1.677 1.65-3.3308 3.2615-5.0154 4.8654-4.5308 4.2961-9.4846 8.05-14.277 11.6846l-1.6615 1.2615c-3.3769 2.527-10.3192 6.2-10.6115 6.3539l-2.9 1.6654c-.1654.0923-.3346.1807-.5115.2461l-8.5962 3.4039-7.077 2.0807-6.2768 1.7154-8.5731 1.523-14.027 1.6924s-4.2345.127-4.2692.127c-.0307 0-3.9307-.1-3.9307-.1" fill="#CE1141"/><path d="M386.6073 254.6123c-.3461 0-.927 0-3.427.3346l-3.4.5308c-.4768.0577-1.1807.1577-1.996.3808l-1.554.3577c-1.5345.3461-3.0576.6961-4.5653 1.1153l-1.0346.2962c-2.0077.5808-4.2808 1.2308-6.527 2.2192-.9.4039-1.8269.7539-2.7576 1.1077-1.4077.5385-2.8539 1.0923-4.3308 1.7923-.8308.4-8.3346 4.0616-11.75 5.7616a7.6848 7.6848 0 0 0-2.1692 1.6115l-2.9616 3.1462c-1.1115.1115-2.1692.4653-3.1154 1.0153l-7.4807 2.4731c-2.4577.8116-4.277 2.7692-4.9731 5.1423-.4077.6616-.7115 1.3808-.9077 2.1308l-2.2038 3.873a7.7085 7.7085 0 0 0-2.5077 3.9424l-.0654.1115-15.7885 10.1577c-.9038.3-1.75.7654-2.4961 1.3846l-2.8308 2.3577a7.7413 7.7413 0 0 0-2.5385 4.0385l-1.4269 5.6961-.2115.2039c-1.0077.9692-1.7385 2.1961-2.1 3.5423l-7.2693 26.8577c-.0538.2-.0961.4038-.1346.6115l-3.973 1.9c-3.6077.0039-6.7231 2.5116-7.5039 6.0346l-1.7154 7.7962a7.1873 7.1873 0 0 0-.5038 1.2308l-2.6616 8.5076c-.3038.9693-.4115 1.9808-.3192 2.9808l-.6385 4.3116c-.3307.7038-.5538 1.4461-.6576 2.2076l-7.6962 12.1808a7.7124 7.7124 0 0 0-1.9192 2.0577l-2.5308 3.973a7.6426 7.6426 0 0 0-.8846 1.9232c-1.7192 2.4307-5.177 7.3153-6.8192 9.623-1.7231.9808-4.2039 2.4616-7.9693 4.7154-1.7923 1.077-3.073 2.8346-3.5423 4.8731a7.6872 7.6872 0 0 0-.0384 3.2962l-1.727 1.023a7.6578 7.6578 0 0 0-2.6077.9616l-9.8846 5.8538a7.71 7.71 0 0 0-2.5846 2.5077l-1.1692 1.85c-.777 1.2308-1.1923 2.6577-1.1923 4.1115 0 7.0347 6.7115 7.7731 10.7154 8.2116.0692.0077.1384.0154.2115.023l6.3923.527a5.96 5.96 0 0 0 .2615.0154l4.3808.2154c.0846.0038.1692.0076.2539.0076l4.9692.077 2.2538.0884 3.9423.1077c.0654.0039.1347.0039.2.0039.0693 0 .1385 0 .2077-.0039l3.8077-.1038a6.3878 6.3878 0 0 0 .7154-.05l13.8192-1.6654c.1385-.0154.2731-.0385.4116-.0577l8.223-1.4423c.2347-.0423.4654-.0962.7-.1577l6.2116-1.6962 6.8615-1.9961c.2308-.0692.4539-.15.6808-.2346l8.5962-3.4077a7.7668 7.7668 0 0 0 1.0192-.4923l.6154-.3539 2.273-1.2961c1.1616-.6193 7.5808-4.0577 10.9808-6.6l1.7154-1.3039c4.8692-3.6923 9.9038-7.5115 14.5846-11.9461 1.7116-1.627 3.377-3.2539 5.05-4.9l2.0962-2.0962c.8654-.8654 1.7269-1.7346 2.6038-2.5961.0577-.0539.1116-.1116.1654-.1693.4962-.4769 1.4462-1.4077 2.1308-2.8846.1654-.173.3461-.3384.523-.5077l.4039-.4c.0692-.0692.1423-.1423.2115-.2154l.3231-.3384c.6423-.6808 1.527-1.6116 2.327-2.8462.2845-.45.9922-1.1115 1.6153-1.6923.4692-.4346.9346-.873 1.377-1.323 1.3846-1.3808 2.7153-2.9693 3.846-4.577 1.327-1.8923 2.577-3.8154 3.8309-5.7384l1.0153-1.5577a181.8307 181.8307 0 0 1 1.6424-2.4231c1.6461-2.4115 3.3461-4.9 4.8346-7.6962l1.223-2.2807c1.4962-2.7923 2.9116-5.4308 4.4231-8.05l.3154-.5616c1.6885-2.9615 3.4308-6.023 4.8462-9.4154l1.1807-2.8038c1.7846-4.2308 3.627-8.6038 5.3193-13 1.9577-5.1654 3.7346-10.8423 5.5961-17.8885.4192-1.5692.7808-3.173 1.1423-4.7769.5923-2.6423 1.15-5.1384 1.9962-7.3654.4884-1.2769.6692-2.4384.7846-3.2077l.123-.723c.5693-3.3116 1.1308-6.5962 1.6308-9.9116.4462-2.773.8539-5.6192 1.2577-8.4654l.2308-1.6.2423-1.6423c.2654-1.8038.5385-3.673.7039-5.6423.2807-3.3423.4346-6.7115.5653-9.8538l.0385-1.0116.0462-1.6807c.0576-1.2808.2192-4.8346-2.4693-7.6923-1.6961-1.8885-4.3346-3.0462-7.1346-3.0462m0 7.6923c.4039 0 1.0615.1 1.5308.623.5115.5424.4077 1.55.3846 2.1616-.023.6039-.0423 1.6-.0423 1.6s-.0308.7077-.0423 1.0462c-.1308 3.177-.277 6.3615-.5423 9.5192-.1923 2.2923-.5731 4.5616-.8923 6.8346-.4808 3.3346-.95 6.677-1.4808 10.0154-.5308 3.5308-1.1385 7.0308-1.7423 10.5654-.0885.55-.173 1.1462-.3846 1.6962-1.5885 4.1846-2.2346 8.6-3.3846 12.9076-1.5193 5.7693-3.2154 11.4962-5.3424 17.0847-2.0115 5.2346-4.2346 10.4077-6.4115 15.6077-1.3115 3.1346-3.0461 6.1307-4.727 9.0884-2.0115 3.4846-3.873 7.0346-5.7768 10.5654-1.7693 3.3192-4.0347 6.3615-6.1193 9.5154-1.5538 2.377-3.0769 4.7654-4.7038 7.0884-.8808 1.2539-1.9116 2.4885-3.0116 3.5808-1.3615 1.373-2.9461 2.5885-3.9884 4.25-.5116.7885-1.1923 1.4423-1.8308 2.127-.9346.9307-1.9346 1.8-2.4577 3.0769-.1269.323-.4884.5846-.7423.8692-1.577 1.5538-3.1192 3.1192-4.6846 4.673-1.65 1.6193-3.2885 3.2193-4.9577 4.8078-4.8846 4.6307-10.2885 8.623-15.6192 12.673-3.15 2.3616-10.077 6.0193-10.077 6.0193l-2.4153 1.3769-.6154.3577-8.5962 3.4038-6.7384 1.9616-6.2116 1.7-8.2269 1.4423-13.8192 1.6615-3.8116.1039-3.8307-.1039-2.35-.0923-5.0654-.0808-4.3846-.2115-6.3923-.5308s-3.8654-.423-3.8654-.5654l1.173-1.8538 9.8847-5.85.7115.1577 6.7462-3.9885 1.3192-.4115-.8192-1.3846s.5-3.6616.5-3.7654l-.5116-.7808s9.2116-5.5115 9.3231-5.5115c.023 0 8.8115-12.4154 8.8115-12.4154l.0693-.8 2.5346-3.973.7692-.2308 10.35-16.3885-.373-.6885.4076-.5038 1.0808-7.3077-.1462-.4615 2.6577-8.5039.3308-.2961 2.0615-9.3693h1.7385l10.7577-5.15-.9692-3.0461 7.2654-26.8539 1.8115-1.7346 1.9692-7.8461 2.827-2.3577.3961.0307 18.6077-11.9692c.9385-1.5385 1.777-2.9077 1.777-2.9077l.0845-.7577.5731-.0308 4.1385-7.2615.0115-.5692.9192-.9-.0769-.9846 8.8077-2.9116.15-.2269 2.7154-.1654.577.2616.1576-1.0116 4.3423-4.6115c3.3808-1.6885 10.8192-5.3154 11.6077-5.6923 2.2115-1.05 4.6923-1.8308 6.9039-2.8154 2.073-.9154 4.3307-1.5039 6.5192-2.1423 1.9808-.5539 3.9923-.9616 6.0038-1.4385.3616-.1192.7346-.1615 1.1193-.2115l3.35-.5231s1.9923-.2654 2.4038-.2654" fill="#FFF"/></g></g></svg>